<svg width="414" height="337" viewBox="0 0 414 337" fill="none" xmlns="http://www.w3.org/2000/svg">
<path d="M66.5835 304L-9 337H421L347.498 304H66.5835Z" fill="white"/>
<path d="M180.48 242.64L166.2 265.84L193.59 298.37H221.21L246.96 265.29L231.02 242.64H180.48Z" fill="#E2D3E1"/>
<path d="M166.2 265.84C166.2 265.84 104.77 270.59 89.3599 286.68C73.9499 302.77 81.1999 320.24 96.2099 320.24C123.84 320.24 182.3 321.93 209.96 320.24L211.61 282.57L166.2 265.84Z" fill="#E2D3E1"/>
<path d="M245.37 265.04C245.37 265.04 309.7 270.59 325.11 286.68C340.52 302.77 331.64 313.43 318.26 320.24C299.43 329.83 231.56 328.24 196.36 316.59L202.87 282.57L245.37 265.04Z" fill="#E2D3E1"/>
<path d="M248.2 296.64L243.85 285.4L249.27 282.99C249.27 282.99 248.52 276.34 255.15 275.06C261.78 273.78 269.68 278.06 277.38 274.61C284.48 271.43 293.17 268.5 301.28 272.9C302.48 273.55 303.04 274.98 302.63 276.28L302.6 276.38C302.19 277.69 300.91 278.5 299.54 278.36C296.68 278.07 291.58 278.13 286.54 281.18C277.85 286.46 248.2 296.64 248.2 296.64Z" fill="#FEBBA0"/>
<path d="M298.81 297.28C298.81 297.28 255.88 289.65 165.45 288.47L156.72 300.31C156.72 300.31 179.22 313.17 200.34 317.82C221.46 322.47 294.37 337.11 326.93 314.56L298.81 297.28Z" fill="#E2D3E1"/>
<path d="M200.34 317.83C178.69 312.83 156.04 300.01 156.04 300.01L157.39 297.72" stroke="#6E758F" stroke-width="1.5925" stroke-miterlimit="10" stroke-linecap="round"/>
<path d="M165.45 288.47C165.45 288.47 264.8 286.2 291.31 301.58" stroke="#6E758F" stroke-width="1.5925" stroke-miterlimit="10" stroke-linecap="round"/>
<path d="M116.68 294.91C116.68 294.91 134.82 286.41 147.22 291.98" stroke="#6E758F" stroke-width="1.5925" stroke-miterlimit="10" stroke-linecap="round"/>
<path d="M158.81 298.35L165.44 288.25L158.81 284.66C158.81 284.66 156.49 278.85 149.99 277.05C143.48 275.26 138.85 278.15 131.44 274.11C124.61 270.38 116.17 266.79 107.75 270.54C106.51 271.09 105.83 272.47 106.14 273.8L106.16 273.9C106.47 275.24 107.68 276.14 109.05 276.11C111.92 276.04 117.01 276.5 121.79 279.94C130.04 285.88 158.81 298.35 158.81 298.35Z" fill="#FEBBA0"/>
<path d="M215.89 288.83L243.05 286.16" stroke="#6E758F" stroke-width="1.5925" stroke-miterlimit="10" stroke-linecap="round"/>
<path d="M181.35 277.06L196.5 288.03" stroke="#6E758F" stroke-width="1.5925" stroke-miterlimit="10" stroke-linecap="round"/>
<path d="M177.44 127.77C178.08 134.03 183.53 138.59 189.61 137.97C195.69 137.35 200.1 131.77 199.46 125.52C198.82 119.26 193.37 114.7 187.29 115.32C181.22 115.93 176.81 121.51 177.44 127.77Z" fill="#FFF501"/>
<path d="M200.15 132.32C200.15 132.32 180.83 129.4 177.79 111.17C175.11 95.0602 185.92 82.1502 197.77 79.9202C197.78 79.9202 226.25 123.8 200.15 132.32Z" fill="#FFF501"/>
<path d="M200.59 81.6502C199.17 82.3502 197.82 83.2702 196.59 84.4602C185.58 95.0502 192.55 115.61 202.41 124.89C207.87 130.02 215.85 132.41 222.82 129.79C233.01 125.96 236.2 114.42 234.13 104.14C232.59 96.4802 228.34 89.2502 222.07 84.7502C215.8 80.2602 207.33 78.3602 200.59 81.6502Z" fill="#FDBCA0"/>
<path d="M198.76 118.69C196.83 120.6 193.47 121.38 190.89 120.47C188.31 119.56 186.19 117.13 185.52 114.31C184.92 111.78 185.57 108.9 187.43 107.35C189.29 105.8 192.64 105.9 194.23 107.91L198.76 118.69Z" fill="#FDBCA0"/>
<path d="M195.94 111.97L197.97 148.31C198.24 155.03 203.69 160.37 210.41 160.5C218.17 160.66 224.26 153.88 223.27 146.18L219.17 112.44L195.94 111.97Z" fill="#FDBCA0"/>
<path d="M221.93 135.22L221.42 130.24C221.42 130.24 211.42 133.31 202.41 124.88C202.41 124.89 207.6 134.36 221.93 135.22Z" fill="#DF8370"/>
<path d="M191.97 106.48C204.99 105.81 216.87 97.0702 223.43 85.8102C223.43 85.8102 211.45 74.4402 193.94 81.0902C179.43 86.5902 191.97 106.48 191.97 106.48Z" fill="#FFF501"/>
<path d="M193.4 114.84C191.9 114.99 190.59 114.18 190.47 113.03C190.38 112.16 190.99 111.35 191.93 110.93" stroke="#444359" stroke-width="1.1144" stroke-miterlimit="10" stroke-linecap="round"/>
<path d="M224.68 112C224.98 111.09 225.5 110.37 226.08 109.69L226.36 110.57C225.7 110.32 225.34 109.94 224.97 109.57C224.62 109.18 224.31 108.79 224.03 108.37C223.47 107.54 223 106.66 222.66 105.73C223.36 106.44 224 107.17 224.67 107.87C225.01 108.21 225.33 108.56 225.68 108.86C226.01 109.15 226.4 109.45 226.67 109.52L227.48 109.71L226.95 110.4C226.41 111.11 225.81 111.77 224.98 112.25C224.88 112.31 224.76 112.27 224.7 112.18C224.67 112.11 224.67 112.05 224.68 112Z" fill="#444359"/>
<path d="M227.61 115.18C227.21 116 226.53 116.71 225.65 117.14C224.78 117.59 223.7 117.68 222.74 117.4C221.76 117.13 221 116.49 220.35 115.83C220.06 115.47 219.77 115.1 219.53 114.72C219.32 114.31 219.1 113.91 218.94 113.49C219.31 113.77 219.63 114.07 219.95 114.37L220.94 115.19C221.64 115.65 222.3 116.15 223.06 116.33C223.79 116.56 224.57 116.55 225.34 116.34C226.1 116.12 226.86 115.69 227.61 115.18Z" fill="#444359"/>
<path d="M217.14 102.11C217.53 103.27 217.75 104.47 217.67 105.76C217.62 106.39 217.47 107.08 217 107.69C216.52 108.31 215.71 108.58 215 108.56C214.27 108.55 213.55 108.23 213.06 107.78C212.55 107.33 212.15 106.81 211.85 106.26C211.25 105.15 210.87 103.99 210.68 102.77C210.65 102.58 210.78 102.4 210.97 102.36C211.15 102.33 211.31 102.44 211.36 102.6L211.37 102.62C211.71 103.7 212.16 104.79 212.74 105.73C213.32 106.64 214.11 107.48 215.04 107.45C215.5 107.47 215.93 107.35 216.19 107.02C216.48 106.7 216.62 106.18 216.7 105.65C216.85 104.58 216.75 103.4 216.57 102.27V102.25C216.54 102.09 216.66 101.93 216.82 101.91C216.95 101.89 217.09 101.98 217.14 102.11Z" fill="#444359"/>
<path d="M231.66 99.8402C231.99 100.82 232.17 101.82 232.15 102.89C232.14 103.42 232.04 104 231.7 104.55C231.37 105.13 230.63 105.49 229.99 105.46C229.32 105.45 228.71 105.1 228.32 104.69C227.92 104.27 227.61 103.82 227.38 103.34C226.93 102.38 226.65 101.4 226.51 100.37C226.48 100.18 226.62 100 226.82 99.9702C226.99 99.9502 227.15 100.05 227.2 100.21L227.21 100.23C227.5 101.13 227.85 102.05 228.3 102.85C228.75 103.63 229.36 104.38 230.03 104.34C230.37 104.35 230.64 104.25 230.82 103.97C231.02 103.69 231.12 103.26 231.18 102.81C231.28 101.91 231.2 100.92 231.09 99.9802V99.9602C231.07 99.8002 231.19 99.6502 231.35 99.6202C231.48 99.6202 231.62 99.7102 231.66 99.8402Z" fill="#444359"/>
<path d="M242.46 151.61C242.37 145.51 222.59 140.63 222.59 140.63C221.35 142 219.22 144.31 210.25 144.31C201.67 144.31 198.24 142.09 196.9 140.63H188.41C186.52 140.63 184.79 141.71 184 143.43C166.99 180.64 176.55 222.2 180.47 242.63C180.83 244.51 216.33 243.24 232.34 244.51C235.8 244.8 242.8 173.78 242.46 151.61Z" fill="#A3BAC3"/>
<path d="M201.15 204.23C202.91 190.01 205.06 181.48 206.71 184.28C208.17 186.76 207.36 199.2 205.17 211.2C205.18 211.2 200.4 210.32 201.15 204.23Z" fill="#FEBBA0"/>
<path d="M212.77 204.23C211.01 190.01 208.86 181.48 207.21 184.28C205.75 186.76 206.56 199.2 208.75 211.2C208.74 211.2 213.52 210.32 212.77 204.23Z" fill="#FEBBA0"/>
<path d="M271.39 200.7H249.04L252.59 223.4L212.03 203.61C211.89 202.09 211.7 200.21 211.47 198.22C209.94 198.22 208.4 198.22 206.87 198.2C206.88 199.93 206.91 201.1 206.91 201.1C206.91 201.1 206.12 211.54 207.93 215.02C211.37 221.64 246.56 242.96 256.33 245.49C256.94 245.65 257.55 245.77 258.16 245.85C267.59 247.18 273.84 241.89 273.77 232.37L271.39 200.7Z" fill="#FEBBA0"/>
<path d="M202.05 198.12C201.7 200.36 201.39 202.52 201.15 204.23L161.76 222.47L163.42 200.71H141.07L138.7 232.4C138.64 241.92 144.89 247.2 154.31 245.88C154.92 245.79 155.53 245.67 156.14 245.52C165.91 242.99 198.64 225.3 205.63 214.98C207.7 211.93 206.72 201.66 206.72 201.66C206.72 201.66 206.72 200.24 206.68 198.22C205.14 198.19 203.6 198.16 202.05 198.12Z" fill="#FEBBA0"/>
<path d="M169.14 213.12C177.88 187.27 177.81 187.25 188.54 140.64C181.36 141.13 180.62 139.96 174.96 142.9C157.98 151.72 141.99 180.69 137.28 213.12H169.14Z" fill="#A3BAC3"/>
<path d="M246.96 210.57C241.82 192.26 222.59 140.64 222.59 140.64C241.82 139.99 268.06 165.06 274.34 207.22L246.96 210.57Z" fill="#A3BAC3"/>
<path d="M242.47 170.14L238.42 203.42" stroke="#A3BAC3" stroke-width="1.5925" stroke-miterlimit="10" stroke-linecap="round"/>
<path d="M172.82 175.6L176.04 211.2" stroke="#A3BAC3" stroke-width="1.5925" stroke-miterlimit="10" stroke-linecap="round"/>
<circle cx="3" cy="3" r="3" transform="matrix(1 0 0 -1 27 34)" fill="white"/>
<circle cx="39" cy="45" r="6" fill="white"/>
<path d="M7.75573 67.7874C-13.2717 61.8992 -10.2054 79.5638 -5.8247 79.5638C-4.0249 79.5638 -0.294134 80 4.25144 80H18.0509C35.5738 80 40.6117 78.8369 40.831 78.4734C42.3643 66.9151 33.0916 68.0055 28.1267 69.314C28.9299 65.025 28.0828 56.3599 18.2696 56.011C8.45638 55.662 7.17151 63.7165 7.75573 67.7874Z" fill="white"/>
<path d="M330.248 27.0252C282.249 13.5251 289.248 54.0252 299.248 54.0252C303.357 54.0252 311.873 55.0251 322.249 55.0251H353.749C393.748 55.0251 405.249 52.3585 405.749 51.5251C409.249 25.0251 388.082 27.5251 376.749 30.5251C378.582 20.6918 376.649 0.825174 354.248 0.0251737C331.848 -0.774826 328.915 17.6918 330.248 27.0252Z" fill="white"/>
</svg>
