<svg width="17" height="24" viewBox="0 0 17 24" fill="none" xmlns="http://www.w3.org/2000/svg">
<path d="M3.73246 12L16.5469 21.9491C16.837 22.1744 17 22.48 17 22.7986C17 23.1173 16.837 23.4228 16.5469 23.6481C16.2568 23.8734 15.8633 24 15.453 24C15.0427 24 14.6493 23.8734 14.3591 23.6481L0.453909 12.8495C0.310026 12.738 0.195871 12.6056 0.117982 12.4599C0.040093 12.3141 0 12.1578 0 12C0 11.8422 0.040093 11.6859 0.117982 11.5401C0.195871 11.3944 0.310026 11.262 0.453909 11.1505L14.3591 0.351871C14.6493 0.126572 15.0427 0 15.453 0C15.8633 0 16.2568 0.126572 16.5469 0.351871C16.837 0.577171 17 0.882743 17 1.20136C17 1.51999 16.837 1.82556 16.5469 2.05086L3.73246 12Z" fill="#FFBB98"/>
</svg>
