<svg width="15" height="23" viewBox="0 0 15 23" fill="none" xmlns="http://www.w3.org/2000/svg">
<path d="M3.29334 11.5L14.6002 21.0346C14.8562 21.2505 15 21.5433 15 21.8487C15 22.154 14.8562 22.4469 14.6002 22.6628C14.3442 22.8787 13.997 23 13.635 23C13.273 23 12.9258 22.8787 12.6698 22.6628L0.400508 12.3141C0.273553 12.2073 0.172828 12.0804 0.104102 11.9407C0.0353762 11.801 0 11.6512 0 11.5C0 11.3488 0.0353762 11.199 0.104102 11.0593C0.172828 10.9196 0.273553 10.7927 0.400508 10.6859L12.6698 0.33721C12.9258 0.121298 13.273 0 13.635 0C13.997 0 14.3442 0.121298 14.6002 0.33721C14.8562 0.553122 15 0.845962 15 1.15131C15 1.45665 14.8562 1.74949 14.6002 1.9654L3.29334 11.5Z" fill="#4AA5A2"/>
</svg>
