<svg width="107" height="87" viewBox="0 0 107 87" fill="none" xmlns="http://www.w3.org/2000/svg">
<path d="M20.6714 63.4183C19.7967 63.4183 19.0854 62.7055 19.0854 61.8319L19.0854 44.1594C19.0854 43.4011 18.471 42.7853 17.7143 42.7853C16.9577 42.7853 16.3433 43.4011 16.3433 44.1594L16.3433 57.3516C16.3433 58.1281 15.7137 58.7591 14.9389 58.7591C14.1641 58.7591 13.5346 58.1281 13.5346 57.3516L13.5346 50.0684C13.5346 49.5073 13.0806 49.0522 12.5206 49.0522C11.9607 49.0522 11.5067 49.5073 11.5067 50.0684V52.7772H9.27307V52.4739H11.2041V50.0684C11.2041 49.3404 11.7943 48.7489 12.5206 48.7489C13.247 48.7489 13.8372 49.3404 13.8372 50.0684L13.8372 57.3516C13.8372 57.9613 14.3306 58.4557 14.9389 58.4557C15.5473 58.4557 16.0406 57.9613 16.0406 57.3516L16.0406 44.1594C16.0406 43.2342 16.7912 42.482 17.7143 42.482C18.6375 42.482 19.3881 43.2342 19.3881 44.1594L19.3881 61.8319C19.3881 62.5386 19.9631 63.115 20.6714 63.115C21.3766 63.115 21.9516 62.5386 21.9516 61.8319L21.9516 40.2706C21.9516 39.1483 22.8626 38.2352 23.9825 38.2352C25.1023 38.2352 26.0134 39.1483 26.0134 40.2706L26.0134 61.7318C26.0134 62.4901 26.6278 63.1059 27.3844 63.1059C28.1411 63.1059 28.7555 62.4901 28.7555 61.7318L28.7555 44.6296C28.7555 43.5558 29.6271 42.6822 30.6986 42.6822C31.77 42.6822 32.6417 43.5558 32.6417 44.6296V57.2454C32.6417 57.9036 33.1774 58.4405 33.8342 58.4405C34.4909 58.4405 35.0266 57.9036 35.0266 57.2454V50.3869C35.0266 49.5952 35.6683 48.9521 36.4582 48.9521C37.2482 48.9521 37.8929 49.5952 37.8929 50.3869V52.4709H40.1265V52.7742H37.5902V50.3869C37.5902 49.7621 37.0817 49.2555 36.4582 49.2555C35.8348 49.2555 35.3293 49.7651 35.3293 50.3869V57.2454C35.3293 58.0705 34.6574 58.7439 33.8342 58.7439C33.0109 58.7439 32.339 58.0705 32.339 57.2454V44.6296C32.339 43.7226 31.6035 42.9855 30.6986 42.9855C29.7936 42.9855 29.0581 43.7226 29.0581 44.6296L29.0581 61.7318C29.0581 62.6569 28.3075 63.4092 27.3844 63.4092C26.4613 63.4092 25.7107 62.6569 25.7107 61.7318L25.7107 40.2706C25.7107 39.3151 24.9359 38.5386 23.9825 38.5386C23.0291 38.5386 22.2543 39.3151 22.2543 40.2706L22.2543 61.8319C22.2573 62.7055 21.546 63.4183 20.6714 63.4183Z" fill="#FEDEA5"/>
<path d="M49.8783 63.4173C49.0036 63.4173 48.2923 62.7045 48.2923 61.8308L48.2923 44.1584C48.2923 43.4 47.6779 42.7843 46.9212 42.7843C46.1646 42.7843 45.5502 43.4 45.5502 44.1584L45.5502 57.3505C45.5502 58.1271 44.9206 58.758 44.1458 58.758C43.371 58.758 42.7415 58.1271 42.7415 57.3505L42.7415 50.0674C42.7415 49.5062 42.2875 49.0512 41.7275 49.0512C41.1676 49.0512 40.7136 49.5062 40.7136 50.0674L40.7136 52.7762H38.48V52.4729H40.411L40.411 50.0674C40.411 49.3394 41.0012 48.7479 41.7275 48.7479C42.4539 48.7479 43.0441 49.3394 43.0441 50.0674L43.0441 57.3505C43.0441 57.9603 43.5375 58.4547 44.1458 58.4547C44.7542 58.4547 45.2475 57.9603 45.2475 57.3505L45.2475 44.1584C45.2475 43.2332 45.9981 42.4809 46.9212 42.4809C47.8444 42.4809 48.595 43.2332 48.595 44.1584L48.595 61.8308C48.595 62.5376 49.17 63.114 49.8783 63.114C50.5835 63.114 51.1585 62.5376 51.1585 61.8308L51.1585 40.2696C51.1585 39.1473 52.0695 38.2342 53.1894 38.2342C54.3092 38.2342 55.2203 39.1473 55.2203 40.2696L55.2203 61.7307C55.2203 62.4891 55.8347 63.1049 56.5913 63.1049C57.348 63.1049 57.9624 62.4891 57.9624 61.7307L57.9624 44.6286C57.9624 43.5547 58.834 42.6811 59.9055 42.6811C60.9769 42.6811 61.8486 43.5547 61.8486 44.6286V57.2444C61.8486 57.9026 62.3843 58.4395 63.0411 58.4395C63.6978 58.4395 64.2335 57.9026 64.2335 57.2444V50.3859C64.2335 49.5942 64.8752 48.9511 65.6682 48.9511C66.4581 48.9511 67.0998 49.5942 67.0998 50.3859V52.4698H69.3334V52.7732H66.7971V50.3859C66.7971 49.761 66.2917 49.2545 65.6682 49.2545C65.0447 49.2545 64.5362 49.7641 64.5362 50.3859V57.2444C64.5362 58.0695 63.8643 58.7429 63.0411 58.7429C62.2178 58.7429 61.5459 58.0695 61.5459 57.2444V44.6286C61.5459 43.7216 60.8104 42.9845 59.9055 42.9845C59.0005 42.9845 58.265 43.7216 58.265 44.6286L58.265 61.7307C58.265 62.6559 57.5144 63.4082 56.5913 63.4082C55.6682 63.4082 54.9176 62.6559 54.9176 61.7307L54.9176 40.2696C54.9176 39.3141 54.1428 38.5375 53.1894 38.5375C52.236 38.5375 51.4612 39.3141 51.4612 40.2696L51.4612 61.8308C51.4642 62.7045 50.753 63.4173 49.8783 63.4173Z" fill="#FEDEA5"/>
<path d="M79.0851 63.4176C78.2104 63.4176 77.4992 62.7048 77.4992 61.8311V44.1587C77.4992 43.4004 76.8848 42.7846 76.1281 42.7846C75.3714 42.7846 74.757 43.4004 74.757 44.1587V57.3508C74.757 58.1274 74.1275 58.7583 73.3527 58.7583C72.5779 58.7583 71.9483 58.1274 71.9483 57.3508V50.0677C71.9483 49.5065 71.4943 49.0515 70.9344 49.0515C70.3745 49.0515 69.9205 49.5065 69.9205 50.0677V52.7765H67.6868V52.4732H69.6178V50.0677C69.6178 49.3397 70.208 48.7482 70.9344 48.7482C71.6608 48.7482 72.251 49.3397 72.251 50.0677V57.3508C72.251 57.9606 72.7443 58.455 73.3527 58.455C73.961 58.455 74.4544 57.9606 74.4544 57.3508V44.1587C74.4544 43.2335 75.205 42.4812 76.1281 42.4812C77.0512 42.4812 77.8018 43.2335 77.8018 44.1587V61.8311C77.8018 62.5379 78.3769 63.1143 79.0851 63.1143C79.7933 63.1143 80.3654 62.5379 80.3654 61.8311V40.2699C80.3654 39.1476 81.2764 38.2345 82.3962 38.2345C83.5161 38.2345 84.4271 39.1476 84.4271 40.2699V61.731C84.4271 62.4894 85.0415 63.1052 85.7982 63.1052C86.5548 63.1052 87.1692 62.4894 87.1692 61.731V44.6289C87.1692 43.5551 88.0409 42.6814 89.1123 42.6814C90.1838 42.6814 91.0554 43.5551 91.0554 44.6289V57.2447C91.0554 57.9029 91.5911 58.4398 92.2479 58.4398C92.9047 58.4398 93.4404 57.9029 93.4404 57.2447V50.3862C93.4404 49.5945 94.0821 48.9514 94.875 48.9514C95.665 48.9514 96.3066 49.5945 96.3066 50.3862V52.4701H98.5403V52.7735H96.004V50.3862C96.004 49.7613 95.4985 49.2548 94.875 49.2548C94.2515 49.2548 93.7431 49.7644 93.7431 50.3862V57.2447C93.7431 58.0698 93.0712 58.7432 92.2479 58.7432C91.4247 58.7432 90.7528 58.0698 90.7528 57.2447V44.6289C90.7528 43.7219 90.0173 42.9848 89.1123 42.9848C88.2074 42.9848 87.4719 43.7219 87.4719 44.6289V61.731C87.4719 62.6562 86.7213 63.4085 85.7982 63.4085C84.8751 63.4085 84.1244 62.6562 84.1244 61.731V40.2699C84.1244 39.3144 83.3496 38.5378 82.3962 38.5378C81.4429 38.5378 80.668 39.3144 80.668 40.2699V61.8311C80.6711 62.7048 79.9598 63.4176 79.0851 63.4176Z" fill="#FEDEA5"/>
<path d="M53.0046 5.87204V3.0601L50.5772 4.46456L53.0046 5.87204Z" fill="#263238"/>
<path d="M50.2111 2.99306H49.7692V5.86566H50.2111V2.99306Z" fill="#263238"/>
<path d="M65.8559 5.87169L68.2832 4.46421L65.8559 3.05975V5.87169Z" fill="#263238"/>
<path d="M69.0942 2.99353H68.6523V5.86614H69.0942V2.99353Z" fill="#263238"/>
<path d="M59.5726 0.381561C57.5084 0.381561 55.8377 2.05902 55.8377 4.12475C55.8377 6.19351 57.5114 7.86793 59.5726 7.86793C61.6367 7.86793 63.3074 6.19048 63.3074 4.12475C63.3074 2.05599 61.6367 0.381561 59.5726 0.381561ZM59.0429 6.09644H57.9321V2.15002H59.0429V6.09644ZM61.213 6.09644H60.1022V2.15002H61.213V6.09644Z" fill="#263238"/>
<path d="M91.0235 32.0646C90.7723 32.0646 90.5695 31.8614 90.5695 31.6096V27.4994C90.5695 27.2476 90.7723 27.0443 91.0235 27.0443C91.2747 27.0443 91.4775 27.2476 91.4775 27.4994V31.6096C91.4775 31.8583 91.2747 32.0646 91.0235 32.0646Z" fill="#FFDB9D"/>
<path d="M89.537 31.5213C89.2858 31.5213 89.083 31.3181 89.083 31.0663V28.0421C89.083 27.7903 89.2858 27.587 89.537 27.587C89.7882 27.587 89.991 27.7903 89.991 28.0421V31.0663C89.991 31.3181 89.7882 31.5213 89.537 31.5213Z" fill="#FFDB9D"/>
<path d="M88.0514 31.5212C87.8002 31.5212 87.5974 31.318 87.5974 31.0662V28.042C87.5974 27.7902 87.8002 27.587 88.0514 27.587C88.3026 27.587 88.5054 27.7902 88.5054 28.042V31.0662C88.5054 31.318 88.3026 31.5212 88.0514 31.5212Z" fill="#FFDB9D"/>
<path d="M105.878 31.5215C105.627 31.5215 105.424 31.3183 105.424 31.0665V28.0422C105.424 27.7904 105.627 27.5872 105.878 27.5872C106.129 27.5872 106.332 27.7904 106.332 28.0422V31.0665C106.332 31.3183 106.129 31.5215 105.878 31.5215Z" fill="#FFDB9D"/>
<path d="M104.392 31.5213C104.141 31.5213 103.938 31.318 103.938 31.0662V28.042C103.938 27.7902 104.141 27.587 104.392 27.587C104.643 27.587 104.846 27.7902 104.846 28.042V31.0662C104.846 31.318 104.643 31.5213 104.392 31.5213Z" fill="#FFDB9D"/>
<path d="M92.5098 32.0644C92.2586 32.0644 92.0558 31.8611 92.0558 31.6093V27.4991C92.0558 27.2473 92.2586 27.0441 92.5098 27.0441C92.761 27.0441 92.9638 27.2473 92.9638 27.4991V31.6093C92.9638 31.8581 92.758 32.0644 92.5098 32.0644Z" fill="#FFDB9D"/>
<path d="M93.9926 32.7862C93.7414 32.7862 93.5386 32.5829 93.5386 32.3311V26.774C93.5386 26.5222 93.7414 26.319 93.9926 26.319C94.2438 26.319 94.4466 26.5222 94.4466 26.774V32.3311C94.4466 32.5829 94.2438 32.7862 93.9926 32.7862Z" fill="#FFDB9D"/>
<path d="M95.4787 33.9272C95.2275 33.9272 95.0247 33.724 95.0247 33.4722V25.637C95.0247 25.3853 95.2275 25.182 95.4787 25.182C95.7299 25.182 95.9327 25.3853 95.9327 25.637V33.4722C95.9327 33.721 95.7299 33.9272 95.4787 33.9272Z" fill="#FFDB9D"/>
<path d="M102.909 32.0645C102.658 32.0645 102.455 31.8612 102.455 31.6095V27.4992C102.455 27.2475 102.658 27.0442 102.909 27.0442C103.16 27.0442 103.363 27.2475 103.363 27.4992V31.6095C103.363 31.8582 103.157 32.0645 102.909 32.0645Z" fill="#FFDB9D"/>
<path d="M101.422 32.0646C101.171 32.0646 100.969 31.8613 100.969 31.6096V27.4993C100.969 27.2476 101.171 27.0443 101.422 27.0443C101.674 27.0443 101.876 27.2476 101.876 27.4993V31.6096C101.876 31.8583 101.674 32.0646 101.422 32.0646Z" fill="#FFDB9D"/>
<path d="M99.9367 32.7865C99.6854 32.7865 99.4827 32.5833 99.4827 32.3315V26.7744C99.4827 26.5226 99.6854 26.3193 99.9367 26.3193C100.188 26.3193 100.391 26.5226 100.391 26.7744V32.3315C100.391 32.5833 100.188 32.7865 99.9367 32.7865Z" fill="#FFDB9D"/>
<path d="M98.4506 33.9271C98.1994 33.9271 97.9966 33.7239 97.9966 33.4721V25.6369C97.9966 25.3851 98.1994 25.1819 98.4506 25.1819C98.7018 25.1819 98.9046 25.3851 98.9046 25.6369V33.4721C98.9046 33.7208 98.7018 33.9271 98.4506 33.9271Z" fill="#FFDB9D"/>
<path d="M96.9647 35.3736C96.7135 35.3736 96.5107 35.1704 96.5107 34.9186V24.1865C96.5107 23.9348 96.7135 23.7315 96.9647 23.7315C97.2159 23.7315 97.4187 23.9348 97.4187 24.1865V34.9186C97.4187 35.1704 97.2159 35.3736 96.9647 35.3736Z" fill="#FFDB9D"/>
<path d="M10.7798 21.7184C10.3954 20.0864 8.92447 18.8943 7.2235 18.8943C5.51043 18.8943 4.02435 20.1077 3.65813 21.7639C1.8936 22.0308 0.546753 23.5687 0.546753 25.3857C0.546753 27.2937 1.97532 28.862 3.87302 29.0349L3.9396 28.2978C2.42629 28.1613 1.28525 26.9085 1.28525 25.3857C1.28525 23.8569 2.47774 22.5768 3.99711 22.4707L4.29372 22.4494L4.33609 22.1521C4.53585 20.7174 5.77677 19.6344 7.2235 19.6344C8.67326 19.6344 9.91418 20.7204 10.1109 22.1612L10.1593 22.5192L10.5165 22.4798C10.6254 22.4676 10.7344 22.4585 10.8433 22.4585C12.4535 22.4585 13.761 23.772 13.761 25.3827C13.761 26.9965 12.4505 28.3069 10.8433 28.3069V29.047C12.8591 29.047 14.4995 27.4029 14.4995 25.3827C14.5026 23.3382 12.8228 21.6638 10.7798 21.7184Z" fill="#4A5161"/>
<path d="M9.57221 24.6821C9.57221 24.5668 9.51773 24.4546 9.4239 24.3848C9.33007 24.3151 9.20901 24.2938 9.09703 24.3272L5.21993 25.4799C5.06254 25.5254 4.95661 25.671 4.95661 25.8348L4.95661 30.2848C4.82949 30.2362 4.69027 30.2059 4.54802 30.2059C3.91848 30.2059 3.40698 30.7185 3.40698 31.3495C3.40698 31.9804 3.91848 32.4931 4.54802 32.4931C5.14426 32.4931 5.62852 32.032 5.67997 31.4496H5.69208L5.69208 28.0552L8.83371 27.124V29.0896C8.70962 29.0411 8.57342 29.0138 8.43117 29.0138C7.80163 29.0138 7.29014 29.5264 7.29014 30.1574C7.29014 30.7883 7.80163 31.3009 8.43117 31.3009C9.06071 31.3009 9.57221 30.7883 9.57221 30.1574C9.57221 30.1513 9.56918 30.1452 9.56918 30.1392L9.56918 24.6821H9.57221ZM8.83371 26.3474L5.69208 27.2817L5.69208 26.1078L8.83371 25.1765V26.3474Z" fill="#4A5161"/>
<path d="M42.9259 18.6024C42.9259 18.1807 43.501 17.7257 43.4495 17.3192C43.395 16.9037 42.7231 16.6125 42.6142 16.2151C42.5052 15.8116 42.9441 15.2201 42.7867 14.841C42.6263 14.4557 41.8999 14.3496 41.6941 13.9916C41.4852 13.6307 41.7576 12.9481 41.5034 12.6175C41.2491 12.2869 40.5228 12.3748 40.2292 12.0806C39.9356 11.7864 40.0234 11.0584 39.6935 10.8035C39.3666 10.5518 38.6826 10.8217 38.3224 10.6124C37.9653 10.4062 37.8593 9.67816 37.4749 9.5174C37.0936 9.35966 36.5064 9.7995 36.1039 9.6903C35.7074 9.58413 35.4168 8.90769 35.0022 8.85309C34.5966 8.79849 34.1426 9.37786 33.7219 9.37786C33.3012 9.37786 32.8472 8.80152 32.4417 8.85309C32.027 8.90769 31.7365 9.5811 31.34 9.6903C30.9374 9.7995 30.3472 9.35966 29.9689 9.5174C29.5845 9.67816 29.4786 10.4062 29.1215 10.6124C28.7613 10.8217 28.0803 10.5487 27.7504 10.8035C27.4205 11.0584 27.5083 11.7864 27.2147 12.0806C26.9211 12.3748 26.1947 12.2869 25.9405 12.6175C25.6893 12.9451 25.9586 13.6307 25.7498 13.9916C25.544 14.3496 24.8176 14.4557 24.6572 14.841C24.4998 15.2232 24.9387 15.8116 24.8297 16.2151C24.7238 16.6125 24.0488 16.9037 23.9943 17.3192C23.9429 17.7257 24.518 18.1807 24.518 18.6024C24.518 19.024 23.9429 19.479 23.9943 19.8855C24.0488 20.301 24.7207 20.5922 24.8297 20.9896C24.9387 21.3931 24.4998 21.9846 24.6572 22.3637C24.8176 22.749 25.544 22.8551 25.7498 23.2131C25.9586 23.5741 25.6862 24.2566 25.9405 24.5872C26.1947 24.9178 26.9211 24.8299 27.2147 25.1241C27.5083 25.4183 27.4205 26.1464 27.7504 26.4012C28.0773 26.6529 28.7613 26.383 29.1215 26.5923C29.4786 26.7985 29.5845 27.5265 29.9689 27.6873C30.3503 27.845 30.9374 27.4052 31.34 27.5144C31.7365 27.6206 32.027 28.297 32.4417 28.3516C32.8472 28.4032 33.3012 27.8268 33.7219 27.8268C34.1426 27.8268 34.5966 28.4032 35.0022 28.3516C35.4168 28.297 35.7074 27.6236 36.1039 27.5144C36.5064 27.4052 37.0966 27.845 37.4749 27.6873C37.8593 27.5265 37.9653 26.7985 38.3224 26.5923C38.6826 26.383 39.3636 26.656 39.6935 26.4012C40.0234 26.1464 39.9356 25.4183 40.2292 25.1241C40.5228 24.8299 41.2491 24.9178 41.5034 24.5872C41.7546 24.2596 41.4852 23.5741 41.6941 23.2131C41.8999 22.8551 42.6263 22.749 42.7867 22.3637C42.9441 21.9815 42.5052 21.3931 42.6142 20.9896C42.7201 20.5922 43.395 20.301 43.4495 19.8855C43.504 19.476 42.9259 19.024 42.9259 18.6024Z" fill="#4A5161"/>
<path d="M32.4955 28.5057C32.4712 28.5057 32.447 28.5026 32.4228 28.4996C32.1504 28.4632 31.9446 28.2418 31.7479 28.0264C31.5996 27.8656 31.4482 27.7018 31.303 27.6624C31.1516 27.623 30.9337 27.6897 30.7218 27.7564C30.4464 27.8444 30.1589 27.9324 29.9107 27.8292C29.6595 27.7231 29.5172 27.4561 29.3841 27.1983C29.2842 27.0042 29.1783 26.804 29.0451 26.7251C28.9119 26.6462 28.6849 26.6553 28.464 26.6644C28.1734 26.6765 27.8738 26.6887 27.6589 26.5218C27.444 26.355 27.3774 26.0608 27.3139 25.7787C27.2654 25.5633 27.217 25.3419 27.1081 25.2327C26.9991 25.1235 26.7782 25.0749 26.5633 25.0264C26.2788 24.9627 25.9852 24.896 25.8187 24.6806C25.6522 24.4652 25.6644 24.1649 25.6765 23.8737C25.6855 23.6523 25.6946 23.4248 25.6159 23.2913C25.5403 23.1578 25.3375 23.0547 25.1438 22.9516C24.8865 22.8151 24.6171 22.6755 24.5142 22.4238C24.4113 22.175 24.4991 21.8869 24.5869 21.6108C24.6535 21.3985 24.72 21.1801 24.6807 21.0284C24.6414 20.8828 24.4749 20.7281 24.3175 20.5825C24.1026 20.3823 23.8786 20.1791 23.8453 19.903C23.8121 19.6361 23.9694 19.3843 24.1238 19.1416C24.2418 18.9536 24.3659 18.7594 24.3659 18.6017C24.3659 18.444 24.2418 18.2498 24.1238 18.0618C23.9694 17.8191 23.809 17.5643 23.8453 17.3004C23.8817 17.0274 24.1026 16.8211 24.3175 16.6239C24.4779 16.4753 24.6414 16.3236 24.6807 16.178C24.72 16.0264 24.6535 15.808 24.5869 15.5987C24.4991 15.3226 24.4113 15.0345 24.5142 14.7857C24.6202 14.5339 24.8865 14.3914 25.1438 14.2579C25.3375 14.1578 25.5372 14.0516 25.6159 13.9182C25.6946 13.7847 25.6855 13.5572 25.6765 13.3358C25.6644 13.0446 25.6522 12.7443 25.8187 12.5289C25.9852 12.3135 26.2788 12.2468 26.5602 12.1831C26.7751 12.1345 26.9961 12.086 27.105 11.9768C27.214 11.8676 27.2624 11.6462 27.3108 11.4308C27.3744 11.1457 27.441 10.8514 27.6559 10.6876C27.8708 10.5208 28.1704 10.5329 28.461 10.5451C28.6819 10.5542 28.9089 10.5633 29.0421 10.4844C29.1752 10.4086 29.2781 10.2053 29.3811 10.0112C29.5172 9.75334 29.6565 9.48337 29.9077 9.38024C30.1559 9.2771 30.4434 9.36507 30.7188 9.45304C30.9307 9.51978 31.1486 9.58651 31.2999 9.54708C31.4452 9.50764 31.5996 9.34081 31.7448 9.18307C31.9446 8.9677 32.1474 8.74323 32.4198 8.70986C32.6861 8.6765 32.9373 8.83423 33.1795 8.98893C33.3671 9.10724 33.5608 9.2316 33.7182 9.2316C33.8756 9.2316 34.0693 9.10724 34.2569 8.98893C34.4991 8.83423 34.7533 8.67346 35.0166 8.70986C35.289 8.74626 35.4948 8.9677 35.6946 9.18307C35.8429 9.34384 35.9942 9.50764 36.1395 9.54708C36.2908 9.58651 36.5088 9.51978 36.7176 9.45304C36.993 9.36507 37.2805 9.2771 37.5287 9.38024C37.7799 9.48641 37.9222 9.75334 38.0554 10.0112C38.1552 10.2053 38.2612 10.4055 38.3943 10.4844C38.5275 10.5633 38.7575 10.5542 38.9755 10.5451C39.266 10.5329 39.5657 10.5208 39.7805 10.6876C39.9954 10.8545 40.062 11.1487 40.1256 11.4338C40.174 11.6492 40.2224 11.8706 40.3314 11.9798C40.4403 12.089 40.6613 12.1376 40.8762 12.1861C41.1607 12.2498 41.4543 12.3165 41.6207 12.5319C41.7872 12.7473 41.7751 13.0476 41.763 13.3388C41.7539 13.5602 41.7448 13.7877 41.8235 13.9212C41.8992 14.0547 42.102 14.1578 42.2957 14.2609C42.5529 14.3974 42.8223 14.537 42.9252 14.7887C43.0281 15.0375 42.9403 15.3257 42.8526 15.6017C42.786 15.814 42.7194 16.0324 42.7587 16.1841C42.7981 16.3297 42.9646 16.4844 43.1219 16.63C43.3368 16.8302 43.5608 17.0334 43.5941 17.3065C43.6274 17.5734 43.47 17.8252 43.3156 18.0678C43.1976 18.2559 43.0735 18.45 43.0735 18.6078C43.0735 18.7655 43.1976 18.9596 43.3156 19.1477C43.47 19.3904 43.6304 19.6452 43.5941 19.9091C43.5578 20.1821 43.3368 20.3884 43.1219 20.5886C42.9615 20.7372 42.7951 20.8889 42.7587 21.0345C42.7194 21.1861 42.786 21.4045 42.8526 21.6169C42.9403 21.8929 43.0281 22.1811 42.9252 22.4298C42.8193 22.6816 42.5529 22.8242 42.2957 22.9576C42.102 23.0577 41.9022 23.1639 41.8235 23.2974C41.7448 23.4308 41.7539 23.6583 41.763 23.8798C41.7751 24.171 41.7872 24.4713 41.6207 24.6867C41.4543 24.902 41.1607 24.9688 40.8762 25.0325C40.6613 25.081 40.4403 25.1295 40.3314 25.2387C40.2224 25.3479 40.174 25.5694 40.1256 25.7847C40.062 26.0699 39.9954 26.3641 39.7805 26.5309C39.5657 26.6948 39.266 26.6856 38.9755 26.6735C38.7545 26.6644 38.5275 26.6553 38.3943 26.7342C38.2612 26.81 38.1583 27.0133 38.0554 27.2074C37.9192 27.4652 37.7799 27.7352 37.5287 27.8383C37.2805 27.9415 36.993 27.8535 36.7176 27.7655C36.5057 27.6988 36.2908 27.6321 36.1365 27.6715C35.9912 27.7109 35.8368 27.8778 35.6916 28.0355C35.4918 28.2509 35.289 28.4753 35.0136 28.5087C34.7503 28.5451 34.4961 28.3843 34.2539 28.2296C34.0663 28.1113 33.8726 27.987 33.7152 27.987C33.5578 27.987 33.3641 28.1113 33.1764 28.2296C32.9616 28.3601 32.7346 28.5057 32.4955 28.5057ZM31.197 27.3439C31.2576 27.3439 31.3181 27.35 31.3786 27.3651C31.6086 27.4258 31.7933 27.626 31.9688 27.8171C32.1292 27.993 32.2987 28.175 32.4622 28.1963C32.6195 28.2145 32.8223 28.0871 33.0221 27.9597C33.2461 27.8171 33.4791 27.6715 33.7243 27.6715C33.9694 27.6715 34.2025 27.8201 34.4264 27.9597C34.6232 28.084 34.829 28.2145 34.9864 28.1963C35.1498 28.175 35.3163 27.993 35.4797 27.8171C35.6552 27.626 35.8399 27.4258 36.0699 27.3651C36.306 27.3014 36.5663 27.3833 36.8175 27.4622C37.0414 27.532 37.2745 27.6048 37.4228 27.5441C37.5741 27.4804 37.6891 27.262 37.7981 27.0527C37.9192 26.8191 38.0433 26.5795 38.2521 26.4581C38.4609 26.3368 38.7333 26.3459 38.9966 26.358C39.2327 26.3671 39.4779 26.3762 39.605 26.2792C39.7351 26.1791 39.7866 25.9394 39.838 25.7089C39.8956 25.4511 39.9561 25.1872 40.1256 25.0143C40.2951 24.8414 40.5614 24.7837 40.8187 24.7261C41.0487 24.6745 41.2878 24.6199 41.3877 24.4925C41.4845 24.3651 41.4755 24.1194 41.4664 23.8828C41.4543 23.6189 41.4452 23.3459 41.5663 23.1366C41.6873 22.9273 41.9264 22.8029 42.1595 22.6816C42.3713 22.5724 42.5893 22.4571 42.6498 22.3055C42.7103 22.1568 42.6377 21.9233 42.5681 21.6988C42.4894 21.447 42.4077 21.1861 42.4712 20.9495C42.5317 20.719 42.7315 20.534 42.9222 20.358C43.0977 20.1973 43.2793 20.0274 43.3005 19.8636C43.3217 19.7059 43.1916 19.5026 43.0644 19.3024C42.9222 19.0779 42.7769 18.8444 42.7769 18.5987C42.7769 18.353 42.9252 18.1194 43.0644 17.8949C43.1885 17.6978 43.3187 17.4915 43.3005 17.3338C43.2793 17.17 43.0977 17.0031 42.9222 16.8393C42.7315 16.6634 42.5317 16.4783 42.4712 16.2478C42.4077 16.0112 42.4894 15.7503 42.5681 15.4986C42.6377 15.2741 42.7103 15.0405 42.6498 14.8919C42.5862 14.7402 42.3683 14.6249 42.1595 14.5157C41.9264 14.3944 41.6873 14.27 41.5663 14.0607C41.4452 13.8514 41.4543 13.5784 41.4664 13.3145C41.4755 13.0779 41.4845 12.8322 41.3877 12.7048C41.2878 12.5774 41.0487 12.5228 40.8187 12.4713C40.5614 12.4136 40.2981 12.3529 40.1256 12.1831C39.9561 12.0132 39.8956 11.7463 39.838 11.4884C39.7866 11.2579 39.7321 11.0183 39.605 10.9182C39.4779 10.8211 39.2327 10.8302 38.9966 10.8393C38.7333 10.8484 38.4609 10.8605 38.2521 10.7392C38.0433 10.6179 37.9192 10.3782 37.7981 10.1447C37.6891 9.93231 37.5741 9.71391 37.4228 9.65324C37.2745 9.59258 37.0414 9.66538 36.8175 9.73514C36.5663 9.81401 36.306 9.89591 36.0699 9.83221C35.8399 9.77155 35.6552 9.57134 35.4797 9.38024C35.3193 9.2043 35.1498 9.0223 34.9864 9.00107C34.829 8.97983 34.6262 9.11027 34.4264 9.23767C34.2025 9.38024 33.9694 9.52888 33.7243 9.52888C33.4791 9.52888 33.2461 9.38024 33.0221 9.23767C32.8254 9.1133 32.6195 8.98287 32.4622 9.00107C32.2987 9.0223 32.1323 9.2043 31.9688 9.38024C31.7933 9.57134 31.6086 9.77155 31.3786 9.83221C31.1425 9.89591 30.8823 9.81401 30.631 9.73514C30.4071 9.66538 30.174 9.59258 30.0257 9.65324C29.8744 9.71694 29.7594 9.93535 29.6504 10.1447C29.5294 10.3782 29.4053 10.6179 29.1964 10.7392C28.9876 10.8605 28.7152 10.8484 28.4519 10.8393C28.2158 10.8302 27.9706 10.8211 27.8435 10.9182C27.7164 11.0183 27.6619 11.2579 27.6105 11.4884C27.553 11.7463 27.4924 12.0102 27.3229 12.1831C27.1535 12.356 26.8871 12.4136 26.6298 12.4713C26.3998 12.5228 26.1607 12.5774 26.0608 12.7048C25.964 12.8322 25.9731 13.0779 25.9822 13.3145C25.9912 13.5784 26.0033 13.8514 25.8823 14.0607C25.7612 14.27 25.5221 14.3944 25.2891 14.5157C25.0772 14.6249 24.8593 14.7402 24.7987 14.8919C24.7382 15.0405 24.8108 15.2741 24.8805 15.4986C24.9592 15.7503 25.0409 16.0112 24.9773 16.2478C24.9168 16.4783 24.717 16.6634 24.5263 16.8393C24.3508 17.0001 24.1692 17.17 24.148 17.3338C24.1268 17.4915 24.257 17.6947 24.3841 17.8949C24.5263 18.1194 24.6716 18.353 24.6716 18.5987C24.6716 18.8444 24.5233 19.0779 24.3841 19.3024C24.26 19.4996 24.1299 19.7059 24.148 19.8636C24.1692 20.0274 24.3508 20.1973 24.5263 20.358C24.717 20.534 24.9168 20.719 24.9773 20.9495C25.0409 21.1861 24.9592 21.447 24.8805 21.6988C24.8108 21.9233 24.7382 22.1568 24.7987 22.3055C24.8623 22.4571 25.0802 22.5724 25.2891 22.6816C25.5221 22.8029 25.7612 22.9273 25.8823 23.1366C26.0033 23.3459 25.9943 23.6189 25.9822 23.8828C25.9731 24.1194 25.964 24.3651 26.0608 24.4925C26.1607 24.623 26.3998 24.6745 26.6298 24.7261C26.8871 24.7837 27.1504 24.8444 27.3229 25.0143C27.4955 25.1841 27.553 25.4511 27.6105 25.7089C27.6619 25.9394 27.7164 26.1791 27.8435 26.2792C27.9706 26.3762 28.2158 26.3671 28.4519 26.358C28.7152 26.3459 28.9876 26.3368 29.1964 26.4581C29.4053 26.5795 29.5294 26.8191 29.6504 27.0527C29.7594 27.265 29.8744 27.4834 30.0257 27.5441C30.174 27.6048 30.4041 27.532 30.631 27.4622C30.8187 27.4046 31.0124 27.3439 31.197 27.3439Z" fill="#4A5161"/>
<path d="M28.6577 21.5618C28.5427 21.5618 28.4307 21.495 28.3822 21.3797C28.1583 20.8701 27.9948 20.3302 27.898 19.7751C27.3078 16.3504 29.381 13.1259 32.5166 12.583C35.6522 12.04 38.6819 14.3848 39.2721 17.8095C39.3053 18.0066 39.3326 18.2068 39.3477 18.404C39.3629 18.5708 39.2388 18.7164 39.0723 18.7316C38.9028 18.7437 38.7606 18.6224 38.7454 18.4556C38.7303 18.2766 38.7061 18.0946 38.6758 17.9126C38.1431 14.8186 35.4282 12.6952 32.6195 13.1805C29.8138 13.6659 27.9615 16.5779 28.4942 19.672C28.582 20.1785 28.7303 20.673 28.9331 21.134C28.9997 21.2887 28.9331 21.4677 28.7787 21.5345C28.7424 21.5557 28.7 21.5618 28.6577 21.5618Z" fill="white"/>
<path d="M28.6579 21.7138C28.4793 21.7138 28.3159 21.6076 28.2433 21.4438C28.0132 20.9221 27.8468 20.37 27.7499 19.8027C27.4594 18.1101 27.7893 16.4084 28.6851 15.0191C29.581 13.6238 30.9339 12.7046 32.4926 12.4377C34.0513 12.1677 35.6312 12.5772 36.9418 13.5934C38.2493 14.6066 39.13 16.096 39.4206 17.7886C39.4539 17.9888 39.4811 18.1951 39.4993 18.3953C39.5205 18.644 39.3358 18.8654 39.0846 18.8867C38.8274 18.9079 38.6155 18.7229 38.5943 18.4711C38.5792 18.2982 38.558 18.1192 38.5277 17.9433C38.0102 14.9342 35.371 12.8654 32.647 13.3356C29.923 13.8058 28.1282 16.6389 28.6458 19.6511C28.7305 20.1486 28.8758 20.6278 29.0756 21.0798C29.1755 21.3103 29.0726 21.5773 28.8456 21.6804C28.785 21.7016 28.7215 21.7138 28.6579 21.7138ZM33.4279 12.6561C33.1343 12.6561 32.8377 12.6804 32.5441 12.7319C31.0701 12.9868 29.7899 13.8573 28.9394 15.1799C28.0859 16.5085 27.7711 18.1314 28.0496 19.7481C28.1434 20.2911 28.3008 20.822 28.5217 21.3194C28.555 21.3922 28.6458 21.4317 28.7215 21.3953C28.7971 21.3619 28.8334 21.2709 28.7971 21.1951C28.5883 20.7219 28.437 20.2153 28.3462 19.6966C27.7983 16.5206 29.7051 13.5297 32.5925 13.0292C35.4799 12.5317 38.2765 14.7097 38.8213 17.8857C38.8546 18.0707 38.8758 18.2588 38.8909 18.4408C38.897 18.5257 38.9696 18.5833 39.0574 18.5803C39.0967 18.5773 39.1331 18.5591 39.1573 18.5257C39.1845 18.4954 39.1966 18.4559 39.1936 18.4165C39.1785 18.2254 39.1512 18.0282 39.1179 17.8371C38.8395 16.2173 37.9981 14.7946 36.7511 13.83C35.7614 13.0596 34.6052 12.6561 33.4279 12.6561Z" fill="#263238"/>
<path d="M48.9544 65.2218C48.9544 65.2218 61.2516 62.2006 65.0833 58.5605C65.0833 58.5605 63.9726 64.3239 65.9913 67.3573C68.0101 70.3907 76.0609 78.417 77.4743 80.0338C78.8878 81.6506 81.53 85.4544 82.3351 85.3543C83.1432 85.2542 85.3617 81.6142 86.0669 80.601C86.7722 79.5909 88.001 78.9478 88.2037 77.231C88.4065 75.511 87.3956 75.4109 86.9931 75.9175C86.5906 76.4241 84.5052 78.0045 83.1947 78.4079C81.8841 78.8113 80.4647 79.2845 80.4647 79.2845C80.4647 79.2845 77.2867 74.9347 74.8654 69.878C72.4441 64.8214 69.9259 55.3239 69.1209 53.4008C68.3127 51.4806 67.1021 50.874 65.5888 50.874C64.0755 50.874 59.2329 50.874 50.7583 54.6141C42.2837 58.3543 42.5864 61.9943 43.3945 63.3108C44.1996 64.6303 46.2184 65.7436 48.9544 65.2218Z" fill="#4592D0"/>
<path d="M82.3078 85.5118C81.6782 85.5118 80.4978 84.074 78.7848 81.8991C78.2581 81.2287 77.7587 80.5947 77.3592 80.1397C76.9597 79.6847 76.0305 78.714 74.8532 77.4855C71.8538 74.3581 67.3199 69.6321 65.8671 67.4481C64.1359 64.8485 64.6474 60.3773 64.8623 58.9667C60.737 62.4582 49.4779 65.2519 48.9906 65.3732C48.9876 65.3732 48.9846 65.3732 48.9815 65.3763C46.194 65.9041 44.1026 64.7635 43.2642 63.3985C43.0554 63.0588 42.6165 62.1245 43.0342 60.7777C43.5124 59.2398 45.2315 56.898 50.6976 54.4834C59.2025 50.7281 64.0087 50.7281 65.5887 50.7281C67.3411 50.7281 68.5093 51.5623 69.26 53.3489C69.5323 53.995 69.9894 55.4753 70.5705 57.35C71.7599 61.1932 73.3913 66.4531 75.0015 69.8202C77.1988 74.4127 80.059 78.4653 80.522 79.1114C80.8762 78.9931 82.0565 78.6048 83.1492 78.2681C84.4355 77.8707 86.4996 76.2964 86.8749 75.8263C87.105 75.5381 87.4833 75.4289 87.7981 75.5593C88.016 75.6503 88.5033 75.9961 88.355 77.255C88.2067 78.5108 87.5468 79.2024 86.9082 79.8667C86.6449 80.1428 86.3967 80.4006 86.1909 80.6948C86.0577 80.8859 85.8671 81.1741 85.6431 81.5138C84.2902 83.5735 83.019 85.4269 82.3531 85.5088C82.338 85.5118 82.3229 85.5118 82.3078 85.5118ZM65.0832 58.4116C65.1074 58.4116 65.1347 58.4177 65.1558 58.4298C65.2134 58.4602 65.2436 58.5269 65.2315 58.5906C65.2194 58.6482 64.1571 64.3298 66.1153 67.2752C67.5529 69.438 72.0747 74.1518 75.0681 77.2732C76.2484 78.5047 77.1837 79.4784 77.5862 79.9395C77.9887 80.4006 78.4912 81.0376 79.0208 81.711C80.1377 83.1276 81.8295 85.2692 82.3168 85.2085C82.901 85.1357 84.5838 82.5755 85.3919 81.347C85.6189 81.0042 85.8096 80.713 85.9427 80.5219C86.1607 80.2095 86.43 79.9304 86.6873 79.6604C87.2926 79.0295 87.9161 78.3773 88.0523 77.2216C88.137 76.4906 87.9978 75.9749 87.68 75.8414C87.4924 75.7625 87.2563 75.8354 87.111 76.0174C86.7085 76.5209 84.5989 78.1377 83.2399 78.5593C81.9446 78.9597 80.5281 79.4299 80.513 79.436C80.4494 79.4572 80.3828 79.436 80.3435 79.3814C80.3102 79.3389 77.1292 74.9617 74.7291 69.9506C73.1068 66.5654 71.4754 61.2903 70.2799 57.441C69.7018 55.5754 69.2448 54.1012 68.9785 53.4672C68.2702 51.7837 67.2261 51.0314 65.5856 51.0314C64.0209 51.0314 59.263 51.0314 50.8157 54.7595C45.4525 57.1255 43.7788 59.3854 43.3187 60.8656C42.9374 62.0911 43.3308 62.9314 43.5185 63.2377C44.3024 64.5148 46.2727 65.5765 48.918 65.076C49.1964 65.0062 61.2394 62.0032 64.9773 58.4541C65.0075 58.4268 65.0469 58.4116 65.0832 58.4116ZM48.9543 65.2246H48.9573H48.9543Z" fill="#263238"/>
<path d="M88.2048 77.2339C88.4075 75.5139 87.3967 75.4138 86.9941 75.9204C86.5916 76.427 84.5062 78.0074 83.1957 78.4108C81.8852 78.8142 80.4657 79.2875 80.4657 79.2875C80.4657 79.2875 77.9899 75.8992 75.7441 71.6282C74.6667 73.3117 73.2926 74.1732 72.312 74.6009C74.6273 77.0458 76.8035 79.2662 77.4754 80.0367C78.8888 81.6535 81.531 85.4574 82.3361 85.3573C83.1442 85.2572 85.3628 81.6171 86.068 80.6039C86.7762 79.5938 88.005 78.9538 88.2048 77.2339Z" fill="#FEDEA5"/>
<path d="M82.308 85.5116C81.6785 85.5116 80.4981 84.0738 78.785 81.8988C78.2584 81.2285 77.759 80.5945 77.3595 80.1395C76.96 79.6845 76.0278 78.7108 74.8474 77.4792C74.0483 76.645 73.1343 75.6956 72.2021 74.7067C72.1688 74.6703 72.1537 74.6218 72.1628 74.5732C72.1718 74.5247 72.2051 74.4853 72.2505 74.464C73.1979 74.0485 74.5538 73.2082 75.6161 71.549C75.6464 71.5035 75.6979 71.4792 75.7493 71.4792C75.8038 71.4822 75.8522 71.5126 75.8764 71.5611C77.8922 75.3922 80.1167 78.547 80.5193 79.1112C80.8734 78.9929 82.0538 78.6046 83.1464 78.2679C84.4327 77.8705 86.4969 76.2962 86.8722 75.826C87.1022 75.5379 87.4805 75.4286 87.7953 75.5591C88.0132 75.6501 88.5005 75.9959 88.3522 77.2547C88.2039 78.5106 87.5441 79.2022 86.9055 79.8665C86.6422 80.1425 86.394 80.4004 86.1882 80.6946C86.055 80.8857 85.8643 81.1739 85.6403 81.5136C84.2874 83.5733 83.0162 85.4267 82.3504 85.5086C82.3383 85.5116 82.3231 85.5116 82.308 85.5116ZM72.5683 74.6521C73.4521 75.5834 74.3086 76.4782 75.0683 77.2669C76.2517 78.5015 77.187 79.4752 77.5895 79.9362C77.992 80.3973 78.4945 81.0343 79.0241 81.7077C80.1409 83.1243 81.8328 85.2659 82.3201 85.2052C82.9043 85.1324 84.5871 82.5723 85.3952 81.3437C85.6222 81.001 85.8129 80.7098 85.946 80.5187C86.1639 80.2062 86.4333 79.9272 86.6906 79.6572C87.2959 79.0262 87.9194 78.3741 88.0556 77.2183C88.1403 76.4873 88.0011 75.9716 87.6833 75.8382C87.4957 75.7593 87.2596 75.8321 87.1143 76.0141C86.7118 76.5176 84.6022 78.1344 83.2432 78.5561C81.9478 78.9565 80.5314 79.4266 80.5162 79.4327C80.4527 79.4539 80.3861 79.4327 80.3468 79.3781C80.3225 79.3447 77.9285 76.0535 75.7342 71.9251C74.7203 73.4024 73.4945 74.2153 72.5683 74.6521Z" fill="#263238"/>
<path d="M33.5133 26.5708C33.5133 26.5708 34.842 29.3099 34.9903 30.1987C35.1386 31.0875 34.1035 31.6062 33.0684 31.8276C32.0333 32.049 30.408 31.4575 28.7827 33.3079C27.1574 35.1582 23.1683 43.2301 22.5751 44.4889C21.9849 45.7478 22.5751 46.7852 24.2004 46.4879C25.8257 46.1906 30.184 40.4151 30.184 40.4151C30.184 40.4151 35.5775 47.0066 36.2433 48.4111C36.9092 49.8186 36.6852 52.1876 36.5399 54.6325C36.3916 57.0774 36.0224 60.6295 38.2379 63.5173C40.4534 66.4051 45.1083 67.221 48.9521 65.219C52.7929 63.22 56.9425 56.316 55.0932 53.5041C53.2469 50.6891 49.0974 49.2999 47.8414 46.6335C46.5853 43.9672 47.0212 42.493 47.0212 39.7538C47.0212 37.0147 46.4158 33.4838 46.4158 33.4838C46.4158 33.4838 52.7718 31.9671 60.1355 30.957C62.6961 30.6051 61.095 27.6992 59.618 27.1077C57.7657 26.3645 49.5605 27.226 47.3238 27.0136C44.0944 26.7103 42.4479 27.3807 41.7094 27.8994C40.9709 28.4181 40.0115 29.1582 39.1973 29.0854C38.3832 29.0126 37.4994 25.0116 37.4994 25.0116C37.4994 25.0116 35.3596 26.7922 33.5133 26.5708Z" fill="#F37630"/>
<path d="M44.4874 66.465C41.9481 66.465 39.545 65.47 38.1194 63.6106C35.9917 60.8381 36.2066 57.4892 36.364 55.0413L36.4306 53.9857C36.5698 51.7956 36.6999 49.7238 36.1097 48.4771C35.5165 47.2182 30.9947 41.6459 30.1927 40.6601C29.4723 41.6004 25.7617 46.3567 24.2302 46.6358C23.4221 46.7814 22.7895 46.6207 22.4536 46.1808C22.1237 45.7501 22.1176 45.11 22.4415 44.4215C22.959 43.3173 27.0117 35.0938 28.6703 33.204C29.9294 31.7692 31.1794 31.751 32.1812 31.7359C32.4959 31.7328 32.7895 31.7268 33.0377 31.6752C33.5008 31.5751 34.999 31.1777 34.8416 30.2192C34.6993 29.3638 33.3918 26.658 33.3767 26.6307C33.3525 26.5822 33.3585 26.5215 33.3888 26.476C33.4221 26.4305 33.4735 26.4062 33.531 26.4123C35.2925 26.6216 37.3839 24.9077 37.4051 24.8926C37.4445 24.8592 37.502 24.8501 37.5504 24.8653C37.5988 24.8835 37.6382 24.9229 37.6503 24.9745C38.074 26.8855 38.7762 28.8875 39.2151 28.93C39.9021 28.9937 40.7526 28.3901 41.4366 27.9078L41.6273 27.7713C42.3083 27.295 43.9548 26.5397 47.3416 26.8582C48.1799 26.9371 49.9233 26.8612 51.7695 26.7793C54.9233 26.6428 58.4977 26.4881 59.6781 26.9583C60.6708 27.3557 61.7665 28.7844 61.6303 29.8825C61.5728 30.3527 61.2701 30.9472 60.1593 31.0989C53.4765 32.0149 47.5564 33.3678 46.591 33.5923C46.7029 34.2778 47.1751 37.3325 47.1751 39.747C47.1751 40.3476 47.1539 40.8785 47.1357 41.3911C47.0661 43.202 47.0147 44.5125 47.9832 46.563C48.6218 47.9189 50.0322 48.9382 51.5244 50.018C52.9015 51.016 54.324 52.0443 55.2229 53.4154C55.7616 54.2344 55.8464 55.4356 55.468 56.8886C54.6206 60.1434 51.7302 63.9412 49.0244 65.3487C47.5867 66.1071 46.0129 66.465 44.4874 66.465ZM30.1866 40.2657C30.232 40.2657 30.2744 40.287 30.3047 40.3203C30.5256 40.5903 35.7163 46.9422 36.3821 48.3497C37.0056 49.6692 36.8724 51.7774 36.7302 54.01L36.6636 55.0656C36.5093 57.465 36.3004 60.7471 38.3585 63.4286C40.5528 66.2891 45.1775 67.0171 48.8821 65.0909C51.479 63.741 54.3573 59.9554 55.1714 56.8249C55.5256 55.4569 55.4559 54.3406 54.9656 53.5944C54.097 52.2718 52.6957 51.2587 51.3428 50.2789C49.8173 49.1748 48.3767 48.1313 47.7047 46.7056C46.706 44.5883 46.7604 43.1778 46.8301 41.3911C46.8482 40.8815 46.8694 40.3537 46.8694 39.7592C46.8694 37.0625 46.2732 33.5498 46.2671 33.5165C46.255 33.4376 46.3034 33.3618 46.3821 33.3436C46.4457 33.3284 52.8288 31.8147 60.1169 30.8137C60.8554 30.7136 61.264 30.3921 61.3306 29.8612C61.4487 28.9027 60.4408 27.6075 59.5661 27.2556C58.4463 26.8066 54.7507 26.9674 51.7816 27.0978C49.8446 27.1828 48.1708 27.2556 47.3113 27.1737C44.0183 26.8643 42.4445 27.5802 41.7968 28.0321L41.6061 28.1656C40.8827 28.6782 39.9838 29.3152 39.1848 29.2424C38.3827 29.1696 37.6412 26.3001 37.4051 25.2839C36.8634 25.6934 35.2744 26.7884 33.758 26.7429C34.0849 27.4345 35.0111 29.4214 35.1352 30.1767C35.2714 31.0018 34.5117 31.6752 33.0952 31.9785C32.8198 32.0362 32.508 32.0422 32.1812 32.0483C31.2369 32.0604 30.0625 32.0786 28.8912 33.4133C27.2538 35.2789 23.2254 43.4599 22.7078 44.558C22.4354 45.1373 22.4264 45.6651 22.6866 46.0018C22.953 46.3477 23.4796 46.469 24.1697 46.3446C25.4106 46.1201 28.5644 42.3102 30.0595 40.3294C30.0958 40.287 30.1382 40.2657 30.1866 40.2657Z" fill="#263238"/>
<path d="M50.8073 26.9795C50.5984 26.9886 50.3926 26.9977 50.1928 27.0038C50.1505 28.2899 50.3169 30.4072 51.5155 32.4032C51.7213 32.3638 51.9362 32.3213 52.1511 32.2788C50.9253 30.3526 50.7679 28.2232 50.8073 26.9795Z" fill="#263238"/>
<path d="M47.3838 45.483C47.3172 45.2858 47.2597 45.0917 47.2113 44.9036C42.632 45.9229 38.7579 48.8956 36.6907 50.755C36.6998 51.0189 36.6998 51.2889 36.6968 51.571C38.5854 49.8025 42.6017 46.5295 47.3838 45.483Z" fill="#263238"/>
<path d="M35.6829 47.5003C35.8161 47.6945 35.9341 47.8734 36.028 48.0251C37.393 46.6753 40.8585 43.7936 46.9632 42.0281C46.9692 41.8188 46.9783 41.6004 46.9874 41.382C40.7223 43.1353 37.166 46.0383 35.6829 47.5003Z" fill="#263238"/>
<path d="M31.1828 37.39C32.2693 37.2717 37.4509 36.483 44.9812 31.6144C45.5713 32.7702 46.1222 33.5861 46.1706 33.6589C46.2281 33.7439 46.325 33.7924 46.4218 33.7924C46.437 33.7924 46.4551 33.7894 46.4703 33.7863C46.44 33.5983 46.4218 33.4891 46.4218 33.4891C46.4218 33.4891 46.5247 33.4648 46.7154 33.4193C46.7063 33.3829 46.6942 33.3495 46.673 33.3162C46.6488 33.2798 44.3546 29.8885 44.1246 27.0583C43.9128 27.0887 43.71 27.1251 43.5253 27.1675C43.5768 27.7196 43.6948 28.2868 43.8583 28.8419C38.1682 32.9977 32.5447 33.85 31.0254 34.0078C30.874 33.2191 30.6713 32.576 30.4957 32.115C30.3111 32.1787 30.1234 32.2575 29.9328 32.3637C30.0811 32.7671 30.2536 33.3222 30.3898 33.9957C30.0296 33.5649 29.5907 33.2191 29.1428 32.94C29.0248 33.0523 28.9037 33.1706 28.7857 33.3071C28.7615 33.3344 28.7372 33.3647 28.713 33.392C29.5544 33.8925 30.3686 34.6478 30.6047 35.7489C30.6319 36.304 30.6198 36.9016 30.5502 37.5326C30.1265 36.7014 29.2699 35.5639 27.6204 34.9815C27.5175 35.1483 27.4116 35.3243 27.3056 35.5032C29.8329 36.3162 30.3111 38.5184 30.3383 38.6488C30.3444 38.6731 30.3535 38.6943 30.3656 38.7156C30.296 39.0432 30.2112 39.3738 30.1053 39.7136C29.5514 38.94 28.3317 37.5993 26.3492 37.1716C26.2494 37.3536 26.1464 37.5356 26.0466 37.7206C28.4043 38.1301 29.5908 39.9623 29.8601 40.4385C29.7723 40.6842 29.6906 40.9239 29.6089 41.1605C29.9691 40.7055 30.19 40.4112 30.19 40.4112C30.19 40.4112 30.2717 40.5113 30.414 40.6842C30.4352 40.6266 30.4533 40.572 30.4745 40.5144C30.8771 39.4133 31.092 38.3607 31.1828 37.39ZM44.0459 29.4486C44.2427 30.0159 44.4727 30.5619 44.7118 31.0654C37.5508 35.7065 32.4449 36.6135 31.2221 36.7712C31.2342 36.483 31.2342 36.2039 31.2282 35.934C31.2372 35.8976 31.2403 35.8551 31.2342 35.8157C31.2312 35.8005 31.2282 35.7853 31.2251 35.7671C31.207 35.3576 31.1706 34.9694 31.1192 34.6084C32.7475 34.4294 38.3559 33.5467 44.0459 29.4486Z" fill="#263238"/>
<path d="M48.9486 48.1429C48.7882 47.9791 48.6368 47.8153 48.4976 47.6424C43.2313 49.1469 39.0727 52.1469 36.5606 54.3431C36.5545 54.4402 36.5485 54.5372 36.5424 54.6343C36.5303 54.8163 36.5182 55.0074 36.5061 55.1985C38.9425 52.9902 43.313 49.6747 48.9486 48.1429Z" fill="#263238"/>
<path d="M47.0149 39.116C47.0088 38.9158 46.9998 38.7126 46.9907 38.5093C39.2244 38.9219 35.3957 42.9108 33.8793 45.0584C34.0095 45.2283 34.1366 45.3951 34.2637 45.5589C35.6106 43.5721 39.2728 39.5316 47.0149 39.116Z" fill="#263238"/>
<path d="M54.8449 26.8214C54.6361 26.8275 54.4273 26.8336 54.2154 26.8396C54.0368 28.1288 54.0399 29.9064 54.7753 31.7992C54.9781 31.7628 55.1839 31.7295 55.3928 31.6931C54.6482 29.8336 54.6664 28.0651 54.8449 26.8214Z" fill="#263238"/>
<path d="M46.5363 26.9612C46.7602 28.5022 47.2808 30.847 48.4824 33.0249C48.6791 32.9825 48.8879 32.937 49.1059 32.8915C47.9285 30.8227 47.3988 28.5325 47.1597 27.0006C46.9479 26.9855 46.739 26.9703 46.5363 26.9612Z" fill="#263238"/>
<path d="M46.7484 35.8126C46.7242 35.6002 46.6969 35.4 46.6727 35.2089C37.8773 36.2706 33.4615 40.0107 31.6031 42.1705C31.7303 42.3313 31.8634 42.4951 31.9996 42.668C33.7581 40.6265 38.0953 36.8712 46.7484 35.8126Z" fill="#263238"/>
<path d="M48.955 65.2219C52.1329 63.5687 55.5197 58.5575 55.547 55.2845C55.5258 54.6657 55.3805 54.1106 55.0869 53.6586C54.8387 53.2764 54.5633 52.8821 54.2727 52.4786C53.2619 51.4109 51.9543 50.5403 50.7558 49.6546C44.0791 52.1753 38.731 57.2471 36.5458 59.2188C36.7395 60.6779 37.2056 62.1703 38.2407 63.5201C40.4562 66.4079 45.1111 67.2239 48.955 65.2219Z" fill="#4592D0"/>
<path d="M44.4872 66.4651C41.9478 66.4651 39.5447 65.4701 38.1191 63.6107C37.1869 62.3973 36.621 60.9656 36.394 59.2365C36.3879 59.188 36.4061 59.1364 36.4424 59.1031L36.851 58.733C39.2965 56.5126 44.3812 51.8958 50.7008 49.5115C50.7493 49.4933 50.8007 49.4994 50.8431 49.5328C51.064 49.6966 51.288 49.8574 51.515 50.0212C52.5138 50.7461 53.5489 51.4954 54.3812 52.3751C54.7142 52.8361 54.9835 53.2214 55.2105 53.5763C55.5071 54.0343 55.6706 54.6076 55.6948 55.278C55.6675 58.5692 52.2989 63.6501 49.0211 65.3579C47.5864 66.1071 46.0126 66.4651 44.4872 66.4651ZM36.7057 59.276C36.9327 60.914 37.4745 62.273 38.3613 63.4256C40.5556 66.2861 45.1803 67.0141 48.8849 65.0879C52.084 63.4226 55.3679 58.4752 55.3951 55.281C55.374 54.6713 55.2257 54.1526 54.9593 53.7401C54.7323 53.3912 54.469 53.009 54.1512 52.5662C53.3491 51.7198 52.3292 50.9797 51.3395 50.2638C51.1367 50.1152 50.9339 49.9696 50.7341 49.821C44.5053 52.1931 39.4781 56.7583 37.0598 58.9544L36.7057 59.276Z" fill="#4592D0"/>
<path d="M29.0455 20.4455C28.9153 20.4516 28.7882 20.4758 28.6641 20.5213C27.6623 20.8763 27.2689 22.3505 27.7864 23.8156C28.3009 25.2807 29.5298 26.1816 30.5316 25.8298C30.7434 25.7539 30.925 25.6296 31.0794 25.4658L29.0455 20.4455Z" fill="white"/>
<path d="M30.0744 26.058C29.684 26.058 29.2754 25.9124 28.8849 25.6272C28.3432 25.2299 27.9013 24.605 27.641 23.8648C27.3807 23.1277 27.3353 22.3633 27.5078 21.7111C27.6864 21.0377 28.0799 20.5645 28.6126 20.3765C28.7487 20.3279 28.891 20.3006 29.0363 20.2946C29.0998 20.2946 29.1604 20.3279 29.1846 20.3886L31.2155 25.4058C31.2366 25.4604 31.2245 25.5241 31.1852 25.5666C31.0066 25.7546 30.8038 25.8911 30.5799 25.97C30.4164 26.0276 30.2469 26.058 30.0744 26.058ZM28.9485 20.607C28.8668 20.6191 28.7911 20.6373 28.7155 20.6646C28.2796 20.8193 27.9558 21.2197 27.8044 21.79C27.6471 22.3815 27.6925 23.0853 27.9316 23.7647C28.1707 24.4442 28.5762 25.0206 29.0696 25.3815C29.5478 25.7304 30.0502 25.8396 30.483 25.6849C30.6343 25.6303 30.7766 25.5453 30.9037 25.427L28.9485 20.607Z" fill="#263238"/>
<path d="M29.0453 20.4459C28.9152 20.452 28.7881 20.4763 28.664 20.5218C28.549 20.5612 28.443 20.6188 28.3462 20.6886L30.4709 25.8484C30.4921 25.8423 30.5133 25.8393 30.5344 25.8302C30.7463 25.7543 30.9279 25.63 31.0823 25.4662L29.0453 20.4459Z" fill="white"/>
<path d="M30.4856 25.9904C30.4221 25.9904 30.3494 25.9601 30.3282 25.9025L28.2035 20.7427C28.1763 20.676 28.1975 20.6001 28.258 20.5607C28.373 20.4818 28.4911 20.4181 28.6121 20.3757C28.7483 20.3271 28.8906 20.2998 29.0359 20.2938C29.0994 20.2938 29.16 20.3271 29.1842 20.3878L31.215 25.405C31.2362 25.4596 31.2241 25.5233 31.1848 25.5658C31.0062 25.7538 30.8034 25.8903 30.5794 25.9692C30.5613 25.9753 30.5461 25.9783 30.528 25.9844C30.5129 25.9874 30.5007 25.9904 30.4856 25.9904ZM28.5334 20.7457L30.5522 25.6537C30.6823 25.5961 30.7943 25.5233 30.8972 25.4262L28.9451 20.6062C28.8633 20.6183 28.7877 20.6365 28.712 20.6638C28.6515 20.6851 28.5909 20.7124 28.5334 20.7457Z" fill="#263238"/>
<path d="M38.1653 17.3978C38.2713 17.322 38.3863 17.2583 38.5104 17.2158C39.5122 16.8609 40.741 17.7618 41.2555 19.2269C41.7731 20.6921 41.3796 22.1663 40.3808 22.5212C40.169 22.597 39.948 22.6122 39.7271 22.5819L38.1653 17.3978Z" fill="white"/>
<path d="M39.9323 22.7482C39.8566 22.7482 39.7809 22.7421 39.7022 22.733C39.6447 22.7239 39.5963 22.6845 39.5781 22.6269L38.0164 17.4428C37.9983 17.3821 38.0194 17.3154 38.0709 17.276C38.1889 17.188 38.3191 17.1213 38.4553 17.0727C39.5328 16.6936 40.8524 17.6339 41.3941 19.1779C41.6544 19.915 41.7028 20.6794 41.5273 21.3316C41.3487 22.005 40.9583 22.4782 40.4256 22.6663C40.2712 22.7209 40.1078 22.7482 39.9323 22.7482ZM39.8384 22.4418C40.011 22.454 40.1744 22.4327 40.3257 22.3781C40.7616 22.2234 41.0854 21.823 41.2367 21.2527C41.3941 20.6582 41.3487 19.9575 41.1096 19.278C40.6223 17.8948 39.4752 17.0333 38.5552 17.3579C38.4795 17.3852 38.4068 17.4186 38.3372 17.461L39.8384 22.4418Z" fill="#263238"/>
<path d="M39.9323 22.7486C39.8566 22.7486 39.7809 22.7425 39.7022 22.7334C39.6447 22.7243 39.5963 22.6849 39.5781 22.6273L38.0164 17.4432C37.9983 17.3825 38.0194 17.3158 38.0709 17.2764C38.1889 17.1884 38.3191 17.1217 38.4553 17.0731C38.5763 17.0307 38.7065 17.0034 38.8457 16.9943C38.9183 16.9882 38.9819 17.0337 39.0031 17.1035L40.58 22.4544C40.6012 22.5302 40.5648 22.6091 40.4922 22.6364C40.4589 22.6515 40.4438 22.6606 40.4256 22.6637C40.2712 22.7213 40.1078 22.7486 39.9323 22.7486ZM39.8384 22.4422C39.9837 22.4544 40.1199 22.4392 40.2501 22.4028L38.7489 17.3097C38.6823 17.3219 38.6157 17.337 38.5552 17.3583C38.4795 17.3856 38.4068 17.419 38.3372 17.4614L39.8384 22.4422Z" fill="#263238"/>
<path d="M40.7738 28.5455C40.2502 28.8731 39.6993 29.1309 39.203 29.0854C38.3888 29.0126 37.505 25.0116 37.505 25.0116C37.505 25.0116 35.3622 26.7891 33.5159 26.5677C33.5159 26.5677 34.8446 29.3068 34.9929 30.1956C35.114 30.9145 34.4572 31.3908 33.6552 31.6638C34.0395 32.7983 35.2926 35.3948 38.5553 34.5971C41.4064 33.9024 41.1854 30.5536 40.7738 28.5455Z" fill="#FEDEA5"/>
<path d="M37.3715 34.9025C34.8866 34.9025 33.8575 32.7488 33.5065 31.7144C33.4943 31.675 33.4974 31.6355 33.5125 31.5991C33.5307 31.5627 33.5609 31.5354 33.6003 31.5233C34.1148 31.3474 34.9592 30.947 34.8382 30.222C34.6959 29.3666 33.3884 26.6608 33.3733 26.6335C33.3491 26.585 33.3551 26.5243 33.3854 26.4788C33.4187 26.4333 33.4701 26.409 33.5276 26.4151C35.2891 26.6244 37.3805 24.9105 37.4017 24.8954C37.4411 24.862 37.4986 24.8529 37.547 24.8681C37.5954 24.8863 37.6348 24.9257 37.6469 24.9773C38.0706 26.8883 38.7728 28.8903 39.2116 28.9328C39.596 28.9662 40.0682 28.8024 40.6886 28.4141C40.731 28.3868 40.7825 28.3838 40.8279 28.402C40.8733 28.4202 40.9066 28.4626 40.9156 28.5112C41.3273 30.5253 41.5754 34.0107 38.5821 34.7417C38.1463 34.854 37.7437 34.9025 37.3715 34.9025ZM33.8454 31.7569C34.2722 32.9187 35.5101 35.1846 38.5155 34.4505C41.1638 33.8044 41.0307 30.7164 40.6675 28.7872C40.2528 29.0299 39.705 29.2847 39.1874 29.2361C38.3854 29.1633 37.6439 26.2938 37.4078 25.2776C36.866 25.6871 35.277 26.7821 33.7607 26.7366C34.0876 27.4282 35.0137 29.4151 35.1378 30.1704C35.2498 30.8408 34.7897 31.3989 33.8454 31.7569Z" fill="#FEDEA5"/>
<path d="M38.1435 27.3136C37.9679 26.7949 37.8136 26.255 37.7016 25.8273C37.6078 25.5816 37.52 25.3237 37.4353 25.0659C37.0751 25.348 35.1774 26.7676 33.5097 26.5674C33.5097 26.5674 33.9576 27.4956 34.3632 28.4451C35.0775 28.6574 36.0823 28.8212 36.8723 28.4117C37.3717 28.1539 37.7984 27.7383 38.1435 27.3136Z" fill="#263238"/>
<path d="M35.7248 28.8145C35.2224 28.8145 34.726 28.7083 34.3235 28.59C34.2811 28.5779 34.2448 28.5445 34.2266 28.5051C33.8271 27.5678 33.3792 26.6426 33.3761 26.6335C33.3519 26.585 33.358 26.5243 33.3883 26.4788C33.4215 26.4333 33.473 26.409 33.5305 26.4151C35.1346 26.6092 36.9869 25.223 37.3441 24.9439C37.3834 24.9136 37.4349 24.9045 37.4833 24.9197C37.5317 24.9348 37.568 24.9712 37.5832 25.0167C37.6709 25.2897 37.7587 25.5445 37.8465 25.769C37.9918 26.3211 38.1431 26.8307 38.2884 27.2584C38.3065 27.3069 38.2944 27.3615 38.2641 27.404C37.8404 27.9257 37.3985 28.3079 36.9506 28.5415C36.5662 28.7417 36.1425 28.8145 35.7248 28.8145ZM34.4778 28.3201C35.1558 28.5142 36.085 28.6507 36.8053 28.2776C37.1988 28.0713 37.5922 27.7377 37.9706 27.2827C37.795 26.7609 37.6467 26.227 37.5529 25.8661C37.4893 25.7053 37.4227 25.5172 37.3562 25.317C36.7781 25.7447 35.2315 26.7852 33.7575 26.7397C33.9149 27.0643 34.2054 27.6861 34.4778 28.3201Z" fill="#263238"/>
<path d="M29.2268 19.4597C29.2268 19.4597 30.2619 23.9036 31.0004 25.0866C31.7389 26.2727 34.3993 27.6771 35.6553 27.8257C36.9114 27.9744 37.7982 26.4183 38.5367 25.1594C39.2752 23.9006 39.4961 22.8631 39.2025 21.2342C38.9059 19.6053 37.9465 17.0148 37.208 15.6073C36.7298 14.6943 34.4749 13.757 32.4047 14.2757C30.3345 14.7944 28.8575 17.0906 29.2268 19.4597Z" fill="#FEDEA5"/>
<path d="M35.8219 27.9896C35.7614 27.9896 35.7009 27.9865 35.6373 27.9774C34.2783 27.8167 31.624 26.3698 30.8734 25.1685C30.1288 23.9764 29.124 19.6781 29.0816 19.4961C29.0816 19.4931 29.0786 19.4901 29.0786 19.484C28.7033 17.0816 30.1803 14.6791 32.3685 14.1301C34.5386 13.5871 36.8449 14.5942 37.3413 15.5406C38.0647 16.9178 39.0453 19.5265 39.351 21.213C39.6415 22.8086 39.4539 23.9006 38.667 25.2413L38.6246 25.3111C37.9224 26.5093 37.0538 27.9896 35.8219 27.9896ZM29.3752 19.4294C29.4176 19.6084 30.4224 23.8733 31.1276 25.0047C31.8207 26.118 34.3873 27.5224 35.6706 27.6741C36.8026 27.8106 37.6682 26.3364 38.3643 25.1534L38.4067 25.0836C39.1633 23.7974 39.3328 22.7964 39.0544 21.2615C38.7547 19.6023 37.7862 17.0361 37.075 15.6771C36.6331 14.8369 34.4448 13.9177 32.4442 14.4213C30.4012 14.9339 29.0271 17.1786 29.3752 19.4294Z" fill="#263238"/>
<path d="M33.8811 22.1291C33.872 22.1291 33.8629 22.1291 33.8539 22.1261C33.7721 22.1109 33.7177 22.0351 33.7298 21.9532C33.7328 21.938 33.7964 21.571 34.1384 21.3586C34.4198 21.1857 34.7951 21.1706 35.2522 21.3131C35.3309 21.3374 35.3763 21.4223 35.352 21.5042C35.3278 21.5831 35.2401 21.6286 35.1614 21.6043C34.7921 21.4891 34.5016 21.4921 34.2988 21.6165C34.0748 21.753 34.0264 22.0017 34.0264 22.0047C34.0173 22.0775 33.9537 22.1291 33.8811 22.1291Z" fill="#263238"/>
<path d="M34.3323 23.8909C33.612 23.8909 33.0793 23.5966 33.0672 23.5875C32.9946 23.545 32.9704 23.454 33.0097 23.3812C33.0521 23.3084 33.1429 23.2842 33.2155 23.3236C33.2942 23.3691 35.1768 24.4005 36.5569 22.1194C36.5993 22.0466 36.6931 22.0253 36.7658 22.0678C36.8384 22.1103 36.8596 22.2043 36.8172 22.2771C36.0363 23.5723 35.083 23.8909 34.3323 23.8909Z" fill="#263238"/>
<path d="M31.654 21.9984C31.312 21.9984 31.094 21.8831 31.0759 21.874C30.9306 21.7952 30.8761 21.6101 30.9548 21.4615C31.0335 21.3159 31.2151 21.2613 31.3604 21.3371C31.3937 21.3553 32.0081 21.6314 32.8465 20.7335C32.9615 20.6122 33.1521 20.6031 33.2732 20.7183C33.3943 20.8336 33.4034 21.0247 33.2883 21.146C32.6467 21.8376 32.0626 21.9984 31.654 21.9984Z" fill="#263238"/>
<path d="M36.0849 20.4698C35.7731 20.4698 35.4795 20.4122 35.2616 20.3394C35.1042 20.2878 35.0165 20.1149 35.0709 19.9542C35.1224 19.7964 35.2949 19.7085 35.4523 19.7631C35.5038 19.7813 36.7326 20.1726 37.0685 19.2777C37.126 19.12 37.3016 19.0411 37.459 19.0988C37.6163 19.1564 37.695 19.3323 37.6375 19.4901C37.353 20.2514 36.6872 20.4698 36.0849 20.4698Z" fill="#263238"/>
<path d="M30.7033 20.351C30.6246 20.351 30.558 20.2903 30.552 20.2115C30.549 20.1751 30.4854 19.2954 31.0484 18.7524C31.3904 18.4248 31.8776 18.2944 32.5011 18.3702C32.5829 18.3793 32.6434 18.4551 32.6343 18.5401C32.6252 18.622 32.5526 18.6826 32.4648 18.6735C31.9352 18.6098 31.5296 18.7099 31.2572 18.9739C30.7971 19.4167 30.8516 20.1811 30.8516 20.1902C30.8577 20.2752 30.7971 20.348 30.7124 20.354C30.7124 20.351 30.7063 20.351 30.7033 20.351Z" fill="#263238"/>
<path d="M34.5472 17.9819C34.5109 17.9819 34.4746 17.9698 34.4443 17.9425C34.3838 17.8849 34.3777 17.7908 34.4352 17.7271C34.4443 17.718 35.4219 16.6836 36.8414 17.5512C36.914 17.5937 36.9352 17.6877 36.8928 17.7605C36.8505 17.8333 36.7566 17.8545 36.684 17.8121C35.4734 17.0719 34.6653 17.9243 34.6562 17.9334C34.6259 17.9668 34.5866 17.9819 34.5472 17.9819Z" fill="#263238"/>
<path d="M26.6431 21.5363C26.6431 21.5363 26.4221 23.8326 26.6431 24.4241C26.864 25.0156 28.8585 27.2391 29.2278 27.7578C29.597 28.2765 29.6697 28.3493 28.9312 29.7568C28.1927 31.1643 22.0607 40.2705 21.8368 42.5667C21.6158 44.863 21.7641 46.9348 24.2006 46.4919C26.64 46.049 28.0414 39.9004 29.0765 36.4211C30.1116 32.9418 31.2193 28.4251 31.2193 27.4605C31.2193 26.4989 28.114 24.0995 27.7811 23.8174C27.4512 23.5353 27.3029 22.2765 27.3029 21.6122C27.3059 20.9418 26.9366 20.9418 26.6431 21.5363Z" fill="#FEDEA5"/>
<path d="M23.5914 46.7C23.0647 46.7 22.641 46.5544 22.3262 46.2632C21.5211 45.52 21.5514 43.97 21.6906 42.5473C21.8601 40.8031 25.3105 35.3036 27.3716 32.0185C28.0647 30.9113 28.6156 30.0377 28.8002 29.6828C29.4872 28.3754 29.4449 28.3178 29.121 27.8597C28.9909 27.6777 28.6943 27.3228 28.3492 26.9103C27.5986 26.0124 26.6604 24.8961 26.503 24.4745C26.276 23.8678 26.4697 21.7566 26.4939 21.52C26.4969 21.5018 26.4999 21.4836 26.509 21.4654C26.6967 21.0892 26.9297 20.9042 27.1476 20.9527C27.2657 20.98 27.4624 21.1014 27.4624 21.6049C27.4624 22.4057 27.647 23.4917 27.8861 23.6949C27.9194 23.7252 27.986 23.7768 28.0768 23.8496C30.3286 25.6727 31.3789 26.8162 31.3789 27.4532C31.3789 28.4694 30.2439 33.0438 29.23 36.4563C29.0998 36.8992 28.9606 37.3815 28.8183 37.8911C27.8226 41.4098 26.4576 46.2268 24.236 46.6302C24.003 46.6788 23.7881 46.7 23.5914 46.7ZM26.7875 21.5776C26.7269 22.2298 26.6119 23.9163 26.7814 24.3683C26.9206 24.7414 27.9164 25.9305 28.5762 26.7161C28.9394 27.1499 29.2239 27.4896 29.348 27.6656C29.7778 28.2662 29.7899 28.4421 29.0635 29.8223C28.8728 30.1863 28.3189 31.066 27.6228 32.1792C25.5768 35.4432 22.1507 40.9032 21.9872 42.5777C21.8662 43.8456 21.8147 45.3835 22.529 46.0387C22.8952 46.3754 23.434 46.4725 24.1755 46.339C26.2124 45.969 27.5441 41.2551 28.5187 37.8153C28.664 37.3026 28.8002 36.8173 28.9334 36.3744C30.032 32.6798 31.0702 28.3451 31.0702 27.4563C31.0702 27.0983 30.5163 26.2217 27.8801 24.0892C27.7893 24.0134 27.7197 23.9588 27.6834 23.9285C27.2808 23.5857 27.1507 22.2176 27.1507 21.6049C27.1507 21.3349 27.0871 21.253 27.0689 21.247C27.0508 21.2439 26.9358 21.2925 26.7875 21.5776Z" fill="#263238"/>
<path d="M29.0788 36.4175C29.1818 36.0717 29.2847 35.7168 29.3876 35.3558L26.2368 34.1152C24.2756 37.279 21.9723 41.1708 21.8392 42.5631C21.6182 44.8594 21.7665 46.9312 24.2029 46.4883C26.6424 46.0455 28.0437 39.8998 29.0788 36.4175Z" fill="#F26F1F"/>
<path d="M23.5915 46.7004C23.0649 46.7004 22.6412 46.5548 22.3264 46.2636C21.5213 45.5205 21.5516 43.9704 21.6908 42.5477C21.8331 41.0887 24.2816 36.9906 26.1127 34.0361C26.1521 33.9754 26.2277 33.9481 26.2973 33.9754L29.4481 35.213C29.5207 35.2403 29.56 35.3192 29.5389 35.395C29.436 35.756 29.333 36.1139 29.2301 36.4598C29.1 36.9026 28.9608 37.3849 28.8185 37.8945C27.8228 41.4133 26.4578 46.2303 24.2362 46.6337C24.0032 46.6792 23.7883 46.7004 23.5915 46.7004ZM26.3004 34.303C24.4935 37.2242 22.1236 41.1979 21.9904 42.5781C21.8694 43.846 21.8179 45.3839 22.5322 46.0392C22.8984 46.3759 23.4372 46.4729 24.1787 46.3395C26.2156 45.9694 27.5473 41.2555 28.5219 37.8157C28.6672 37.303 28.8034 36.8177 28.9366 36.3748C29.0274 36.0715 29.1182 35.7621 29.2059 35.4466L26.3004 34.303Z" fill="#263238"/>
<path d="M24.8232 36.4418C24.8111 36.463 24.799 36.4842 24.7869 36.5055C24.7566 36.557 24.7263 36.6056 24.6961 36.6571C24.6295 36.7694 24.5659 36.8816 24.4993 36.9908C25.3074 37.1789 26.6936 37.5641 28.5429 38.2891C28.6004 38.0889 28.6549 37.8947 28.7094 37.7036C26.9872 37.0272 25.6646 36.645 24.8232 36.4418Z" fill="#263238"/>
<path d="M25.8824 45.1657C26.0125 44.9777 26.1397 44.7714 26.2637 44.553C24.242 44.5924 22.7468 44.2223 21.7662 43.8523C21.7662 44.0828 21.7753 44.3042 21.7934 44.5166C22.7589 44.8533 24.1148 45.1597 25.8824 45.1657Z" fill="#263238"/>
<path d="M22.9132 39.8424C22.8859 39.8939 22.8587 39.9455 22.8345 39.9971C22.8072 40.0517 22.777 40.1093 22.7497 40.1639C22.7043 40.2549 22.665 40.3399 22.6226 40.4278C23.8151 40.5461 25.622 40.8737 27.4773 41.7504C27.5439 41.5593 27.6105 41.3651 27.6741 41.171C25.8732 40.3247 24.1359 39.9789 22.9132 39.8424Z" fill="#263238"/>
<path d="M40.3716 16.3156C40.3716 16.3156 42.2541 17.6442 42.5568 18.1963C42.8595 18.7514 43.2408 21.715 43.3922 22.3338C43.5435 22.9526 43.5526 23.0558 45.0992 23.4137C46.6458 23.7686 57.5356 25.0426 59.4151 26.3713C61.2977 27.6999 62.7686 29.162 60.8437 30.7272C58.9188 32.2924 53.3528 29.3531 50.0447 27.8697C46.7366 26.3864 42.5962 24.2873 41.8667 23.6594C41.1373 23.0315 41.3462 19.1063 41.3492 18.6725C41.3522 18.2388 40.4957 17.3045 39.9902 16.8707C39.4908 16.4369 39.733 16.1548 40.3716 16.3156Z" fill="#FEDEA5"/>
<path d="M59.3087 31.3176C57.1356 31.3176 53.879 29.807 51.3427 28.6301C50.8614 28.4086 50.4074 28.1963 49.9867 28.0082C46.7422 26.5552 42.5412 24.4349 41.7725 23.7736C41.2912 23.3581 41.1066 21.8141 41.1974 18.9142C41.2004 18.7989 41.2035 18.714 41.2035 18.6685C41.2065 18.353 40.5043 17.5036 39.899 16.9819C39.5176 16.6543 39.5539 16.4238 39.6084 16.3176C39.7113 16.1174 40.0049 16.0628 40.4105 16.1659C40.4286 16.172 40.4468 16.1781 40.4619 16.1902C40.6587 16.3267 42.3808 17.5552 42.6926 18.1225C42.9105 18.5198 43.1435 19.9576 43.3342 21.1134C43.422 21.6412 43.4946 22.0992 43.543 22.2964C43.6823 22.8636 43.6974 22.9334 45.135 23.264C45.5255 23.352 46.5455 23.5067 47.8348 23.7008C51.6635 24.2741 58.0739 25.2357 59.5055 26.2458C60.6677 27.0679 61.8632 28.0537 61.9026 29.1518C61.9237 29.7403 61.5999 30.3106 60.9431 30.8444C60.5315 31.1781 59.9716 31.3176 59.3087 31.3176ZM40.0473 16.4207C39.9292 16.4207 39.8808 16.4511 39.8748 16.4602C39.8687 16.4753 39.8899 16.5785 40.0927 16.7544C40.5558 17.1518 41.5061 18.1437 41.5031 18.6715C41.5031 18.717 41.5001 18.805 41.497 18.9233C41.3941 22.3176 41.6968 23.3095 41.9662 23.5431C42.6381 24.1225 46.5939 26.1579 50.1078 27.7292C50.5285 27.9172 50.9855 28.1296 51.4667 28.354C54.7052 29.8556 59.1423 31.9122 60.7494 30.6078C61.3366 30.1316 61.612 29.6584 61.5969 29.1609C61.5636 28.1902 60.3681 27.2256 59.3299 26.4946C57.9589 25.5269 51.5939 24.5714 47.7894 24.0011C46.491 23.807 45.468 23.6523 45.0654 23.5613C43.5461 23.2125 43.422 23.0881 43.2525 22.3934C43.195 22.1629 43.1254 21.7231 43.0315 21.1649C42.8651 20.1518 42.6169 18.6199 42.4232 18.2711C42.1901 17.8464 40.8403 16.8333 40.3076 16.4571C40.1986 16.4298 40.1139 16.4207 40.0473 16.4207Z" fill="#263238"/>
<path d="M50.047 27.8692C49.7201 27.7236 49.3812 27.5689 49.0422 27.4112L50.159 24.2079C53.8303 24.7812 58.2794 25.5669 59.4175 26.3707C61.3 27.6993 62.771 29.1614 60.846 30.7267C58.9211 32.2919 53.3551 29.3525 50.047 27.8692Z" fill="#F26F1F"/>
<path d="M59.3086 31.318C57.1355 31.318 53.8788 29.8074 51.3425 28.6304C50.8613 28.409 50.4073 28.1967 49.9866 28.0086C49.6567 27.86 49.3207 27.7083 48.9787 27.5506C48.9091 27.5172 48.8728 27.4353 48.9 27.3625L50.0168 24.1592C50.041 24.0895 50.1076 24.047 50.1833 24.0591C53.6125 24.593 58.3098 25.4029 59.5083 26.2462C60.6706 27.0682 61.8661 28.0541 61.9054 29.1522C61.9266 29.7406 61.6028 30.3109 60.946 30.8448C60.5313 31.1785 59.9684 31.318 59.3086 31.318ZM50.1076 27.7326C50.5283 27.9206 50.9854 28.133 51.4666 28.3574C54.7051 29.859 59.1421 31.9156 60.7493 30.6112C61.3364 30.135 61.6118 29.6618 61.5967 29.1643C61.5634 28.1936 60.3679 27.229 59.3298 26.498C58.1978 25.7002 53.6458 24.9115 50.259 24.3807L49.2299 27.3352C49.5265 27.4686 49.8201 27.6021 50.1076 27.7326Z" fill="#263238"/>
<path d="M55.1072 30.1195C55.2979 30.1953 55.4855 30.2651 55.6732 30.3348L57.5164 25.6331C57.3892 25.5967 57.2591 25.5633 57.1229 25.53C57.0957 25.5239 57.0654 25.5148 57.0382 25.5087C57.0018 25.4996 56.9625 25.4905 56.9262 25.4814L55.1072 30.1195Z" fill="#263238"/>
<path d="M53.9634 24.8507C53.9119 24.8416 53.8575 24.8325 53.806 24.8203C53.6668 24.7961 53.5276 24.7688 53.3883 24.7445L51.7963 28.6727C51.9386 28.7364 52.0808 28.8032 52.2231 28.8699C52.2624 28.8881 52.3048 28.9063 52.3472 28.9275L53.9967 24.8567C53.9846 24.8567 53.9755 24.8537 53.9634 24.8507Z" fill="#263238"/>
<path d="M60.3642 27.0924C59.9556 28.0176 59.205 29.695 58.5059 31.1116C58.7298 31.142 58.9477 31.1632 59.1536 31.1693C59.7861 29.877 60.4368 28.4271 60.8364 27.5201C60.6911 27.3745 60.5307 27.2319 60.3642 27.0924Z" fill="#263238"/>
<path d="M80.6684 80.3011C81.2737 80.6045 81.7792 81.2111 81.7792 81.2111C81.7792 81.2111 81.5068 81.9483 79.8754 83.2162C80.959 84.2961 81.9275 85.4124 82.3391 85.3608C83.1472 85.2607 85.3657 81.6207 86.0709 80.6075C86.7761 79.5974 88.0049 78.9543 88.2077 77.2374C88.4105 75.5175 87.3996 75.4174 86.9971 75.924C86.5945 76.4305 84.1218 78.0868 82.8113 78.4932C81.5007 78.8967 80.4656 79.2941 80.4656 79.2941C80.4656 79.2941 80.0631 79.9978 80.6684 80.3011Z" fill="#F37630"/>
<path d="M82.3079 85.5118C81.9265 85.5118 81.3575 84.9476 80.4102 83.98C80.2013 83.7676 79.9834 83.5431 79.7625 83.3217C79.7322 83.2914 79.714 83.2489 79.7171 83.2065C79.7201 83.164 79.7413 83.1215 79.7746 83.0942C81.0427 82.1084 81.4725 81.4501 81.5905 81.2348C81.4392 81.0679 81.0427 80.6615 80.5948 80.437C80.395 80.3369 80.2679 80.1913 80.2104 80.0002C80.0984 79.6271 80.3194 79.2297 80.3315 79.2145C80.3496 79.1842 80.3769 79.1599 80.4102 79.1478C80.4192 79.1448 81.4634 78.7444 82.7649 78.3439C84.0633 77.9435 86.4937 76.3055 86.8781 75.8263C87.1081 75.5381 87.4864 75.4289 87.8012 75.5593C88.0191 75.6503 88.5064 75.9961 88.3581 77.255C88.2098 78.5108 87.55 79.2024 86.9114 79.8667C86.648 80.1427 86.3999 80.4006 86.1941 80.6948C86.0609 80.8859 85.8702 81.1741 85.6462 81.5138C84.2933 83.5735 83.0221 85.4269 82.3563 85.5088C82.3412 85.5088 82.323 85.5118 82.3079 85.5118ZM80.0984 83.2277C80.28 83.4097 80.4556 83.5917 80.6281 83.7676C81.3 84.4592 82.0627 85.2388 82.3169 85.2085C82.9011 85.1357 84.5839 82.5755 85.392 81.347C85.619 81.0042 85.8097 80.713 85.9428 80.5219C86.1608 80.2095 86.4301 79.9304 86.6874 79.6604C87.2927 79.0295 87.9162 78.3773 88.0524 77.2216C88.1372 76.4906 87.9979 75.9749 87.6801 75.8414C87.4925 75.7625 87.2564 75.8354 87.1111 76.0174C86.6995 76.533 84.2237 78.2135 82.8526 78.6352C81.7298 78.981 80.8036 79.3237 80.5736 79.4117C80.5312 79.5057 80.4465 79.7272 80.504 79.9152C80.5373 80.0244 80.6129 80.1063 80.734 80.167C81.3605 80.4825 81.872 81.0892 81.8932 81.1165C81.9295 81.1589 81.9386 81.2166 81.9174 81.2651C81.9053 81.2924 81.6269 82.0143 80.0984 83.2277Z" fill="#263238"/>
<path d="M87.9379 75.8392C87.6776 77.9171 87.0208 78.5905 84.6056 81.1992C82.72 83.2346 81.9936 84.4934 81.7151 85.1123C81.9785 85.2852 82.1934 85.3761 82.3356 85.361C83.1437 85.2609 85.3622 81.6208 86.0674 80.6077C86.7727 79.5976 88.0015 78.9545 88.2043 77.2376C88.292 76.4974 88.1558 76.0606 87.9379 75.8392Z" fill="white"/>
<path d="M82.2989 85.512C82.1324 85.512 81.9175 85.4241 81.633 85.239C81.5694 85.1996 81.5452 85.1177 81.5785 85.051C81.8994 84.3381 82.6651 83.0732 84.4962 81.0954L84.6354 80.9468C86.9266 78.4746 87.541 77.8103 87.7892 75.8204C87.7952 75.7628 87.8376 75.7142 87.8921 75.696C87.9466 75.6778 88.0071 75.693 88.0495 75.7355C88.2462 75.9387 88.4611 76.3694 88.3582 77.2552C88.2099 78.511 87.5501 79.2026 86.9114 79.8669C86.6481 80.143 86.3999 80.4008 86.1941 80.695C86.061 80.8861 85.8703 81.1743 85.6463 81.514C84.2934 83.5737 83.0222 85.4271 82.3564 85.509C82.3382 85.512 82.3201 85.512 82.2989 85.512ZM81.9115 85.054C82.1687 85.2057 82.2807 85.2148 82.317 85.2087C82.9012 85.1359 84.584 82.5757 85.3921 81.3472C85.6191 81.0044 85.8098 80.7132 85.9429 80.5221C86.1608 80.2097 86.4302 79.9306 86.6875 79.6607C87.2928 79.0297 87.9163 78.3775 88.0525 77.2218C88.1009 76.8093 88.0737 76.5181 88.0192 76.3179C87.7105 78.0742 86.9629 78.8811 84.8533 81.1561L84.7141 81.3047C82.9435 83.2158 82.2081 84.4382 81.9115 85.054Z" fill="#263238"/>
<path d="M42.411 57.8167C42.3656 57.8167 42.3172 57.7955 42.29 57.753C42.2416 57.6863 42.2567 57.5892 42.3233 57.5407C42.3233 57.5407 42.6532 57.3011 43.198 56.9098C43.2645 56.8612 43.3614 56.8764 43.4098 56.9462C43.4582 57.0129 43.4431 57.11 43.3735 57.1585C42.8287 57.5468 42.5018 57.7894 42.5018 57.7894C42.4716 57.8076 42.4413 57.8167 42.411 57.8167Z" fill="white"/>
<path d="M41.2758 58.3601C41.2758 58.3601 51.2637 50.6766 59.033 47.8434C66.8024 45.0132 69.4234 46.9334 68.921 49.6634C68.4156 52.3934 64.8865 61.1902 62.1625 66.0436C59.4386 70.897 54.7988 78.8839 54.7988 78.8839C54.7988 78.8839 59.2388 85.0508 59.6414 85.7606C60.0439 86.4674 57.1202 86.5705 55.9095 85.8607C54.9471 85.2965 54.9652 85.4118 52.8829 84.0407C49.3538 81.7171 49.1511 80.8071 49.6535 79.9972C51.2667 77.4036 53.2128 75.2348 53.9937 72.1074C55.4101 66.4258 58.0372 59.0669 58.3308 59.8738C58.3308 59.8738 54.7988 63.5138 49.4537 65.3338C44.1057 67.1539 40.622 66.6837 38.2491 63.5168" fill="#73B4EA"/>
<path d="M58.219 86.4946C57.3685 86.4946 56.3879 86.3187 55.828 85.9941C55.5465 85.8303 55.3498 85.7241 55.1591 85.621C54.7021 85.3753 54.2693 85.1417 52.7953 84.1711C49.2844 81.8596 48.9364 80.8616 49.5205 79.9213C49.9321 79.257 50.371 78.6139 50.7977 77.9951C52.0689 76.1356 53.2675 74.3823 53.8425 72.077C54.7263 68.5401 56.4091 63.2195 57.4745 60.8626C56.0671 62.0668 53.2039 64.2205 49.4963 65.4824C43.9999 67.354 40.4921 66.7746 38.1192 63.6108C38.0677 63.5441 38.0829 63.4501 38.1495 63.3985C38.216 63.3469 38.3129 63.3621 38.3613 63.4288C40.6404 66.4713 44.0453 67.0173 49.3964 65.1942C53.6579 63.7443 56.7844 61.1022 57.8316 60.1376C58.0011 59.8403 58.1434 59.6705 58.2493 59.6674C58.2856 59.6674 58.4067 59.6705 58.4642 59.8282C58.4854 59.8828 58.4702 59.9435 58.4309 59.9859C58.4248 59.992 58.2796 60.1406 58.0102 60.3863C57.2233 61.9182 55.3498 67.26 54.1301 72.1528C53.5429 74.5097 52.3262 76.2873 51.0429 78.168C50.6192 78.7868 50.1833 79.4269 49.7747 80.0851C49.3873 80.71 49.3117 81.5199 52.9588 83.9193C54.4206 84.8839 54.8474 85.1114 55.2983 85.3571C55.492 85.4602 55.6918 85.5694 55.9793 85.7363C56.9872 86.3248 59.127 86.3096 59.4932 85.9456C59.5265 85.9122 59.5326 85.891 59.5053 85.8424C59.1119 85.1508 54.7172 79.0416 54.6718 78.9809C54.6355 78.9324 54.6325 78.8687 54.6627 78.8171C54.7081 78.7383 59.3328 70.7757 62.0265 65.9769C64.7808 61.0689 68.2705 52.3358 68.7699 49.6421C68.9484 48.6805 68.7123 47.8919 68.0919 47.3671C67.2747 46.6725 65.0168 45.8322 59.0816 47.992C51.4243 50.7827 41.4666 58.4086 41.3668 58.4844C41.3002 58.536 41.2064 58.5239 41.1549 58.4571C41.1034 58.3904 41.1156 58.2964 41.1821 58.2448C41.282 58.169 51.279 50.5127 58.9787 47.7068C63.4823 46.0658 66.7874 45.8625 68.2856 47.1335C68.9938 47.7341 69.2632 48.6199 69.0665 49.6967C68.564 52.4116 65.0562 61.1932 62.2898 66.1225C59.7475 70.6543 55.4799 78.0072 54.9745 78.8808C55.5193 79.6362 59.3843 85.0204 59.7687 85.6908C59.8625 85.8576 59.8413 86.0275 59.7081 86.1609C59.4751 86.3854 58.8879 86.4946 58.219 86.4946Z" fill="#73B4EA"/>
<path d="M44.5994 56.2572C44.551 56.2572 44.5056 56.2329 44.4753 56.1935C44.4269 56.1237 44.445 56.0297 44.5116 55.9812C46.5425 54.5646 49.3966 52.6475 51.4698 51.5707C51.5425 51.5312 51.6363 51.5616 51.6726 51.6344C51.712 51.7102 51.6817 51.8012 51.6091 51.8376C49.551 52.9084 46.709 54.8164 44.6841 56.2299C44.6599 56.2481 44.6297 56.2572 44.5994 56.2572Z" fill="white"/>
<path d="M54.7202 62.6702C54.6778 62.6702 54.6354 62.652 54.6052 62.6156C54.5507 62.5519 54.5598 62.4548 54.6233 62.4002L57.2171 60.2132C57.3806 59.6308 59.1058 53.7915 62.9284 50.7521C62.995 50.7005 63.0888 50.7096 63.1402 50.7763C63.1917 50.8431 63.1826 50.9371 63.116 50.9887C59.1905 54.11 57.5138 60.2738 57.4986 60.3345C57.4895 60.3649 57.4744 60.3922 57.4502 60.4104L54.8231 62.6277C54.7898 62.6581 54.7565 62.6702 54.7202 62.6702Z" fill="white"/>
<path d="M64.9565 60.5893C64.9383 60.5893 64.9171 60.5863 64.899 60.5772C64.8203 60.5468 64.7839 60.4589 64.8142 60.38L65.3681 58.9938C65.3984 58.9149 65.4861 58.8785 65.5648 58.9088C65.6435 58.9391 65.6798 59.0271 65.6496 59.106L65.0957 60.4922C65.0745 60.5529 65.017 60.5893 64.9565 60.5893Z" fill="white"/>
<path d="M65.9977 57.9834C65.9795 57.9834 65.9583 57.9803 65.9402 57.9712C65.8615 57.9409 65.8251 57.8529 65.8554 57.7741L67.859 52.7538C67.8893 52.675 67.9771 52.6386 68.0558 52.6689C68.1345 52.6992 68.1708 52.7872 68.1405 52.8661L66.1369 57.8863C66.1127 57.947 66.0582 57.9834 65.9977 57.9834Z" fill="white"/>
<path d="M55.9034 85.8637C57.114 86.5705 60.0408 86.4704 59.6352 85.7636C59.2327 85.0568 54.7926 78.887 54.7926 78.887C54.7926 78.887 56.0214 76.7727 57.5862 74.0578C55.637 73.8061 54.5414 72.9779 53.9452 72.2621C53.1401 75.3076 51.2363 77.4491 49.6473 80.0002C49.1449 80.8101 49.3477 81.7201 52.8768 84.0437C54.9591 85.4148 54.9409 85.2995 55.9034 85.8637Z" fill="#FEDEA5"/>
<path d="M58.219 86.4947C57.3685 86.4947 56.3879 86.3188 55.828 85.9942C55.5465 85.8304 55.3498 85.7243 55.1591 85.6211C54.7021 85.3754 54.2693 85.1418 52.7953 84.1712C49.2844 81.8597 48.9364 80.8618 49.5205 79.9214C49.9321 79.2601 50.368 78.6201 50.7917 78.0013C52.0356 76.1813 53.21 74.4613 53.8002 72.2257C53.8153 72.1711 53.8577 72.1287 53.9152 72.1165C53.9696 72.1044 54.0271 72.1226 54.0635 72.1681C54.6113 72.8263 55.6706 73.6605 57.6076 73.9093C57.6591 73.9153 57.7015 73.9457 57.7227 73.9912C57.7438 74.0367 57.7438 74.0913 57.7166 74.1337C56.3365 76.5301 55.2166 78.4563 54.9745 78.8779C55.5193 79.6332 59.3843 85.0175 59.7687 85.6879C59.8625 85.8547 59.8413 86.0246 59.7081 86.158C59.4751 86.3855 58.8879 86.4947 58.219 86.4947ZM54.0181 72.5715C53.3946 74.7252 52.2505 76.4027 51.0429 78.1712C50.6222 78.7869 50.1864 79.427 49.7778 80.0822C49.3904 80.707 49.3147 81.517 52.9618 83.9164C54.4236 84.881 54.8504 85.1085 55.3014 85.3542C55.4951 85.4573 55.6948 85.5665 55.9824 85.7334C56.9902 86.3218 59.13 86.3067 59.4963 85.9427C59.5296 85.9093 59.5356 85.8881 59.5084 85.8395C59.1149 85.1479 54.7202 79.0387 54.6748 78.978C54.6385 78.9295 54.6355 78.8658 54.6658 78.8142C54.6658 78.8142 55.8371 76.8001 57.3443 74.1792C55.6434 73.9093 54.6143 73.1994 54.0181 72.5715Z" fill="#263238"/>
<path d="M54.7931 78.8872C54.7931 78.8872 54.3906 78.5838 53.8851 79.3937C53.3797 80.2036 53.077 81.0105 53.077 81.0105L50.7374 78.3472C50.3682 78.8872 49.9989 79.4332 49.6478 80.0004C49.1454 80.8103 49.3482 81.7203 52.8772 84.0439C54.9596 85.415 54.9414 85.2997 55.9039 85.8639C57.1145 86.5707 60.0413 86.4706 59.6357 85.7638C59.2332 85.054 54.7931 78.8872 54.7931 78.8872Z" fill="#F37630"/>
<path d="M58.2192 86.4946C57.3687 86.4946 56.3881 86.3187 55.8282 85.9941C55.5467 85.8303 55.35 85.7242 55.1593 85.621C54.7023 85.3753 54.2695 85.1417 52.7955 84.1711C49.2846 81.8596 48.9365 80.8617 49.5207 79.9213C49.8869 79.3328 50.2773 78.7565 50.6133 78.262C50.6405 78.2226 50.6829 78.1983 50.7283 78.1953C50.7767 78.1923 50.8191 78.2105 50.8524 78.2469L53.0316 80.7251C53.1587 80.4248 53.4099 79.8697 53.758 79.3116C53.985 78.9476 54.2301 78.7383 54.4874 78.6898C54.7174 78.6473 54.8687 78.7535 54.8839 78.7656C54.896 78.7747 54.9081 78.7868 54.9172 78.7989C55.0988 79.0507 59.3663 84.981 59.7688 85.6878C59.8627 85.8546 59.8415 86.0245 59.7083 86.1579C59.4753 86.3854 58.8881 86.4946 58.2192 86.4946ZM50.7525 78.5927C50.4438 79.0477 50.0988 79.5573 49.7749 80.079C49.3875 80.7039 49.3118 81.5138 52.9589 83.9132C54.4208 84.8778 54.8475 85.1053 55.2985 85.351C55.4922 85.4542 55.692 85.5634 55.9795 85.7302C56.9874 86.3187 59.1272 86.3035 59.4934 85.9395C59.5267 85.9062 59.5328 85.8849 59.5055 85.8364C59.1242 85.166 55.008 79.442 54.6902 78.9992C54.666 78.987 54.6084 78.9719 54.5328 78.987C54.4178 79.0113 54.2331 79.1144 54.0122 79.4693C53.5219 80.255 53.2223 81.0528 53.2192 81.0588C53.2011 81.1074 53.1557 81.1438 53.1042 81.1559C53.0528 81.165 52.9983 81.1468 52.962 81.1074L50.7525 78.5927Z" fill="#F37630"/>
<path d="M52.8785 84.0443C54.9609 85.4153 54.9427 85.3001 55.9052 85.8643C56.9948 86.5013 59.4705 86.4831 59.6642 85.9583C55.0698 85.7156 51.2623 82.0483 49.5765 80.1342C49.177 80.9108 49.5402 81.8451 52.8785 84.0443Z" fill="white"/>
<path d="M58.1924 86.5005C57.3662 86.5005 56.4098 86.3367 55.8286 85.9939C55.5472 85.8301 55.3504 85.7239 55.1598 85.6208C54.7027 85.3751 54.2699 85.1415 52.796 84.1709C49.4001 81.9322 48.9945 80.9403 49.4394 80.0637C49.4636 80.0182 49.506 79.9878 49.5544 79.9818C49.6059 79.9757 49.6543 79.9939 49.6876 80.0333C51.4975 82.0869 55.1991 85.5692 59.6694 85.8058C59.7179 85.8089 59.7602 85.8331 59.7875 85.8726C59.8147 85.912 59.8208 85.9636 59.8026 86.0091C59.7512 86.1486 59.6119 86.2608 59.391 86.3397C59.0974 86.4459 58.6646 86.5005 58.1924 86.5005ZM49.6241 80.4155C49.4667 80.9828 49.8268 81.8534 52.9624 83.9161C54.4243 84.8807 54.851 85.1082 55.302 85.3539C55.4957 85.457 55.6955 85.5662 55.983 85.733C56.7881 86.2032 58.4527 86.3185 59.2275 86.0758C54.9661 85.6572 51.4552 82.454 49.6241 80.4155Z" fill="#263238"/>
</svg>
