<svg width="100%" height="100%" viewBox="0 0 412 893" fill="none" xmlns="http://www.w3.org/2000/svg">
<g clip-path="url(#clip0_18_1031)">
<rect width="414" height="896" fill="#03174C" fill-opacity="0.7"/>
<path opacity="0.4" d="M359.522 354.515C359.522 355.482 360.306 356.265 361.272 356.265C362.239 356.265 363.022 355.482 363.022 354.515C363.022 353.549 362.239 352.765 361.272 352.765C360.306 352.765 359.522 353.549 359.522 354.515Z" fill="white"/>
<path opacity="0.4" d="M93.0924 363.765C93.0924 364.732 93.8759 365.515 94.8424 365.515C95.8089 365.515 96.5924 364.732 96.5924 363.765C96.5924 362.799 95.8089 362.015 94.8424 362.015C93.8759 362.015 93.0924 362.799 93.0924 363.765Z" fill="white"/>
<path opacity="0.4" d="M130.833 532.395C130.833 533.362 131.616 534.145 132.583 534.145C133.549 534.145 134.333 533.362 134.333 532.395C134.333 531.429 133.549 530.645 132.583 530.645C131.616 530.645 130.833 531.429 130.833 532.395Z" fill="white"/>
<path opacity="0.4" d="M78.0125 598.195C78.0125 599.162 78.796 599.945 79.7625 599.945C80.7289 599.945 81.5125 599.162 81.5125 598.195C81.5125 597.229 80.7289 596.445 79.7625 596.445C78.796 596.445 78.0125 597.229 78.0125 598.195Z" fill="white"/>
<path opacity="0.4" d="M411.732 588.895C411.732 589.862 412.516 590.645 413.482 590.645C414.449 590.645 415.232 589.862 415.232 588.895C415.232 587.929 414.449 587.145 413.482 587.145C412.516 587.145 411.732 587.929 411.732 588.895Z" fill="white"/>
<path opacity="0.4" d="M185.402 702.045C185.402 703.012 186.186 703.795 187.152 703.795C188.119 703.795 188.902 703.012 188.902 702.045C188.902 701.079 188.119 700.295 187.152 700.295C186.186 700.295 185.402 701.079 185.402 702.045Z" fill="white"/>
<path opacity="0.4" d="M206.343 481.015C206.343 481.982 207.126 482.765 208.093 482.765C209.059 482.765 209.843 481.982 209.843 481.015C209.843 480.049 209.059 479.265 208.093 479.265C207.126 479.265 206.343 480.049 206.343 481.015Z" fill="white"/>
<path opacity="0.4" d="M195.093 397.675C195.093 398.642 195.876 399.425 196.843 399.425C197.809 399.425 198.593 398.642 198.593 397.675C198.593 396.709 197.809 395.925 196.843 395.925C195.876 395.925 195.093 396.709 195.093 397.675Z" fill="white"/>
<path opacity="0.4" d="M85.3424 197.015C85.3424 197.982 86.1259 198.765 87.0924 198.765C88.0589 198.765 88.8424 197.982 88.8424 197.015C88.8424 196.049 88.0589 195.265 87.0924 195.265C86.1259 195.265 85.3424 196.049 85.3424 197.015Z" fill="white"/>
<path opacity="0.4" d="M389.942 295.675C389.942 296.642 390.726 297.425 391.692 297.425C392.659 297.425 393.442 296.642 393.442 295.675C393.442 294.709 392.659 293.925 391.692 293.925C390.726 293.925 389.942 294.709 389.942 295.675Z" fill="white"/>
<path opacity="0.4" d="M289.093 165.015C289.093 165.982 289.876 166.765 290.843 166.765C291.809 166.765 292.593 165.982 292.593 165.015C292.593 164.049 291.809 163.265 290.843 163.265C289.876 163.265 289.093 164.049 289.093 165.015Z" fill="white"/>
<path opacity="0.4" d="M222.093 176.265C222.093 177.232 222.876 178.015 223.843 178.015C224.809 178.015 225.593 177.232 225.593 176.265C225.593 175.299 224.809 174.515 223.843 174.515C222.876 174.515 222.093 175.299 222.093 176.265Z" fill="white"/>
<path opacity="0.7" d="M355.903 415.945L357.023 421.955L358.143 415.945L360.373 417.485L358.843 415.245L364.853 414.125L358.843 413.015L360.373 410.775L358.143 412.305L357.023 406.305L355.903 412.305L353.663 410.775L355.203 413.015L349.193 414.125L355.203 415.245L353.663 417.485L355.903 415.945Z" fill="#E1D1FF"/>
<path opacity="0.7" d="M205.352 729.995L206.462 735.995L207.582 729.995L209.822 731.525L208.282 729.285L214.292 728.175L208.282 727.055L209.822 724.815L207.582 726.355L206.462 720.345L205.352 726.355L203.112 724.815L204.642 727.055L198.642 728.175L204.642 729.285L203.112 731.525L205.352 729.995Z" fill="#E1D1FF"/>
<path opacity="0.7" d="M215.092 590.445L216.212 596.445L217.332 590.445L219.572 591.975L218.032 589.735L224.042 588.625L218.032 587.505L219.572 585.265L217.332 586.805L216.212 580.795L215.092 586.805L212.862 585.265L214.392 587.505L208.382 588.625L214.392 589.735L212.862 591.975L215.092 590.445Z" fill="#E1D1FF"/>
<path opacity="0.7" d="M341.042 706.055L342.162 712.065L343.282 706.055L345.512 707.585L343.982 705.355L349.992 704.235L343.982 703.115L345.512 700.875L343.282 702.415L342.162 696.405L341.042 702.415L338.802 700.875L340.342 703.115L334.332 704.235L340.342 705.355L338.802 707.585L341.042 706.055Z" fill="#E1D1FF"/>
<path opacity="0.7" d="M166.322 275.285L167.432 281.295L168.552 275.285L170.792 276.815L169.252 274.585L175.262 273.465L169.252 272.345L170.792 270.105L168.552 271.645L167.432 265.635L166.322 271.645L164.082 270.105L165.612 272.345L159.602 273.465L165.612 274.585L164.082 276.815L166.322 275.285Z" fill="#E1D1FF"/>
<path opacity="0.7" d="M121.842 323.015L122.962 329.025L124.072 323.015L126.312 324.545L124.782 322.305L130.782 321.195L124.782 320.075L126.312 317.835L124.072 319.375L122.962 313.365L121.842 319.375L119.602 317.835L121.142 320.075L115.132 321.195L121.142 322.305L119.602 324.545L121.842 323.015Z" fill="#E1D1FF"/>
<path opacity="0.7" d="M392.742 225.005L393.862 231.015L394.982 225.005L397.222 226.545L395.682 224.305L401.692 223.185L395.682 222.065L397.222 219.835L394.982 221.365L393.862 215.355L392.742 221.365L390.512 219.835L392.042 222.065L386.032 223.185L392.042 224.305L390.512 226.545L392.742 225.005Z" fill="#E1D1FF"/>
<path opacity="0.7" d="M387.933 91.0154L389.053 97.0254L390.173 91.0154L392.413 92.5454L390.873 90.3054L396.883 89.1954L390.873 88.0754L392.413 85.8354L390.173 87.3754L389.053 81.3654L387.933 87.3754L385.703 85.8354L387.233 88.0754L381.223 89.1954L387.233 90.3054L385.703 92.5454L387.933 91.0154Z" fill="#E1D1FF"/>
<path opacity="0.7" d="M82.3525 76.0254L83.4725 82.0354L84.5925 76.0254L86.8325 77.5554L85.2925 75.3254L91.3025 74.2054L85.2925 73.0854L86.8325 70.8454L84.5925 72.3854L83.4725 66.3754L82.3525 72.3854L80.1225 70.8454L81.6525 73.0854L75.6425 74.2054L81.6525 75.3254L80.1225 77.5554L82.3525 76.0254Z" fill="#E1D1FF"/>
<path d="M343.736 367.925C295.737 354.425 302.736 394.925 312.736 394.925C316.844 394.925 325.361 395.925 335.737 395.925H367.237C407.236 395.925 418.736 393.259 419.237 392.425C422.737 365.925 401.57 368.425 390.237 371.425C392.07 361.592 390.137 341.725 367.736 340.925C345.335 340.125 342.402 358.592 343.736 367.925Z" fill="#1F265E"/>
<path d="M9.78011 274.052C-8.98757 268.774 -6.25079 284.609 -2.34087 284.609C-0.734492 284.609 2.59534 285 6.65242 285H18.9689C34.6086 285 39.1051 283.957 39.3008 283.631C40.6693 273.27 32.3932 274.248 27.9619 275.421C28.6787 271.576 27.9227 263.808 19.1641 263.495C10.4055 263.182 9.25867 270.403 9.78011 274.052Z" fill="#1F265E"/>
<path d="M218.891 100.715C182.403 90.4525 187.723 121.24 195.325 121.24C198.448 121.24 204.922 122 212.81 122H236.756C267.163 122 275.906 119.973 276.286 119.34C278.947 99.1947 262.856 101.095 254.241 103.376C255.634 95.9005 254.164 80.7981 237.136 80.19C220.107 79.5818 217.877 93.62 218.891 100.715Z" fill="#1F265E"/>
<path d="M371.089 62.0831C343.326 54.2745 347.375 77.7001 353.159 77.7001C355.535 77.7001 360.461 78.2785 366.463 78.2785H384.683C407.819 78.2785 414.47 76.7361 414.76 76.2541C416.784 60.9262 404.541 62.3723 397.986 64.1075C399.046 58.4198 397.928 46.9287 384.971 46.466C372.015 46.0033 370.318 56.6846 371.089 62.0831Z" fill="#1F265E"/>
<path d="M7.75573 83.5027C-13.2717 77.6144 -10.2054 95.2791 -5.8247 95.2791C-4.0249 95.2791 -0.294134 95.7153 4.25144 95.7153H18.0509C35.5738 95.7153 40.6117 94.5522 40.831 94.1887C42.3643 82.6303 33.0916 83.7208 28.1267 85.0292C28.9299 80.7403 28.0828 72.0752 18.2696 71.7263C8.45638 71.3773 7.17151 79.4318 7.75573 83.5027Z" fill="#1F265E"/>
<path d="M50.2684 74.3882C50.2684 74.3882 46.8879 67.9581 41.4712 71.2863C41.4712 71.2863 45.263 66.0098 42.0134 62.1132C42.0134 62.1132 45.7959 66.4903 50.7845 64.7084C50.7845 64.7084 46.8617 67.4514 50.2684 74.3882Z" fill="#6D75B0"/>
<path d="M25.8307 49.3357C25.8307 49.3357 29.2349 46.0572 26.1729 43.2767C26.1729 43.2767 30.1574 44.6886 32.0024 41.9515C32.0024 41.9515 29.9538 45.1087 31.972 47.9022C31.972 47.9022 29.5467 45.9489 25.8307 49.3357Z" fill="white"/>
<path d="M313.623 42.2272C313.623 42.2272 314.995 49.3611 321.144 47.7456C321.144 47.7456 315.985 51.6967 317.966 56.3679C317.966 56.3679 315.614 51.0824 310.324 51.342C310.324 51.342 314.873 49.8537 313.623 42.2272Z" fill="#6D75B0"/>
<path d="M305.262 90.2059C305.262 90.2059 301.054 92.3572 303.179 95.9057C303.179 95.9057 299.775 93.3996 297.215 95.4846C297.215 95.4846 300.091 93.0566 298.969 89.7981C298.969 89.7981 300.724 92.3704 305.262 90.2059Z" fill="white"/>
<g filter="url(#filter0_f_18_1031)">
<path d="M305.262 90.206C305.262 90.206 301.054 92.3572 303.179 95.9058C303.179 95.9058 299.775 93.3997 297.215 95.4847C297.215 95.4847 300.091 93.0566 298.969 89.7981C298.969 89.7981 300.724 92.3705 305.262 90.206Z" fill="white"/>
</g>
<path d="M357.238 111.452C357.238 111.452 353.03 113.603 355.155 117.152C355.155 117.152 351.751 114.646 349.192 116.73C349.192 116.73 352.067 114.302 350.945 111.044C350.945 111.044 352.7 113.616 357.238 111.452Z" fill="#6D75B0"/>
<g filter="url(#filter1_f_18_1031)">
<circle cx="75.8447" cy="28.1764" r="25.37" fill="#D3D4DE"/>
<circle cx="67.0829" cy="16.472" r="4.65732" fill="#C5C6D0"/>
<circle cx="86.313" cy="27.9621" r="6.75236" fill="#F1F1F3"/>
<path fill-rule="evenodd" clip-rule="evenodd" d="M94.6745 45.1791C91.6744 48.4994 87.8085 51.0224 83.4328 52.3921C83.0541 51.5487 82.8435 50.6136 82.8435 49.6292C82.8435 45.9 85.8666 42.8768 89.5959 42.8768C91.6204 42.8768 93.4369 43.7678 94.6745 45.1791Z" fill="#C5C6D0"/>
<circle cx="70.1016" cy="44.1706" r="3.01873" fill="#C5C6D0"/>
</g>
<circle cx="78.5695" cy="26.389" r="25.37" fill="#D3D4DE"/>
<circle cx="69.8076" cy="14.6846" r="4.65732" fill="#C5C6D0"/>
<circle cx="89.0378" cy="26.1748" r="6.75236" fill="#F1F1F3"/>
<path fill-rule="evenodd" clip-rule="evenodd" d="M97.3992 43.3918C94.3991 46.712 90.5333 49.235 86.1575 50.6047C85.7789 49.7614 85.5682 48.8262 85.5682 47.8418C85.5682 44.1126 88.5914 41.0895 92.3206 41.0895C94.3452 41.0895 96.1616 41.9805 97.3992 43.3918Z" fill="#C5C6D0"/>
<circle cx="72.8263" cy="42.3833" r="3.01873" fill="#C5C6D0"/>
<circle cx="95.7902" cy="17.0135" r="25.37" fill="#03174C"/>
</g>
<defs>
<filter id="filter0_f_18_1031" x="293.216" y="85.7982" width="16.0469" height="14.1077" filterUnits="userSpaceOnUse" color-interpolation-filters="sRGB">
<feFlood flood-opacity="0" result="BackgroundImageFix"/>
<feBlend mode="normal" in="SourceGraphic" in2="BackgroundImageFix" result="shape"/>
<feGaussianBlur stdDeviation="2" result="effect1_foregroundBlur_18_1031"/>
</filter>
<filter id="filter1_f_18_1031" x="36.4747" y="-11.1937" width="78.74" height="78.7401" filterUnits="userSpaceOnUse" color-interpolation-filters="sRGB">
<feFlood flood-opacity="0" result="BackgroundImageFix"/>
<feBlend mode="normal" in="SourceGraphic" in2="BackgroundImageFix" result="shape"/>
<feGaussianBlur stdDeviation="7" result="effect1_foregroundBlur_18_1031"/>
</filter>
<clipPath id="clip0_18_1031">
<rect width="414" height="896" fill="white"/>
</clipPath>
</defs>
</svg>
