<svg width="100%" height="100%" viewBox="0 0 411 896" fill="none" xmlns="http://www.w3.org/2000/svg">
<g clip-path="url(#clip0_18_1100)">
<rect width="411" height="911" fill="white"/>
<path fill-rule="evenodd" clip-rule="evenodd" d="M414 256.339C439.53 243.247 457 216.664 457 186C457 142.37 421.63 107 378 107C351.485 107 328.02 120.063 313.691 140.105C308.863 138.734 303.767 138 298.5 138C279.219 138 262.235 147.832 252.287 162.755C244.984 154.908 234.565 150 223 150C207.366 150 193.826 158.97 187.247 172.044C176.307 165.658 163.581 162 150 162C125.225 162 103.294 174.175 89.8628 192.868C85.4494 191.651 80.8007 191 76 191C67.8397 191 60.1184 192.88 53.2455 196.23C45.671 182.951 31.3808 174 15 174C-9.30053 174 -29 193.699 -29 218C-29 237.033 -16.9151 253.244 0 259.377V862H414V256.339ZM249.458 220H249.723C249.694 219.947 249.666 219.894 249.637 219.841C249.578 219.894 249.518 219.947 249.458 220Z" fill="url(#paint0_linear_18_1100)"/>
</g>
<defs>
<linearGradient id="paint0_linear_18_1100" x1="207" y1="139" x2="207" y2="652.5" gradientUnits="userSpaceOnUse">
<stop stop-color="#FAF8F5"/>
<stop offset="1" stop-color="white" stop-opacity="0"/>
</linearGradient>
<clipPath id="clip0_18_1100">
<rect width="411" height="911" fill="white"/>
</clipPath>
</defs>
</svg>
