<svg width="131" height="93" viewBox="0 0 131 93" fill="none" xmlns="http://www.w3.org/2000/svg">
<path d="M72.752 6.29282C72.752 6.29282 73.8137 6.41085 74.7227 7.22424C75.6316 8.03762 76.4706 5.96439 74.9661 5.54101C73.4641 5.11764 72.752 6.29282 72.752 6.29282Z" fill="#F5E2D5"/>
<path d="M71.742 6.19782C71.742 6.19782 72.436 5.39213 73.6246 5.10218C74.8132 4.81223 73.5495 2.96223 72.3531 3.95779C71.1593 4.95592 71.742 6.19782 71.742 6.19782Z" fill="#F5E2D5"/>
<path d="M57.8798 11.0139C57.8798 11.0139 57.1418 11.7785 56.9709 12.9819C56.7999 14.1828 54.8138 13.1256 55.6942 11.8453C56.5721 10.5649 57.8798 11.0139 57.8798 11.0139Z" fill="#F5E2D5"/>
<path d="M58.5951 10.3006C58.5951 10.3006 57.5411 10.1235 56.4405 10.6572C55.34 11.1909 55.1121 8.96887 56.6762 8.97144C58.2377 8.974 58.5951 10.3006 58.5951 10.3006Z" fill="#F5E2D5"/>
<path d="M73.9035 17.318C76.2075 13.558 74.999 8.65925 71.2044 6.37633C67.4097 4.09342 62.4657 5.29082 60.1617 9.05082C57.8578 12.8108 59.0662 17.7096 62.8609 19.9925C66.6556 22.2754 71.5995 21.078 73.9035 17.318Z" fill="#F5E2D5"/>
<path d="M60.8036 11.8272C60.6663 11.8631 60.5187 11.8041 60.4488 11.6758C60.3685 11.527 60.4229 11.3397 60.5757 11.2602L62.5774 10.1902L61.236 10.144C61.0651 10.1389 60.9305 9.99518 60.9356 9.82583C60.9408 9.65648 61.0858 9.52306 61.2568 9.52819L63.7427 9.61286C63.8826 9.61799 64.0017 9.7155 64.0353 9.85149C64.0664 9.98748 64.0043 10.126 63.88 10.1928L60.8683 11.8016C60.8476 11.8118 60.8269 11.8195 60.8036 11.8272Z" fill="#3F4553"/>
<path d="M71.5193 8.90721C71.496 8.91235 71.4727 8.91748 71.4468 8.91748L68.1762 9.02011C68.0363 9.02525 67.9095 8.93544 67.868 8.80201C67.8266 8.66859 67.881 8.5249 68.0001 8.45049L70.209 7.08544C70.354 6.99563 70.5456 7.03925 70.6362 7.18294C70.7269 7.32663 70.6829 7.5165 70.5378 7.60631L69.3078 8.36581L71.4261 8.2991C71.597 8.29397 71.742 8.42739 71.7472 8.59674C71.7498 8.74556 71.6539 8.86873 71.5193 8.90721Z" fill="#3F4553"/>
<path d="M60.6687 13.213C62.3726 16.3254 65.3972 18.0984 68.1836 17.3389C70.9674 16.5794 72.6532 13.5209 72.5108 9.98508L71.4361 10.0954C67.9946 10.4469 64.6463 11.3681 61.5155 12.8204L60.6687 13.213Z" fill="#3F4553"/>
<path d="M71.5918 13.9802C70.385 13.5876 68.8598 13.5543 67.3035 13.9802C65.7161 14.4138 64.4031 15.2375 63.5719 16.2125C64.9832 17.1183 66.5784 17.4672 68.1036 17.0516C69.647 16.6282 70.8486 15.5018 71.5918 13.9802Z" fill="#4E5567"/>
<path d="M18.1748 44.2888C19.4058 40.0625 16.9461 35.6477 12.6808 34.4279C8.41555 33.2081 3.95995 35.6454 2.72894 39.8717C1.49793 44.0979 3.95767 48.5128 8.22292 49.7325C12.4882 50.9523 16.9438 48.515 18.1748 44.2888Z" fill="#F5E2D5"/>
<path d="M6.34472 37.2449C6.21265 37.191 6.13238 37.055 6.15568 36.9114C6.18417 36.7446 6.34213 36.6291 6.51304 36.6573L8.7582 37.0166L7.72237 36.1724C7.5903 36.0646 7.57218 35.8696 7.68094 35.7387C7.7897 35.6079 7.98651 35.5899 8.11857 35.6977L10.04 37.2655C10.1488 37.3527 10.1825 37.5041 10.1255 37.6298C10.0685 37.7555 9.93127 37.8299 9.79402 37.8069L6.41464 37.268C6.38874 37.2603 6.36544 37.2552 6.34472 37.2449Z" fill="#3F4553"/>
<path d="M16.641 41.3889C16.6177 41.3787 16.597 41.3684 16.5763 41.353L13.9194 39.4619C13.8055 39.3798 13.7614 39.2336 13.8106 39.1027C13.8598 38.9719 13.9919 38.8923 14.1317 38.9051L16.7213 39.154C16.8922 39.1694 17.0165 39.3208 17.001 39.4902C16.9854 39.6595 16.8327 39.7827 16.6617 39.7673L15.2194 39.6287L16.9414 40.8527C17.0813 40.9527 17.1123 41.1426 17.0113 41.2812C16.9233 41.4018 16.7705 41.4428 16.641 41.3889Z" fill="#3F4553"/>
<path d="M11.4645 45.4275C10.2914 45.4275 9.24526 45.1658 8.33374 44.6449C5.93321 43.2722 5.37904 40.6088 5.35574 40.4959C5.31431 40.288 5.45155 40.0853 5.66131 40.0443C5.87106 40.0032 6.07564 40.1392 6.11707 40.347C6.12225 40.3701 6.63239 42.7872 8.72994 43.9829C10.2578 44.8553 12.2569 44.8835 14.673 44.0676C14.8776 43.9983 15.0977 44.1061 15.165 44.3088C15.2349 44.5089 15.1262 44.7296 14.9216 44.7963C13.6708 45.2145 12.5159 45.4275 11.4645 45.4275Z" fill="#3F4553"/>
<path d="M58.947 66.8079C62.3985 63.3879 62.3985 57.8431 58.947 54.4232C55.4955 51.0033 49.8996 51.0033 46.4481 54.4232C42.9966 57.8431 42.9966 63.3879 46.4481 66.8079C49.8996 70.2278 55.4955 70.2278 58.947 66.8079Z" fill="#F5E2D5"/>
<path d="M47.7186 63.4809C47.7186 63.4809 53.4027 60.2658 58.8796 59.4883C58.8796 59.4883 60.4515 64.6201 55.2154 66.6061C50.6759 68.3279 47.7186 63.4809 47.7186 63.4809Z" fill="#3F4553"/>
<path d="M48.8401 61.0074C48.6536 61.0074 48.4723 60.9074 48.3791 60.7303L47.0895 58.2619C46.9574 58.0105 47.0584 57.7 47.3122 57.5692C47.566 57.4383 47.8793 57.5384 48.0114 57.7898L49.301 60.2582C49.4331 60.5097 49.3321 60.8201 49.0783 60.951C49.0006 60.9895 48.9203 61.0074 48.8401 61.0074Z" fill="#3F4553"/>
<path d="M55.7127 58.5364C55.4744 58.5364 55.2595 58.3722 55.2077 58.131L54.6069 55.3214C54.5474 55.0443 54.726 54.7723 55.0057 54.7133C55.2854 54.6543 55.5599 54.8313 55.6194 55.1084L56.2202 57.9181C56.2798 58.1952 56.1011 58.4672 55.8214 58.5262C55.7826 58.5339 55.7463 58.5364 55.7127 58.5364Z" fill="#3F4553"/>
<path d="M56.606 65.5823C56.1295 64.42 54.4644 63.9453 52.8382 64.5252C51.937 64.8485 51.2378 65.4284 50.8571 66.0827C52.0354 66.6703 53.5011 66.9346 55.1843 66.2956C55.7307 66.0904 56.1968 65.8492 56.606 65.5823Z" fill="#4E5567"/>
<path d="M103.828 37.9172C108.313 36.0082 110.387 30.8582 108.461 26.4143C106.534 21.9705 101.336 19.9156 96.8515 21.8246C92.3667 23.7336 90.2928 28.8836 92.2195 33.3274C94.1461 37.7713 99.3436 39.8262 103.828 37.9172Z" fill="#F5E2D5"/>
<path d="M101.467 31.8207C98.4141 31.8207 96.0964 30.0605 96.0628 30.0348C95.9514 29.9476 95.9307 29.7859 96.0187 29.6756C96.1068 29.5653 96.2699 29.5448 96.3813 29.632C96.5677 29.7757 100.998 33.1293 105.613 29.9989C105.732 29.9194 105.893 29.9502 105.973 30.0656C106.053 30.1837 106.025 30.3427 105.906 30.4223C104.373 31.4615 102.845 31.8207 101.467 31.8207Z" fill="#3F4553"/>
<path d="M103.987 27.1714C103.987 27.7102 103.775 28.149 103.51 28.149C103.246 28.149 103.034 27.7128 103.034 27.1714C103.034 26.63 103.246 26.1937 103.51 26.1937C103.775 26.1937 103.987 26.6325 103.987 27.1714Z" fill="#3F4553"/>
<path d="M99.4112 26.984C99.4112 27.5229 99.1988 27.9616 98.9347 27.9616C98.6705 27.9616 98.4582 27.5254 98.4582 26.984C98.4582 26.4452 98.6705 26.0064 98.9347 26.0064C99.1988 26.0064 99.4112 26.4426 99.4112 26.984Z" fill="#3F4553"/>
<path d="M77.9893 90.8773C89.9005 90.8773 99.5564 88.7152 99.5564 86.0482C99.5564 83.3813 89.9005 81.2192 77.9893 81.2192C66.0781 81.2192 56.4221 83.3813 56.4221 86.0482C56.4221 88.7152 66.0781 90.8773 77.9893 90.8773Z" fill="#F4A17C"/>
<path opacity="0.5" d="M77.9893 90.8773C89.9005 90.8773 99.5564 88.7152 99.5564 86.0482C99.5564 83.3813 89.9005 81.2192 77.9893 81.2192C66.0781 81.2192 56.4221 83.3813 56.4221 86.0482C56.4221 88.7152 66.0781 90.8773 77.9893 90.8773Z" fill="#F4A17C"/>
<path d="M76.3201 22.2114C76.3201 22.2114 74.6679 22.0626 74.5177 20.5744C74.3675 19.0862 78.2752 17.2233 80.7534 17.1489C83.2342 17.0745 85.6373 19.7559 85.6373 21.9138C85.6373 24.0717 86.0128 27.1251 87.8902 27.7204C89.7677 28.3157 91.0469 31.9644 89.9179 33.3038C88.7914 34.6432 88.8665 34.6432 89.993 35.8363C91.1194 37.0269 90.1432 39.1129 89.3922 39.5594C88.6412 40.0059 86.3857 40.6756 81.3516 40.2291C76.3175 39.7826 73.311 35.241 73.0857 33.3782C72.8604 31.5179 74.5877 30.2503 75.1884 29.4318C75.7892 28.6133 74.7379 27.9436 74.813 27.0481C74.8881 26.1552 76.0145 25.4111 76.3149 24.6644C76.6205 23.9229 76.3201 22.2114 76.3201 22.2114Z" fill="#3F4553"/>
<path d="M84.4277 40.5036C83.5447 40.5036 82.5244 40.46 81.3436 40.3548C76.066 39.8853 73.1709 35.123 72.9611 33.3936C72.7773 31.8848 73.8131 30.7712 74.5667 29.9578C74.779 29.7295 74.9603 29.5319 75.0898 29.3574C75.3927 28.9417 75.2089 28.5697 74.9965 28.136C74.8282 27.7973 74.6573 27.4484 74.691 27.0404C74.7376 26.4733 75.1571 25.9858 75.5637 25.5163C75.833 25.2032 76.0867 24.9082 76.2033 24.6208C76.4493 24.0127 76.2654 22.6861 76.211 22.3243C75.833 22.2602 74.5278 21.9394 74.3906 20.5846C74.3543 20.2331 74.5123 19.8585 74.8541 19.471C75.9391 18.2471 78.7488 17.0771 80.7505 17.018C81.8822 16.9873 83.0915 17.5133 84.0859 18.4703C85.1243 19.4685 85.7691 20.7873 85.7691 21.9138C85.7691 23.7817 86.0514 27.0019 87.934 27.5998C88.9206 27.9128 89.8347 29.0598 90.2646 30.5198C90.6168 31.718 90.5261 32.7906 90.0238 33.3884C89.0035 34.5995 89.0035 34.5995 89.9953 35.6438L90.0963 35.749C90.6582 36.3418 90.6867 37.0859 90.6142 37.6042C90.4821 38.5484 89.9254 39.3952 89.467 39.6697C89.0786 39.8955 87.7424 40.5036 84.4277 40.5036ZM80.8515 17.2746C80.8205 17.2746 80.7894 17.2746 80.7557 17.2772C78.8472 17.3336 76.0712 18.4832 75.0457 19.6429C74.7505 19.9739 74.6159 20.2844 74.6444 20.5615C74.7816 21.9292 76.3146 22.0831 76.3302 22.0857C76.3897 22.0908 76.4363 22.1344 76.4467 22.1909C76.4596 22.2627 76.7497 23.9485 76.4389 24.7183C76.3069 25.0441 76.0401 25.3546 75.7579 25.6831C75.3798 26.1244 74.9862 26.5785 74.9473 27.0635C74.9189 27.4022 75.0768 27.7178 75.227 28.0257C75.4575 28.4901 75.6931 28.97 75.2995 29.5114C75.1623 29.6987 74.9758 29.9014 74.7583 30.1349C74.0384 30.9123 73.0518 31.9772 73.2201 33.3679C73.4221 35.0434 76.2369 39.6492 81.3695 40.1059C86.9111 40.5986 88.8637 39.7313 89.3324 39.4542C89.7312 39.2181 90.2361 38.4304 90.3578 37.5734C90.4226 37.109 90.3967 36.447 89.9072 35.9287L89.8088 35.8235C88.7419 34.6996 88.6901 34.5816 89.8296 33.2268C90.2775 32.6931 90.3501 31.7103 90.0212 30.5942C89.6897 29.4626 88.8921 28.1745 87.8615 27.8487C85.8209 27.2021 85.5179 23.8561 85.5179 21.9189C85.5179 20.8592 84.9042 19.6122 83.915 18.6602C82.9879 17.775 81.8796 17.2746 80.8515 17.2746Z" fill="#3F4553"/>
<path d="M88.3043 34.1788C88.2577 34.1788 88.2292 34.1736 88.2214 34.1711C88.1515 34.1557 88.1075 34.0864 88.123 34.0171C88.1386 33.9478 88.2085 33.9042 88.2784 33.9196C88.281 33.9196 88.4053 33.9401 88.5607 33.8272C88.7601 33.6836 89.0242 33.3218 89.1563 32.4006C89.3272 31.2152 87.4316 29.6602 85.4273 28.0155C84.5365 27.2842 83.6146 26.5273 82.8067 25.7524C80.1291 23.1839 79.751 20.1459 79.7458 20.1151C79.738 20.0459 79.7898 19.9817 79.8597 19.974C79.9245 19.9663 79.9944 20.0176 80.0022 20.0869C80.0048 20.1151 80.3751 23.0685 82.9853 25.5676C83.7855 26.3349 84.7022 27.0892 85.5904 27.8154C87.7424 29.5807 89.6017 31.1074 89.4101 32.434C89.2909 33.2576 89.0501 33.799 88.6927 34.0428C88.5348 34.1582 88.3898 34.1788 88.3043 34.1788Z" fill="#AC9B8F"/>
<path d="M75.5326 20.9926C74.6936 20.9926 74.4269 20.6693 74.414 20.6514C74.3699 20.5949 74.3803 20.5154 74.4373 20.4718C74.4916 20.4281 74.5745 20.4384 74.6185 20.4949C74.6211 20.4974 75.0536 20.9772 76.6513 20.5795C78.3294 20.1639 80.0385 18.8219 80.054 18.8065C80.111 18.7629 80.1913 18.7706 80.2353 18.827C80.2793 18.8835 80.2716 18.963 80.2146 19.0066C80.1421 19.0631 78.4459 20.3974 76.7135 20.8259C76.2318 20.949 75.8434 20.9926 75.5326 20.9926Z" fill="#AC9B8F"/>
<path d="M68.4296 83.4387C68.4296 83.4387 69.5483 84.8936 70.799 85.5787C72.0498 86.2638 74.2949 85.7916 73.6475 84.1674C73.0001 82.5432 71.9643 81.6862 71.1875 81.3886C70.4106 81.0884 68.3907 81.8556 68.4296 83.4387Z" fill="#E49621"/>
<path d="M72.0705 86.0122C71.6095 86.0122 71.133 85.907 70.7368 85.6915C69.4757 85.0013 68.3726 83.5772 68.3259 83.5182C68.3104 83.4977 68.3 83.4695 68.3 83.4438C68.2845 82.769 68.6212 82.1557 69.253 81.7144C69.89 81.2705 70.742 81.078 71.234 81.2679C71.6225 81.4167 72.9483 82.0633 73.7666 84.1212C73.9971 84.6985 73.9013 85.2117 73.4973 85.5632C73.1581 85.8609 72.6246 86.0122 72.0705 86.0122ZM68.559 83.395C68.7325 83.6131 69.7528 84.8602 70.8611 85.4683C71.6328 85.8891 72.7852 85.8429 73.329 85.3708C73.6501 85.0911 73.7174 84.6934 73.5284 84.2161C72.7489 82.2558 71.5033 81.6477 71.1408 81.5091C70.7809 81.3706 70.0325 81.4886 69.4032 81.9274C69.0847 82.1455 68.559 82.6278 68.559 83.395Z" fill="#3F4553"/>
<path d="M70.0221 85.0218L70.0351 85.0603C70.2785 85.2527 70.5349 85.4323 70.799 85.576C72.0498 86.2611 74.2949 85.789 73.6475 84.1648C71.6199 82.928 70.0221 85.0218 70.0221 85.0218Z" fill="#F1BD54"/>
<path d="M72.0705 86.0123C71.6095 86.0123 71.1331 85.9071 70.7369 85.6915C70.4883 85.5555 70.2267 85.3785 69.9548 85.163C69.9341 85.1476 69.9186 85.1245 69.9108 85.0988L69.8978 85.0578C69.8849 85.0193 69.8927 84.9757 69.9186 84.9423C69.9367 84.9218 71.6095 82.769 73.7148 84.0545C73.7381 84.0699 73.7563 84.0904 73.7666 84.1161C73.9971 84.6934 73.9013 85.2066 73.4973 85.5581C73.1581 85.8609 72.6246 86.0123 72.0705 86.0123ZM70.1905 85.0218C70.4235 85.2015 70.6488 85.3503 70.8612 85.4683C71.6328 85.8891 72.7852 85.8429 73.329 85.3708C73.6397 85.0988 73.7148 84.7165 73.5439 84.2572C71.853 83.2539 70.4986 84.6575 70.1905 85.0218Z" fill="#3F4553"/>
<path d="M70.7989 85.5787C71.9719 86.2202 74.0177 85.8481 73.7354 84.46C73.3159 84.9039 72.4795 85.4479 71.3168 85.0219C70.0686 84.5678 68.9991 83.3233 68.5563 82.7511C68.4734 82.959 68.4216 83.1873 68.4294 83.4388C68.4294 83.4388 69.5481 84.8936 70.7989 85.5787Z" fill="#F1BD54"/>
<path d="M72.0702 86.0097C71.6067 86.0097 71.1276 85.9045 70.7366 85.689C69.4755 84.9988 68.3723 83.5747 68.3257 83.5157C68.3102 83.4952 68.2998 83.467 68.2998 83.4413C68.2946 83.1924 68.3387 82.9435 68.4371 82.7023C68.4552 82.6587 68.494 82.6279 68.5406 82.6228C68.5847 82.6151 68.6313 82.6356 68.6598 82.6715C69.0637 83.1924 70.1332 84.4523 71.3607 84.9013C72.5545 85.3375 73.3521 84.6755 73.6395 84.3701C73.6732 84.3342 73.7224 84.3214 73.769 84.3342C73.8156 84.3471 73.8519 84.3855 73.8596 84.4317C73.958 84.9192 73.7949 85.3477 73.3987 85.6351C73.062 85.8866 72.5752 86.0097 72.0702 86.0097ZM68.5588 83.3951C68.7323 83.6132 69.7526 84.8602 70.8609 85.4683C71.5834 85.8635 72.6788 85.8481 73.2485 85.4324C73.4971 85.2528 73.6266 85.0193 73.6317 84.7371C73.2096 85.0963 72.3965 85.5556 71.2701 85.145C70.1125 84.7217 69.1 83.6312 68.6028 83.0205C68.5743 83.1437 68.5588 83.2668 68.5588 83.3951Z" fill="#3F4553"/>
<path d="M87.1884 83.3849C87.1884 83.3849 86.0697 84.8397 84.819 85.5248C83.5682 86.2099 81.3231 85.7378 81.9705 84.1136C82.6179 82.4894 83.6537 81.6324 84.4305 81.3347C85.2074 81.0345 87.2273 81.8017 87.1884 83.3849Z" fill="#E49621"/>
<path d="M83.5478 85.9585C82.9936 85.9585 82.4602 85.8045 82.1183 85.5069C81.7144 85.1553 81.6185 84.6447 81.849 84.0648C82.6673 82.0096 83.9958 81.363 84.3816 81.2116C84.8736 81.0217 85.7256 81.2141 86.3626 81.658C86.9945 82.0968 87.3337 82.7126 87.3156 83.3874C87.3156 83.4131 87.3052 83.4413 87.2897 83.4619C87.2431 83.5234 86.1399 84.9475 84.8788 85.6352C84.4852 85.8507 84.0087 85.9585 83.5478 85.9585ZM84.8296 81.3963C84.6898 81.3963 84.5707 81.4143 84.4748 81.4502C84.1123 81.5888 82.8693 82.1994 82.0873 84.1572C81.8982 84.6345 81.9655 85.0322 82.2866 85.3119C82.8305 85.7866 83.9828 85.8302 84.7545 85.4094C85.8628 84.8038 86.8831 83.5568 87.0566 83.3387C87.0566 82.5715 86.531 82.0891 86.2124 81.8684C85.7489 81.5451 85.2206 81.3963 84.8296 81.3963Z" fill="#3F4553"/>
<path d="M85.5956 84.9679L85.5826 85.0064C85.3392 85.1988 85.0828 85.3784 84.8187 85.5221C83.5679 86.2072 81.3228 85.7351 81.9702 84.1109C83.9978 82.8715 85.5956 84.9679 85.5956 84.9679Z" fill="#F1BD54"/>
<path d="M83.5475 85.9585C82.9933 85.9585 82.4598 85.8045 82.118 85.5069C81.714 85.1554 81.6182 84.6447 81.8487 84.0648C81.8591 84.0392 81.8772 84.0161 81.9005 84.0033C84.0058 82.7177 85.6813 84.868 85.6968 84.8911C85.7227 84.9244 85.7305 84.968 85.7175 85.0065L85.7046 85.045C85.6968 85.0707 85.6813 85.0912 85.6606 85.1066C85.3887 85.3221 85.1245 85.4992 84.8785 85.6352C84.4849 85.8507 84.0084 85.9585 83.5475 85.9585ZM82.074 84.1983C81.9031 84.6576 81.9782 85.0425 82.2889 85.3119C82.8327 85.7866 83.9851 85.8302 84.7568 85.4094C84.9692 85.2939 85.1944 85.1451 85.4275 84.9629C85.1168 84.6011 83.7624 83.2001 82.074 84.1983Z" fill="#3F4553"/>
<path d="M84.8191 85.5247C83.646 86.1662 81.6002 85.7942 81.8825 84.406C82.302 84.8499 83.1384 85.3939 84.3011 84.968C85.5493 84.5138 86.6188 83.2693 87.0616 82.6971C87.1445 82.905 87.1963 83.1333 87.1885 83.3848C87.1885 83.3848 86.0698 84.8397 84.8191 85.5247Z" fill="#F1BD54"/>
<path d="M83.5476 85.956C83.0426 85.956 82.5558 85.8302 82.214 85.5839C81.8178 85.2965 81.6546 84.868 81.753 84.3805C81.7634 84.3343 81.7971 84.2958 81.8437 84.283C81.8903 84.2702 81.9421 84.283 81.9731 84.3189C82.2606 84.6243 83.0582 85.2837 84.252 84.8501C85.4794 84.401 86.5515 83.1412 86.9529 82.6203C86.9814 82.5844 87.028 82.5664 87.072 82.5716C87.1186 82.5767 87.1575 82.6075 87.1756 82.6511C87.2714 82.8923 87.318 83.1412 87.3128 83.3901C87.3128 83.4183 87.3025 83.444 87.2869 83.4645C87.2403 83.5261 86.1372 84.9501 84.876 85.6378C84.4902 85.8508 84.0111 85.956 83.5476 85.956ZM81.9835 84.6807C81.9913 84.963 82.1182 85.1965 82.3668 85.3761C82.9365 85.7918 84.0318 85.8072 84.7543 85.412C85.8627 84.8064 86.883 83.5594 87.0565 83.3413C87.0565 83.2156 87.0409 83.0899 87.0099 82.9667C86.5127 83.5748 85.5001 84.6679 84.3426 85.0913C83.2187 85.4992 82.4056 85.0399 81.9835 84.6807Z" fill="#3F4553"/>
<path d="M78.4228 27.6178C78.4228 27.6178 78.1224 30.076 77.8971 30.5968C77.6718 31.1177 74.8906 31.2665 73.689 31.713C72.4875 32.1595 69.9316 34.3199 68.3545 35.8082C66.7775 37.2964 65.3481 41.2427 65.3481 41.7636C65.3481 42.2845 66.9251 40.2754 68.3545 38.859C69.7814 37.4452 72.9381 35.6568 72.9381 35.6568C72.9381 35.6568 74.0671 41.1965 74.2173 41.7944C74.3675 42.3897 74.2147 43.3827 74.2147 43.6059C74.2147 43.8291 71.058 49.2637 70.5324 53.8053C70.0067 58.347 70.9829 66.9837 70.9829 66.9837C70.9829 66.9837 69.2557 70.3348 69.1055 74.0579C68.9553 77.781 68.1292 82.1738 68.2043 82.4715C68.2794 82.7691 68.0541 83.3644 68.4296 83.4388C68.8051 83.5132 69.1055 82.4715 70.0067 82.2482C70.9078 82.025 72.1094 82.6203 72.2622 82.025C72.4124 81.4297 72.2622 80.2391 72.4124 78.674C72.5626 77.1113 75.0434 70.7069 75.1936 68.5489C75.3438 66.391 77.1461 55.817 77.5242 55.2961C77.8997 54.7752 77.8997 54.7752 77.8997 54.7752C77.8997 54.7752 78.2752 53.8823 78.5004 54.8496C78.7257 55.817 78.5004 65.4211 78.951 66.8375C79.4016 68.2513 82.9519 77.7502 83.4025 78.8664C83.8531 79.9826 82.8768 81.3245 83.1772 81.9198C83.4776 82.5151 84.3037 82.2919 85.0546 82.2919C85.8056 82.2919 86.5877 83.3849 87.1884 83.3849C87.7892 83.3849 87.986 82.5151 87.986 81.5477C87.986 80.5804 85.3369 71.1559 85.1867 68.8466C85.0365 66.5373 84.5108 64.7514 84.5108 64.7514C84.5108 64.7514 85.4871 54.1055 85.2618 51.7962C85.0365 49.4869 83.084 43.6059 83.084 43.6059L84.4357 36.2546C84.4357 36.2546 88.5687 38.5639 89.9955 40.4242C91.4224 42.2845 92.4012 42.2101 92.2484 40.7218C92.0982 39.2336 88.5661 34.8408 86.6886 32.9036C84.8112 30.9689 82.2553 31.3409 81.5043 30.8201C80.7534 30.2992 81.204 25.1623 81.204 25.1623L78.4228 27.6178Z" fill="#FED9CE"/>
<path d="M68.4711 83.5721C68.4504 83.5721 68.4271 83.5696 68.4063 83.5644C68.0438 83.4926 68.0671 83.1077 68.0852 82.828C68.093 82.7074 68.1008 82.5817 68.0801 82.5022C68.049 82.3816 68.1008 81.9813 68.2717 80.7702C68.5151 79.0433 68.8828 76.4338 68.9786 74.0527C69.1211 70.5477 70.6696 67.33 70.8535 66.9606C70.7836 66.3319 69.9031 58.1416 70.4055 53.7924C70.8276 50.1463 72.9588 45.8792 73.7616 44.273C73.9299 43.9368 74.0749 43.6469 74.0878 43.5904C74.0853 43.5519 74.0956 43.4519 74.106 43.321C74.1422 42.9233 74.2018 42.2613 74.093 41.8277C73.9584 41.2888 73.0443 36.8242 72.8475 35.862C72.1975 36.2417 69.6649 37.7453 68.4452 38.9539C67.948 39.4465 67.4301 40.0161 66.9717 40.5191C65.8349 41.7661 65.5475 42.0483 65.3377 41.9688C65.2937 41.9508 65.2186 41.9046 65.2186 41.7686C65.2186 41.1836 66.661 37.2321 68.2639 35.7183C69.5483 34.5072 72.3244 32.085 73.6424 31.5975C74.15 31.4101 74.9191 31.2742 75.6649 31.1433C76.5583 30.9868 77.6718 30.7918 77.7754 30.5506C77.9903 30.0528 78.2881 27.6332 78.2907 27.6075C78.2933 27.5767 78.3088 27.5485 78.3321 27.5279L81.1133 25.0698C81.1522 25.0339 81.2117 25.0288 81.2584 25.0519C81.305 25.075 81.3335 25.1263 81.3283 25.1776C81.1574 27.1354 81.0719 30.371 81.5743 30.7199C81.7996 30.8764 82.2476 30.9508 82.7681 31.0381C83.9178 31.2305 85.4897 31.4948 86.7767 32.8214C88.6464 34.7484 92.2148 39.1566 92.3728 40.7141C92.4608 41.5942 92.1552 41.8507 91.9636 41.9252C91.4742 42.1176 90.7362 41.6121 89.8868 40.5062C88.649 38.8923 85.2929 36.9037 84.5238 36.4624L83.2109 43.6033C83.3818 44.1164 85.1686 49.5561 85.3861 51.791C85.6062 54.0516 84.6999 64.0508 84.6377 64.7462C84.6999 64.9669 85.1712 66.6911 85.311 68.8439C85.3965 70.1474 86.3106 73.8474 87.046 76.8213C87.639 79.223 88.1103 81.1217 88.1103 81.5528C88.1103 82.8203 87.7815 83.5182 87.1833 83.5182C86.857 83.5182 86.5152 83.2617 86.1552 82.9922C85.7849 82.7151 85.4017 82.4252 85.0495 82.4252C84.8889 82.4252 84.7232 82.4354 84.5626 82.4457C83.9567 82.4842 83.33 82.5227 83.0555 81.9813C82.9001 81.6759 83.0218 81.25 83.1617 80.7574C83.3274 80.1698 83.5139 79.5052 83.2782 78.9202C82.8225 77.7912 79.2825 68.3179 78.8242 66.881C78.5548 66.0317 78.5238 62.4497 78.4953 59.2885C78.4772 57.2204 78.4616 55.2704 78.371 54.8829C78.2959 54.5647 78.2234 54.5314 78.2234 54.5314C78.1819 54.5391 78.0758 54.6879 78.0162 54.829C78.0136 54.8393 78.0085 54.847 78.0033 54.8547L77.6278 55.3756C77.2963 55.8349 75.4888 66.1857 75.3231 68.5617C75.2376 69.7728 74.4297 72.3079 73.715 74.5453C73.1452 76.3261 72.6092 78.0093 72.5419 78.6918C72.4668 79.4667 72.4668 80.1595 72.4668 80.7189C72.4668 81.2936 72.4668 81.7504 72.3891 82.0634C72.2752 82.5176 71.7521 82.4534 71.1979 82.3867C70.8224 82.3405 70.3977 82.2892 70.0404 82.379C69.5768 82.4945 69.279 82.8537 69.0382 83.1436C68.8466 83.3694 68.6808 83.5721 68.4711 83.5721ZM72.9381 35.531C72.9562 35.531 72.9743 35.5335 72.9925 35.5412C73.0313 35.5592 73.0572 35.5925 73.065 35.6336C73.0753 35.69 74.1966 41.1785 74.3442 41.7635C74.4633 42.2382 74.4012 42.9284 74.3649 43.3415C74.3546 43.4621 74.3442 43.5545 74.3442 43.6058C74.3442 43.6751 74.295 43.7777 73.992 44.3859C73.1945 45.9818 71.0788 50.2181 70.6619 53.8206C70.1439 58.2955 71.1021 66.8836 71.1124 66.9708C71.115 66.9965 71.1099 67.0221 71.0995 67.0427C71.0814 67.076 69.3826 70.4117 69.235 74.063C69.1392 76.4569 68.7715 79.0741 68.5281 80.8061C68.4115 81.6272 68.3131 82.3354 68.3313 82.4431C68.3597 82.5586 68.352 82.7049 68.3416 82.8434C68.3235 83.1539 68.3338 83.2899 68.4556 83.313C68.5462 83.3284 68.6938 83.1488 68.8388 82.9743C69.0874 82.6715 69.4292 82.2584 69.9782 82.1224C70.3848 82.0223 70.8328 82.0762 71.229 82.125C71.7572 82.1891 72.0809 82.2148 72.1379 81.9941C72.2104 81.7119 72.2104 81.2705 72.2104 80.7137C72.2104 80.1518 72.2104 79.4513 72.2855 78.6636C72.3528 77.9528 72.8708 76.3363 73.4689 74.4632C74.1785 72.2412 74.9838 69.7215 75.0667 68.5411C75.1962 66.6732 76.9856 55.8246 77.4206 55.2216L77.7883 54.711C77.8427 54.5853 78.0085 54.2543 78.2519 54.2697C78.4798 54.2876 78.5756 54.593 78.6274 54.8188C78.7232 55.2319 78.7387 57.0177 78.7594 59.2783C78.7853 62.265 78.8164 65.983 79.0754 66.7938C79.5337 68.2281 83.0685 77.6885 83.5242 78.815C83.7935 79.4821 83.5838 80.2211 83.418 80.8164C83.2989 81.2397 83.185 81.64 83.2963 81.8581C83.4931 82.2481 83.9852 82.2173 84.5549 82.1814C84.7232 82.1712 84.8915 82.1609 85.0598 82.1609C85.5001 82.1609 85.917 82.4765 86.321 82.7793C86.6446 83.023 86.9528 83.254 87.191 83.254C87.7944 83.254 87.8592 82.0583 87.8592 81.5451C87.8592 81.1448 87.3464 79.069 86.8026 76.8752C86.0257 73.7371 85.1479 70.1808 85.0598 68.8542C84.9122 66.5885 84.3943 64.8052 84.3891 64.7872C84.384 64.7719 84.384 64.7565 84.384 64.7411C84.3943 64.6333 85.3576 54.0798 85.1349 51.809C84.9148 49.5407 82.9804 43.7059 82.9623 43.6469C82.9545 43.6263 82.9545 43.6058 82.9571 43.5827L84.3089 36.2314C84.3166 36.1904 84.3425 36.157 84.3814 36.1391C84.4202 36.1211 84.4642 36.1237 84.5005 36.1442C84.6714 36.2391 88.6723 38.4869 90.1017 40.3471C90.9848 41.4992 91.6088 41.7866 91.8756 41.6814C92.0853 41.5993 92.176 41.2555 92.1242 40.7346C91.974 39.2566 88.3952 34.8459 86.6006 32.9933C85.3732 31.7283 83.8479 31.4717 82.7344 31.2844C82.1595 31.1869 81.7064 31.1125 81.4344 30.9226C80.7327 30.4351 80.9606 26.6735 81.0538 25.4675L78.5523 27.6793C78.5082 28.036 78.2389 30.1477 78.024 30.6455C77.8712 30.997 77.0477 31.1587 75.7193 31.3896C74.9864 31.5179 74.2251 31.6513 73.7408 31.8309C72.6299 32.2441 70.219 34.2301 68.4504 35.8979C66.9458 37.3168 65.6252 40.9219 65.4957 41.666C65.7391 41.4864 66.2907 40.8834 66.7853 40.3394C67.2462 39.834 67.7667 39.2618 68.2691 38.7666C69.6934 37.3553 72.7516 35.6182 72.8811 35.5438C72.8941 35.5361 72.9174 35.531 72.9381 35.531Z" fill="#3F4553"/>
<path d="M83.1742 81.9198C83.4745 82.5151 84.3006 82.2919 85.0516 82.2919C85.8026 82.2919 86.5846 83.3849 87.1854 83.3849C87.7862 83.3849 87.983 82.5151 87.983 81.5478C87.983 80.5804 85.3338 71.1559 85.1836 68.8466C85.0335 66.5373 84.5078 64.7514 84.5078 64.7514C84.5078 64.7514 85.484 54.1056 85.2587 51.7963C85.2225 51.4293 85.1422 50.9701 85.0335 50.462L71.7257 49.1791C71.1767 50.6698 70.708 52.2889 70.5319 53.8079C70.0062 58.3496 70.9825 66.9863 70.9825 66.9863C70.9825 66.9863 69.2552 70.3374 69.105 74.0605C68.9549 77.7836 68.1288 82.1764 68.2039 82.474C68.279 82.7717 68.0537 83.367 68.4292 83.4414C68.8047 83.5158 69.1051 82.474 70.0062 82.2508C70.9074 82.0276 72.1089 82.6229 72.2617 82.0276C72.4119 81.4323 72.2617 80.2417 72.4119 78.6765C72.5621 77.1139 75.0429 70.7094 75.1931 68.5515C75.3433 66.3936 77.1456 55.8196 77.5237 55.2987C77.8992 54.7778 77.8992 54.7778 77.8992 54.7778C77.8992 54.7778 78.2747 53.8849 78.5 54.8522C78.7253 55.8196 78.5 65.4237 78.9506 66.8401C79.4012 68.2539 82.9514 77.7528 83.402 78.869C83.8526 79.9826 82.8738 81.3245 83.1742 81.9198Z" fill="#3F4553"/>
<path d="M68.4709 83.5722C68.4502 83.5722 68.4269 83.5696 68.4061 83.5645C68.0436 83.4926 68.0669 83.1077 68.085 82.8281C68.0928 82.7075 68.1006 82.5817 68.0799 82.5022C68.0488 82.3816 68.1006 81.9813 68.2715 80.7702C68.5149 79.0434 68.8826 76.4339 68.9784 74.0527C69.1209 70.5477 70.6694 67.3301 70.8533 66.9606C70.7834 66.3319 69.9029 58.1416 70.4053 53.7924C70.5607 52.4453 70.9646 50.8776 71.6068 49.1328C71.6276 49.0789 71.6794 49.0455 71.7415 49.0481L85.0493 50.3311C85.1062 50.3362 85.1528 50.3772 85.1632 50.4311C85.2797 50.9751 85.3548 51.4293 85.3911 51.7808C85.6112 54.0413 84.7049 64.0406 84.6427 64.736C84.7049 64.9566 85.1762 66.6809 85.316 68.8337C85.4014 70.1372 86.3156 73.8372 87.051 76.8111C87.644 79.2127 88.1153 81.1115 88.1153 81.5426C88.1153 82.8101 87.7864 83.508 87.1882 83.508C86.862 83.508 86.5201 83.2514 86.1602 82.982C85.7899 82.7049 85.4066 82.415 85.0544 82.415C84.8939 82.415 84.7282 82.4252 84.5676 82.4355C83.9616 82.474 83.335 82.5125 83.0605 81.9711C82.9051 81.6657 83.0268 81.2398 83.1666 80.7471C83.3324 80.1595 83.5188 79.495 83.2832 78.9099C82.8274 77.781 79.2875 68.3077 78.8291 66.8708C78.5598 66.0215 78.5287 62.4395 78.5003 59.2783C78.4821 57.2102 78.4666 55.2601 78.376 54.8727C78.3009 54.5545 78.2284 54.5212 78.2284 54.5212C78.1869 54.5289 78.0807 54.6777 78.0212 54.8188C78.0186 54.8291 78.0134 54.8368 78.0082 54.8445L77.6328 55.3653C77.3013 55.8246 75.4938 66.1754 75.328 68.5514C75.2426 69.7625 74.4346 72.2976 73.7199 74.5351C73.1502 76.3158 72.6142 77.9991 72.5469 78.6816C72.4718 79.4565 72.4718 80.1493 72.4718 80.7086C72.4718 81.2834 72.4718 81.7376 72.3941 82.0532C72.2801 82.5073 71.757 82.4432 71.2029 82.3765C70.8274 82.3303 70.4027 82.279 70.0453 82.3688C69.5818 82.4842 69.284 82.8435 69.0432 83.1334C68.8464 83.3695 68.6806 83.5722 68.4709 83.5722ZM71.8166 49.315C71.2029 51.0033 70.8144 52.5198 70.6617 53.8207C70.1437 58.2956 71.1019 66.8836 71.1122 66.9709C71.1148 66.9965 71.1097 67.0222 71.0993 67.0427C71.0812 67.0761 69.3824 70.4117 69.2348 74.063C69.139 76.457 68.7713 79.0742 68.5279 80.8061C68.4113 81.6272 68.3129 82.3354 68.3311 82.4432C68.3595 82.5586 68.3518 82.7049 68.3414 82.8435C68.3233 83.1539 68.3336 83.2899 68.4554 83.313C68.546 83.3284 68.6936 83.1488 68.8386 82.9743C69.0872 82.6715 69.429 82.2584 69.978 82.1224C70.3846 82.0224 70.8326 82.0763 71.2288 82.125C71.757 82.1892 72.0807 82.2148 72.1377 81.9942C72.2102 81.7119 72.2102 81.2706 72.2102 80.7138C72.2102 80.1518 72.2102 79.4514 72.2853 78.6636C72.3526 77.9529 72.8706 76.3364 73.4687 74.4633C74.1783 72.2412 74.9836 69.7215 75.0665 68.5412C75.196 66.6732 76.9854 55.8246 77.4204 55.2216L77.7881 54.711C77.8425 54.5853 78.0082 54.2543 78.2517 54.2697C78.4795 54.2877 78.5754 54.593 78.6271 54.8188C78.723 55.2319 78.7385 57.0178 78.7592 59.2783C78.7851 62.265 78.8162 65.983 79.0751 66.7938C79.5335 68.2281 83.0682 77.6886 83.524 78.815C83.7933 79.4821 83.5836 80.2211 83.4178 80.8164C83.2987 81.2398 83.1848 81.6401 83.2961 81.8582C83.4929 82.2482 83.985 82.2174 84.5547 82.1815C84.723 82.1712 84.8913 82.1609 85.0596 82.1609C85.4999 82.1609 85.9168 82.4765 86.3207 82.7793C86.6444 83.0231 86.9526 83.254 87.1908 83.254C87.7942 83.254 87.8589 82.0583 87.8589 81.5451C87.8589 81.1448 87.3462 79.069 86.8024 76.8752C86.0255 73.7371 85.1477 70.1808 85.0596 68.8542C84.912 66.586 84.3941 64.8052 84.3889 64.7873C84.3837 64.7719 84.3837 64.7565 84.3837 64.7411C84.3941 64.6333 85.3574 54.0798 85.1347 51.809C85.1036 51.4857 85.0363 51.0726 84.9327 50.5799L71.8166 49.315Z" fill="#3F4553"/>
<path d="M86.6886 32.906C84.8111 30.9713 82.2552 31.3434 81.5043 30.8225C80.9553 30.4428 81.0485 27.6074 81.1365 26.1013L80.6523 25.6497L78.4227 27.6203C78.4227 27.6203 78.1223 30.0784 77.897 30.5993C77.6717 31.1202 74.8905 31.269 73.689 31.7154C72.5055 32.1542 70.0169 34.2505 68.4347 35.7336L69.9911 37.5349C71.4024 36.529 72.938 35.6618 72.938 35.6618C72.938 35.6618 74.067 41.2015 74.2172 41.7994C74.3674 42.3947 74.2146 43.3877 74.2146 43.6109C74.2146 43.7751 72.4926 46.7849 71.3816 50.1745C73.5362 51.1572 77.7779 52.2734 85.2073 51.3856C84.8241 48.8607 83.0813 43.6083 83.0813 43.6083L84.4331 36.2571C84.4331 36.2571 85.733 36.9832 87.1262 37.948L89.2755 35.8901C88.3588 34.7355 87.4033 33.6424 86.6886 32.906Z" fill="#9776A5"/>
<path d="M80.0877 51.8372C75.789 51.8372 73.0208 51.0598 71.3298 50.2874C71.2703 50.2592 71.2418 50.1925 71.2599 50.1309C72.0704 47.66 73.2124 45.3712 73.7614 44.273C73.9297 43.9369 74.0748 43.6444 74.0877 43.5879C74.0851 43.5494 74.0955 43.4493 74.1058 43.3185C74.1421 42.9208 74.2016 42.2588 74.0929 41.8251C73.9582 41.2863 73.0441 36.8216 72.8473 35.8594C72.4226 36.1058 71.2003 36.8319 70.0687 37.635C70.0143 37.6735 69.9392 37.6658 69.8952 37.6145L68.3389 35.8158C68.2948 35.7645 68.2974 35.6875 68.3492 35.6388C69.7113 34.361 72.3579 32.0696 73.6475 31.5924C74.155 31.4051 74.9241 31.2691 75.6699 31.1382C76.5633 30.9817 77.6768 30.7867 77.7804 30.5455C77.9954 30.0477 78.2932 27.6255 78.2957 27.6024C78.2983 27.5716 78.3139 27.5434 78.3372 27.5229L80.5668 25.5523C80.616 25.5086 80.6937 25.5086 80.7429 25.5548L81.2271 26.0064C81.2556 26.0321 81.2712 26.0706 81.2686 26.1065C81.0821 29.2163 81.3074 30.5275 81.5819 30.7148C81.8072 30.8713 82.2552 30.9458 82.7757 31.033C83.9255 31.2254 85.4973 31.4897 86.7843 32.8163C87.5327 33.5861 88.5012 34.7048 89.3791 35.8107C89.4205 35.862 89.4153 35.9364 89.3687 35.9826L87.2194 38.0404C87.1754 38.0841 87.1054 38.0892 87.0562 38.0533C85.9634 37.2963 84.9199 36.6831 84.5314 36.4599L83.2185 43.6007C83.3635 44.0395 84.9768 48.9609 85.3394 51.3677C85.3445 51.401 85.3368 51.437 85.3135 51.4652C85.2902 51.4934 85.2617 51.5114 85.2254 51.5139C83.3091 51.7397 81.6026 51.8372 80.0877 51.8372ZM71.5422 50.1027C73.808 51.1085 77.9695 52.1015 85.0597 51.2727C84.6454 48.7402 82.9777 43.6982 82.9596 43.6469C82.9518 43.6264 82.9518 43.6059 82.9544 43.5828L84.3061 36.2315C84.3139 36.1904 84.3398 36.1571 84.3786 36.1391C84.4175 36.1212 84.4615 36.1237 84.4978 36.1443C84.5107 36.1519 85.7641 36.8524 87.1132 37.7813L89.102 35.8774C88.25 34.81 87.3178 33.7374 86.5953 32.9933C85.3678 31.7284 83.8426 31.4718 82.7291 31.2845C82.1542 31.1869 81.701 31.1125 81.4291 30.9227C80.9811 30.6122 80.8361 29.0059 81.0044 26.1475L80.6522 25.8165L78.5469 27.6768C78.5029 28.0335 78.2336 30.1452 78.0187 30.643C77.8659 30.9945 77.0424 31.1562 75.7139 31.3871C74.9811 31.5154 74.2198 31.6488 73.7355 31.8284C72.666 32.2261 70.3535 34.1146 68.6134 35.7363L70.0143 37.3554C71.3894 36.3854 72.8602 35.5515 72.8732 35.5438C72.9094 35.5233 72.9535 35.5207 72.9923 35.5387C73.0312 35.5567 73.0571 35.59 73.0648 35.6311C73.0752 35.6875 74.1965 41.176 74.3441 41.761C74.4632 42.2357 74.401 42.9259 74.3648 43.339C74.3544 43.4596 74.3441 43.552 74.3441 43.6033C74.3441 43.6726 74.2949 43.7752 73.9919 44.3833C73.4558 45.4661 72.3449 47.6908 71.5422 50.1027Z" fill="#3F4553"/>
<path d="M83.0297 31.2072C82.3486 31.0892 81.7945 31.0199 81.5044 30.8198C80.9554 30.44 81.0487 27.6047 81.1367 26.0986L80.6525 25.647L78.4229 27.6176C78.4229 27.6176 78.1225 30.0757 77.8972 30.5966C77.8091 30.7967 77.3404 30.943 76.7319 31.0712C77.2317 32.5595 78.3296 35.2229 79.772 35.2229C81.1756 35.2254 82.4134 32.716 83.0297 31.2072Z" fill="#FED9CE"/>
<path d="M79.772 35.3539C78.2571 35.3539 77.141 32.6982 76.6076 31.1125C76.5972 31.0766 76.5998 31.0406 76.618 31.0073C76.6361 30.9765 76.6671 30.9534 76.7034 30.9457C77.5243 30.7738 77.7392 30.6327 77.7781 30.5454C77.993 30.0476 78.2908 27.6254 78.2934 27.6024C78.296 27.5716 78.3115 27.5433 78.3348 27.5228L80.5644 25.5522C80.6136 25.5086 80.6913 25.5086 80.7405 25.5548L81.2248 26.0064C81.2533 26.032 81.2688 26.0705 81.2662 26.1064C81.0798 29.2163 81.305 30.5275 81.5795 30.7148C81.8048 30.8713 82.2554 30.9457 82.7759 31.0329L83.0504 31.0791C83.0893 31.0868 83.1229 31.1099 83.141 31.1433C83.1592 31.1766 83.1618 31.2177 83.1488 31.2536C82.3849 33.1241 81.1782 35.3539 79.772 35.3539ZM76.9002 31.1664C77.343 32.4493 78.4203 35.0947 79.772 35.0947C81.0539 35.0947 82.2269 32.7854 82.8484 31.3049L82.7345 31.2844C82.1596 31.1869 81.7038 31.1125 81.4319 30.9226C80.9839 30.6121 80.8389 29.0059 81.0072 26.1475L80.6551 25.8165L78.5498 27.6768C78.5057 28.0334 78.2364 30.1451 78.0215 30.6429C77.9257 30.8559 77.5994 31.0099 76.9002 31.1664Z" fill="#3F4553"/>
<path d="M81.121 26.3705C80.8439 26.3885 80.5383 26.4578 80.3234 26.5117C80.0127 26.5886 79.4119 26.9145 78.8396 27.2506L78.4253 27.6176C78.4253 27.6176 78.3035 28.6183 78.1559 29.4778C78.6739 29.2931 80.1784 28.7106 81.0744 27.8639C81.077 27.3353 81.0977 26.8144 81.121 26.3705Z" fill="#C6FF00"/>
<path d="M81.121 26.3705C80.8439 26.3885 80.5383 26.4578 80.3234 26.5117C80.0127 26.5886 79.4119 26.9145 78.8396 27.2506L78.4253 27.6176C78.4253 27.6176 78.3035 28.6183 78.1559 29.4778C78.6739 29.2931 80.1784 28.7106 81.0744 27.8639C81.077 27.3353 81.0977 26.8144 81.121 26.3705Z" fill="#BFB2AA"/>
<path d="M78.1949 64.5717C86.4199 64.5717 93.0875 57.965 93.0875 49.8153C93.0875 41.6655 86.4199 35.0589 78.1949 35.0589C69.97 35.0589 63.3023 41.6655 63.3023 49.8153C63.3023 57.965 69.97 64.5717 78.1949 64.5717Z" fill="#FA6E5A"/>
<path d="M83.0915 62.0828C74.867 62.0828 68.1989 55.4756 68.1989 47.3264C68.1989 42.582 70.4622 38.3637 73.9736 35.6644C67.8053 37.4682 63.302 43.1183 63.302 49.8153C63.302 57.9645 69.9702 64.5717 78.1946 64.5717C81.631 64.5717 84.7928 63.4145 87.3125 61.4798C85.9737 61.8698 84.5572 62.0828 83.0915 62.0828Z" fill="#E3604D"/>
<path d="M67.7456 44.3552C67.4841 44.3552 67.2458 44.1756 67.1863 43.9138C67.1138 43.6059 67.308 43.3006 67.6187 43.2313L71.7258 42.2948L69.3537 41.5609C69.0507 41.466 68.8824 41.1478 68.9757 40.8476C69.0689 40.5474 69.3926 40.3806 69.6955 40.473L74.0952 41.8355C74.3438 41.9124 74.5095 42.1434 74.4992 42.4025C74.4888 42.6591 74.3076 42.8772 74.0538 42.9362L67.8751 44.3449C67.8311 44.3526 67.787 44.3552 67.7456 44.3552Z" fill="#3F4553"/>
<path d="M88.3328 44.3553C88.2888 44.3553 88.2422 44.3501 88.1981 44.3399L82.3069 42.9312C82.0531 42.8696 81.8744 42.649 81.8667 42.3924C81.8589 42.1358 82.0272 41.9048 82.2784 41.8304L86.9008 40.4679C87.2063 40.3781 87.5249 40.5501 87.6155 40.8528C87.7061 41.1556 87.5326 41.4712 87.2296 41.561L84.6556 42.3205L88.47 43.2314C88.7782 43.3058 88.9698 43.6137 88.8947 43.9191C88.8274 44.1808 88.5917 44.3553 88.3328 44.3553Z" fill="#3F4553"/>
<path d="M66.8186 46.7672C68.3205 53.1563 72.8445 57.798 78.1946 57.798C83.5446 57.798 88.0711 53.1563 89.5705 46.7672L87.5947 46.4413C81.2735 45.3944 74.8359 45.4073 68.5199 46.4798L66.8186 46.7672Z" fill="#3F4553"/>
<path d="M85.9504 53.4538C83.9875 52.1632 81.2814 51.3652 78.2879 51.3652C75.2374 51.3652 72.4847 52.1991 70.514 53.5334C72.5883 55.8401 75.2659 57.2385 78.1947 57.2385C81.1597 57.2385 83.8658 55.8093 85.9504 53.4538Z" fill="#4E5567"/>
<path d="M76.2449 21.3904C76.2449 21.3904 75.7192 22.953 75.2686 23.8485C74.8181 24.7414 75.4939 27.4972 76.0196 28.3157C76.5453 29.1342 77.5216 28.9854 77.8971 28.911C78.2725 28.8366 79.9247 27.7948 80.5281 27.1995C81.1288 26.6042 81.4292 26.3066 81.4292 26.3066C81.4292 26.3066 81.7296 26.3066 82.03 25.7113C82.3304 25.116 81.1288 23.7766 80.0775 22.137C79.0261 20.5 78.5755 20.5744 78.5755 20.5744L76.2449 21.3904Z" fill="#FED9CE"/>
<path d="M77.3327 29.0983C76.5532 29.0983 76.1337 28.7288 75.911 28.3824C75.3698 27.5382 74.6732 24.7414 75.1523 23.7894C75.5951 22.9145 76.1182 21.3647 76.1234 21.3493C76.1363 21.3108 76.1648 21.2826 76.2036 21.2697L78.5342 20.4512C78.643 20.4332 79.1454 20.4409 80.189 22.0677C80.4686 22.5039 80.7561 22.9119 81.0332 23.307C81.8307 24.4437 82.4056 25.2648 82.1493 25.7677C81.8903 26.2809 81.6158 26.3989 81.4941 26.4272L80.6214 27.2919C80.0051 27.9026 78.3271 28.9597 77.9257 29.0392C77.7056 29.0803 77.5088 29.0983 77.3327 29.0983ZM76.3487 21.4904C76.2477 21.788 75.7893 23.1018 75.3853 23.9049C74.9555 24.7542 75.6391 27.4843 76.1311 28.2464C76.4652 28.7673 77.053 28.9469 77.8765 28.7852C78.2002 28.7211 79.8368 27.705 80.4402 27.1071L81.3413 26.2142C81.3646 26.1911 81.3983 26.1757 81.432 26.1757C81.4294 26.1757 81.665 26.15 81.9162 25.6523C82.1027 25.2853 81.5071 24.436 80.8182 23.4533C80.5412 23.0556 80.2537 22.645 79.9689 22.2063C79.0988 20.8515 78.6663 20.7155 78.5964 20.7027L76.3487 21.4904Z" fill="#3F4553"/>
<path d="M76.773 25.1032C76.7575 25.1032 76.7419 25.1007 76.7264 25.0955C75.9417 24.7953 76.0117 24.5926 76.0324 24.5285C76.0842 24.372 76.6876 23.4893 76.8714 23.2224C76.9129 23.1634 76.9931 23.148 77.0501 23.1891C77.1097 23.2301 77.1252 23.3097 77.0838 23.3661C76.7393 23.8665 76.369 24.4258 76.2888 24.5798C76.3535 24.6465 76.584 24.7671 76.817 24.8569C76.8844 24.8826 76.918 24.957 76.8921 25.0237C76.874 25.0699 76.8248 25.1032 76.773 25.1032Z" fill="#3F4553"/>
<path d="M79.3963 23.9305C79.3471 23.9305 79.3005 23.9023 79.2798 23.8561C79.1606 23.6046 79.0053 23.4456 78.8162 23.3814C78.5624 23.2967 78.3268 23.4071 78.3242 23.4071C78.2595 23.4379 78.1818 23.4122 78.1507 23.3506C78.1196 23.2865 78.1455 23.2095 78.2077 23.1787C78.2206 23.171 78.5417 23.0171 78.9017 23.1402C79.158 23.2275 79.3652 23.4327 79.5154 23.7483C79.5465 23.8125 79.518 23.8895 79.4532 23.9202C79.4325 23.9254 79.4144 23.9305 79.3963 23.9305Z" fill="#3F4553"/>
<path d="M76.6178 23.2172C76.5763 23.2172 76.5375 23.1993 76.5116 23.1634C76.509 23.1582 76.3873 22.9966 76.206 22.9761C76.0895 22.9632 75.96 23.0171 75.8279 23.1326C75.7736 23.1788 75.6933 23.1762 75.6441 23.1223C75.5975 23.0684 75.6001 22.9889 75.6544 22.9401C75.8435 22.7708 76.0377 22.6989 76.2371 22.7195C76.5349 22.7528 76.7162 23.0017 76.7213 23.012C76.7628 23.071 76.7472 23.1505 76.6903 23.1916C76.6695 23.2095 76.6436 23.2172 76.6178 23.2172Z" fill="#3F4553"/>
<path d="M79.8083 23.1146C79.754 23.1146 79.7048 23.0812 79.6866 23.0273C79.3241 21.9907 78.6845 22.1344 78.6586 22.1421C78.5887 22.1575 78.5188 22.119 78.5006 22.0497C78.4825 21.9804 78.5239 21.9112 78.5913 21.8932C78.599 21.8906 79.4846 21.6725 79.93 22.9427C79.9533 23.0094 79.9171 23.0838 79.8498 23.1069C79.8368 23.112 79.8213 23.1146 79.8083 23.1146Z" fill="#3F4553"/>
<path d="M76.0012 22.6039C75.9804 22.6039 75.9623 22.5987 75.9442 22.591C75.8794 22.5602 75.8535 22.4833 75.8872 22.4191C76.0322 22.1292 76.2265 21.9573 76.4647 21.9034C76.8272 21.8213 77.1483 22.0599 77.1613 22.0702C77.2183 22.1138 77.2286 22.1933 77.1846 22.2498C77.1406 22.3062 77.0603 22.3165 77.0033 22.2729C77.0007 22.2703 76.7625 22.0958 76.5191 22.1523C76.3611 22.1882 76.2265 22.3165 76.1177 22.532C76.0944 22.5782 76.0478 22.6039 76.0012 22.6039Z" fill="#3F4553"/>
<path d="M76.3097 25.6882C76.3097 25.6882 77.2341 26.0448 78.4176 25.3828C78.4176 25.3828 77.8012 26.2988 77.0813 26.4015C76.3614 26.5016 76.3097 25.6882 76.3097 25.6882Z" fill="#3F4553"/>
<path d="M67.9428 36.2827C67.9428 36.2827 64.6877 38.9897 64.1672 40.7319C63.6467 42.4742 64.0378 46.4718 63.973 47.6958C63.9083 48.9197 64.7551 50.2745 65.1435 50.5336C65.5345 50.7928 65.5993 50.3412 65.5345 49.8896C65.4698 49.438 65.4698 47.1159 65.4698 47.1159C65.4698 47.1159 66.055 48.7914 66.1198 48.4707C66.1845 48.1474 66.1845 47.5675 65.9256 46.6643C65.6666 45.7611 65.014 44.473 65.0788 44.2138C65.1435 43.9547 67.2255 40.0879 67.5518 38.8614" fill="#FED9CE"/>
<path d="M65.3428 50.7365C65.2703 50.7365 65.1797 50.7108 65.0709 50.639C64.6618 50.3696 63.7736 48.9737 63.8409 47.6882C63.859 47.3239 63.8383 46.7004 63.8124 45.9768C63.7528 44.2705 63.67 41.9329 64.0403 40.6962C64.566 38.9385 67.7201 36.2957 67.8547 36.1853C67.9091 36.1392 67.992 36.1469 68.036 36.2007C68.0826 36.2546 68.0748 36.3367 68.0205 36.3803C67.9894 36.406 64.7913 39.0848 64.2863 40.768C63.9289 41.9663 64.0092 44.2782 64.0688 45.9691C64.0947 46.6978 64.1154 47.329 64.0973 47.7036C64.0351 48.8788 64.8508 50.19 65.2108 50.4286C65.2859 50.4773 65.3377 50.4876 65.3532 50.4799C65.4024 50.4491 65.4516 50.2515 65.4024 49.9103C65.3377 49.4561 65.3351 47.2161 65.3351 47.1186C65.3351 47.057 65.3817 47.0031 65.4438 46.9929C65.506 46.9826 65.5681 47.0185 65.5889 47.0775C65.7261 47.4727 65.8996 47.9166 66.0213 48.1783C66.0343 47.8781 65.998 47.4008 65.7986 46.7029C65.6873 46.3129 65.4956 45.8408 65.3273 45.4251C65.0476 44.7323 64.9052 44.3628 64.9492 44.1858C64.9725 44.0934 65.1409 43.7573 65.5189 43.008C66.1508 41.7533 67.2047 39.6544 67.4249 38.8333C67.443 38.7641 67.5155 38.723 67.5828 38.741C67.6527 38.7589 67.6942 38.8282 67.676 38.8975C67.4508 39.7442 66.4279 41.7764 65.752 43.1209C65.4801 43.6623 65.2237 44.1704 65.203 44.2474C65.1797 44.3603 65.3972 44.8965 65.5707 45.3276C65.7416 45.751 65.9333 46.2282 66.0498 46.6311C66.3424 47.6497 66.301 48.2373 66.2466 48.4965C66.2207 48.6222 66.1301 48.6376 66.1016 48.6402C66.0239 48.6453 65.9177 48.653 65.6018 47.8499C65.607 48.5683 65.6225 49.5921 65.6614 49.8692C65.6976 50.1156 65.7235 50.5518 65.493 50.6929C65.4594 50.7185 65.4076 50.7365 65.3428 50.7365Z" fill="#3F4553"/>
<path d="M65.3195 50.6389C65.2677 50.6389 65.2159 50.6055 65.1978 50.5542C65.1926 50.544 64.7783 49.4021 64.5737 47.9755C64.5634 47.9062 64.6126 47.8395 64.6825 47.8293C64.7524 47.819 64.8197 47.8677 64.8301 47.937C65.0321 49.3354 65.4386 50.4516 65.4412 50.4644C65.4645 50.5311 65.4309 50.6055 65.3635 50.6286C65.348 50.6363 65.3325 50.6389 65.3195 50.6389Z" fill="#3F4553"/>
<path d="M64.856 50.3311C64.8094 50.3311 64.7628 50.3054 64.7395 50.2593C64.7214 50.2259 64.3174 49.4125 64.0585 48.0808C64.0455 48.0116 64.0921 47.9448 64.162 47.9294C64.232 47.9166 64.2993 47.9602 64.3148 48.0321C64.566 49.3278 64.97 50.1361 64.9726 50.1438C65.0036 50.2079 64.9777 50.2849 64.9156 50.3157C64.8949 50.3285 64.8742 50.3311 64.856 50.3311Z" fill="#3F4553"/>
<path d="M89.4027 36.2827C89.4027 36.2827 92.6577 38.9897 93.1782 40.7319C93.6987 42.4742 93.3077 46.4718 93.3725 47.6958C93.4372 48.9197 92.5904 50.2745 92.202 50.5336C91.8135 50.7928 91.7462 50.3412 91.811 49.8896C91.8757 49.438 91.8757 47.1159 91.8757 47.1159C91.8757 47.1159 91.2905 48.7914 91.2257 48.4707C91.161 48.1499 91.161 47.5675 91.4199 46.6643C91.6815 45.7611 92.3315 44.473 92.2667 44.2138C92.202 43.9547 90.12 40.0879 89.7937 38.8614" fill="#FED9CE"/>
<path d="M92.0027 50.7365C91.9379 50.7365 91.8887 50.716 91.8499 50.6929C91.622 50.5518 91.6479 50.1156 91.6816 49.8692C91.7204 49.5921 91.7359 48.5658 91.7411 47.8499C91.4252 48.6504 91.3242 48.6453 91.2413 48.6402C91.2129 48.6376 91.1222 48.6222 91.0963 48.4965C91.0445 48.2373 91.0005 47.6497 91.2931 46.6311C91.4097 46.2282 91.6013 45.751 91.7722 45.3276C91.9457 44.8965 92.1606 44.3603 92.1373 44.2474C92.1166 44.173 91.8602 43.6598 91.5883 43.1184C90.9125 41.7738 89.8896 39.7417 89.6669 38.8975C89.6488 38.8282 89.6902 38.7589 89.7601 38.741C89.8274 38.723 89.8999 38.7641 89.9181 38.8333C90.1356 39.6519 91.1921 41.7533 91.8214 43.0055C92.1995 43.7573 92.3678 44.0934 92.3911 44.1858C92.4351 44.3628 92.2927 44.7323 92.013 45.4251C91.8447 45.8408 91.6557 46.3129 91.5417 46.7029C91.3397 47.4008 91.3035 47.8781 91.319 48.1783C91.4407 47.914 91.6117 47.4727 91.7515 47.0775C91.7722 47.0185 91.8318 46.9826 91.8965 46.9929C91.9587 47.0031 92.0053 47.057 92.0053 47.1186C92.0053 47.2135 92.0053 49.4536 91.9379 49.9103C91.8887 50.2515 91.9379 50.4491 91.9871 50.4799C92.0027 50.4902 92.0545 50.4799 92.1296 50.4286C92.4895 50.19 93.3052 48.8788 93.2431 47.7036C93.2224 47.329 93.2457 46.6978 93.2716 45.9691C93.3311 44.2807 93.4114 41.9663 93.054 40.768C92.5491 39.0848 89.3536 36.4086 89.3199 36.3803C89.2655 36.3342 89.2577 36.2546 89.3043 36.2007C89.351 36.1469 89.4312 36.1392 89.4856 36.1853C89.6203 36.2957 92.7744 38.9385 93.3 40.6962C93.6703 41.9329 93.5875 44.2705 93.5279 45.9768C93.502 46.7004 93.4813 47.3264 93.4994 47.6882C93.5668 48.9737 92.6785 50.3696 92.2694 50.639C92.1632 50.7134 92.0752 50.7365 92.0027 50.7365Z" fill="#3F4553"/>
<path d="M92.0075 50.5363C91.9972 50.5363 91.9868 50.5363 91.9739 50.5312C91.904 50.5132 91.8625 50.4439 91.8807 50.3746C91.8858 50.3592 92.2898 48.7941 92.2898 47.7523C92.2898 47.6805 92.3468 47.624 92.4193 47.624C92.4918 47.624 92.5488 47.6805 92.5488 47.7523C92.5488 48.8274 92.15 50.3746 92.1319 50.4388C92.1189 50.4978 92.0645 50.5363 92.0075 50.5363Z" fill="#3F4553"/>
<path d="M92.4711 50.485C92.4556 50.485 92.4427 50.4824 92.4271 50.4773C92.3598 50.4542 92.3261 50.3798 92.3494 50.3131C92.3546 50.2977 92.9606 48.6427 92.9606 48.0089C92.9606 47.937 93.0175 47.8806 93.09 47.8806C93.1625 47.8806 93.2195 47.937 93.2195 48.0089C93.2195 48.6863 92.6187 50.331 92.5929 50.4003C92.5747 50.4542 92.5229 50.485 92.4711 50.485Z" fill="#3F4553"/>
<path d="M32.719 90.9976C44.4465 90.9976 53.9535 88.7816 53.9535 86.048C53.9535 83.3144 44.4465 81.0984 32.719 81.0984C20.9916 81.0984 11.4846 83.3144 11.4846 86.048C11.4846 88.7816 20.9916 90.9976 32.719 90.9976Z" fill="#F4A17C"/>
<path d="M33.9436 90.9994C46.3581 90.9994 56.422 88.7902 56.422 86.0651C56.422 83.34 46.3581 81.1308 33.9436 81.1308C21.529 81.1308 11.4651 83.34 11.4651 86.0651C11.4651 88.7902 21.529 90.9994 33.9436 90.9994Z" fill="#F4A17C"/>
<path d="M23.796 82.6072C23.796 82.6072 20.6471 84.2469 20.0541 85.0962C19.4611 85.9455 20.2509 86.6203 21.4343 86.7024C22.6178 86.7845 27.4887 85.1603 27.929 84.9499C28.3718 84.7395 28.0507 83.4643 27.7296 82.8074C27.4111 82.148 23.796 82.6072 23.796 82.6072Z" fill="#E49621"/>
<path d="M21.525 86.8332C21.4888 86.8332 21.4551 86.8332 21.4241 86.8306C20.6394 86.7768 20.0205 86.4663 19.8056 86.025C19.702 85.8094 19.6398 85.4605 19.9454 85.0243C20.5514 84.1596 23.6045 82.5636 23.7339 82.4943C23.7469 82.4866 23.7624 82.4815 23.778 82.4815C24.3969 82.4019 27.5018 82.0478 27.8436 82.7509C28.0223 83.1178 28.1776 83.6182 28.2398 84.0261C28.3252 84.5932 28.2398 84.9422 27.9808 85.0653C27.5458 85.2732 22.8949 86.8332 21.525 86.8332ZM23.8349 82.7304C23.563 82.8741 20.7042 84.3879 20.1578 85.168C19.9687 85.4374 19.9299 85.6888 20.0386 85.9121C20.2121 86.2713 20.7508 86.5253 21.4422 86.5741C22.6075 86.6587 27.4344 85.0422 27.8721 84.8344C28.0067 84.7702 28.0507 84.4829 27.986 84.0646C27.929 83.6797 27.7814 83.2076 27.6131 82.8612C27.4215 82.4661 25.298 82.5482 23.8349 82.7304Z" fill="#3F4553"/>
<path d="M28.0917 83.9081C26.8436 84.4495 23.3995 85.9095 22.2108 86.0608C21.2423 86.184 20.3515 85.8222 19.8595 85.5631C19.7792 86.1814 20.4784 86.6356 21.434 86.7023C22.6174 86.7844 27.4884 85.1602 27.9286 84.9498C28.172 84.8318 28.1824 84.3905 28.0917 83.9081Z" fill="#F1BD54"/>
<path d="M21.5247 86.8333C21.4885 86.8333 21.4548 86.8333 21.4237 86.8307C20.7608 86.7845 20.217 86.5613 19.9322 86.2175C19.769 86.0199 19.6991 85.789 19.7276 85.5478C19.7328 85.5067 19.7587 85.4682 19.7975 85.4503C19.8337 85.4297 19.8804 85.4297 19.9166 85.4503C20.3594 85.6838 21.2451 86.0558 22.1928 85.9352C23.3789 85.7838 26.9654 84.2571 28.0375 83.7927C28.0737 83.7773 28.1152 83.7773 28.1488 83.7978C28.1825 83.8158 28.2084 83.8492 28.2162 83.8876C28.3379 84.5266 28.2576 84.9345 27.9831 85.0654C27.5455 85.2732 22.8946 86.8333 21.5247 86.8333ZM19.9917 85.7736C20.0124 85.8736 20.059 85.966 20.1315 86.0558C20.3672 86.3406 20.8566 86.5331 21.4393 86.5741C22.6046 86.6588 27.4315 85.0423 27.8692 84.8345C28.0012 84.7703 28.0427 84.4932 27.9883 84.0929C26.5252 84.7241 23.3685 86.043 22.2239 86.1893C21.3357 86.2996 20.5019 86.0122 19.9917 85.7736Z" fill="#3F4553"/>
<path d="M39.0463 82.6072C39.0463 82.6072 42.1952 84.2469 42.7882 85.0962C43.3812 85.9455 42.5914 86.6203 41.4079 86.7024C40.2245 86.7845 35.3535 85.1603 34.9133 84.9499C34.4705 84.7395 34.7916 83.4643 35.1127 82.8074C35.4338 82.148 39.0463 82.6072 39.0463 82.6072Z" fill="#E49621"/>
<path d="M41.3199 86.8333C39.9474 86.8333 35.2992 85.2732 34.8589 85.0654C34.6026 84.9422 34.5145 84.5932 34.6 84.0262C34.6621 83.6182 34.8175 83.1179 34.9962 82.7509C35.338 82.0453 38.4429 82.402 39.0618 82.4815C39.0773 82.4841 39.0929 82.4892 39.1058 82.4943C39.2353 82.5611 42.291 84.157 42.8944 85.0243C43.1999 85.4605 43.1404 85.8095 43.0342 86.025C42.8193 86.4689 42.2004 86.7768 41.4157 86.8307C41.3872 86.8307 41.3536 86.8333 41.3199 86.8333ZM36.739 82.579C35.9543 82.579 35.3302 82.656 35.2292 82.8613C35.0609 83.2077 34.9133 83.6798 34.8563 84.0647C34.7916 84.4829 34.8356 84.7703 34.9703 84.8344C35.3976 85.0397 40.0096 86.5792 41.3095 86.5792C41.3432 86.5792 41.3717 86.5792 41.4002 86.5767C42.0916 86.5279 42.6276 86.2739 42.8037 85.9147C42.9125 85.6914 42.871 85.44 42.6846 85.1706C42.1408 84.3905 39.2793 82.8767 39.0074 82.733C38.3082 82.6432 37.4563 82.579 36.739 82.579Z" fill="#3F4553"/>
<path d="M34.7523 83.9082C36.0005 84.4496 39.4446 85.9096 40.6332 86.061C41.6017 86.1841 42.4925 85.8223 42.9845 85.5632C43.0648 86.1815 42.3656 86.6357 41.4101 86.7024C40.2267 86.7845 35.3557 85.1603 34.9155 84.9499C34.6695 84.8319 34.6591 84.3906 34.7523 83.9082Z" fill="#F1BD54"/>
<path d="M41.3195 86.8333C39.9471 86.8333 35.2988 85.2732 34.8586 85.0654C34.5841 84.9345 34.5038 84.5265 34.6255 83.8876C34.6333 83.8491 34.6566 83.8158 34.6928 83.7978C34.7291 83.7799 34.7679 83.7773 34.8042 83.7927C35.8763 84.2571 39.4654 85.7838 40.6488 85.9352C41.5966 86.0558 42.4822 85.6837 42.9251 85.4502C42.9639 85.4297 43.0079 85.4297 43.0442 85.4502C43.083 85.4708 43.1089 85.5067 43.1141 85.5477C43.1452 85.7889 43.0752 86.0199 42.9095 86.2174C42.6247 86.5613 42.0809 86.7845 41.4179 86.8307C41.3868 86.8307 41.3532 86.8333 41.3195 86.8333ZM34.8534 84.0929C34.7964 84.4932 34.8404 84.7703 34.9725 84.8344C35.3998 85.0397 40.0118 86.5767 41.3117 86.5792C41.3454 86.5792 41.3739 86.5792 41.4024 86.5767C41.985 86.5356 42.4745 86.3406 42.7101 86.0584C42.7826 85.9711 42.8292 85.8762 42.85 85.7761C42.3424 86.0147 41.5111 86.3047 40.6152 86.1918C39.4706 86.043 36.3165 84.7241 34.8534 84.0929Z" fill="#3F4553"/>
<path d="M25.3547 50.5002C25.3547 50.5002 22.4881 62.7908 22.0893 64.5459C21.6905 66.301 21.3979 68.2741 21.864 69.4544C22.3301 70.6348 23.8243 82.2172 23.8243 82.2172L28.1178 83.377C28.1178 83.377 28.1722 75.9359 28.0298 73.0108C27.8873 70.0857 27.7216 66.3882 27.7216 66.3882L32.2844 55.1214L33.038 56.1092L36.4536 66.2086L34.4441 83.1358L38.5279 82.0761C38.5279 82.0761 42.0367 71.3096 42.609 69.0696C43.1787 66.8295 43.4532 65.3234 43.0078 64.2944C42.5624 63.2655 39.6725 51.7831 39.6725 51.7831L25.3547 50.5002Z" fill="#3F4553"/>
<path d="M28.1152 83.5027C28.1049 83.5027 28.0919 83.5001 28.0816 83.4976L23.7881 82.3378C23.7389 82.325 23.7 82.2813 23.6949 82.23C23.6793 82.1146 22.1955 70.6502 21.7423 69.4981C21.3539 68.5102 21.4238 66.8809 21.9624 64.5151C22.356 62.7806 25.1994 50.5926 25.2279 50.4694C25.2434 50.4078 25.3004 50.3642 25.3651 50.3694L39.6777 51.6523C39.732 51.6574 39.7786 51.6959 39.7916 51.7498C39.8201 51.8653 42.6841 63.2347 43.1218 64.2406C43.5698 65.2721 43.3289 66.7423 42.7282 69.0978C42.1636 71.3173 38.6807 82.0042 38.647 82.112C38.6341 82.153 38.6004 82.1864 38.5564 82.1967L34.4726 83.2564C34.4312 83.2666 34.3872 83.2564 34.3535 83.2282C34.3198 83.1999 34.3043 83.1589 34.3095 83.1153L36.3164 66.2189L32.9163 56.1657L32.3129 55.3754L27.8511 66.4087C27.8666 66.7526 28.022 70.2242 28.1593 73.0031C28.3017 75.8974 28.2473 83.3026 28.2473 83.377C28.2473 83.418 28.2292 83.454 28.1955 83.4771C28.1722 83.495 28.1437 83.5027 28.1152 83.5027ZM23.9409 82.1146L27.9884 83.2076C27.9961 82.0889 28.0298 75.6588 27.9003 73.0133C27.7579 70.0882 27.5921 66.3908 27.5921 66.3908C27.5921 66.3728 27.5947 66.3549 27.6025 66.3369L32.1653 55.0701C32.1835 55.0264 32.2223 54.9957 32.2689 54.9905C32.3181 54.9854 32.3621 55.0034 32.3906 55.0418L33.1442 56.0297C33.1519 56.04 33.1597 56.0528 33.1623 56.0656L36.5779 66.165C36.5831 66.1829 36.5857 66.2009 36.5831 66.2214L34.5943 82.9613L38.4269 81.9657C38.7247 81.0523 41.9435 71.1531 42.4822 69.0336C43.0674 66.7346 43.3056 65.3028 42.8887 64.3406C42.4589 63.3528 39.8589 53.0481 39.5689 51.8986L25.4583 50.6336C25.1735 51.8576 22.5917 62.9243 22.2188 64.569C21.6931 66.8834 21.618 68.464 21.9883 69.4031C22.4337 70.5475 23.7933 80.9779 23.9409 82.1146Z" fill="#3F4553"/>
<path d="M35.8188 80.5647C35.8136 80.5647 35.8085 80.5647 35.8033 80.5647C35.7334 80.557 35.6816 80.4929 35.6893 80.421C35.7049 80.2979 37.1835 68.0791 37.2612 67.3966C37.3026 67.0476 37.313 66.9424 37.5538 66.9296C37.6678 66.9244 37.9086 66.9116 38.4369 66.5601C38.5638 66.4754 38.6466 66.4138 38.6984 66.3728C38.6285 66.3728 38.5405 66.3753 38.4654 66.3779C38.1442 66.3882 37.704 66.4036 37.3907 66.2676C36.663 65.952 34.7416 59.5886 34.3635 58.3133C34.3428 58.2466 34.3816 58.1748 34.4515 58.1542C34.5188 58.1337 34.5914 58.1722 34.6121 58.2415C35.6919 61.8799 37.0696 65.8468 37.4943 66.0315C37.7558 66.1444 38.1624 66.1316 38.4576 66.1213C38.7968 66.1111 38.9859 66.1034 39.0376 66.2573C39.0817 66.3907 38.9755 66.5113 38.5845 66.7731C37.9966 67.1656 37.7092 67.181 37.5694 67.1862C37.5642 67.1862 37.559 67.1862 37.5538 67.1862C37.5435 67.2324 37.5331 67.3222 37.5228 67.4248C37.4451 68.1099 35.9638 80.3286 35.9483 80.4518C35.9405 80.516 35.8836 80.5647 35.8188 80.5647Z" fill="#4E5567"/>
<path d="M27.8664 77.881C27.8016 77.881 27.7446 77.8322 27.7369 77.7681L27.6281 76.8521C27.6204 76.7828 27.6721 76.7186 27.7421 76.7109C27.812 76.7032 27.8767 76.7546 27.8845 76.8238L27.9932 77.7399C28.001 77.8091 27.9492 77.8733 27.8793 77.881C27.8767 77.881 27.8715 77.881 27.8664 77.881Z" fill="#4E5567"/>
<path d="M27.5997 75.5973C27.535 75.5973 27.478 75.5485 27.4703 75.4844L26.5044 67.2658C26.3334 67.2299 25.9372 67.1427 25.4167 66.999C25.3235 66.9733 25.1267 66.9195 25.1189 66.7655C25.1086 66.5936 25.3132 66.5115 25.7637 66.3319C26.1133 66.1933 26.551 66.0188 26.9498 65.7699C27.4262 65.4749 28.5579 63.0219 30.0521 59.0422C30.078 58.9755 30.1505 58.9421 30.2178 58.9678C30.2851 58.9934 30.3188 59.0653 30.2929 59.132C29.2053 62.0263 27.7655 65.5647 27.0844 65.988C26.6649 66.2472 26.1988 66.4345 25.857 66.5705C25.7094 66.6295 25.5488 66.6937 25.4478 66.7424C25.4582 66.745 25.4685 66.7475 25.4815 66.7527C26.1729 66.9425 26.639 67.0323 26.6442 67.0349C26.6986 67.0452 26.7426 67.0914 26.7478 67.1452L27.724 75.4562C27.7318 75.5254 27.68 75.5896 27.6101 75.5973C27.6101 75.5973 27.6049 75.5973 27.5997 75.5973Z" fill="#4E5567"/>
<path d="M30.6683 57.8745C30.6528 57.8745 30.6398 57.872 30.6243 57.8668C30.557 57.8437 30.5233 57.7693 30.5466 57.7026C30.7227 57.2202 30.8263 56.9251 30.8263 56.9251C30.8496 56.8584 30.9247 56.8225 30.992 56.8456C31.0594 56.8687 31.0956 56.9431 31.0723 57.0098C31.0723 57.0098 30.9687 57.3049 30.7926 57.7898C30.7719 57.8412 30.7227 57.8745 30.6683 57.8745Z" fill="#4E5567"/>
<path d="M34.027 30.5015C34.027 30.5015 27.0792 29.3699 24.2799 28.8721C21.4806 28.3743 19.0748 27.9048 19.0748 27.9048L17.8552 31.7767C17.8552 31.7767 23.4098 33.6293 24.8729 34.0629C26.336 34.4966 26.9135 34.7326 26.9135 34.7326C26.9135 34.7326 27.1051 44.0802 26.5043 46.0918C25.9035 48.1035 24.5518 52.1473 24.5518 52.1473L31.7093 56.1193L33.1465 53.9229L33.2579 55.9987C33.2579 55.9987 35.5082 55.8679 37.5359 55.2238C39.5635 54.5798 40.7909 53.8049 40.7909 53.8049L39.1828 46.8051L41.3762 37.7758C41.3762 37.7758 52.4285 35.5999 52.4932 34.8943C52.5579 34.1887 50.9731 31.6022 50.9731 31.6022L35.9977 30.6349L34.027 30.5015Z" fill="#FFF9F1"/>
<path d="M31.7099 56.2503C31.6892 56.2503 31.6659 56.2452 31.6477 56.2349L24.4902 52.2629C24.4358 52.2321 24.4099 52.168 24.4306 52.1115C24.4436 52.0705 25.7901 48.0471 26.3831 46.0586C26.9399 44.1906 26.8052 35.7668 26.7871 34.8226C26.5851 34.7456 25.9818 34.5249 24.8372 34.1862C23.3896 33.7577 17.8712 31.918 17.8169 31.9C17.7495 31.8769 17.7133 31.8076 17.734 31.7409L18.9537 27.869C18.9744 27.8074 19.0365 27.7664 19.1013 27.7818C19.1246 27.7869 21.5381 28.2564 24.3037 28.7465C27.0357 29.2315 33.8048 30.3348 34.0431 30.3759L36.0086 30.5119L50.984 31.4792C51.0254 31.4818 51.0643 31.5049 51.0876 31.5408C51.2507 31.8102 52.6931 34.1862 52.6258 34.9124C52.6077 35.0997 52.5766 35.4461 46.9417 36.7316C44.4635 37.2961 41.962 37.799 41.4855 37.8939L39.318 46.8155L40.9184 53.7845C40.9313 53.8384 40.908 53.8922 40.8614 53.9205C40.8485 53.9282 39.5951 54.7133 37.5752 55.3548C35.5554 55.9963 33.2895 56.1348 33.2662 56.1348C33.2325 56.1374 33.1989 56.1246 33.173 56.1015C33.1471 56.0784 33.1315 56.0476 33.129 56.0117L33.0383 54.3285L31.8186 56.1939C31.7927 56.2298 31.7513 56.2503 31.7099 56.2503ZM24.7077 52.091L31.6659 55.9527L33.0357 53.8589C33.0668 53.8127 33.1238 53.7922 33.1782 53.805C33.2325 53.8204 33.2714 53.8666 33.274 53.923L33.3801 55.868C33.8877 55.8295 35.7833 55.6524 37.495 55.1085C39.1989 54.5671 40.3435 53.9256 40.6439 53.7486L39.0565 46.8412C39.0513 46.8207 39.0513 46.8027 39.0565 46.7822L41.2498 37.7528C41.2628 37.704 41.3016 37.6681 41.3508 37.6579C46.5092 36.6418 52.1234 35.3229 52.3694 34.8764C52.4134 34.3607 51.3543 32.485 50.8986 31.7332L35.9904 30.771L34.0172 30.635C34.012 30.635 34.0094 30.635 34.0042 30.6325C33.9343 30.6222 27.0254 29.4932 24.2571 29.0031C21.8281 28.572 19.6736 28.1564 19.1634 28.0589L18.0163 31.7024C18.8346 31.9744 23.5838 33.5524 24.9097 33.9476C26.3624 34.3787 26.9399 34.6122 26.9632 34.6224C27.0098 34.6429 27.0409 34.6866 27.0435 34.7379C27.0513 35.1202 27.2273 44.129 26.6292 46.1356C26.0879 47.9445 24.9226 51.4521 24.7077 52.091Z" fill="#3F4553"/>
<path d="M31.5953 30.0192L31.2924 34.4505L34.9618 33.0264L38.8616 36.008L38.7373 30.1834L31.5953 30.0192Z" fill="white"/>
<path d="M38.862 36.1363C38.8335 36.1363 38.805 36.126 38.7817 36.1106L34.9414 33.1753L31.3393 34.5737C31.2978 34.5891 31.2512 34.5839 31.215 34.5583C31.1787 34.5326 31.1606 34.489 31.1632 34.4454L31.4662 30.0141C31.4713 29.9448 31.5361 29.896 31.5982 29.8935L38.7377 30.0577C38.8076 30.0603 38.862 30.1141 38.8645 30.1834L38.9888 36.008C38.9888 36.0567 38.9629 36.1029 38.9189 36.126C38.9008 36.1312 38.8827 36.1363 38.862 36.1363ZM34.9621 32.8981C34.9906 32.8981 35.019 32.9084 35.0423 32.9238L38.7273 35.7411L38.6108 30.3092L31.7173 30.1501L31.4351 34.2581L34.9155 32.9084C34.931 32.9007 34.9465 32.8981 34.9621 32.8981Z" fill="#3F4553"/>
<path d="M33.2891 53.6305C33.2865 53.6305 33.2813 53.6305 33.2787 53.6305C33.2062 53.6254 33.1544 53.5638 33.1596 53.4919L34.5994 36.5211C34.6046 36.4493 34.6693 36.4005 34.7393 36.4031C34.8118 36.4082 34.8636 36.4698 34.8584 36.5417L33.4186 53.5125C33.4108 53.5817 33.3538 53.6305 33.2891 53.6305Z" fill="#3F4553"/>
<path d="M41.3766 37.9066C41.3507 37.9066 41.3248 37.8989 41.3041 37.8835C41.2523 37.8476 41.2316 37.7809 41.26 37.7218L42.9925 34.0988C43.0235 34.0347 43.1012 34.009 43.166 34.0372C43.2307 34.068 43.2592 34.145 43.2281 34.2091L41.8505 37.0881L44.9942 33.755C45.0434 33.7037 45.1237 33.7011 45.1781 33.7498C45.2299 33.7986 45.2324 33.8781 45.1832 33.932L41.4724 37.8681C41.4465 37.8938 41.4102 37.9066 41.3766 37.9066Z" fill="#3F4553"/>
<path d="M26.9139 34.8635C26.875 34.8635 26.8362 34.8455 26.8103 34.8122L23.9669 31.1122C23.9229 31.0557 23.9333 30.9762 23.9902 30.9326C24.0472 30.8889 24.1275 30.8992 24.1715 30.9556L26.4192 33.8782L25.6346 31.9846C25.6087 31.9204 25.6398 31.8434 25.7045 31.8178C25.7693 31.7921 25.847 31.8229 25.8729 31.8871L27.0304 34.6839C27.0537 34.7429 27.0304 34.8122 26.976 34.843C26.9579 34.8558 26.9346 34.8635 26.9139 34.8635Z" fill="#3F4553"/>
<path d="M33.2789 30.3785L34.7264 36.5315L37.3212 30.7249L35.9953 30.6402L34.0247 30.5042C34.0273 30.5016 33.745 30.4555 33.2789 30.3785Z" fill="white"/>
<path d="M34.7266 36.6597C34.7215 36.6597 34.7189 36.6597 34.7137 36.6597C34.6593 36.6546 34.6127 36.6161 34.5998 36.5622L33.1522 30.4092C33.1418 30.3682 33.1548 30.3245 33.1833 30.2912C33.2118 30.2578 33.2558 30.245 33.2998 30.2527L34.0482 30.3759L37.3317 30.5965C37.3732 30.5991 37.412 30.6222 37.4353 30.6581C37.456 30.694 37.4612 30.7376 37.4431 30.7761L34.8484 36.5828C34.825 36.6289 34.7784 36.6597 34.7266 36.6597ZM33.45 30.5375L34.7655 36.1286L37.1297 30.8403L34.0171 30.6299L33.45 30.5375Z" fill="#3F4553"/>
<path d="M33.2789 30.3785L34.7264 36.5315L37.3212 30.7249L35.9953 30.6402L34.0247 30.5042C34.0273 30.5016 33.745 30.4555 33.2789 30.3785Z" fill="#C6FF00"/>
<path d="M33.2789 30.3785L34.7264 36.5315L37.3212 30.7249L35.9953 30.6402L34.0247 30.5042C34.0273 30.5016 33.745 30.4555 33.2789 30.3785Z" fill="#FED9CE"/>
<path d="M55.2337 33.4909C55.2337 33.4909 55.3606 34.5147 54.7857 34.9637C54.2134 35.4128 51.7922 36.1902 51.1137 35.7874C50.4352 35.3845 49.4745 33.2523 49.85 31.7512C50.2255 30.2528 52.4939 30.8096 52.4939 30.8096C52.4939 30.8096 54.7106 31.5126 55.2337 33.4909Z" fill="white"/>
<path d="M51.6804 36.0261C51.4189 36.0261 51.1988 35.9876 51.0486 35.8978C50.2924 35.4488 49.3524 33.2139 49.7253 31.7205C49.8936 31.0482 50.4374 30.6582 51.3024 30.5889C51.9316 30.5402 52.5013 30.6762 52.5246 30.6839C52.6256 30.7147 54.8242 31.4331 55.3576 33.4551C55.3602 33.4602 55.3602 33.4653 55.3602 33.473C55.3654 33.5166 55.4871 34.5738 54.8656 35.0613C54.415 35.418 52.724 36.0261 51.6804 36.0261ZM51.5846 30.8378C50.9502 30.8378 50.1681 31.0046 49.9739 31.7821C49.6088 33.2395 50.5721 35.3153 51.1806 35.6771C51.7944 36.0415 54.1405 35.3051 54.705 34.8637C55.1893 34.484 55.1142 33.6064 55.1064 33.5141C54.604 31.6358 52.4754 30.9405 52.4547 30.9328C52.4469 30.9302 52.0559 30.8378 51.5846 30.8378Z" fill="#575C69"/>
<path d="M53.1825 34.5763C52.1207 34.6353 51.1859 33.8809 50.9166 32.8623C50.2407 30.2861 48.5937 24.2229 47.9671 23.8073C47.1695 23.2813 46.5583 23.1478 46.5687 22.6603C46.5791 22.1754 46.6205 20.2304 46.6205 20.2304C46.6205 20.2304 46.9753 19.7018 47.2109 20.1945C47.4466 20.6846 47.3896 21.072 47.3896 21.072C47.3896 21.072 47.7806 19.9866 47.7392 19.6454C47.6978 19.3041 47.6175 18.3804 47.6227 18.1366C47.6278 17.8929 47.9515 17.6825 48.4306 18.1777C48.9097 18.6729 49.8445 19.7378 49.6632 20.2432C49.482 20.7487 49.1583 23.2453 49.1583 23.2453C49.1583 23.2453 55.1557 31.9693 55.0418 32.7442C54.9589 33.301 54.4747 34.5044 53.1825 34.5763Z" fill="#FED9CE"/>
<path d="M53.0659 34.7071C52.0171 34.7071 51.072 33.9604 50.7923 32.893C49.4095 27.6201 48.2985 24.1793 47.8972 23.9124C47.6667 23.761 47.4517 23.643 47.2627 23.5378C46.781 23.2709 46.4315 23.0785 46.4418 22.6577L46.4936 20.2278C46.4936 20.2047 46.5014 20.179 46.5143 20.1585C46.535 20.1252 46.7344 19.8378 46.9908 19.8557C47.1306 19.866 47.2446 19.9609 47.33 20.138C47.3844 20.2509 47.4233 20.3612 47.4543 20.4613C47.5501 20.1303 47.6278 19.7993 47.6123 19.6607C47.5709 19.3297 47.4906 18.3932 47.4958 18.134C47.4984 17.9749 47.5968 17.8338 47.7444 17.7774C47.8738 17.726 48.1509 17.7004 48.5264 18.0904C49.0858 18.6677 49.9921 19.7197 49.7875 20.2894C49.6244 20.7384 49.3421 22.8681 49.2955 23.2171C50.3624 24.7694 55.2878 31.9898 55.1738 32.7673C55.0806 33.4036 54.5446 34.6301 53.1954 34.7045C53.1462 34.7071 53.1048 34.7071 53.0659 34.7071ZM46.7474 20.274L46.6982 22.6628C46.693 22.9168 46.9183 23.0528 47.387 23.3146C47.5812 23.4223 47.8013 23.5429 48.0396 23.6994C48.6481 24.0997 50.0076 28.8851 51.0435 32.8289C51.3024 33.8219 52.1984 34.5018 53.1747 34.448C54.3581 34.3812 54.8294 33.2959 54.9123 32.7288C54.99 32.2002 51.3568 26.6784 49.0495 23.3197C49.0314 23.294 49.0236 23.2632 49.0288 23.2324C49.0417 23.1298 49.3551 20.7179 49.5389 20.2021C49.6477 19.8968 49.1764 19.1373 48.3348 18.2674C48.1043 18.0288 47.9256 17.9801 47.8324 18.016C47.7729 18.0391 47.7495 18.0955 47.7495 18.1392C47.7444 18.3701 47.8195 19.2733 47.8635 19.6299C47.9075 19.9917 47.5501 21.0001 47.5087 21.1156C47.4854 21.1772 47.4207 21.2131 47.3559 21.1977C47.2912 21.1823 47.2498 21.1207 47.2601 21.054C47.2601 21.0514 47.3067 20.6948 47.0944 20.2483C47.0555 20.1662 47.0089 20.1149 46.9701 20.1123C46.9157 20.1046 46.8095 20.197 46.7474 20.274Z" fill="#3F4553"/>
<path d="M48.674 21.1619C48.661 21.1619 48.6481 21.1593 48.6377 21.1568C48.5704 21.1362 48.5289 21.0644 48.5523 20.9977L48.8319 20.0714C48.7724 19.9379 48.6066 19.5479 48.5885 19.1913C48.5782 18.9937 48.6584 18.9039 48.7258 18.8628C48.8993 18.7576 49.1427 18.8911 49.1893 18.9167C49.2514 18.9526 49.2696 19.0322 49.2333 19.0912C49.1971 19.1528 49.1168 19.1733 49.0572 19.1374C48.9795 19.0912 48.8811 19.0681 48.8578 19.0809C48.8578 19.0809 48.8397 19.1015 48.8449 19.1784C48.8656 19.5582 49.0831 20.0021 49.0857 20.0072C49.1013 20.0355 49.1038 20.0688 49.0935 20.0996L48.7983 21.0746C48.7801 21.126 48.7283 21.1619 48.674 21.1619Z" fill="#263238"/>
<path d="M48.2311 21.0463C48.2208 21.0463 48.2104 21.0463 48.2 21.0437C48.1301 21.0258 48.0887 20.9565 48.1042 20.8898L48.3218 20.0097C48.257 19.8711 48.0861 19.4324 48.1871 18.9705C48.2337 18.7627 48.3269 18.6241 48.4668 18.5625C48.6584 18.4753 48.8474 18.5754 48.8682 18.5856C48.9303 18.619 48.9536 18.6985 48.92 18.7601C48.8863 18.8217 48.8086 18.8448 48.7439 18.8114C48.7413 18.8089 48.6455 18.7627 48.5729 18.796C48.4979 18.8294 48.459 18.9397 48.4409 19.0244C48.3399 19.4811 48.5704 19.9301 48.5729 19.9353C48.5885 19.9635 48.5911 19.9943 48.5833 20.0251L48.3554 20.9514C48.3425 21.0078 48.2881 21.0463 48.2311 21.0463Z" fill="#263238"/>
<path d="M47.8609 21.0206C47.8531 21.0206 47.8454 21.0206 47.8376 21.018C47.7677 21.0052 47.7211 20.9385 47.7314 20.8692L47.9412 19.6966C47.9075 19.5631 47.7677 18.9832 47.747 18.5676C47.7366 18.3726 47.8169 18.2571 47.8868 18.193C48.0836 18.0108 48.4073 18.0467 48.4435 18.0518C48.5135 18.0621 48.5653 18.1237 48.5549 18.1955C48.5471 18.2648 48.4824 18.3161 48.4099 18.3059C48.3426 18.2982 48.1535 18.2956 48.0603 18.3803C48.0189 18.4188 48.0007 18.4752 48.0033 18.5547C48.0266 18.9909 48.1949 19.6555 48.1975 19.6606C48.2027 19.6786 48.2027 19.6966 48.2001 19.7145L47.9852 20.9128C47.9774 20.9769 47.923 21.0206 47.8609 21.0206Z" fill="#263238"/>
<path d="M37.0826 31.8231C45.9511 31.8231 53.1405 24.6994 53.1405 15.912C53.1405 7.12451 45.9511 0.00087738 37.0826 0.00087738C28.2141 0.00087738 21.0247 7.12451 21.0247 15.912C21.0247 24.6994 28.2141 31.8231 37.0826 31.8231Z" fill="#FA6E5A"/>
<path opacity="0.3" d="M25.9996 15.2654C26.3207 7.53694 32.1576 1.32748 39.5922 0.198493C38.9863 0.103555 38.37 0.0394076 37.7433 0.0137487C28.8818 -0.348042 21.4031 6.47466 21.0354 15.2526C20.6703 24.0331 27.5559 31.4433 36.4148 31.8077C37.4766 31.8513 38.515 31.7897 39.5275 31.6358C31.5827 30.399 25.6604 23.4249 25.9996 15.2654Z" fill="#AC3E2F"/>
<path d="M27.3515 17.3412C27.3515 17.3412 39.1366 15.8043 48.8889 18.2239C48.8889 18.2239 47.9748 27.923 37.7926 27.6997C28.9648 27.5073 27.3515 17.3412 27.3515 17.3412Z" fill="#3F4553"/>
<path d="M38.2819 12.302C37.896 12.302 37.562 12.0197 37.5128 11.6297C37.2668 9.7335 35.5266 8.3043 33.4627 8.3043C31.6241 8.3043 30.0056 9.45382 29.5266 11.096C29.4074 11.504 28.975 11.74 28.5632 11.622C28.1515 11.504 27.9132 11.078 28.0324 10.6675C28.7031 8.36844 30.9353 6.76476 33.4627 6.76476C36.3034 6.76476 38.7066 8.77129 39.0536 11.4347C39.1079 11.8555 38.8076 12.2429 38.3829 12.2968C38.3492 12.2994 38.3155 12.302 38.2819 12.302Z" fill="#3F4553"/>
<path d="M49.5958 14.1288C49.1763 14.1288 48.8319 13.7978 48.819 13.3795C48.7724 11.6886 47.3662 10.2774 45.5484 10.0978C43.9299 9.93868 42.3995 10.8059 41.8297 12.2095C41.6692 12.6046 41.216 12.7945 40.8198 12.638C40.421 12.4789 40.2294 12.0324 40.3874 11.6373C41.2134 9.59998 43.3964 8.33756 45.7011 8.56593C48.2933 8.82252 50.3002 10.8752 50.3701 13.3359C50.3831 13.7619 50.0438 14.116 49.614 14.1262C49.6114 14.1288 49.6036 14.1288 49.5958 14.1288Z" fill="#3F4553"/>
<path d="M28.8846 17.639C28.9804 18.0239 29.6925 20.1305 33.8514 20.3024C38.4297 20.4897 43.0029 20.8464 45.3827 20.7745C46.807 20.7309 47.488 19.5172 47.8065 18.5473C40.5972 16.9128 32.4841 17.3285 28.8846 17.639Z" fill="white"/>
<path d="M40.838 26.9223C40.8406 24.6412 38.3701 22.7117 35.2342 22.5834C33.4966 22.5115 31.9195 23.0119 30.8215 23.8561C32.396 25.6445 34.6774 27.0891 37.9506 27.1609C39.0123 27.184 39.9705 27.0942 40.838 26.9223Z" fill="#4E5567"/>
<path d="M23.3347 82.6636L28.4647 84.2596L28.5061 82.1633L23.1276 81.0651L23.3347 82.6636Z" fill="#4E5567"/>
<path d="M28.465 84.3878C28.452 84.3878 28.4391 84.3853 28.4262 84.3827L23.2962 82.7867C23.247 82.7713 23.2134 82.7303 23.2056 82.6815L22.9984 81.0804C22.9932 81.0394 23.0088 80.9983 23.0399 80.9701C23.0709 80.9419 23.1124 80.929 23.1538 80.9393L28.5323 82.0375C28.5945 82.0503 28.6359 82.1042 28.6359 82.1658L28.5945 84.2621C28.5945 84.3032 28.5738 84.3391 28.5401 84.3647C28.5194 84.3801 28.4935 84.3878 28.465 84.3878ZM23.4516 82.5661L28.3381 84.0851L28.3744 82.2659L23.2781 81.2241L23.4516 82.5661Z" fill="#3F4553"/>
<path d="M33.8719 82.9741L34.5037 84.8318L39.556 82.7945L39.1753 81.0625L33.8719 82.9741Z" fill="#4E5567"/>
<path d="M34.5037 84.9576C34.4856 84.9576 34.4674 84.9525 34.4493 84.9448C34.4156 84.9294 34.3923 84.9037 34.3794 84.8704L33.7475 83.0152C33.7242 82.9485 33.7605 82.8767 33.8252 82.8536L39.1287 80.942C39.1649 80.9292 39.2038 80.9317 39.2348 80.9497C39.2685 80.9677 39.2918 80.9984 39.2996 81.0344L39.6802 82.7663C39.6932 82.8279 39.6595 82.8895 39.6025 82.9126L34.5503 84.9473C34.5374 84.955 34.5192 84.9576 34.5037 84.9576ZM34.035 83.0512L34.5814 84.66L39.4057 82.7176L39.0794 81.2345L34.035 83.0512Z" fill="#3F4553"/>
<path d="M15.0411 29.3474C15.0411 29.3474 14.6967 30.3199 15.1602 30.8818C15.6238 31.4437 17.8197 32.7139 18.5681 32.4624C19.3165 32.2135 20.7149 30.3301 20.6734 28.788C20.6294 27.2434 18.2936 27.3075 18.2936 27.3075C18.2936 27.3075 15.9785 27.5256 15.0411 29.3474Z" fill="white"/>
<path d="M18.3476 32.6211C17.3791 32.6211 15.4731 31.4613 15.0588 30.961C14.5564 30.3528 14.9009 29.347 14.9164 29.3034C14.919 29.2983 14.9216 29.2931 14.9242 29.288C15.8823 27.4226 18.1844 27.1891 18.2802 27.1788C19.1451 27.1609 20.7636 27.4611 20.8025 28.7825C20.8465 30.3195 19.4455 32.3029 18.6091 32.5826C18.534 32.6083 18.446 32.6211 18.3476 32.6211ZM15.1598 29.3958C15.1313 29.4856 14.8698 30.3246 15.2608 30.7993C15.7166 31.351 17.8504 32.5646 18.5288 32.3414C19.2021 32.1156 20.5875 30.2938 20.5461 28.7928C20.5073 27.3944 18.3217 27.438 18.2984 27.438C18.2828 27.438 16.0558 27.6689 15.1598 29.3958Z" fill="#3F4553"/>
<path d="M16.2759 30.6967C17.3014 30.9789 18.376 30.4401 18.8577 29.501C20.0722 27.1275 22.9881 21.5519 23.6898 21.2799C24.5832 20.9335 25.2073 20.9335 25.3031 20.4562C25.3989 19.979 25.777 18.0725 25.777 18.0725C25.777 18.0725 25.544 17.4824 25.2099 17.9134C24.8758 18.3419 24.8474 18.7345 24.8474 18.7345C24.8474 18.7345 24.6998 17.5927 24.8137 17.2668C24.9276 16.9435 25.2047 16.0557 25.2513 15.8171C25.2979 15.5785 25.0286 15.3039 24.4537 15.6863C23.8789 16.0686 22.7369 16.9102 22.8042 17.4439C22.8741 17.9776 22.6488 20.4845 22.6488 20.4845C22.6488 20.4845 14.9086 27.7382 14.8542 28.5208C14.8154 29.0776 15.0277 30.3529 16.2759 30.6967Z" fill="#FED9CE"/>
<path d="M16.8326 30.902C16.6358 30.902 16.439 30.8764 16.2422 30.8225C14.9396 30.4632 14.6806 29.1546 14.7247 28.5106C14.779 27.7254 21.1468 21.7136 22.5244 20.4229C22.5555 20.0714 22.7368 17.9314 22.6746 17.4593C22.5969 16.8615 23.7105 16.025 24.3786 15.5785C24.8317 15.2783 25.0933 15.363 25.2098 15.44C25.3419 15.5272 25.4066 15.6837 25.3756 15.8428C25.3263 16.0968 25.0441 16.9949 24.9327 17.3105C24.8861 17.4439 24.8913 17.7826 24.9146 18.1264C24.9638 18.0341 25.026 17.9366 25.1036 17.8365C25.2228 17.6825 25.3548 17.6133 25.4947 17.6338C25.7459 17.6697 25.8805 17.993 25.8935 18.0289C25.9012 18.052 25.9038 18.0751 25.8986 18.1008L25.4299 20.4794C25.3471 20.8925 24.9664 21.0054 24.4381 21.1645C24.231 21.226 23.9953 21.2979 23.7364 21.398C23.2858 21.5724 21.4601 24.7003 18.9741 29.5575C18.5469 30.394 17.7027 30.902 16.8326 30.902ZM16.3121 30.5736C17.2521 30.8327 18.275 30.358 18.7437 29.442C20.603 25.8087 22.9621 21.421 23.6431 21.1593C23.9099 21.0567 24.1507 20.9848 24.363 20.9207C24.8784 20.7667 25.127 20.6821 25.1762 20.4306L25.6423 18.0854C25.6008 17.9981 25.5232 17.8904 25.461 17.8827C25.4196 17.875 25.3678 17.916 25.3108 17.9879C25.0052 18.3779 24.9742 18.7371 24.9742 18.7397C24.969 18.8064 24.9146 18.8577 24.8473 18.8577C24.7722 18.8603 24.723 18.8115 24.7152 18.7448C24.6997 18.6242 24.5676 17.5619 24.6893 17.2181C24.8084 16.8794 25.0778 16.0121 25.1218 15.7864C25.1295 15.7427 25.1218 15.6837 25.0674 15.6478C24.9845 15.5939 24.8007 15.6016 24.5236 15.7864C23.5137 16.4586 22.8896 17.1001 22.931 17.4208C23.0009 17.9622 22.786 20.3844 22.7782 20.4896C22.7756 20.5204 22.7601 20.5512 22.7394 20.5717C19.7614 23.3634 15.0225 27.9923 14.9862 28.5234C14.9422 29.0982 15.1701 30.2605 16.3121 30.5736Z" fill="#3F4553"/>
<path d="M23.8478 18.6832C23.8452 18.6832 23.8426 18.6832 23.8426 18.6832C23.7701 18.6806 23.7157 18.6191 23.7209 18.5498C23.7209 18.5421 23.7546 17.8442 23.7365 17.5029C23.7157 17.1334 24.2699 15.7889 24.3346 15.6375C24.3605 15.5708 24.4382 15.54 24.503 15.5682C24.5677 15.5939 24.6014 15.6709 24.5729 15.735C24.3424 16.2892 23.9825 17.254 23.9954 17.4901C24.0135 17.8442 23.9799 18.5344 23.9799 18.5626C23.9747 18.6293 23.9177 18.6832 23.8478 18.6832Z" fill="#263238"/>
<path d="M23.4177 18.5395L23.1588 18.5343C23.1588 18.5343 23.1769 17.7851 23.1898 17.5054C23.2028 17.2206 23.4902 16.3379 23.5213 16.2404C23.542 16.1737 23.6171 16.1352 23.6844 16.1583C23.7518 16.1789 23.7906 16.2533 23.7673 16.32C23.6818 16.5817 23.4566 17.3053 23.4462 17.5183C23.4358 17.7954 23.4177 18.5395 23.4177 18.5395Z" fill="#263238"/>
</svg>
