<svg width="89" height="74" viewBox="0 0 89 74" fill="none" xmlns="http://www.w3.org/2000/svg">
<path d="M72.7133 68.354C72.6452 68.3571 72.5801 68.3105 72.5646 68.2392C71.7498 64.7908 71.1922 61.2524 70.9071 57.7203C70.8297 56.7612 70.7553 55.6283 70.7956 54.4861C70.9133 51.106 72.0039 47.729 73.9526 44.7152C75.7557 41.9248 78.3147 39.4542 81.3478 37.5639C81.4159 37.5205 81.5089 37.5422 81.5522 37.6105C81.5956 37.6788 81.5739 37.7719 81.5058 37.8153C78.5068 39.6807 75.9818 42.1204 74.2035 44.8735C72.2858 47.8407 71.2108 51.168 71.0961 54.4923C71.0559 55.6189 71.1302 56.7425 71.2077 57.6923C71.4927 61.209 72.0472 64.7349 72.8559 68.1678C72.8744 68.2485 72.8249 68.3261 72.7474 68.3447C72.7319 68.3509 72.7226 68.354 72.7133 68.354Z" fill="#565D70"/>
<path d="M81.8534 36.5956C81.996 36.4683 82.1663 36.3721 82.3398 36.2914C82.8789 36.0338 83.5047 35.8755 84.0717 36.0617C84.1244 36.0773 84.1739 36.099 84.2142 36.1393C84.2514 36.1766 84.27 36.2293 84.2793 36.279C84.3133 36.4745 84.208 36.6639 84.0934 36.8222C83.7433 37.2971 83.229 37.6354 82.6682 37.7968C82.346 37.8899 81.1966 38.1258 81.333 37.5174C81.4042 37.1791 81.5932 36.8253 81.8534 36.5956Z" fill="#565D70"/>
<path d="M79.3005 40.0319C79.9759 39.9667 80.6575 40.0101 81.3328 40.0629C81.7635 40.0971 82.1941 40.1374 82.6248 40.1809C82.7115 40.1902 82.8168 40.2181 82.8323 40.3019C82.8509 40.395 82.7394 40.4571 82.6526 40.4974C82.0516 40.7675 81.6829 41.3851 81.1346 41.7514C80.738 42.0152 80.264 42.1363 79.79 42.2015C79.3934 42.2542 78.9907 42.2697 78.591 42.248C78.2657 42.2294 77.928 42.1797 77.6616 41.9935C77.392 41.8042 77.2278 41.4752 77.2216 41.1461C77.2155 40.7364 77.5346 40.4912 77.8846 40.3578C78.337 40.1809 78.8234 40.0753 79.3005 40.0319Z" fill="#565D70"/>
<path d="M75.1147 45.6964C75.7901 45.6312 76.4717 45.6746 77.1471 45.7274C77.5777 45.7615 78.0084 45.8019 78.439 45.8454C78.5257 45.8547 78.6311 45.8795 78.6466 45.9664C78.6652 46.0595 78.5536 46.1216 78.4669 46.1619C77.8659 46.432 77.4972 47.0496 76.9488 47.4159C76.5523 47.6797 76.0782 47.8008 75.6042 47.866C75.2077 47.9187 74.8049 47.9342 74.4053 47.9125C74.08 47.8939 73.7423 47.8442 73.4758 47.658C73.2063 47.4687 73.0421 47.1397 73.0359 46.8107C73.0297 46.4009 73.3488 46.1557 73.6989 46.0223C74.1512 45.8485 74.6345 45.7429 75.1147 45.6964Z" fill="#565D70"/>
<path d="M72.8812 51.0009C73.5008 50.7278 74.1638 50.554 74.8206 50.3926C75.2419 50.2901 75.6633 50.1908 76.0846 50.0977C76.1683 50.0791 76.2767 50.0729 76.3201 50.1473C76.3665 50.2312 76.2829 50.3243 76.2116 50.3863C75.7252 50.8333 75.5703 51.5348 75.1645 52.0531C74.8702 52.4287 74.4581 52.6925 74.0306 52.9004C73.6712 53.0743 73.2932 53.217 72.9059 53.3195C72.593 53.4033 72.2553 53.4622 71.9424 53.3691C71.6264 53.2729 71.3693 53.0153 71.2577 52.7018C71.1214 52.3169 71.3476 51.9817 71.6388 51.7458C72.0137 51.4448 72.4412 51.1933 72.8812 51.0009Z" fill="#565D70"/>
<path d="M72.6115 57.5125C73.2033 57.1773 73.8415 56.9414 74.4828 56.7148C74.8917 56.5721 75.3007 56.4324 75.7127 56.2989C75.7933 56.271 75.9017 56.2524 75.9513 56.3238C76.004 56.4014 75.9296 56.5038 75.8676 56.5752C75.4277 57.0656 75.341 57.7826 74.9878 58.3381C74.7337 58.7416 74.3465 59.0458 73.9406 59.2941C73.5998 59.5052 73.2373 59.6821 72.8625 59.8218C72.5589 59.9366 72.2305 60.0297 71.9114 59.9645C71.5892 59.8994 71.3041 59.6697 71.1647 59.3686C70.9912 58.9962 71.1833 58.6423 71.4497 58.3785C71.7936 58.0402 72.1933 57.7484 72.6115 57.5125Z" fill="#565D70"/>
<path d="M75.961 40.8104C75.961 40.4225 75.9486 40.0314 75.8805 39.6496C75.8278 39.3454 75.7411 39.0444 75.6512 38.7495C75.3631 37.7873 75.0316 36.791 74.3221 36.0802C74.3005 36.0585 74.2757 36.0336 74.2447 36.0243C74.1672 35.9964 74.0836 36.0585 74.0526 36.1361C74.0216 36.2105 74.0278 36.2975 74.0247 36.3782C74.0185 36.5582 73.9628 36.732 73.907 36.9027C73.7614 37.3559 73.6158 37.8121 73.4702 38.2653C73.2502 38.9481 73.0302 39.6403 72.9807 40.3573C72.9311 41.0743 73.0674 41.8285 73.5042 42.3965C73.6499 42.5858 73.8264 42.7534 74.0154 42.8993C74.1951 43.039 74.3934 43.1663 74.6134 43.2159C74.9108 43.2842 75.2361 43.2004 75.4653 42.9987C75.7287 42.769 75.8216 42.3934 75.8588 42.0582C75.9115 41.6423 75.9579 41.2295 75.961 40.8104Z" fill="#565D70"/>
<path d="M72.3234 45.1438C72.1623 44.7899 71.9888 44.4392 71.7688 44.1195C71.5922 43.865 71.3909 43.6291 71.1864 43.3963C70.5265 42.639 69.8108 41.8723 68.8721 41.5216C68.8411 41.5092 68.8102 41.4999 68.7792 41.503C68.6986 41.5092 68.646 41.6023 68.6491 41.683C68.6522 41.7637 68.6924 41.8413 68.7234 41.9158C68.7916 42.0834 68.8133 42.2634 68.8349 42.4403C68.8907 42.9152 68.9465 43.387 69.0022 43.8619C69.0859 44.5758 69.1726 45.2959 69.4236 45.9663C69.6745 46.6398 70.1145 47.2668 70.7465 47.6051C70.9571 47.7169 71.1864 47.7945 71.4218 47.8503C71.6418 47.9031 71.8742 47.9372 72.0972 47.8907C72.3947 47.8286 72.658 47.6175 72.785 47.3382C72.9306 47.0185 72.8563 46.6398 72.754 46.3201C72.6239 45.9197 72.4938 45.5224 72.3234 45.1438Z" fill="#565D70"/>
<path d="M69.2006 51.4381C68.8505 51.2705 68.4911 51.1184 68.1162 51.016C67.8188 50.9353 67.5121 50.8856 67.2054 50.839C66.214 50.6869 65.173 50.5628 64.2281 50.9011C64.1971 50.9135 64.1662 50.9228 64.1445 50.9477C64.0856 51.0066 64.1073 51.1091 64.16 51.1711C64.2157 51.2332 64.2932 51.2612 64.3675 51.3015C64.5255 51.3853 64.6588 51.5095 64.7889 51.6305C65.1359 51.9564 65.4828 52.2823 65.8329 52.6082C66.3565 53.0986 66.8863 53.5953 67.5121 53.946C68.1379 54.2967 68.8753 54.4954 69.5754 54.3433C69.8109 54.2936 70.034 54.2036 70.2477 54.095C70.4522 53.9925 70.6474 53.8684 70.7899 53.6884C70.9789 53.4494 71.0409 53.1173 70.9603 52.8224C70.8643 52.4841 70.5668 52.242 70.2818 52.0619C69.9317 51.8416 69.5785 51.6181 69.2006 51.4381Z" fill="#565D70"/>
<path d="M69.4234 57.9253C69.0733 57.7577 68.714 57.6056 68.3391 57.5032C68.0417 57.4225 67.735 57.3728 67.4282 57.3263C66.4368 57.1742 65.3959 57.05 64.451 57.3883C64.42 57.4008 64.389 57.4101 64.3673 57.4349C64.3084 57.4939 64.3301 57.5963 64.3828 57.6584C64.4386 57.7205 64.516 57.7484 64.5904 57.7887C64.7484 57.8725 64.8816 57.9967 65.0117 58.1177C65.3587 58.4437 65.7057 58.7696 66.0558 59.0955C66.5794 59.5859 67.1091 60.0825 67.7349 60.4332C68.3608 60.7839 69.0981 60.9826 69.7983 60.8305C70.0337 60.7808 70.2568 60.6908 70.4706 60.5822C70.6751 60.4798 70.8702 60.3556 71.0128 60.1756C71.2017 59.9366 71.2637 59.6045 71.1831 59.3096C71.0871 58.9713 70.7897 58.7292 70.5047 58.5492C70.1515 58.3257 69.7983 58.1053 69.4234 57.9253Z" fill="#565D70"/>
<path d="M67.6923 53.7098C68.0052 52.2728 68.9966 50.5719 70.4403 50.845C71.4565 51.0374 72.008 52.1393 72.3085 53.1325C72.9684 55.299 73.1759 57.6052 72.9157 59.8554C72.9653 56.8944 73.777 53.9519 75.2548 51.3882C75.7257 50.5688 76.3887 49.7121 77.3274 49.6283C78.3157 49.5383 79.1863 50.4074 79.4558 51.3633C79.7253 52.3224 79.5426 53.3405 79.3567 54.3182C79.9174 48.6289 81.1629 42.3188 85.8441 39.0504C86.789 38.3893 87.8888 37.8772 89.0413 37.8772C90.1938 37.8772 91.3959 38.4917 91.8389 39.5595C92.0806 40.1399 92.0837 40.7886 92.0403 41.4155C91.6716 46.6672 88.3598 51.2175 84.8713 55.1593C85.7047 54.79 86.5691 54.4144 87.4799 54.402C88.3907 54.3896 89.3728 54.8365 89.7074 55.687C90.1195 56.7361 89.41 57.9093 88.5271 58.6108C87.6472 59.3123 86.5691 59.7685 85.8038 60.5973C87.4086 60.2217 89.5246 60.0603 90.2837 61.5284C90.6183 62.1802 90.547 62.9624 90.3952 63.6794C89.4813 67.9347 85.7605 71.4328 81.4634 72.0784C71.7074 73.5372 65.8861 61.9909 67.6923 53.7098Z" fill="#F2EDE4"/>
<path d="M75.6109 70.2411C75.6016 70.2411 75.5923 70.2411 75.583 70.238C75.5272 70.2224 75.4962 70.1635 75.5117 70.1107C75.5799 69.8748 82.3493 46.4812 90.1131 39.6745C90.1565 39.6372 90.2216 39.6403 90.2587 39.6838C90.2959 39.7273 90.2928 39.7924 90.2494 39.8297C82.5321 46.5991 75.7782 69.9307 75.7131 70.1666C75.6976 70.2131 75.6542 70.2411 75.6109 70.2411Z" fill="#D9C9AC"/>
<path d="M76.277 68.053C76.2522 68.053 76.2305 68.0468 76.2119 68.0282C68.9717 62.1154 69.7741 53.6047 69.7803 53.5209C69.7865 53.465 69.8391 53.4215 69.8949 53.4277C69.9507 53.434 69.994 53.4836 69.9878 53.5426C69.9785 53.6264 69.1916 62.0285 76.342 67.8668C76.3854 67.904 76.3947 67.9692 76.3575 68.0127C76.3359 68.0406 76.3049 68.053 76.277 68.053Z" fill="#D9C9AC"/>
<path d="M78.1606 62.4228C78.1203 62.4228 78.08 62.398 78.0646 62.3607C76.1313 57.7701 77.3179 51.1621 77.3303 51.0969C77.3396 51.041 77.3923 51.0007 77.4511 51.0131C77.5069 51.0224 77.5441 51.0783 77.5348 51.1341C77.5224 51.1993 76.3482 57.7453 78.2566 62.28C78.2783 62.3328 78.2535 62.3949 78.2009 62.4166C78.1885 62.4197 78.1761 62.4228 78.1606 62.4228Z" fill="#D9C9AC"/>
<path d="M76.6824 69.1764C76.2145 69.1764 75.9419 69.1516 75.9264 69.1516C75.8706 69.1454 75.8273 69.0957 75.8335 69.0367C75.8397 68.9809 75.8892 68.9343 75.9481 68.9436C76.0318 68.9529 84.3595 69.6792 88.5698 62.6801C88.6008 62.6304 88.6627 62.6149 88.7123 62.6459C88.7619 62.677 88.7774 62.739 88.7464 62.7887C85.2207 68.6487 78.8634 69.1764 76.6824 69.1764Z" fill="#D9C9AC"/>
<path d="M79.3009 59.3251C79.2451 59.3251 79.1986 59.2816 79.1955 59.2258C79.1924 59.1699 79.2389 59.1202 79.2947 59.1171C79.3442 59.114 84.2857 58.9216 87.706 55.9605C87.7494 55.9233 87.8145 55.9264 87.8516 55.9698C87.8888 56.0133 87.8857 56.0785 87.8423 56.1157C84.3663 59.1264 79.3535 59.322 79.304 59.3251C79.3009 59.3251 79.3009 59.3251 79.3009 59.3251Z" fill="#D9C9AC"/>
<path d="M83.8886 48.8434C83.8359 48.8434 83.7894 48.8031 83.7832 48.7472C83.7801 48.7099 83.5354 44.9729 85.3013 41.8908C85.3292 41.8411 85.3943 41.8256 85.4438 41.8536C85.4934 41.8815 85.512 41.9467 85.481 41.9963C83.7461 45.0195 83.9877 48.6975 83.9908 48.7348C83.9939 48.7906 83.9505 48.8434 83.8948 48.8465C83.8948 48.8434 83.8917 48.8434 83.8886 48.8434Z" fill="#D9C9AC"/>
<path d="M86.2275 44.7306C86.1842 44.7306 86.1408 44.7026 86.1284 44.6592C86.1098 44.6033 86.1408 44.5444 86.1965 44.5288C86.2337 44.5164 89.8399 43.3742 90.8933 42.0985C90.9305 42.0551 90.9955 42.0489 91.0389 42.0861C91.0823 42.1234 91.0885 42.1885 91.0513 42.232C89.9577 43.5542 86.4072 44.6809 86.2554 44.7275C86.2492 44.7275 86.2399 44.7306 86.2275 44.7306Z" fill="#D9C9AC"/>
<path d="M82.51 52.5861C82.2466 52.5861 82.0948 52.5427 82.0731 52.5364C82.0174 52.5178 81.9895 52.4619 82.005 52.4061C82.0236 52.3502 82.0793 52.3192 82.1351 52.3378C82.1506 52.3409 83.6934 52.7785 85.9179 50.5096C85.9582 50.4693 86.0232 50.4662 86.0635 50.5096C86.1038 50.55 86.1038 50.6152 86.0635 50.6555C84.4246 52.3285 83.1451 52.5861 82.51 52.5861Z" fill="#D9C9AC"/>
<path d="M76.9893 58.0958C76.5711 58.0958 75.5673 57.8754 74.9229 55.9231C74.9043 55.8672 74.9353 55.8082 74.988 55.7927C75.0437 55.7741 75.1026 55.8051 75.1181 55.8579C75.8709 58.133 77.0823 57.8878 77.1319 57.8754C77.1876 57.8599 77.2434 57.8971 77.2558 57.953C77.2682 58.0089 77.2341 58.0647 77.1783 58.0772C77.169 58.0803 77.1009 58.0958 76.9893 58.0958Z" fill="#D9C9AC"/>
<path d="M71.8218 62.587C71.8187 62.587 71.8187 62.587 71.8156 62.587C71.7443 62.5807 70.028 62.4473 68.9529 60.2218C68.9281 60.1691 68.9498 60.107 69.0025 60.0822C69.0521 60.0573 69.1171 60.0791 69.1419 60.1318C70.1643 62.2486 71.8125 62.3759 71.828 62.379C71.8837 62.3821 71.9302 62.4318 71.924 62.4907C71.924 62.5435 71.8775 62.587 71.8218 62.587Z" fill="#D9C9AC"/>
<path d="M73.6187 65.3616C73.597 65.3616 73.5753 65.3554 73.5567 65.3399C73.5102 65.3058 73.504 65.2406 73.5381 65.194C73.5474 65.1816 74.5202 63.8594 73.7116 60.3893C73.6992 60.3334 73.7333 60.2775 73.7891 60.2651C73.8448 60.2527 73.9006 60.2869 73.913 60.3427C74.7464 63.9246 73.7426 65.2685 73.6992 65.3213C73.6775 65.3492 73.6496 65.3616 73.6187 65.3616Z" fill="#D9C9AC"/>
<path d="M80.3203 68.7603C80.311 68.7603 80.3017 68.7603 80.2955 68.7572C80.2397 68.7417 80.2057 68.6858 80.2212 68.63C80.2738 68.4251 81.544 63.5738 83.8955 62.4533C83.9482 62.4285 84.0102 62.4502 84.0349 62.503C84.0597 62.5558 84.038 62.6178 83.9854 62.6427C81.7237 63.7228 80.438 68.6331 80.4256 68.6827C80.4101 68.7293 80.3668 68.7603 80.3203 68.7603Z" fill="#D9C9AC"/>
<path d="M85.4972 68.016C85.3268 68.016 85.1687 67.9881 85.0262 67.9291C84.4376 67.6932 84.3075 67.0693 84.3013 67.0414C84.2889 66.9855 84.3261 66.9296 84.3818 66.9203C84.4407 66.9079 84.4934 66.9451 84.5058 67.001C84.5058 67.0072 84.6204 67.5442 85.1068 67.7366C85.6118 67.9353 86.3615 67.7025 87.2786 67.0538C87.325 67.0196 87.3901 67.0321 87.4242 67.0786C87.4582 67.1252 87.4459 67.1904 87.3994 67.2245C86.6496 67.7491 86.0145 68.016 85.4972 68.016Z" fill="#D9C9AC"/>
<rect x="45.2255" y="0.00898743" width="5.86056" height="14.6514" rx="2.93028" fill="#FDFFFC"/>
<rect x="35.4579" y="4.88582" width="5.86056" height="14.6514" rx="2.93028" transform="rotate(-41.7192 35.4579 4.88582)" fill="#FDFFFC"/>
<rect x="56.2736" y="0.985413" width="5.86056" height="14.6514" rx="2.93028" transform="rotate(43.4252 56.2736 0.985413)" fill="#FDFFFC"/>
<path d="M15.4698 37.9902C12.9263 37.9902 10.4137 36.671 7.99098 34.0607C7.7958 33.8496 7.8082 33.5206 8.01887 33.3251C8.22954 33.1296 8.55794 33.142 8.75312 33.353C11.1201 35.9044 13.5397 37.1087 15.9376 36.9317C19.7049 36.6524 22.2175 33.0489 22.2423 33.0116C22.4065 32.7757 22.7287 32.7136 22.9641 32.8781C23.1996 33.0395 23.2616 33.3654 23.0974 33.6013C22.9827 33.7658 20.2719 37.6549 16.012 37.9715C15.8323 37.9808 15.6495 37.9902 15.4698 37.9902Z" fill="#E9F2DE"/>
<path d="M6.64688 35.1129C6.56633 35.1129 6.48578 35.1098 6.40523 35.1005C6.11401 35.0664 5.86306 34.9764 5.66168 34.8336C5.02657 34.3773 4.99249 33.5083 5.28681 32.9216C5.41383 32.664 5.72674 32.5585 5.98389 32.6888C6.24103 32.8161 6.34327 33.1296 6.21625 33.3872C6.10781 33.6045 6.1326 33.89 6.26891 33.9893C6.32468 34.0297 6.41143 34.0545 6.52296 34.0701C6.86065 34.1073 7.21074 33.9956 7.46168 33.7659C7.71263 33.5362 7.85824 33.1979 7.85514 32.8596C7.85205 32.7509 7.83656 32.6578 7.80557 32.5864C7.74051 32.4343 7.58251 32.3102 7.39972 32.2698C7.21074 32.2295 6.98458 32.276 6.80179 32.3971C6.56014 32.5523 6.23793 32.484 6.08303 32.245C5.92812 32.0029 5.99628 31.6801 6.23483 31.5249C6.64998 31.2549 7.15187 31.1524 7.61349 31.2518C8.12468 31.3604 8.56461 31.7173 8.76289 32.1829C8.84654 32.3785 8.88991 32.6019 8.89301 32.844C8.90231 33.4772 8.62967 34.1104 8.16186 34.5387C7.74981 34.905 7.19835 35.1129 6.64688 35.1129Z" fill="#E9F2DE"/>
<path d="M7.26019 37.459C7.04023 37.459 6.83575 37.3193 6.7645 37.0958C6.08911 34.9728 7.59479 33.5947 7.65985 33.5357C7.87362 33.3433 8.20202 33.365 8.3941 33.5792C8.58309 33.7934 8.5676 34.1193 8.35383 34.3117C8.30736 34.3551 7.28808 35.3111 7.75279 36.7792C7.83954 37.0524 7.68773 37.3472 7.4151 37.4341C7.36553 37.4528 7.31286 37.459 7.26019 37.459Z" fill="#E9F2DE"/>
<path d="M5.91196 37.7509C5.71058 37.7509 5.5185 37.6329 5.43485 37.4374C4.83382 36.0407 5.82211 34.3894 5.86549 34.3211C6.01419 34.0759 6.3333 33.9983 6.58115 34.1473C6.8259 34.2963 6.90335 34.616 6.75464 34.8612C6.54397 35.2088 6.06996 36.2765 6.39216 37.0246C6.50679 37.2884 6.38597 37.5957 6.11953 37.7074C6.05137 37.7385 5.98011 37.7509 5.91196 37.7509Z" fill="#E9F2DE"/>
<path d="M77.7302 18.6715C66.3633 1.80218 48.6142 14.5683 48.6142 14.5683C48.6142 14.5683 32.0672 0.271988 19.2503 16.0674C6.43346 31.8597 27.5811 56.647 46.6872 57.9661C65.8366 58.351 89.0972 35.544 77.7302 18.6715Z" fill="#93BFA8"/>
<path d="M77.7297 18.6718C71.456 9.36024 63.2398 9.07779 57.1366 10.6949C61.8643 12.6038 75.3968 19.3267 73.3707 33.2008C71.8588 43.5645 60.6096 52.3049 52.2385 57.4666C69.9534 54.0586 88.0123 33.9364 77.7297 18.6718Z" fill="#80B996"/>
<path d="M48.6138 14.5716C48.6138 14.5716 39.5859 6.77479 29.7029 9.06232C39.7005 11.2909 45.3422 16.3874 45.3422 16.3874C46.7611 15.4966 48.6138 14.5716 48.6138 14.5716Z" fill="#80B996"/>
<path d="M24.885 13.2804C22.9456 14.5157 21.3872 16.468 20.9938 18.737C20.9411 19.0349 20.9101 19.3484 21.0093 19.634C21.1704 20.0995 21.6568 20.3944 22.1463 20.4565C22.6358 20.5186 23.1253 20.3913 23.5931 20.2361C25.8981 19.4695 27.9738 18.0169 30.3625 17.5792C31.611 17.3495 32.9122 17.4054 34.1174 17.0081C35.3225 16.6139 36.4657 15.5617 36.3852 14.2954C36.2458 12.1103 33.2375 11.5361 31.5119 11.3374C29.337 11.0891 26.6881 12.132 24.885 13.2804Z" fill="#66A986"/>
<path d="M51.353 15.2325C51.2879 15.4497 51.2445 15.6856 51.3096 15.9029C51.4428 16.3405 51.954 16.533 52.4032 16.6106C53.5154 16.803 54.6803 16.6788 55.7244 16.2598C56.3812 15.996 57.0039 15.6049 57.4438 15.0493C58.1843 14.112 58.3609 11.9672 56.8273 11.691C55.65 11.4768 53.816 12.4452 52.9175 13.1094C52.208 13.6371 51.6132 14.3665 51.353 15.2325Z" fill="#66A986"/>
<path d="M48.047 15.7854C47.8735 16.0833 47.858 16.4899 48.0749 16.7569C48.2607 16.9866 48.5736 17.0735 48.8649 17.1293C49.1623 17.1852 49.4845 17.2193 49.7509 17.0735C49.8934 16.9959 50.005 16.8748 50.101 16.7444C50.3613 16.403 50.5471 15.9312 50.3489 15.5495C50.2249 15.3136 49.9771 15.1615 49.7168 15.0994C49.0786 14.9411 48.3909 15.2018 48.047 15.7854Z" fill="#66A986"/>
<path d="M37.4948 25.4132C37.5754 25.8353 37.5939 26.2295 37.5816 26.6486C37.5599 27.0614 37.4979 27.4835 37.3399 27.8963C37.1881 28.3091 36.9186 28.7157 36.5282 28.9951C36.144 29.2806 35.6762 29.411 35.2332 29.4389C35.007 29.4544 34.7716 29.4327 34.5361 29.3768C34.3007 29.3148 34.0683 29.203 33.8731 29.0478C33.4735 28.7343 33.2566 28.2936 33.142 27.8777C32.9158 27.0334 32.9499 26.2264 33.0862 25.4132C33.1172 25.2301 33.2907 25.1059 33.4735 25.137C33.647 25.168 33.7678 25.3263 33.7523 25.5001L33.7492 25.5219C33.7151 25.8695 33.7027 26.2513 33.7244 26.6082C33.7461 26.9682 33.7926 27.3252 33.8979 27.6449C34.0032 27.9615 34.155 28.2408 34.375 28.4022C34.4834 28.4829 34.6043 28.5419 34.7406 28.576C34.88 28.604 35.0287 28.6195 35.1898 28.6071C35.512 28.5885 35.8187 28.5015 36.0542 28.3308C36.2989 28.1632 36.4755 27.9025 36.6057 27.6014C36.7358 27.2973 36.8039 26.9496 36.838 26.5958C36.8752 26.2451 36.869 25.8664 36.838 25.525L36.8349 25.5063C36.8163 25.3201 36.9526 25.1556 37.1385 25.1401C37.3089 25.1246 37.4638 25.2456 37.4948 25.4132Z" fill="#3F4553"/>
<path d="M52.7622 25.5251C52.7312 25.8665 52.725 26.2452 52.7622 26.5959C52.7932 26.9497 52.8644 27.2974 52.9945 27.6016C53.1247 27.9057 53.3012 28.1634 53.546 28.331C53.7846 28.5048 54.0882 28.5917 54.4104 28.6072C54.5684 28.6196 54.7202 28.6041 54.8596 28.5762C54.9959 28.542 55.1167 28.483 55.2252 28.4023C55.442 28.2409 55.5969 27.9616 55.7023 27.645C55.8076 27.3284 55.8541 26.9684 55.8758 26.6083C55.9006 26.2514 55.8851 25.8696 55.851 25.522L55.8479 25.5003C55.8293 25.314 55.9656 25.1495 56.1515 25.134C56.3281 25.1185 56.4861 25.2426 56.514 25.4133C56.6503 26.2266 56.6844 27.0305 56.4582 27.8778C56.3436 28.2937 56.1236 28.7345 55.7271 29.0479C55.5319 29.2031 55.2995 29.3149 55.0641 29.377C54.8286 29.4328 54.5901 29.4546 54.367 29.439C53.9271 29.4142 53.4593 29.2807 53.072 28.9952C52.6847 28.7158 52.4121 28.3092 52.2603 27.8964C52.1023 27.4836 52.0403 27.0615 52.0186 26.6487C52.0062 26.2297 52.0248 25.8355 52.1054 25.4133C52.1395 25.2302 52.3161 25.1092 52.4988 25.1433C52.6692 25.1743 52.787 25.3326 52.7715 25.5034L52.7622 25.5251Z" fill="#3F4553"/>
<path d="M44.6331 31.4254C44.063 31.4254 43.5549 31.3509 43.1305 31.2516C41.7952 30.935 40.9742 30.3111 40.937 30.2832C40.7914 30.1684 40.7635 29.9573 40.8751 29.8114C40.9897 29.6655 41.2004 29.6376 41.346 29.7494C41.4668 29.8425 44.3574 31.9934 48.0751 29.7276C48.2331 29.6314 48.4407 29.6811 48.5367 29.8394C48.6327 29.9977 48.5832 30.2056 48.4252 30.3018C47.0186 31.1585 45.7112 31.4254 44.6331 31.4254Z" fill="#3F4553"/>
<path d="M87.4829 41.3363C86.7424 41.3363 86.0113 41.2649 85.2832 41.1253C78.9569 39.8993 75.4715 33.8188 75.3259 33.5612C75.1834 33.3098 75.2732 32.9932 75.5242 32.8535C75.7751 32.7139 76.0911 32.8008 76.2305 33.0522C76.2646 33.1112 79.6354 38.9774 85.4877 40.1072C89.1527 40.8149 93.0316 39.5423 97.0281 36.3329C97.2512 36.1529 97.5796 36.1902 97.7593 36.4136C97.939 36.6371 97.9018 36.9661 97.6787 37.1462C94.2058 39.9303 90.7854 41.3363 87.4829 41.3363Z" fill="#E9F2DE"/>
<path d="M40.7327 60.6723C40.3516 60.6723 39.9736 60.6661 39.5957 60.6568C39.3075 60.6475 39.0814 60.4085 39.0907 60.123C39.1 59.8343 39.3354 59.617 39.6235 59.617C44.0848 59.7381 48.828 59.1297 53.342 57.8571C54.0173 57.6678 54.8012 57.4164 55.5044 56.9974C55.8142 56.8112 55.8979 56.6839 55.9134 56.6094C55.9444 56.4542 55.7182 56.2121 55.4146 56.0662C54.7082 55.731 53.8562 55.7217 53.2769 55.7403C51.2445 55.8117 49.2556 56.4108 47.5206 57.4785C47.2759 57.6275 46.9568 57.553 46.805 57.3078C46.6562 57.0626 46.7306 56.7429 46.9753 56.5908C48.8621 55.4299 51.0277 54.7781 53.2397 54.7005C53.9244 54.6757 54.9437 54.6943 55.8545 55.1258C56.4463 55.4051 57.0845 56.0135 56.9296 56.8049C56.8211 57.3636 56.3657 57.6926 56.0342 57.8913C55.2225 58.3755 54.3179 58.6641 53.6208 58.8597C49.3888 60.0516 44.9554 60.6723 40.7327 60.6723Z" fill="#E9F2DE"/>
<path d="M52.3255 60.688C48.0997 60.688 43.7778 60.0735 39.4622 58.8599C38.7651 58.6643 37.8604 58.3757 37.0487 57.8915C36.7172 57.6928 36.2618 57.3638 36.1534 56.8051C36.0016 56.0137 36.6367 55.4053 37.2284 55.126C38.1393 54.6945 39.1586 54.6759 39.8432 54.7007C42.0553 54.7783 44.2209 55.4301 46.1076 56.591C46.3524 56.74 46.4298 57.0628 46.278 57.308C46.1293 57.5532 45.8071 57.6308 45.5623 57.4787C43.8274 56.414 41.8384 55.8119 39.8061 55.7405C39.2298 55.7219 38.3778 55.7312 37.6715 56.0664C37.3648 56.2123 37.1417 56.4544 37.1727 56.6065C37.1882 56.681 37.2687 56.8113 37.5785 56.9945C38.2818 57.4135 39.0656 57.6649 39.741 57.8542C44.3541 59.1516 48.9703 59.7538 53.4594 59.6296C53.7506 59.6327 53.9861 59.85 53.9923 60.1356C53.9985 60.4242 53.7723 60.6632 53.4873 60.6694C53.1031 60.6818 52.7128 60.688 52.3255 60.688Z" fill="#E9F2DE"/>
<path d="M52.4434 61.4204C52.3442 61.6531 52.2575 61.8952 52.2544 62.1467C52.2482 62.3981 52.338 62.665 52.5332 62.8202C52.8028 63.0375 53.2179 62.994 53.4998 62.7892C53.7818 62.5843 53.946 62.2584 54.0451 61.9263C54.2186 61.3552 54.2248 60.7344 54.0668 60.1602C54.0141 59.9708 53.9088 59.7194 53.6826 59.6884C53.472 59.6574 53.3666 59.8498 53.2644 60.0019C52.9546 60.4582 52.6602 60.9144 52.4434 61.4204Z" fill="#E9F2DE"/>
<path d="M40.6705 61.4204C40.7696 61.6531 40.8563 61.8952 40.8594 62.1467C40.8656 62.3981 40.7758 62.665 40.5806 62.8202C40.3111 63.0375 39.8959 62.994 39.614 62.7892C39.3321 62.5843 39.1679 62.2584 39.0687 61.9263C38.8952 61.3552 38.889 60.7344 39.047 60.1602C39.0997 59.9708 39.205 59.7194 39.4312 59.6884C39.6419 59.6574 39.7472 59.8498 39.8495 60.0019C40.1593 60.4582 40.4536 60.9144 40.6705 61.4204Z" fill="#E9F2DE"/>
<path d="M47.1853 74.0002C56.1632 74.0002 63.4411 73.1094 63.4411 72.0106C63.4411 70.9118 56.1632 70.0211 47.1853 70.0211C38.2075 70.0211 30.9296 70.9118 30.9296 72.0106C30.9296 73.1094 38.2075 74.0002 47.1853 74.0002Z" fill="#808AFF"/>
<path d="M26.0408 69.9149C26.1089 69.918 26.174 69.8714 26.1895 69.8C27.0043 66.3517 27.5619 62.8133 27.847 59.2811C27.9244 58.3221 27.9988 57.1891 27.9585 56.0469C27.8408 52.6669 26.7502 49.2899 24.8015 46.2761C22.9984 43.4857 20.4394 41.015 17.4063 39.1248C17.3382 39.0814 17.2452 39.1031 17.2019 39.1714C17.1585 39.2397 17.1802 39.3328 17.2483 39.3762C20.2473 41.2416 22.7723 43.6812 24.5506 46.4343C26.4683 49.4016 27.5434 52.7289 27.658 56.0531C27.6983 57.1798 27.6239 58.3034 27.5465 59.2532C27.2614 62.7698 26.7069 66.2958 25.8983 69.7286C25.8797 69.8093 25.9292 69.8869 26.0067 69.9056C26.0222 69.9118 26.0315 69.9149 26.0408 69.9149Z" fill="#565D70"/>
<path d="M16.9016 38.1565C16.7591 38.0293 16.5887 37.933 16.4152 37.8523C15.8761 37.5947 15.2503 37.4364 14.6833 37.6227C14.6307 37.6382 14.5811 37.6599 14.5408 37.7003C14.5036 37.7375 14.485 37.7903 14.4757 37.8399C14.4417 38.0355 14.547 38.2248 14.6616 38.3831C15.0117 38.858 15.526 39.1963 16.0868 39.3577C16.409 39.4508 17.5584 39.6867 17.422 39.0784C17.3539 38.74 17.1618 38.3862 16.9016 38.1565Z" fill="#565D70"/>
<path d="M19.4541 41.5928C18.7787 41.5276 18.0971 41.571 17.4217 41.6238C16.9911 41.6579 16.5604 41.6983 16.1298 41.7417C16.043 41.7511 15.9377 41.779 15.9222 41.8628C15.9036 41.9559 16.0152 42.018 16.1019 42.0583C16.7029 42.3284 17.0716 42.946 17.62 43.3123C18.0165 43.5761 18.4905 43.6972 18.9646 43.7623C19.3611 43.8151 19.7639 43.8306 20.1635 43.8089C20.4888 43.7903 20.8265 43.7406 21.093 43.5544C21.3625 43.365 21.5267 43.036 21.5329 42.707C21.5391 42.2973 21.22 42.0521 20.8699 41.9187C20.4176 41.7417 19.9343 41.6393 19.4541 41.5928Z" fill="#565D70"/>
<path d="M23.6427 47.2573C22.9673 47.1921 22.2857 47.2355 21.6103 47.2883C21.1797 47.3224 20.749 47.3628 20.3184 47.4062C20.2316 47.4156 20.1263 47.4435 20.1108 47.5273C20.0922 47.6204 20.2038 47.6825 20.2905 47.7228C20.8915 47.9929 21.2602 48.6105 21.8086 48.9768C22.2051 49.2406 22.6792 49.3616 23.1532 49.4268C23.5497 49.4796 23.9525 49.4951 24.3521 49.4734C24.6774 49.4548 25.0151 49.4051 25.2816 49.2189C25.5511 49.0295 25.7153 48.7005 25.7215 48.3715C25.7277 47.9618 25.4086 47.7166 25.0585 47.5832C24.6031 47.4093 24.1198 47.3038 23.6427 47.2573Z" fill="#565D70"/>
<path d="M25.8731 52.5618C25.2535 52.2887 24.5905 52.1148 23.9337 51.9534C23.5124 51.851 23.091 51.7548 22.6697 51.6586C22.5861 51.64 22.4776 51.6337 22.4342 51.7082C22.3878 51.792 22.4714 51.8852 22.5427 51.9472C23.0291 52.3942 23.184 53.0957 23.5898 53.614C23.8842 53.9896 24.2962 54.2534 24.7238 54.4613C25.0831 54.6352 25.4611 54.7779 25.8484 54.8803C26.1613 54.9642 26.499 55.0231 26.8119 54.93C27.1279 54.8338 27.385 54.5762 27.4966 54.2627C27.6329 53.8778 27.4067 53.5426 27.1155 53.3067C26.7406 53.0056 26.3131 52.7542 25.8731 52.5618Z" fill="#565D70"/>
<path d="M26.1431 59.0734C25.5513 58.7382 24.9131 58.5023 24.2718 58.2757C23.8629 58.1329 23.4539 57.9933 23.0419 57.8598C22.9613 57.8319 22.8529 57.8133 22.8033 57.8846C22.7506 57.9622 22.825 58.0647 22.8869 58.1361C23.3269 58.6265 23.4136 59.3434 23.7668 59.899C24.0209 60.3025 24.4081 60.6067 24.814 60.855C25.1548 61.0661 25.5172 61.243 25.8921 61.3827C26.1957 61.4975 26.5241 61.5906 26.8432 61.5254C27.1654 61.4602 27.4505 61.2306 27.5899 60.9295C27.7634 60.557 27.5713 60.2032 27.3049 59.9394C26.961 59.6011 26.5613 59.3093 26.1431 59.0734Z" fill="#565D70"/>
<path d="M22.794 42.3742C22.794 41.9862 22.8064 41.5951 22.8746 41.2134C22.9272 40.9092 23.014 40.6081 23.1038 40.3133C23.3919 39.3511 23.7234 38.3547 24.4329 37.644C24.4546 37.6222 24.4794 37.5974 24.5104 37.5881C24.5878 37.5602 24.6715 37.6222 24.7024 37.6998C24.7334 37.7743 24.7272 37.8612 24.7303 37.9419C24.7365 38.1219 24.7923 38.2958 24.848 38.4665C24.9937 38.9196 25.1393 39.3759 25.2849 39.8291C25.5048 40.5119 25.7248 41.2041 25.7744 41.921C25.824 42.638 25.6876 43.3923 25.2508 43.9603C25.1052 44.1496 24.9286 44.3172 24.7396 44.4631C24.5599 44.6028 24.3616 44.73 24.1417 44.7797C23.8443 44.848 23.519 44.7642 23.2897 44.5624C23.0264 44.3327 22.9334 43.9572 22.8962 43.6219C22.8436 43.206 22.7971 42.7901 22.794 42.3742Z" fill="#565D70"/>
<path d="M26.4311 46.7052C26.5922 46.3513 26.7657 46.0006 26.9856 45.6809C27.1622 45.4264 27.3636 45.1905 27.5681 44.9577C28.228 44.2004 28.9436 43.4337 29.8824 43.083C29.9133 43.0706 29.9443 43.0612 29.9753 43.0643C30.0558 43.0706 30.1085 43.1637 30.1054 43.2444C30.1023 43.3251 30.062 43.4027 30.0311 43.4772C29.9629 43.6448 29.9412 43.8248 29.9195 44.0017C29.8638 44.4766 29.808 44.9484 29.7522 45.4233C29.6686 46.1372 29.5818 46.8572 29.3309 47.5277C29.0799 48.2012 28.64 48.8282 28.008 49.1665C27.7973 49.2782 27.5681 49.3558 27.3326 49.4117C27.1126 49.4645 26.8803 49.4986 26.6572 49.4521C26.3598 49.39 26.0965 49.1789 25.9694 48.8996C25.8238 48.5799 25.8982 48.2012 26.0004 47.8815C26.1336 47.4811 26.2607 47.0838 26.4311 46.7052Z" fill="#565D70"/>
<path d="M29.5544 53.0019C29.9045 52.8342 30.2639 52.6822 30.6388 52.5797C30.9362 52.499 31.2429 52.4494 31.5496 52.4028C32.541 52.2507 33.582 52.1266 34.5269 52.4649C34.5579 52.4742 34.5888 52.4866 34.6105 52.5114C34.6694 52.5704 34.6477 52.6728 34.595 52.7349C34.5393 52.797 34.4618 52.828 34.3875 52.8653C34.2295 52.9491 34.0962 53.0732 33.9661 53.1943C33.6191 53.5202 33.2721 53.8461 32.9221 54.172C32.3985 54.6624 31.8687 55.159 31.2429 55.5097C30.6171 55.8605 29.8797 56.0591 29.1795 55.907C28.9441 55.8574 28.721 55.7674 28.5073 55.6587C28.3028 55.5563 28.1076 55.4322 27.9651 55.2521C27.7761 55.0131 27.7141 54.681 27.7947 54.3862C27.8907 54.0478 28.1882 53.8057 28.4732 53.6257C28.8264 53.4022 29.1765 53.1788 29.5544 53.0019Z" fill="#565D70"/>
<path d="M29.3344 59.4862C29.6845 59.3186 30.0439 59.1665 30.4188 59.0641C30.7162 58.9834 31.0229 58.9337 31.3296 58.8872C32.321 58.7351 33.362 58.6109 34.3069 58.9492C34.3379 58.9616 34.3689 58.971 34.3905 58.9958C34.4494 59.0548 34.4277 59.1572 34.3751 59.2193C34.3193 59.2813 34.2418 59.3124 34.1675 59.3496C34.0095 59.4334 33.8763 59.5576 33.7461 59.6786C33.3992 60.0045 33.0522 60.3304 32.7021 60.6563C32.1785 61.1467 31.6487 61.6434 31.0229 61.9941C30.3971 62.3448 29.6597 62.5435 28.9596 62.3914C28.7241 62.3417 28.5011 62.2517 28.2873 62.1431C28.0828 62.0406 27.8876 61.9165 27.7451 61.7365C27.5561 61.4975 27.4942 61.1654 27.5747 60.8705C27.6708 60.5322 27.9682 60.2901 28.2532 60.1101C28.6033 59.8866 28.9565 59.6662 29.3344 59.4862Z" fill="#565D70"/>
<path d="M36.9184 59.9456C36.9339 59.8369 36.9463 59.7314 36.9525 59.6228C37.284 54.787 31.317 57.4966 29.8082 59.7004C30.3411 58.6637 29.8268 57.2297 28.7611 56.7641C27.6953 56.3017 26.2981 56.91 25.9077 58.0057C26.2113 55.5412 26.518 53.0768 26.8217 50.6123C26.958 49.5105 27.0385 48.2379 26.2516 47.4557C25.3686 46.5836 23.7886 46.8691 22.9149 47.7506C22.0413 48.6321 21.7098 49.9078 21.4898 51.1338C20.421 50.0009 18.1067 50.9569 18.147 52.515C18.2802 49.3553 18.3948 46.0838 17.2051 43.1538C16.443 41.276 14.6523 39.4199 12.6881 39.9041C10.947 40.3324 10.126 42.3189 9.79756 44.085C9.04162 48.1572 9.52493 52.4498 11.17 56.2489C10.6991 55.1532 8.88982 55.3643 8.27639 56.3855C7.66296 57.4097 7.9325 58.7289 8.39102 59.8307C7.25092 58.6668 5.75143 57.7667 4.12493 57.7046C2.49842 57.6425 0.78207 58.5954 0.292569 60.1473C-0.20003 61.7023 0.933876 63.6578 2.56038 63.7074C1.52871 63.8285 0.971054 65.1104 1.23439 66.116C2.55419 71.1597 15.9287 71.8736 19.9563 71.4732C26.0038 70.868 31.9242 67.9162 35.4995 62.9904C36.1594 62.0779 36.7542 61.0567 36.9184 59.9456Z" fill="#F2EDE4"/>
<path d="M19.851 70.5018C19.82 70.5018 19.7891 70.4863 19.7674 70.4584C16.44 65.9888 14.8042 58.2448 14.0142 52.5399C13.1591 46.3633 13.0909 41.1737 13.0909 41.1209C13.0909 41.065 13.1374 41.0154 13.1932 41.0154C13.2489 41.0154 13.2954 41.0619 13.2985 41.1178C13.3016 41.3226 13.6145 61.839 19.9347 70.3342C19.9687 70.3808 19.9594 70.446 19.913 70.4801C19.8944 70.4956 19.8727 70.5018 19.851 70.5018Z" fill="#D9C9AC"/>
<path d="M18.0012 69.5948C10.5905 69.5948 3.3905 65.327 3.31615 65.2836C3.26658 65.2556 3.25108 65.1904 3.27897 65.1408C3.30995 65.0911 3.37191 65.0756 3.42148 65.1035C3.50203 65.1501 11.4425 69.8555 19.1908 69.3465C19.2466 69.3465 19.2962 69.3868 19.3024 69.4427C19.3055 69.4986 19.2621 69.5482 19.2063 69.5544C18.8067 69.5824 18.4039 69.5948 18.0012 69.5948Z" fill="#D9C9AC"/>
<path d="M17.1157 65.2967C17.0785 65.2967 17.0413 65.275 17.0227 65.2377C16.998 65.185 17.0196 65.1229 17.0692 65.0981C24.5821 61.3486 24.861 48.4025 24.861 48.2722C24.861 48.2163 24.9105 48.1697 24.9663 48.1697C25.0221 48.1697 25.0685 48.2163 25.0685 48.2753C25.0654 48.4056 24.7866 61.4759 17.1622 65.2843C17.1467 65.2936 17.1312 65.2967 17.1157 65.2967Z" fill="#D9C9AC"/>
<path d="M17.5673 66.8674C8.58897 66.8674 2.61892 59.8807 2.56006 59.8093C2.52288 59.7658 2.52907 59.7007 2.57245 59.6634C2.61582 59.6262 2.68088 59.6324 2.71806 59.6758C2.77692 59.7472 8.78415 66.765 17.7656 66.6564C17.8213 66.6564 17.8678 66.7029 17.8709 66.7588C17.8709 66.8147 17.8244 66.8643 17.7687 66.8643C17.7005 66.8674 17.6354 66.8674 17.5673 66.8674Z" fill="#D9C9AC"/>
<path d="M16.2296 62.7113C16.2203 62.7113 16.2141 62.7113 16.2048 62.7082C10.8822 61.4232 9.64608 56.8078 9.63369 56.7643C9.6182 56.7085 9.65228 56.6526 9.70804 56.6371C9.76381 56.6216 9.81957 56.6557 9.83506 56.7116C9.84746 56.7581 11.0557 61.2494 16.2543 62.5064C16.3101 62.5189 16.3442 62.5747 16.3318 62.6306C16.3194 62.6771 16.2791 62.7113 16.2296 62.7113Z" fill="#D9C9AC"/>
<path d="M15.7579 61.0565C15.7207 61.0565 15.6835 61.0348 15.665 60.9975C15.6402 60.9448 15.6619 60.8827 15.7114 60.8579C18.6051 59.4208 20.2409 51.7481 20.2564 51.6705C20.2687 51.6147 20.3245 51.5774 20.3803 51.5898C20.436 51.6022 20.4732 51.6581 20.4608 51.714C20.3927 52.0337 18.7879 59.5605 15.8044 61.0441C15.7889 61.0534 15.7734 61.0565 15.7579 61.0565Z" fill="#D9C9AC"/>
<path d="M13.9551 51.4064C13.9334 51.4064 13.9117 51.4002 13.89 51.3847C11.805 49.7676 10.9096 45.236 10.8724 45.0435C10.86 44.9877 10.8972 44.9318 10.9561 44.9225C11.0119 44.9101 11.0676 44.9473 11.0769 45.0063C11.0862 45.0528 11.994 49.6527 14.017 51.2202C14.0635 51.2543 14.0697 51.3195 14.0356 51.366C14.017 51.394 13.986 51.4064 13.9551 51.4064Z" fill="#D9C9AC"/>
<path d="M14.6246 55.8639C14.6091 55.8639 14.5936 55.8608 14.5781 55.8546C14.5254 55.8297 14.5038 55.7677 14.5285 55.7149C14.5533 55.6621 17.0535 50.4104 16.4153 46.4251C16.406 46.3692 16.4463 46.3165 16.502 46.3072C16.5578 46.2978 16.6136 46.3351 16.6198 46.3941C17.2673 50.4446 14.7392 55.7553 14.7144 55.808C14.702 55.8422 14.6649 55.8639 14.6246 55.8639Z" fill="#D9C9AC"/>
<path d="M18.5715 57.363C18.5343 57.363 18.4971 57.3413 18.4785 57.304C18.4413 57.2295 17.5708 55.4386 17.5212 53.7284C17.5181 53.6726 17.5646 53.6229 17.6234 53.6229C17.6823 53.6229 17.7288 53.6663 17.7288 53.7253C17.7752 55.3921 18.6551 57.1985 18.6644 57.2171C18.6892 57.2699 18.6675 57.332 18.6179 57.3568C18.6024 57.3599 18.587 57.363 18.5715 57.363Z" fill="#D9C9AC"/>
<path d="M10.944 61.2307C10.4328 61.2307 9.85342 61.1873 9.27097 61.0507C9.21521 61.0383 9.18113 60.9824 9.19352 60.9265C9.20591 60.8707 9.26478 60.8365 9.31744 60.8489C10.9811 61.2338 12.6665 60.852 12.6851 60.8489C12.7409 60.8365 12.7966 60.8707 12.809 60.9265C12.8214 60.9824 12.7873 61.0383 12.7316 61.0507C12.6851 61.0631 11.9384 61.2307 10.944 61.2307Z" fill="#D9C9AC"/>
<path d="M10.2031 65.2962C10.1598 65.2962 10.1195 65.2714 10.104 65.228C10.0947 65.2062 9.27369 62.9498 8.55803 61.8324C8.52705 61.7827 8.53944 61.7206 8.58901 61.6896C8.63858 61.6586 8.70054 61.6741 8.73152 61.7206C9.45958 62.8566 10.2651 65.0635 10.2992 65.1566C10.3178 65.2093 10.2899 65.2714 10.2372 65.29C10.2279 65.2963 10.2155 65.2962 10.2031 65.2962Z" fill="#D9C9AC"/>
<path d="M6.79253 66.9971C6.76155 66.9971 6.73057 66.9815 6.70888 66.9567C6.6748 66.9102 6.681 66.845 6.72747 66.8108C6.73057 66.8077 7.13332 66.488 7.19219 65.9573C7.23556 65.5538 7.07446 65.1286 6.71198 64.6909C6.6748 64.6475 6.681 64.5823 6.72437 64.545C6.76775 64.5078 6.83281 64.514 6.86998 64.5575C7.26964 65.0386 7.44933 65.5197 7.39666 65.9821C7.32851 66.6029 6.87308 66.9598 6.85449 66.9753C6.839 66.9909 6.81422 66.9971 6.79253 66.9971Z" fill="#D9C9AC"/>
<path d="M3.22944 62.2454C2.77092 62.2454 2.24425 62.1523 1.69898 61.8699C1.64941 61.8419 1.62772 61.7798 1.65561 61.7302C1.68349 61.6805 1.74545 61.6588 1.79502 61.6867C3.2976 62.4658 4.68865 61.696 4.70414 61.6898C4.75371 61.6619 4.81877 61.6805 4.84666 61.7302C4.87454 61.7798 4.85595 61.845 4.80638 61.873C4.76611 61.8916 4.1217 62.2454 3.22944 62.2454Z" fill="#D9C9AC"/>
<path d="M22.0634 60.1844C22.0262 60.1844 21.9891 60.1627 21.9705 60.1255C21.9581 60.1006 20.756 57.6114 21.3508 55.0848C21.3632 55.0289 21.4221 54.9948 21.4748 55.0072C21.5305 55.0196 21.5646 55.0755 21.5522 55.1314C20.976 57.5896 22.144 60.0106 22.1564 60.0355C22.1811 60.0882 22.1595 60.1503 22.1099 60.1751C22.0944 60.1813 22.0789 60.1844 22.0634 60.1844Z" fill="#D9C9AC"/>
<path d="M18.4043 68.1768C18.364 68.1768 18.3268 68.1551 18.3113 68.1179C18.2865 68.0651 18.3082 68.003 18.3609 67.9813C18.429 67.9503 25.0714 64.7999 28.0301 58.7257C28.0549 58.6729 28.1168 58.6512 28.1695 58.6791C28.2222 58.7039 28.2438 58.766 28.216 58.8188C25.2263 64.9613 18.5158 68.1396 18.4476 68.1737C18.4352 68.1737 18.4198 68.1768 18.4043 68.1768Z" fill="#D9C9AC"/>
<path d="M19.5223 70.0419C19.4727 70.0419 19.4293 70.0047 19.42 69.955C19.4107 69.8992 19.451 69.8464 19.5068 69.8371C25.8889 68.8252 35.1058 58.7998 35.1987 58.7005C35.2359 58.6571 35.304 58.654 35.3443 58.6943C35.3877 58.7316 35.3908 58.7999 35.3505 58.8402C35.2576 58.9426 25.9911 69.0208 19.5378 70.0419C19.5316 70.0419 19.5285 70.0419 19.5223 70.0419Z" fill="#D9C9AC"/>
<path d="M23.8075 64.4588C23.7517 64.4588 23.7052 64.4153 23.7021 64.3563C23.7021 64.3346 23.6494 62.165 24.4581 60.042C24.4797 59.9893 24.5386 59.9613 24.5913 59.9831C24.6439 60.0048 24.6718 60.0637 24.6501 60.1165C23.8539 62.1992 23.9066 64.3284 23.9066 64.3501C23.9128 64.4091 23.8694 64.4557 23.8075 64.4588C23.8105 64.4588 23.8105 64.4588 23.8075 64.4588Z" fill="#D9C9AC"/>
<path d="M26.5277 62.8509C25.9174 62.8509 25.5332 62.7143 25.4991 62.7019C25.4465 62.6832 25.4186 62.6212 25.4372 62.5684C25.4557 62.5156 25.5146 62.4877 25.5704 62.5063C25.589 62.5125 27.2836 63.1023 29.3036 61.69C29.3501 61.6559 29.4151 61.6683 29.4492 61.7148C29.4833 61.7614 29.4709 61.8266 29.4244 61.8607C28.2812 62.6615 27.2465 62.8509 26.5277 62.8509Z" fill="#D9C9AC"/>
<path d="M28.6806 66.4265C27.7698 66.4265 27.3484 66.023 27.3237 65.9982C27.2834 65.9578 27.2834 65.8927 27.3237 65.8492C27.3639 65.8089 27.429 65.8089 27.4693 65.8492C27.4786 65.8585 28.3522 66.6779 30.3598 65.8275C30.4125 65.8027 30.4744 65.8306 30.4961 65.8834C30.5178 65.9361 30.493 65.9982 30.4404 66.0199C29.7247 66.3241 29.1392 66.4265 28.6806 66.4265Z" fill="#D9C9AC"/>
<path d="M23.2654 68.6917C23.2097 68.6917 23.1632 68.6451 23.1601 68.5893C23.1601 68.5303 23.1446 67.1584 24.1019 66.0503C24.1391 66.0069 24.2042 66.0038 24.2475 66.041C24.2909 66.0783 24.2971 66.1435 24.2568 66.1869C23.3522 67.2329 23.3646 68.5706 23.3646 68.5862C23.3708 68.6451 23.3243 68.6917 23.2654 68.6917Z" fill="#D9C9AC"/>
</svg>
