<svg width="120" height="73" viewBox="0 0 120 73" fill="none" xmlns="http://www.w3.org/2000/svg">
<path d="M61.5172 72.3702C75.6631 72.3702 87.1306 71.9972 87.1306 71.537C87.1306 71.0769 75.6631 70.7039 61.5172 70.7039C47.3713 70.7039 35.9038 71.0769 35.9038 71.537C35.9038 71.9972 47.3713 72.3702 61.5172 72.3702Z" fill="#F9F0E3"/>
<path opacity="0.5" d="M16.454 70.9663C25.4337 70.9663 32.7132 70.5051 32.7132 69.9363C32.7132 69.3674 25.4337 68.9063 16.454 68.9063C7.47431 68.9063 0.194824 69.3674 0.194824 69.9363C0.194824 70.5051 7.47431 70.9663 16.454 70.9663Z" fill="#F9EAD4"/>
<path d="M118.646 72.3724C118.646 72.7201 113.111 73 106.282 73C99.4527 73 93.9177 72.7201 93.9177 72.3724C93.9177 72.0247 99.4527 71.7448 106.282 71.7448C113.108 71.7448 118.646 72.0247 118.646 72.3724Z" fill="#F9F0E3"/>
<path d="M88.6814 22.5066L88.1104 23.3289H89.2498L88.6814 22.5066Z" fill="#E7CCA8"/>
<path d="M88.6814 24.0155L88.1104 24.8378H89.2498L88.6814 24.0155Z" fill="#E7CCA8"/>
<path d="M89.8626 23.1255L89.3335 24.0155H90.3892L89.8626 23.1255Z" fill="#E7CCA8"/>
<path d="M2.87183 27.4116L2.30078 28.236H3.44026L2.87183 27.4116Z" fill="#E7CCA8"/>
<path d="M2.87183 28.9205L2.30078 29.7428H3.44026L2.87183 28.9205Z" fill="#E7CCA8"/>
<path d="M4.05331 28.0305L3.52417 28.9205H4.57983L4.05331 28.0305Z" fill="#E7CCA8"/>
<path d="M87.5418 58.9257L86.9734 59.7479H88.1103L87.5418 58.9257Z" fill="#E7CCA8"/>
<path d="M87.5418 60.4324L86.9734 61.2569H88.1103L87.5418 60.4324Z" fill="#E7CCA8"/>
<path d="M88.7233 59.5424L88.1968 60.4324H89.2498L88.7233 59.5424Z" fill="#E7CCA8"/>
<path d="M65.0876 16.6963C65.0876 17.2758 64.527 17.7438 63.8329 17.7438C63.1387 17.7438 62.5781 17.2758 62.5781 16.6963C62.5781 16.1168 63.1387 15.6488 63.8329 15.6488C64.5244 15.6488 65.0876 16.119 65.0876 16.6963Z" stroke="white" stroke-miterlimit="10"/>
<path d="M119.303 61.2525H93.2996C92.9145 61.2525 92.6028 60.9922 92.6028 60.6708C92.6028 60.3493 92.9145 60.0891 93.2996 60.0891H119.303C119.688 60.0891 120 60.3493 120 60.6708C120 60.9922 119.688 61.2525 119.303 61.2525Z" fill="#FEE6C6"/>
<path d="M96.8909 71.537C96.5006 71.537 96.1784 71.338 96.1626 71.0844L95.4868 60.8938H98.2949L97.6191 71.0844C97.6007 71.338 97.2812 71.537 96.8909 71.537Z" fill="#FEE6C6"/>
<path d="M115.963 71.537C115.573 71.537 115.251 71.338 115.235 71.0844L114.559 60.8938H117.367L116.692 71.0844C116.673 71.338 116.354 71.537 115.963 71.537Z" fill="#FEE6C6"/>
<path d="M106.303 71.537C105.912 71.537 105.59 71.338 105.575 71.0844L104.899 60.8938H107.707L107.031 71.0844C107.015 71.338 106.693 71.537 106.303 71.537Z" fill="#FEE6C6"/>
<path d="M112.136 58.0525C112.51 56.6595 111.461 55.2771 109.792 54.9647C108.124 54.6524 106.468 55.5284 106.094 56.9214C105.72 58.3144 106.769 59.6969 108.438 60.0092C110.106 60.3216 111.762 59.4455 112.136 58.0525Z" fill="#F9D8AC"/>
<path d="M110.675 55.3634H107.481C107.303 55.3634 107.159 55.2431 107.159 55.0944C107.159 54.9457 107.303 54.8254 107.481 54.8254H110.675C110.853 54.8254 110.997 54.9457 110.997 55.0944C110.997 55.2431 110.853 55.3634 110.675 55.3634Z" fill="#F9D8AC"/>
<path d="M107.702 50.5305C107.814 50.5742 107.948 50.7404 107.992 50.9701C108.037 51.1997 107.979 51.3965 107.885 51.4643C107.775 51.4227 107.639 51.2543 107.594 51.0247C107.55 50.7951 107.615 50.6005 107.702 50.5305Z" fill="#F9D8AC"/>
<path d="M107.911 51.4416L107.846 51.4505L108.137 52.9242L108.201 52.9153L107.911 51.4416Z" fill="#F9D8AC"/>
<path d="M108.632 51.4008C108.511 51.3942 108.312 51.4883 108.165 51.6742C108.019 51.8622 107.979 52.0612 108.029 52.1618C108.147 52.1706 108.349 52.0743 108.495 51.8885C108.645 51.7026 108.676 51.5014 108.632 51.4008Z" fill="#F9D8AC"/>
<path d="M107.154 51.6042C107.267 51.5648 107.489 51.5998 107.702 51.7376C107.914 51.8753 108.026 52.0547 108.019 52.164C107.911 52.2055 107.683 52.1684 107.471 52.0306C107.259 51.8928 107.151 51.7113 107.154 51.6042Z" fill="#F9D8AC"/>
<path d="M107.295 52.3258C107.408 52.2865 107.631 52.3237 107.843 52.4592C108.055 52.597 108.168 52.7763 108.16 52.8857C108.052 52.9272 107.825 52.89 107.612 52.7523C107.4 52.6145 107.293 52.433 107.295 52.3258Z" fill="#F9D8AC"/>
<path d="M108.776 52.1246C108.655 52.1181 108.456 52.2121 108.309 52.398C108.163 52.5838 108.123 52.785 108.173 52.8856C108.291 52.8944 108.493 52.7982 108.639 52.6123C108.786 52.4242 108.82 52.223 108.776 52.1246Z" fill="#F9D8AC"/>
<path d="M108.194 52.8829L108.129 52.8917L108.42 54.3655L108.484 54.3566L108.194 52.8829Z" fill="#F9D8AC"/>
<path d="M108.917 52.842C108.796 52.8354 108.597 52.9295 108.451 53.1153C108.304 53.3034 108.265 53.5024 108.314 53.603C108.432 53.6118 108.634 53.5177 108.781 53.3297C108.927 53.1438 108.961 52.9426 108.917 52.842Z" fill="#F9D8AC"/>
<path d="M107.437 53.0454C107.55 53.006 107.772 53.041 107.985 53.1788C108.197 53.3165 108.309 53.4958 108.301 53.6052C108.194 53.6467 107.966 53.6096 107.754 53.4718C107.542 53.334 107.434 53.1525 107.437 53.0454Z" fill="#F9D8AC"/>
<path d="M107.581 53.7692C107.694 53.7298 107.916 53.767 108.128 53.9026C108.341 54.0404 108.453 54.2197 108.445 54.329C108.338 54.3706 108.11 54.3334 107.898 54.1956C107.686 54.0579 107.576 53.8742 107.581 53.7692Z" fill="#F9D8AC"/>
<path d="M109.059 53.5658C108.938 53.5593 108.739 53.6533 108.592 53.8392C108.446 54.025 108.406 54.2262 108.456 54.3268C108.574 54.3356 108.776 54.2393 108.922 54.0535C109.072 53.8676 109.103 53.6642 109.059 53.5658Z" fill="#F9D8AC"/>
<path d="M108.479 54.3237L108.415 54.3326L108.705 55.8063L108.77 55.7974L108.479 54.3237Z" fill="#F9D8AC"/>
<path d="M110.473 51.5955C110.562 51.6611 110.625 51.8317 110.58 52.0307C110.536 52.2297 110.408 52.374 110.292 52.4046C110.203 52.3412 110.14 52.1685 110.182 51.9695C110.229 51.7727 110.363 51.6305 110.473 51.5955Z" fill="#F9D8AC"/>
<path d="M110.265 52.3911L109.983 53.6687L110.048 53.6786L110.329 52.401L110.265 52.3911Z" fill="#F9D8AC"/>
<path d="M111.023 52.5534C110.91 52.5162 110.69 52.5403 110.478 52.6518C110.269 52.7655 110.156 52.9186 110.166 53.0126C110.274 53.052 110.499 53.0257 110.711 52.9142C110.921 52.8005 111.026 52.6452 111.023 52.5534Z" fill="#F9D8AC"/>
<path d="M109.548 52.326C109.669 52.3238 109.865 52.4112 110.015 52.5796C110.164 52.748 110.203 52.9251 110.153 53.0104C110.036 53.0148 109.836 52.9251 109.687 52.7568C109.538 52.5884 109.506 52.4112 109.548 52.326Z" fill="#F9D8AC"/>
<path d="M109.412 52.9535C109.532 52.9513 109.729 53.0388 109.878 53.2072C110.028 53.3756 110.067 53.5527 110.017 53.638C109.899 53.6424 109.7 53.5527 109.551 53.3843C109.401 53.2159 109.367 53.0388 109.412 52.9535Z" fill="#F9D8AC"/>
<path d="M110.884 53.1787C110.771 53.1416 110.551 53.1656 110.339 53.2772C110.13 53.3909 110.017 53.5439 110.028 53.638C110.135 53.6773 110.36 53.6511 110.572 53.5396C110.782 53.428 110.889 53.2706 110.884 53.1787Z" fill="#F9D8AC"/>
<path d="M109.991 53.6411L109.71 54.9187L109.774 54.9285L110.056 53.651L109.991 53.6411Z" fill="#F9D8AC"/>
<path d="M110.748 53.8019C110.635 53.7648 110.415 53.7888 110.203 53.9004C109.993 54.0141 109.881 54.1671 109.891 54.2612C109.999 54.3005 110.224 54.2743 110.436 54.1628C110.646 54.0512 110.75 53.896 110.748 53.8019Z" fill="#F9D8AC"/>
<path d="M109.273 53.5768C109.394 53.5746 109.59 53.6621 109.739 53.8305C109.889 53.9988 109.928 54.176 109.878 54.2613C109.76 54.2656 109.561 54.176 109.412 54.0076C109.263 53.8392 109.231 53.6621 109.273 53.5768Z" fill="#F9D8AC"/>
<path d="M109.714 54.8902L109.433 56.1677L109.497 56.1776L109.779 54.9L109.714 54.8902Z" fill="#F9D8AC"/>
<path d="M112.668 39.205C112.804 39.2772 112.948 39.5068 112.964 39.8108C112.982 40.1126 112.87 40.3597 112.739 40.4362C112.603 40.3706 112.458 40.1344 112.44 39.8305C112.424 39.5287 112.545 39.286 112.668 39.205Z" fill="#FEE6C6"/>
<path d="M112.78 40.4075L112.694 40.411L112.807 42.3527L112.893 42.3492L112.78 40.4075Z" fill="#FEE6C6"/>
<path d="M113.716 40.4472C113.561 40.4232 113.289 40.5194 113.064 40.7425C112.838 40.9655 112.755 41.2214 112.802 41.3569C112.954 41.3854 113.229 41.2848 113.454 41.0617C113.677 40.8387 113.755 40.5828 113.716 40.4472Z" fill="#FEE6C6"/>
<path d="M111.769 40.526C111.921 40.491 112.204 40.5631 112.453 40.7665C112.702 40.9699 112.817 41.217 112.786 41.3569C112.639 41.3963 112.351 41.3198 112.102 41.1164C111.851 40.913 111.743 40.6637 111.769 40.526Z" fill="#FEE6C6"/>
<path d="M111.825 41.4772C111.976 41.4422 112.259 41.5143 112.508 41.7177C112.757 41.9211 112.872 42.1682 112.841 42.3081C112.694 42.3475 112.406 42.271 112.157 42.0676C111.906 41.8642 111.801 41.6149 111.825 41.4772Z" fill="#FEE6C6"/>
<path d="M113.771 41.3984C113.616 41.3744 113.344 41.4706 113.119 41.6937C112.893 41.9167 112.81 42.1726 112.857 42.3081C113.009 42.3366 113.284 42.236 113.509 42.0129C113.732 41.7899 113.81 41.534 113.771 41.3984Z" fill="#FEE6C6"/>
<path d="M112.886 42.3163L112.8 42.3198L112.912 44.2615L112.998 44.2581L112.886 42.3163Z" fill="#FEE6C6"/>
<path d="M113.826 42.3474C113.671 42.3234 113.399 42.4196 113.174 42.6427C112.948 42.8657 112.864 43.1216 112.912 43.2572C113.064 43.2856 113.339 43.185 113.564 42.9619C113.787 42.7389 113.865 42.4808 113.826 42.3474Z" fill="#FEE6C6"/>
<path d="M111.88 42.4262C112.032 42.3912 112.314 42.4634 112.563 42.6667C112.812 42.8701 112.927 43.1172 112.896 43.2572C112.749 43.2965 112.461 43.22 112.212 43.0166C111.961 42.8111 111.853 42.5618 111.88 42.4262Z" fill="#FEE6C6"/>
<path d="M111.935 43.3774C112.086 43.3425 112.369 43.4146 112.618 43.618C112.867 43.8214 112.982 44.0685 112.951 44.2084C112.804 44.2478 112.516 44.1713 112.267 43.9679C112.016 43.7645 111.908 43.5152 111.935 43.3774Z" fill="#FEE6C6"/>
<path d="M113.881 43.2987C113.726 43.2747 113.454 43.3709 113.229 43.5939C113.003 43.817 112.92 44.0729 112.967 44.2084C113.119 44.2369 113.394 44.1363 113.619 43.9132C113.842 43.6902 113.92 43.4343 113.881 43.2987Z" fill="#FEE6C6"/>
<path d="M113.001 44.208L112.914 44.2115L113.027 46.1533L113.113 46.1498L113.001 44.208Z" fill="#FEE6C6"/>
<path d="M114.622 60.0628H112.186C111.214 60.0628 110.447 59.3696 110.525 58.5605L111.791 45.5818H115.015L116.28 58.5605C116.362 59.3696 115.594 60.0628 114.622 60.0628Z" fill="#FEE6C6"/>
<path d="M115.348 45.6211H111.46C111.232 45.6211 111.049 45.4681 111.049 45.2778C111.049 45.0876 111.232 44.9345 111.46 44.9345H115.348C115.576 44.9345 115.759 45.0876 115.759 45.2778C115.759 45.4659 115.576 45.6211 115.348 45.6211Z" fill="#FEE6C6"/>
<path d="M113.891 48.1951C113.928 47.106 113.994 46.017 114.062 44.9302C114.13 43.8433 114.221 42.7565 114.303 41.6696C114.402 40.5828 114.491 39.496 114.604 38.4113L114.777 36.7843C114.845 36.242 114.902 35.6997 114.976 35.1573C114.96 35.7018 114.929 36.2464 114.905 36.7909L114.806 38.4222C114.737 39.5091 114.646 40.5959 114.565 41.6828C114.462 42.7696 114.376 43.8565 114.263 44.9411C114.151 46.0258 114.035 47.1104 113.891 48.1951Z" fill="#FEE6C6"/>
<path d="M114.015 46.9485C113.818 44.7727 113.742 42.5946 113.695 40.4166C113.658 38.2385 113.653 36.0604 113.768 33.8802C113.965 36.0561 114.041 38.2341 114.088 40.4122C114.122 42.5902 114.127 44.7683 114.015 46.9485Z" fill="#FEE6C6"/>
<path d="M113.682 48.991C113.844 47.9086 114.033 46.8305 114.229 45.7545C114.423 44.6765 114.641 43.6027 114.845 42.5268C115.07 41.4531 115.285 40.3794 115.521 39.3078L115.88 37.7005C116.008 37.167 116.128 36.6312 116.265 36.0976C116.186 36.6378 116.092 37.1779 116.005 37.718L115.72 39.3341C115.526 40.4122 115.309 41.4859 115.104 42.5618C114.879 43.6355 114.664 44.7093 114.428 45.7808C114.19 46.8545 113.952 47.9239 113.682 48.991Z" fill="#FEE6C6"/>
<path d="M113.2 33.913C113.2 34.0398 113.077 34.1426 112.925 34.1426C112.773 34.1426 112.65 34.0398 112.65 33.913C112.65 33.7862 112.773 33.6834 112.925 33.6834C113.077 33.6834 113.2 33.7862 113.2 33.913Z" stroke="#FEE6C6" stroke-miterlimit="10"/>
<path d="M114.675 33.351C115.039 33.351 115.335 33.1043 115.335 32.7999C115.335 32.4956 115.039 32.2489 114.675 32.2489C114.31 32.2489 114.014 32.4956 114.014 32.7999C114.014 33.1043 114.31 33.351 114.675 33.351Z" stroke="#FEE6C6" stroke-miterlimit="10"/>
<path d="M116.003 35.6384C116.123 35.6384 116.22 35.5571 116.22 35.4569C116.22 35.3566 116.123 35.2754 116.003 35.2754C115.882 35.2754 115.785 35.3566 115.785 35.4569C115.785 35.5571 115.882 35.6384 116.003 35.6384Z" stroke="#FEE6C6" stroke-miterlimit="10"/>
<path d="M116.747 39.3756C116.747 39.4697 116.655 39.5462 116.542 39.5462C116.43 39.5462 116.338 39.4697 116.338 39.3756C116.338 39.2816 116.43 39.2051 116.542 39.2051C116.655 39.2051 116.747 39.2816 116.747 39.3756Z" stroke="#FEE6C6" stroke-miterlimit="10"/>
<path d="M111.518 37.9345C111.715 37.9345 111.874 37.8014 111.874 37.6371C111.874 37.4729 111.715 37.3397 111.518 37.3397C111.321 37.3397 111.162 37.4729 111.162 37.6371C111.162 37.8014 111.321 37.9345 111.518 37.9345Z" stroke="#FEE6C6" stroke-miterlimit="10"/>
<path d="M102.96 51.4643H93.8811V59.7217H102.96V51.4643Z" fill="#F9D8AC"/>
<path d="M101.944 52.3893H94.8999V58.7966H101.944V52.3893Z" fill="#FEE6C6"/>
<path d="M11.5005 13.7856H10.0388V67.7429H11.5005V13.7856Z" fill="#FEE6C6"/>
<path d="M18.2275 69.7132H3.3147C3.3147 68.3814 6.65455 67.3033 10.7724 67.3033C14.8902 67.3033 18.2275 68.3814 18.2275 69.7132Z" fill="#FEE6C6"/>
<path d="M21.0276 14.527H0.511719L0.891546 13.4161L0.967511 13.1974L1.65644 11.1855L1.7324 10.9668L5.48876 0H16.5745L19.9353 10.9668L20.0034 11.1855L20.619 13.1974L20.6871 13.4161L21.0276 14.527Z" fill="#FEE6C6"/>
<path d="M1.8581 11.6775L1.15869 12.6878H2.55488L1.8581 11.6775Z" fill="#E5CAA6"/>
<path d="M3.44037 12.6878L2.74097 11.6775H4.13978L3.44037 12.6878Z" fill="#E5CAA6"/>
<path d="M4.83643 11.6775L4.13965 12.6878H5.53584L4.83643 11.6775Z" fill="#E5CAA6"/>
<path d="M6.42133 12.6878L5.72192 11.6775H7.11811L6.42133 12.6878Z" fill="#E5CAA6"/>
<path d="M7.81757 11.6775L7.11816 12.6878H8.51435L7.81757 11.6775Z" fill="#E5CAA6"/>
<path d="M9.3996 12.6878L8.7002 11.6775H10.099L9.3996 12.6878Z" fill="#E5CAA6"/>
<path d="M10.7959 11.6775L10.0991 12.6878H11.4953L10.7959 11.6775Z" fill="#E5CAA6"/>
<path d="M12.3779 12.6878L11.6812 11.6775H13.0773L12.3779 12.6878Z" fill="#E5CAA6"/>
<path d="M13.7768 11.6775L13.0774 12.6878H14.4736L13.7768 11.6775Z" fill="#E5CAA6"/>
<path d="M15.3591 12.6878L14.6597 11.6775H16.0559L15.3591 12.6878Z" fill="#E5CAA6"/>
<path d="M16.7553 11.6775L16.0559 12.6878H17.4547L16.7553 11.6775Z" fill="#E5CAA6"/>
<path d="M18.3374 12.6878L17.6406 11.6775H19.0368L18.3374 12.6878Z" fill="#E5CAA6"/>
<path d="M19.7337 11.6775L19.0369 12.6878H20.4331L19.7337 11.6775Z" fill="#E5CAA6"/>
<path d="M20.0034 11.1855H1.65649L1.73246 10.9668H19.9353L20.0034 11.1855Z" fill="#E5CAA6"/>
<path d="M20.6871 13.4161H0.891602L0.967567 13.1974H20.619L20.6871 13.4161Z" fill="#E5CAA6"/>
<path d="M23.3431 46.535C23.8775 44.8074 25.0274 43.2635 26.2088 41.7765C27.2566 40.4557 28.3542 39.1414 29.7373 38.0567C31.1204 36.9699 32.8256 36.1148 34.7012 35.8743C34.2428 37.1077 33.7844 38.341 33.326 39.5744C32.8676 40.8077 32.3934 42.0673 31.4897 43.1148C30.5441 44.2082 29.1741 45.0086 27.7124 45.5815C26.2481 46.1545 24.6816 46.5153 23.123 46.8739" fill="#66A986"/>
<path d="M23.4401 46.5571C24.2286 44.2194 25.9417 42.0939 27.6706 40.1629C28.5639 39.1636 29.5462 38.2232 30.7354 37.4644C31.2986 37.1036 34.1722 35.5138 34.4577 36.2638C34.5835 36.5962 33.8867 37.7968 33.7688 38.1139C33.5488 38.7065 33.334 39.2991 33.1087 39.8896C32.6869 40.9983 32.2285 42.1201 31.4086 43.0736C29.4807 45.3063 26.1172 46.1001 23.0996 46.7955C22.9791 46.8239 23.0289 46.9814 23.152 46.953C26.1015 46.2729 29.3025 45.5075 31.3169 43.4388C33.3051 41.3985 33.8893 38.3413 34.7983 35.8965C34.8218 35.833 34.7459 35.7849 34.6778 35.7959C31.8408 36.2289 29.6431 37.7837 27.9064 39.6359C25.9915 41.6784 24.1002 43.9964 23.2515 46.5156C23.2148 46.614 23.4035 46.6577 23.4401 46.5571Z" fill="#66A986"/>
<path d="M20.2 52.3412C22.2694 48.6499 24.3362 44.9564 26.4056 41.265C26.513 41.0748 26.1725 40.9086 26.0651 41.0988C23.9957 44.7902 21.9289 48.4837 19.8595 52.175C19.7547 52.3653 20.0926 52.5315 20.2 52.3412Z" fill="#80B996"/>
<path d="M20.4986 44.3966C20.6191 40.5281 22.369 36.6181 23.5346 32.8983C23.5661 32.7956 23.3775 32.7518 23.346 32.8546C22.1751 36.594 20.4253 40.5062 20.3048 44.3966C20.2996 44.5015 20.496 44.5015 20.4986 44.3966Z" fill="#80B996"/>
<path d="M17.376 45.2057C15.4009 43.7406 13.4101 42.2601 11.862 40.4713C10.3165 38.6825 9.2294 36.5372 9.31585 34.3329C10.5758 36.0015 13.2372 36.6247 14.5496 38.2648C14.9818 38.8049 15.2411 39.4282 15.4952 40.0427C16.2077 41.7637 16.9229 43.4869 17.6354 45.2079" fill="#66A986"/>
<path d="M17.4441 45.1489C15.3721 43.6115 13.266 42.0545 11.6917 40.1301C10.9085 39.1723 10.2667 38.1248 9.86332 37.0139C9.65376 36.4366 9.51231 35.8462 9.4442 35.247C9.38657 34.7309 9.20321 34.545 9.66162 34.8621C10.3113 35.3126 10.8692 35.7981 11.566 36.2092C12.5221 36.7712 13.5332 37.2982 14.2536 38.0833C15.1835 39.0958 15.5607 40.4604 16.0558 41.6543C16.5509 42.8462 17.0434 44.038 17.5384 45.2298C17.5804 45.3282 17.769 45.2866 17.727 45.186C17.1769 43.8608 16.6295 42.5378 16.0794 41.2126C15.6472 40.1673 15.3092 39.0149 14.526 38.103C13.1639 36.5154 10.7278 35.9118 9.39705 34.2892C9.34466 34.2236 9.21369 34.2454 9.21369 34.3307C9.17178 39.0236 13.4075 42.3694 17.3027 45.2626C17.3996 45.3347 17.5411 45.2188 17.4441 45.1489Z" fill="#66A986"/>
<path d="M13.536 37.1648C16.7658 42.6559 18.8876 48.5406 19.8228 54.609C19.8542 54.8145 20.2471 54.8189 20.2157 54.609C19.2727 48.4815 17.1378 42.5465 13.8739 36.9986C13.7639 36.8083 13.4233 36.9745 13.536 37.1648Z" fill="#80B996"/>
<path d="M19.3642 32.2442C17.748 27.5141 17.7951 22.397 19.5004 17.6866C20.687 19.1102 21.596 20.6957 22.1828 22.3576C22.8377 24.2099 23.0917 26.1802 22.7067 28.0849C22.3216 29.9896 21.2686 31.8243 19.579 33.143" fill="#66A986"/>
<path d="M19.4585 32.2226C18.6308 29.7253 18.2221 27.1514 18.2929 24.56C18.3322 23.1714 18.4998 21.7872 18.8037 20.4204C18.9346 19.8322 19.0918 19.2483 19.2699 18.6688C19.5764 17.6825 19.7912 18.1702 20.247 18.8262C23.2778 23.1736 24.1658 29.2814 19.5057 33.0864C19.414 33.1608 19.5528 33.2767 19.6445 33.2023C24.8102 28.984 23.2647 22.1808 19.5817 17.6454C19.5345 17.5885 19.4271 17.5951 19.4009 17.665C17.7218 22.4388 17.6773 27.4707 19.2647 32.2664C19.304 32.367 19.4926 32.3232 19.4585 32.2226Z" fill="#66A986"/>
<path d="M23.9353 45.2057C23.5057 42.8264 24.4225 40.3859 25.9078 38.3238C27.393 36.2616 29.4231 34.5166 31.4349 32.7934C31.9248 36.0779 31.0891 39.4915 29.0957 42.3519C28.5482 43.1391 27.8986 43.898 27.0289 44.4468C26.1593 44.9957 25.0381 45.3194 23.9667 45.1576" fill="#80B996"/>
<path d="M24.035 45.2057C23.6604 42.7193 24.5562 40.3138 26.1122 38.2035C26.9033 37.132 27.8463 36.1457 28.8444 35.2032C29.2975 34.7768 29.7638 34.3569 30.2353 33.9436C30.437 33.7665 30.6361 33.5435 30.8666 33.3947C31.2202 33.1673 31.1757 33.0077 31.401 33.3401C31.6158 33.6528 31.4717 34.4532 31.4665 34.8096C31.4586 35.3607 31.4167 35.9118 31.3407 36.4606C31.1678 37.6678 30.8247 38.8661 30.3113 40.0055C29.2975 42.2601 27.3932 45.4025 23.9616 45.0767C23.8359 45.0657 23.8385 45.2297 23.9616 45.2407C27.105 45.5403 28.9701 43.0014 30.0729 40.9195C31.4298 38.3632 31.8987 35.5641 31.5267 32.7934C31.5189 32.7278 31.4246 32.6797 31.3591 32.7343C27.4141 36.1195 23.0631 40.1017 23.8333 45.2057C23.8542 45.3085 24.0507 45.3107 24.035 45.2057Z" fill="#80B996"/>
<path d="M20.8807 40.9521C20.6371 38.0437 21.3391 35.1221 22.4865 32.3667C23.6338 29.6113 25.2212 27.0025 26.8034 24.4002C27.8538 27.3764 28.1891 30.5757 27.3037 33.5891C26.4183 36.6025 24.231 39.406 21.0326 40.9849" fill="#80B996"/>
<path d="M20.9806 40.9523C20.7736 37.9542 21.4704 35.0086 22.6675 32.192C23.304 30.694 24.0689 29.2354 24.8888 27.8009C25.2818 27.1098 25.6904 26.4254 26.1017 25.7431C26.1488 25.6644 26.5653 24.8093 26.6649 24.8137C26.9949 24.8246 27.0159 25.3582 27.084 25.5966C28.6688 31.1926 27.2176 37.7137 20.9832 40.9152C20.8758 40.9698 20.9753 41.112 21.0827 41.0573C27.9248 37.5453 28.936 30.3485 26.9006 24.3785C26.8796 24.3129 26.7592 24.2932 26.7199 24.3588C23.5686 29.5438 20.3702 34.978 20.7841 40.9523C20.7919 41.0573 20.9884 41.0595 20.9806 40.9523Z" fill="#80B996"/>
<path d="M18.7618 30.4797C20.3309 38.1051 20.6059 45.8661 19.5922 53.5571C19.5634 53.767 19.9589 53.7649 19.9851 53.5571C21.0015 45.8377 20.7133 38.0461 19.1416 30.3923C19.0971 30.1845 18.7199 30.272 18.7618 30.4797Z" fill="#80B996"/>
<path d="M19.4165 32.9659C17.9103 31.9162 16.5979 30.134 16.2443 28.5245C15.8907 26.915 15.9954 25.2596 16.1159 23.626C16.239 21.9925 16.3779 20.3436 16.095 18.7232C17.5645 20.3742 18.8009 22.1696 19.7727 24.0612C20.5088 25.4936 21.0982 27.0046 21.1637 28.5617C21.2292 30.1187 20.7262 31.7369 19.4925 32.9068" fill="#80B996"/>
<path d="M19.4873 32.9093C17.0512 31.1161 16.116 28.7434 16.1029 26.0864C16.0977 24.8552 16.2313 23.6284 16.3046 22.4016C16.3413 21.7871 16.3675 21.1727 16.357 20.5582C16.3544 20.381 16.1527 19.1433 16.2837 19.0777C16.7552 18.8415 20.0898 24.9099 20.2758 25.356C21.3183 27.8468 21.5436 30.6962 19.4244 32.8502C19.3458 32.9311 19.4821 33.047 19.5633 32.9661C23.7623 28.6975 19.4113 22.3732 16.1789 18.6841C16.1291 18.6272 15.9824 18.636 15.9955 18.7256C16.433 21.5881 15.689 24.4463 15.9588 27.311C16.1684 29.5438 17.3236 31.5381 19.3458 33.0252C19.4428 33.0951 19.5816 32.9792 19.4873 32.9093Z" fill="#80B996"/>
<path d="M17.2029 44.1951C17.9626 41.9668 17.5146 38.9293 16.2416 36.8693C14.9685 34.8115 12.9855 33.108 10.7852 31.6953C10.9057 34.0702 11.1257 36.4779 12.0739 38.7193C13.0248 40.963 14.6594 43.1258 17.2029 44.1951Z" fill="#80B996"/>
<path d="M17.2974 44.2172C18.8848 39.1417 15.4899 34.6653 10.8561 31.6387C10.7958 31.5994 10.6832 31.619 10.6884 31.6978C10.9294 36.2354 11.8096 41.8795 17.1533 44.2675C17.266 44.3178 17.3629 44.1757 17.2529 44.1254C14.8246 43.0407 13.266 41.1142 12.3046 39.0039C11.8096 37.917 11.4926 36.7777 11.283 35.6296C11.1416 34.8511 11.0525 34.0683 10.987 33.2832C10.9661 33.0273 10.9058 32.7452 10.9294 32.4894C10.9635 32.1176 10.7932 32.0105 11.2333 32.0958C11.676 32.181 12.3989 32.9267 12.7211 33.1826C13.1979 33.5609 13.6537 33.9589 14.0833 34.3744C15.042 35.3016 15.8881 36.3338 16.4618 37.4644C17.5201 39.5418 17.7951 41.9845 17.1088 44.1735C17.0774 44.2763 17.266 44.32 17.2974 44.2172Z" fill="#80B996"/>
<path d="M28.3046 61.6133C28.3046 65.3134 26.5836 68.5368 24.0401 70.2141H16.0192C13.4756 68.5368 11.7546 65.3134 11.7546 61.6133C11.7546 58.156 13.2582 55.1141 15.5293 53.3603H24.5273C26.801 55.1141 28.3046 58.1538 28.3046 61.6133Z" fill="#FEE6C6"/>
<path d="M16.2995 56.9314L14.1462 60.0476H18.4553L16.2995 56.9314Z" stroke="#E6CAA6" stroke-miterlimit="10"/>
<path d="M16.2995 57.6924L14.9321 59.6693H17.6669L16.2995 57.6924Z" stroke="#E6CAA6" stroke-width="0.5" stroke-miterlimit="10"/>
<path d="M19.4114 67.1634L16.8076 68.4187V65.9104L19.4114 67.1634Z" stroke="#E6CAA6" stroke-width="0.75" stroke-miterlimit="10"/>
<path d="M18.5471 67.1634L17.24 67.7933V66.5336L18.5471 67.1634Z" stroke="#E6CAA6" stroke-width="0.5" stroke-miterlimit="10"/>
<path d="M23.0629 54.2766L20.9778 57.2922H25.1506L23.0629 54.2766Z" stroke="#E6CAA6" stroke-miterlimit="10"/>
<path d="M23.063 55.4203L22.1646 56.7193H23.9641L23.063 55.4203Z" stroke="#E6CAA6" stroke-width="0.5" stroke-miterlimit="10"/>
<path d="M23.0632 67.5199L20.6689 62.9254H25.46L23.0632 67.5199Z" stroke="#E6CAA6" stroke-miterlimit="10"/>
<path d="M23.063 66.4003L21.5437 63.4853H24.5849L23.063 66.4003Z" stroke="#E6CAA6" stroke-width="0.5" stroke-miterlimit="10"/>
<path d="M15.1233 63.6362C15.1233 63.33 15.4219 63.0807 15.7886 63.0807C16.1554 63.0807 16.454 63.33 16.454 63.6362C16.454 63.9423 16.1554 64.1916 15.7886 64.1916C15.4219 64.1916 15.1233 63.9423 15.1233 63.6362Z" stroke="#E6CAA6" stroke-miterlimit="10"/>
<path d="M23.0629 60.837C23.6532 60.837 24.1316 60.4375 24.1316 59.9448C24.1316 59.452 23.6532 59.0526 23.0629 59.0526C22.4726 59.0526 21.9941 59.452 21.9941 59.9448C21.9941 60.4375 22.4726 60.837 23.0629 60.837Z" stroke="#E6CAA6" stroke-miterlimit="10"/>
<path d="M18.7566 55.615C18.9866 55.615 19.1731 55.4593 19.1731 55.2673C19.1731 55.0752 18.9866 54.9196 18.7566 54.9196C18.5266 54.9196 18.3401 55.0752 18.3401 55.2673C18.3401 55.4593 18.5266 55.615 18.7566 55.615Z" stroke="#E6CAA6" stroke-miterlimit="10"/>
<g opacity="0.25">
<path opacity="0.25" d="M25.1298 53.8764C23.6943 59.7961 20.4042 65.3987 15.6577 69.956C15.7756 70.0435 15.8961 70.1331 16.0192 70.214H24.0401C26.5836 68.5368 28.3046 65.3134 28.3046 61.6133C28.3046 58.4709 27.063 55.6761 25.1298 53.8764Z" fill="#FEE6C6"/>
</g>
<path d="M24.5143 53.3603H15.5452C15.2728 53.3603 15.0527 53.1766 15.0527 52.9492V52.8639C15.0527 52.6365 15.2728 52.4528 15.5452 52.4528H24.5143C24.7868 52.4528 25.0068 52.6365 25.0068 52.8639V52.9492C25.0094 53.1766 24.7868 53.3603 24.5143 53.3603Z" fill="#F9D8AC"/>
<path d="M25.0852 43.57C25.3367 42.8571 25.6536 42.1595 26.0073 41.475C26.3583 40.7905 26.7617 40.1236 27.1939 39.4719C27.634 38.8224 28.1055 38.1904 28.6241 37.5847C28.8861 37.2829 29.1507 36.9833 29.4257 36.6903C29.7086 36.4016 29.9889 36.1151 30.2901 35.8396C30.1644 35.9927 30.036 36.1458 29.9051 36.2945L29.5279 36.7537C29.2764 37.0598 29.0302 37.3682 28.7918 37.6787C28.315 38.3041 27.854 38.9339 27.4218 39.579C26.9843 40.222 26.5809 40.8802 26.188 41.545C25.7977 42.212 25.4388 42.8899 25.0852 43.57Z" fill="#66A986"/>
<path d="M18.7933 31.0855C18.6492 30.4141 18.5339 29.7406 18.4239 29.067C18.3113 28.3935 18.217 27.7178 18.1227 27.0442C18.0362 26.3685 17.9498 25.6928 17.8817 25.0149L17.7822 23.998C17.7586 23.6591 17.7271 23.3179 17.7114 22.979C17.7848 23.3135 17.8424 23.6503 17.9105 23.9871L18.0808 24.9974C18.1934 25.6709 18.2877 26.3466 18.382 27.0224C18.4685 27.6981 18.5549 28.3738 18.623 29.0539C18.6937 29.7274 18.7566 30.4054 18.7933 31.0855Z" fill="#66A986"/>
<path d="M12.6453 34.9014C13.0906 35.4809 13.4861 36.0845 13.8581 36.699C14.2327 37.3134 14.5627 37.9432 14.8718 38.584C15.1731 39.2247 15.4507 39.8742 15.6865 40.5346C15.8018 40.8648 15.9144 41.1972 16.0166 41.5296C16.1109 41.8642 16.2078 42.1988 16.2837 42.5377L15.8934 41.5602C15.7651 41.2344 15.6315 40.9107 15.4953 40.5871C15.2176 39.942 14.9347 39.2991 14.6308 38.6649C14.3322 38.0285 14.0074 37.3987 13.68 36.7711C13.3447 36.1435 12.9963 35.5246 12.6453 34.9014Z" fill="#66A986"/>
<path d="M22.0625 38.1664C22.4738 37.3332 22.8824 36.5022 23.2675 35.6625C23.6525 34.8227 24.0324 33.983 24.3729 33.1323C24.7344 32.286 25.0566 31.4288 25.3709 30.5716C25.5281 30.143 25.68 29.7122 25.8293 29.2792L26.272 27.9802C26.1803 28.4241 26.0651 28.8637 25.9524 29.3054C25.8293 29.745 25.6984 30.1823 25.5648 30.6175C25.2871 31.49 24.9623 32.3495 24.6191 33.2045C24.2576 34.053 23.8778 34.8993 23.4508 35.7281C23.0265 36.5525 22.5707 37.3704 22.0625 38.1664Z" fill="#66A986"/>
<path d="M71.1437 29.3732H51.3063C46.5021 29.3732 42.6069 32.6249 42.6069 36.6356V54.3902H79.8457V36.6356C79.8457 32.6249 75.9505 29.3732 71.1437 29.3732Z" fill="#5C6193"/>
<path d="M75.4371 50.4824H47.0129V54.3902H75.4371V50.4824Z" fill="#4E5567"/>
<path d="M75.4372 54.3903H44.8101V64.3228H75.4372V54.3903Z" fill="#8E97FD"/>
<path d="M77.8629 65.7945H44.5901C43.6156 65.7945 42.8271 65.1363 42.8271 64.3228H79.6258C79.6258 65.1363 78.8347 65.7945 77.8629 65.7945Z" fill="#3F414E"/>
<path d="M43.7097 70.3933H42.6069L44.5899 65.7944H46.1328L43.7097 70.3933Z" fill="#3F414E"/>
<path d="M78.7429 70.3933H79.8457L77.8627 65.7944H76.3198L78.7429 70.3933Z" fill="#3F414E"/>
<path d="M39.448 32.2226C38.3819 31.63 37.486 30.7859 37.0643 29.7755C36.6425 28.7652 36.7368 27.5844 37.4519 26.6965C38.1671 25.8087 39.5318 25.2795 40.7813 25.5178C40.8337 24.1095 42.3845 23.0839 43.8854 22.4388C45.5383 21.7281 47.2646 21.317 48.9541 21.9621C49.8945 22.3229 50.8847 22.909 51.3824 23.6678C51.8801 24.4244 52.1761 25.2598 52.4643 26.0908C53.6457 25.5047 55.254 25.5944 56.3333 26.3051C57.4125 27.0158 57.8866 28.3016 57.478 29.3972C58.8139 28.9249 60.4328 28.7149 61.6613 29.3601C62.9527 30.038 63.398 31.431 63.4871 32.7037C63.5631 33.7971 63.4321 34.9561 62.6882 35.8571C61.808 36.9242 60.2494 37.4272 58.7746 37.8317C56.2232 38.5293 53.5959 39.1132 50.9109 39.1788C48.2259 39.2444 45.4597 38.759 43.2594 37.4753C41.0564 36.1916 39.503 34.0398 39.5816 31.7983" fill="#4E5567"/>
<path d="M38.0413 33.8145C36.7053 33.8736 35.4375 34.5799 34.8586 35.588C34.2797 36.5962 34.4106 37.8623 35.1886 38.7698C34.078 38.783 33.0014 39.334 32.4827 40.1541C31.964 40.9741 32.0295 42.026 32.6425 42.7979C33.1611 43.4496 34.0072 43.8739 34.8848 44.1494C37.3183 44.9126 40.0845 44.6545 42.4996 43.852C43.888 43.3906 45.2213 42.7367 46.1565 41.7658C47.0916 40.7948 47.5788 39.4674 47.1754 38.2669C46.8925 37.4293 46.2088 36.7186 45.402 36.1719C44.5926 35.6252 43.6575 35.225 42.7275 34.838C41.1244 34.171 39.4453 33.5106 37.6536 33.4843" fill="#3F4553"/>
<path d="M45.9129 48.5034H38.2012C35.7676 48.5034 33.7952 46.8567 33.7952 44.8252C33.7952 42.7937 35.7676 41.147 38.2012 41.147H44.3124C45.1978 41.147 45.9156 41.7462 45.9156 42.4853V48.5034H45.9129Z" fill="#8E97FD"/>
<path d="M47.013 64.3227H41.8814C40.0923 64.3227 38.6411 63.1112 38.6411 61.6177V41.1448H43.7727C45.5618 41.1448 47.013 42.3563 47.013 43.8498V64.3227Z" fill="#8E97FD"/>
<path d="M47.9194 22.8237C48.6162 22.6859 49.4021 22.7909 50.0203 23.1451C50.3241 23.3223 50.5913 23.5519 50.7616 23.8252C50.8637 23.9543 50.9161 24.103 50.9816 24.2429C51.0314 24.3872 51.0654 24.5381 51.0943 24.6825C51.0078 24.5491 50.9528 24.4091 50.8637 24.2823C50.7721 24.1576 50.6987 24.0264 50.5887 23.9149C50.3975 23.6787 50.1486 23.4819 49.871 23.3223C49.5959 23.1604 49.2816 23.0445 48.9541 22.9636C48.6241 22.8893 48.2783 22.8368 47.9194 22.8237Z" fill="white"/>
<path d="M59.5813 30.0248C60.3148 30.0139 61.0744 30.2413 61.6297 30.6808C61.7712 30.788 61.8838 30.9192 61.9965 31.046C62.0855 31.1882 62.1903 31.3216 62.2401 31.4747C62.3134 31.6212 62.337 31.7786 62.3658 31.9317C62.3842 32.087 62.3763 32.2422 62.3711 32.3931C62.2899 32.0935 62.2087 31.8005 62.0515 31.5381C61.9074 31.2713 61.7031 31.0329 61.449 30.8361C61.2001 30.6349 60.9068 30.4709 60.5924 30.3375C60.2702 30.2107 59.9349 30.0992 59.5813 30.0248Z" fill="white"/>
<path d="M55.1675 26.8146C55.3299 26.8343 55.4844 26.8824 55.6338 26.9436C55.7831 27.0049 55.9193 27.0858 56.0398 27.1798C56.1603 27.276 56.2598 27.3941 56.3279 27.5209C56.3986 27.6478 56.4248 27.7899 56.4196 27.9255C56.3672 27.7965 56.3227 27.6696 56.2362 27.5603C56.1524 27.451 56.0607 27.3482 55.9455 27.2585C55.7228 27.0792 55.4556 26.9371 55.1675 26.8146Z" fill="white"/>
<path d="M59.1544 36.3032C59.4845 35.3017 59.3771 34.1689 58.6803 33.3073C57.9835 32.4457 56.6475 31.9252 55.4426 32.1877C55.8119 31.4638 55.2775 30.6 54.4969 30.1561C53.7189 29.7122 52.755 29.5744 51.8329 29.3995C49.1244 28.8856 46.5284 27.9562 44.2154 26.6725C43.0445 26.0231 42.8507 26.1696 42.2979 25.1221C41.9679 25.5266 41.3209 26.1849 41.3025 26.6857C40.2574 25.8897 38.1618 25.8066 37.4493 26.6944C36.7341 27.5822 36.6398 28.7631 37.0616 29.7734C37.4833 30.7837 38.3792 31.6278 39.4453 32.2205L39.5763 31.7962C39.4977 34.0377 41.0511 36.1895 43.2541 37.4732C45.4571 38.7568 48.2232 39.2423 50.9056 39.1767C53.381 39.1155 55.8067 38.6147 58.1695 37.9893C58.6069 37.471 58.9553 36.909 59.1544 36.3032Z" fill="#3F4553"/>
<path d="M44.632 43.8498V61.786H40.4408V46.6577H39.2908C38.078 46.6577 37.0957 45.8376 37.0957 44.8251C37.0957 43.8126 38.078 42.9926 39.2908 42.9926H43.6051C44.1736 42.9926 44.632 43.3753 44.632 43.8498Z" stroke="#8C96FF" stroke-miterlimit="10"/>
<path d="M49.0223 29.008C48.8468 27.8621 49.7164 26.8256 50.9633 26.6922C52.2128 26.5588 53.368 27.3766 53.5461 28.5225C53.7216 29.6684 52.852 30.705 51.6051 30.8384C50.3556 30.9718 49.2004 30.1517 49.0223 29.008Z" fill="#8E97FD"/>
<path d="M49.0223 29.0085C49.1978 30.1544 50.3556 30.9745 51.6051 30.8389C52.1238 30.7842 52.5743 30.5699 52.9148 30.2616C51.3641 29.4306 51.0917 27.3684 51.0419 26.6883C51.0157 26.6905 50.9921 26.6905 50.9659 26.6927C49.7164 26.8261 48.8468 27.8627 49.0223 29.0085Z" fill="#8E97FD"/>
<path d="M45.6929 33.7425L46.573 37.0533L49.6588 37.7881C49.6588 37.7881 50.7616 36.8674 50.7616 36.6837C50.7616 36.5 49.2187 33.0055 49.2187 33.0055L45.6929 33.7425Z" fill="#FDBCA0"/>
<path d="M49.216 33.0077L45.6902 33.7424L45.9914 34.873C46.6227 35.1005 47.3352 35.2688 48.1473 35.3519C48.59 35.3979 49.0458 35.3279 49.4334 35.1398C49.6325 35.0436 49.8185 34.9255 49.9966 34.8009C49.6089 33.8977 49.216 33.0077 49.216 33.0077Z" fill="#DF8370"/>
<path d="M40.8442 27.1208C40.8442 27.1208 40.4041 34.2957 48.1159 34.6631C50.539 33.9283 52.0818 31.1686 51.6418 28.9599C51.2017 26.7534 48.336 23.073 44.15 24.1773C41.947 24.9143 40.8442 27.1208 40.8442 27.1208Z" fill="#FDBCA0"/>
<path d="M65.3022 35.4001L70.9053 29.6816C71.128 29.4541 71.2511 29.1699 71.2511 28.8746V27.322C71.2511 27.2039 71.3428 27.0968 71.4764 27.0596C71.6912 27.0005 71.9112 27.1339 71.9112 27.322V28.411L73.8942 25.4676L76.5373 25.2839L73.0114 30.4338L67.7227 38.1598L65.3022 35.4001Z" fill="#FDBCA0"/>
<path d="M89.9807 30.2479L99.2353 32.824L102.083 30.8209C103.149 30.0708 104.713 29.9986 105.821 30.705C106.463 31.1139 106.8 31.689 106.064 32.4566C104.301 34.2957 99.2327 36.3185 99.2327 36.3185L88.8752 34.4794L89.9807 30.2479Z" fill="#FDBCA0"/>
<path opacity="0.5" d="M88.8804 34.4794L94.0225 35.3935C94.3525 33.8474 94.0958 32.2861 93.8574 31.3282L89.9832 30.2501L88.8804 34.4794Z" fill="#DF8370"/>
<path d="M61.5564 43.4934C61.5564 43.4934 73.1581 32.7321 78.3474 29.0583C79.2118 28.446 80.3329 28.1485 81.4646 28.2251C85.2943 28.4831 93.2863 29.6968 93.2863 29.6968C93.2863 29.6968 94.8292 34.4794 91.9635 37.2391C90.2006 37.0554 82.2687 35.7674 82.2687 35.7674L66.1824 50.4824L61.5564 43.4934Z" fill="#739BE0"/>
<path d="M92.4035 39.6293L99.8953 46.6184L106.143 47.5128C107.303 47.679 108.031 48.7024 107.57 49.6077C107.272 50.1916 106.557 50.9789 104.964 50.6662C101.218 49.9314 97.6923 49.0107 97.6923 49.0107L88.8777 43.1239L92.4035 39.6293Z" fill="#FDBCA0"/>
<path opacity="0.5" d="M97.0191 43.9352L92.4035 39.6293L88.8777 43.1239L95.0387 47.2394C96.0551 46.3625 96.9169 45.2451 97.0191 43.9352Z" fill="#DF8370"/>
<path opacity="0.2" d="M78.2976 31.186L62.1013 44.3134L66.1851 50.4824L82.2714 35.7674C82.2714 35.7674 90.2032 37.0554 91.9662 37.2391C92.1495 37.0642 92.3119 36.8783 92.4612 36.688C89.5798 34.7221 86.1404 32.4653 83.5785 30.8886C81.9649 29.898 79.7331 30.0226 78.2976 31.186Z" fill="#739BE0"/>
<path d="M55.1675 49.3781C55.1675 49.3781 59.1334 54.1607 64.8622 53.6096C70.2112 53.0935 76.1339 46.6468 80.3041 41.1535C80.7311 40.5893 81.6872 40.5259 82.219 41.0223C85.4986 44.0904 91.3034 48.6434 91.3034 48.6434C91.3034 48.6434 96.8122 46.4369 96.8122 42.9402C95.2929 41.4181 88.9537 35.9599 85.1633 32.7168C83.5287 31.3173 80.8831 31.197 79.073 32.4369L61.3338 44.5956L55.1675 49.3781Z" fill="#97B8FF"/>
<g opacity="0.5">
<path opacity="0.5" d="M64.8622 53.6096C70.2112 53.0935 76.1339 46.6468 80.3041 41.1535C80.7311 40.5893 81.6872 40.5259 82.219 41.0223C85.4986 44.0904 91.3034 48.6433 91.3034 48.6433C91.3034 48.6433 92.587 48.1272 93.915 47.2022C90.9629 44.7486 87.8352 42.4437 84.5504 40.3072C83.4868 39.6162 82.2242 38.9033 80.9014 39.122C79.7514 39.3144 78.942 40.1519 78.2374 40.9348C76.7128 42.6274 75.1909 44.32 73.6663 46.0126C72.003 47.8604 70.2453 49.7739 67.7541 50.782C65.6297 51.6392 63.081 51.7355 60.8727 51.0423C59.1596 50.5043 57.6717 49.494 56.6632 48.2213L55.1675 49.3803C55.1675 49.3781 59.1334 54.1606 64.8622 53.6096Z" fill="#97B8FF"/>
</g>
<path d="M76.54 48.5034H84.2518C86.6853 48.5034 88.6578 46.8567 88.6578 44.8252C88.6578 42.7937 86.6853 41.147 84.2518 41.147H78.1405C77.2551 41.147 76.5374 41.7462 76.5374 42.4853V48.5034H76.54Z" fill="#8E97FD"/>
<path d="M75.4373 64.3227H80.5688C82.358 64.3227 83.8092 63.1112 83.8092 61.6177V41.1448H78.6776C76.8885 41.1448 75.4373 42.3563 75.4373 43.8498V64.3227Z" fill="#8E97FD"/>
<path d="M77.6296 43.8498V61.786H81.8208V46.6577H82.9708C84.1836 46.6577 85.1659 45.8376 85.1659 44.8251C85.1659 43.8126 84.1836 42.9926 82.9708 42.9926H78.6565C78.0881 42.9926 77.6296 43.3753 77.6296 43.8498Z" stroke="#8C96FF" stroke-miterlimit="10"/>
<path d="M42.8271 30.4316L39.0812 31.3523C39.0812 31.3523 40.184 34.4794 45.6928 36.5022L46.3529 36.3185C46.3529 36.3185 49.4361 37.7596 50.2088 35.2907C51.4557 34.9277 53.0248 34.6259 54.2533 34.4182C55.5238 34.2039 56.8414 34.3722 57.9756 34.8905L62.3816 36.9089C62.7981 37.0992 63.3194 37.0183 63.6259 36.7143L66.6252 33.7424L69.6847 35.6646L65.4438 41.3C65.1687 41.6674 64.6003 41.7965 64.1393 41.5975L60.0162 39.813L62.4392 42.9402C62.4392 42.9402 62.2192 48.6433 55.1675 49.3781C52.7445 47.3553 49.6587 44.7793 47.8958 43.6749C46.1329 42.5706 40.404 39.4434 38.8612 38.1554C37.3183 36.8674 33.3524 32.2685 33.1323 29.8783C33.1323 28.5903 41.9469 27.6719 41.9469 27.6719L42.8271 30.4316Z" fill="#FFFFFE"/>
<path d="M41.4178 37.6087C36.8127 34.9736 34.8612 31.5316 34.036 29.1632C33.4807 29.3841 33.1323 29.6247 33.1323 29.8805C33.3524 32.2729 37.3183 36.8695 38.8612 38.1576C40.404 39.4456 46.1329 42.5727 47.8958 43.6771C48.2101 43.8739 48.569 44.1188 48.9541 44.3987C48.0137 42.7324 45.9443 40.2001 41.4178 37.6087Z" fill="#F2F2F2"/>
<path d="M55.8093 37.4382C55.9927 37.3944 56.1813 37.3704 56.3725 37.3572C56.5637 37.3419 56.755 37.3441 56.9488 37.3594C57.3313 37.39 57.7189 37.471 58.0673 37.6284C58.4183 37.7771 58.7274 38.0045 58.9527 38.2735C59.0785 38.4025 59.1597 38.5534 59.2513 38.6978C59.3378 38.8443 59.3849 39.0039 59.453 39.157L59.4347 39.1264C59.6495 39.3691 59.8486 39.6228 60.0555 39.8699C60.2625 40.1192 60.4563 40.3729 60.6502 40.6309C60.4065 40.4057 60.1655 40.1782 59.9377 39.9464C59.7098 39.7124 59.4714 39.4828 59.2513 39.2445L59.2435 39.2379L59.2304 39.2138C59.1597 39.0739 59.1047 38.9274 59.0234 38.7896C58.9344 38.6584 58.861 38.5184 58.7432 38.4025C58.6462 38.2757 58.5153 38.1729 58.3895 38.0636C58.2481 37.9717 58.1145 37.8711 57.9521 37.8012C57.6404 37.6503 57.2946 37.5409 56.9279 37.4885C56.5637 37.436 56.1865 37.4119 55.8093 37.4382Z" fill="#97B8FF"/>
<path d="M47.1466 29.476C47.3405 29.7318 47.5081 30.2479 47.998 30.167C48.1656 30.1386 48.2442 30.0314 48.3726 29.9483C48.8231 29.6553 49.0589 30.1058 48.7393 30.3529C48.5743 30.4797 48.3437 30.5103 48.1316 30.53C48.0085 30.541 48.0058 30.705 48.1316 30.694C48.4407 30.6656 48.7655 30.6066 48.9646 30.3879C49.1244 30.2129 49.1558 29.9724 48.9803 29.7974C48.8179 29.64 48.5769 29.6138 48.3726 29.7275C48.1813 29.8324 48.0739 30.0817 47.7622 29.9702C47.5396 29.8915 47.4348 29.5482 47.3169 29.3929C47.2488 29.3054 47.0785 29.3863 47.1466 29.476Z" fill="#444359"/>
<path d="M46.1069 31.888C47.1311 32.6053 48.5561 32.45 49.3131 31.5272C49.3838 31.4397 49.2136 31.3566 49.1429 31.4441C48.4644 32.2729 47.1704 32.4194 46.2457 31.7721C46.1488 31.7043 46.0099 31.8202 46.1069 31.888Z" fill="#444359"/>
<path d="M43.7309 28.9905C43.9693 28.4788 44.5718 28.1967 45.2214 28.2929C45.3445 28.3104 45.3969 28.1529 45.2738 28.1354C44.5142 28.0239 43.82 28.3476 43.5423 28.9489C43.4952 29.0452 43.6864 29.0867 43.7309 28.9905Z" fill="#444359"/>
<path d="M44.357 30.4447L43.8357 30.1932L44.4356 30.2369L44.357 30.4447Z" fill="#444359"/>
<path d="M44.4827 30.5059C44.7604 29.8805 45.5253 29.5918 46.2797 29.804C46.4002 29.8368 46.4526 29.6793 46.3321 29.6465C45.4729 29.406 44.6058 29.758 44.2941 30.4644C44.2496 30.5606 44.4382 30.6043 44.4827 30.5059Z" fill="#444359"/>
<path d="M44.8232 29.8433L44.5901 29.2726L45.0511 29.7362L44.8232 29.8433Z" fill="#444359"/>
<path d="M45.8999 29.6662L46.0597 29.2726L46.1619 29.6815L45.8999 29.6662Z" fill="#444359"/>
<path d="M49.8657 28.3235L50.2325 27.9233L50.1041 28.4154L49.8657 28.3235Z" fill="#444359"/>
<path d="M50.146 28.3804C49.3156 28.1092 48.4276 28.4132 48.074 29.0955C48.0242 29.1917 48.1945 29.2748 48.2442 29.1786C48.5664 28.5575 49.3366 28.2907 50.0962 28.5379C50.2115 28.5772 50.2612 28.4176 50.146 28.3804Z" fill="#444359"/>
<path d="M49.0091 28.3694L48.907 27.7724L49.258 28.2995L49.0091 28.3694Z" fill="#444359"/>
<path d="M48.2154 29.0189L47.9194 28.6821L48.3778 28.8483L48.2154 29.0189Z" fill="#444359"/>
<path d="M71.5708 30.2501L74.1772 23.4273C74.2453 23.2501 74.4392 23.1277 74.6644 23.1233L79.3402 23.0205C79.6991 23.0118 79.961 23.3004 79.8563 23.5869L77.2577 30.6744C77.187 30.8646 76.9722 30.9914 76.7338 30.9849L72.0502 30.8252C71.7044 30.8078 71.466 30.5257 71.5708 30.2501Z" fill="#3F4553"/>
<path d="M71.1308 30.2502L73.7372 23.4274C73.8053 23.2502 73.9991 23.1278 74.2244 23.1234L78.9002 23.0206C79.2591 23.0119 79.521 23.3005 79.4163 23.587L76.8177 30.6744C76.747 30.8647 76.5322 30.9915 76.2938 30.985L71.6102 30.8253C71.2618 30.8078 71.026 30.5257 71.1308 30.2502Z" fill="#4E5567"/>
<path d="M78.5676 24.1315L76.8256 28.879L76.5768 29.5613L76.4589 29.8828C76.417 29.9965 76.3122 30.0818 76.1865 30.1167C76.1367 30.1299 76.0869 30.1364 76.0345 30.1342L75.0575 30.1014L72.2337 30.0052C71.9507 29.9943 71.7595 29.7647 71.8434 29.5416L73.1924 26.0077L73.7032 24.6716L73.9599 24.0024C73.9704 23.974 73.9861 23.9456 74.0071 23.9215C74.0804 23.8231 74.2088 23.7597 74.3528 23.7553L74.489 23.7531L78.1485 23.6722C78.4392 23.6657 78.6514 23.8997 78.5676 24.1315Z" fill="#F2EDE4"/>
<g opacity="0.35">
<path opacity="0.35" d="M76.8254 28.879L76.5766 29.5613L74.0068 23.9215C74.0802 23.8231 74.2085 23.7597 74.3526 23.7553L74.4888 23.7531L76.8254 28.879Z" fill="white"/>
</g>
<g opacity="0.35">
<path opacity="0.35" d="M76.1865 30.1167C76.1367 30.1299 76.0869 30.1364 76.0345 30.1342L75.0575 30.1014L73.1924 26.0077L73.7032 24.6716L76.1865 30.1167Z" fill="white"/>
</g>
<path d="M41.8657 31.49C42.7746 29.7668 43.0156 27.8031 42.5467 25.9596C42.8742 26.8365 44.0189 27.3329 45.1112 27.4488C46.2036 27.5647 47.3116 27.4029 48.4118 27.4488C49.512 27.4947 50.7012 27.8184 51.2566 28.6122C51.3587 28.7565 51.4714 28.9358 51.6704 28.949C51.9193 28.9665 52.066 28.7215 52.1184 28.5182C52.5244 26.994 51.7752 25.3211 50.3476 24.3107C48.92 23.3004 46.8977 22.9484 45.0719 23.2917C43.2461 23.635 41.6378 24.6366 40.6057 25.9377C39.9587 26.7534 39.5212 27.6959 39.4557 28.6734C39.3903 29.6487 39.7151 30.6569 40.4459 31.4201C40.6267 31.6081 40.8493 31.7896 41.1322 31.8421C41.4151 31.8946 41.7609 31.7612 41.8054 31.5206" fill="#3F4553"/>
<path d="M41.841 33.688C43.1961 33.4574 44.0538 32.2842 43.7566 31.0677C43.4595 29.8512 42.12 29.0521 40.7649 29.2828C39.4098 29.5135 38.5522 30.6866 38.8493 31.9031C39.1465 33.1196 40.4859 33.9187 41.841 33.688Z" fill="#8E97FD"/>
<path d="M40.3123 30.5825C38.8244 26.7949 40.6869 25.367 40.7707 25.2751L40.8257 25.2707H40.8388L40.8938 25.2686C40.8309 25.3407 40.0818 27.0574 41.3051 30.1714L40.3123 30.5825Z" fill="#8E97FD"/>
<path d="M43.4531 32.6993C39.6025 33.5521 38.9685 31.8311 38.9764 30.589C38.793 30.9892 38.7406 31.444 38.8533 31.9055C39.1519 33.1235 40.4905 33.9217 41.8447 33.6921C42.5442 33.5696 43.11 33.1979 43.4531 32.6993Z" fill="#8E97FD"/>
</svg>
