<svg width="162" height="133" viewBox="0 0 162 133" fill="none" xmlns="http://www.w3.org/2000/svg">
<g clip-path="url(#clip0_1_2043)">
<path d="M148.422 39H145.083V56.4048H148.422V39Z" fill="#9BA3FF"/>
<path d="M153.656 44.8503H150.317V56.4045H153.656V44.8503Z" fill="#9BA3FF"/>
<path d="M158.896 50.3643H155.557V56.4048H158.896V50.3643Z" fill="#9BA3FF"/>
</g>
<g clip-path="url(#clip1_1_2043)">
<path d="M84.32 132.419C103.111 132.419 118.344 129.669 118.344 126.276C118.344 122.883 103.111 120.133 84.32 120.133C65.5292 120.133 50.2961 122.883 50.2961 126.276C50.2961 129.669 65.5292 132.419 84.32 132.419Z" fill="#808AFF"/>
</g>
<path d="M78.582 46.5789C78.582 46.5789 77.2491 61.8752 82.7702 61.6447C88.6927 61.3942 87.0997 46.5789 87.0997 46.5789C86.3256 44.1909 86.0173 42.7749 86.3642 40.27H79.173C79.5198 42.7749 79.3528 44.1909 78.582 46.5789Z" fill="#FDBCA0"/>
<path d="M79.3176 43.2287C80.1334 43.4825 80.9556 43.7163 81.8067 43.7898C82.6129 43.8599 83.4415 43.8065 84.2445 43.7163C84.9125 43.6395 85.6255 43.5159 86.2936 43.2854C86.1876 42.377 86.2036 41.4419 86.3674 40.2663H79.1763C79.3336 41.4185 79.3818 42.3403 79.3176 43.2287Z" fill="#F0A38B"/>
<path d="M82.7701 42.3573C84.8224 42.3573 86.7977 41.5157 88.243 39.9994C89.9645 38.1959 91.3135 36.1853 91.7085 33.8241C92.216 30.7916 91.2299 27.7624 89.078 25.3243H76.4589C74.307 27.759 73.321 30.7916 73.8285 33.8241C74.2235 36.1853 75.5757 38.1959 77.294 39.9994C78.7425 41.5123 80.7178 42.3573 82.7701 42.3573Z" fill="#FDBCA0"/>
<path d="M83.3965 48.3624C83.1363 48.6596 82.8922 48.9836 82.661 49.3075C82.3815 49.1071 82.1599 48.8633 81.9158 48.6128C81.8934 48.5895 81.8484 48.6128 81.858 48.6462C81.9961 49.0403 82.2852 49.361 82.5807 49.6348C82.6449 49.6916 82.7348 49.6983 82.7991 49.6348C83.1106 49.3175 83.4157 48.9468 83.6566 48.5661C83.7594 48.4091 83.5217 48.2187 83.3965 48.3624Z" fill="#DF8370"/>
<path d="M90.3405 47.7778C88.4231 47.9481 86.5313 48.2721 84.6653 48.7663C84.5529 48.7964 84.6011 48.9734 84.7135 48.9467C86.5699 48.5192 88.4456 48.2286 90.3405 48.095C90.5396 48.0817 90.5364 47.7611 90.3405 47.7778Z" fill="#DF8370"/>
<path d="M75.1969 47.7778C77.1143 47.9481 79.006 48.2721 80.8721 48.7663C80.9845 48.7964 80.9363 48.9734 80.8239 48.9467C78.9675 48.5192 77.0918 48.2286 75.1969 48.095C75.0009 48.0817 75.0009 47.7611 75.1969 47.7778Z" fill="#DF8370"/>
<path d="M75.5275 20.2812C72.8456 21.8776 70.9571 24.3925 70.925 27.7723C70.8929 31.583 75.3572 37.6514 75.2962 37.5012C73.8124 33.794 73.4237 28.6908 77.1269 26.1358C77.4963 25.882 77.9588 25.735 78.2896 25.4378C78.28 23.4239 77.2104 21.4735 75.5275 20.2812Z" fill="#3F4553"/>
<path d="M89.749 20.2812C92.4308 21.8777 94.3194 24.3925 94.3515 27.7724C94.3836 31.5831 92.1899 34.973 90.0059 37.8519C90.5616 36.5961 91.8495 28.6875 88.1463 26.1359C87.777 25.8821 87.3145 25.7351 86.9836 25.4379C86.9965 23.424 88.0692 21.4735 89.749 20.2812Z" fill="#424495"/>
<path d="M128.256 18.264C126.207 17.2053 123.814 16.9782 121.585 17.4491C120.506 17.6762 119.484 18.0736 118.511 18.6113C117.865 18.9653 117.21 19.473 116.459 19.5331C115.547 19.6032 114.747 18.9854 114.069 18.4377C111.962 16.7344 109.82 15.2415 107.109 14.8307C105.799 14.6303 104.334 14.7772 103.319 15.6122C102.279 14.1828 100.727 13.1641 99.0187 12.7901C96.7576 12.2958 94.609 13.0005 92.8328 14.4165C91.8308 13.9055 90.0771 13.1708 89.8555 13.1073C83.175 11.197 74.0535 16.043 75.2355 24.2155C76.2504 31.2391 84.8034 34.4854 90.7291 33.0426C92.0074 35.5575 95.0714 36.1419 97.4321 34.8327C97.612 34.9763 97.7918 35.1199 97.9749 35.2602C101.742 38.1324 106.126 39.9994 110.861 39.1511C112.659 38.8271 114.342 38.1525 115.89 37.1839C117.361 38.3328 119.298 38.6969 121.08 37.8085C122.407 37.1505 123.297 35.9348 123.615 34.5589C123.637 34.5589 123.66 34.5589 123.682 34.5589C127.62 34.5088 131.795 32.4748 132.8 28.1832C133.716 24.2823 131.679 20.0307 128.256 18.264Z" fill="#4E5567"/>
<path d="M110.353 16.9915C111.647 18.0903 112.415 19.5965 111.609 21.2564C110.954 22.609 109.775 23.5943 108.917 24.7932C107.912 26.196 107.739 27.9961 109.386 29.0214C111.008 30.03 113.041 28.7743 114.394 27.8224C116.064 26.6435 117.856 23.2336 119.295 21.7707C125.686 15.2748 132.033 22.2183 132.058 22.2416C131.23 20.5517 129.906 19.1189 128.256 18.2639C126.206 17.2052 123.814 16.9781 121.585 17.449C120.506 17.6761 119.484 18.0736 118.511 18.6113C117.865 18.9653 117.21 19.4729 116.459 19.5331C115.547 19.6032 114.747 18.9853 114.069 18.4376C111.962 16.7343 109.82 15.2414 107.109 14.8306C105.828 14.6369 104.398 14.7772 103.387 15.5654C105.593 14.6737 108.583 15.4852 110.353 16.9915Z" fill="#3F4553"/>
<path d="M127.375 33.4568C125.811 33.6472 124.347 33.557 122.908 32.8924C122.288 34.5656 121.019 36.2555 119.227 36.5194C118.023 36.6964 116.6 36.3056 116.352 34.9797C107.886 42.147 98.3954 34.1515 97.48 32.6519C94.8399 34.442 91.5125 32.2578 90.5265 29.4624C88.5159 30.274 86.197 30.0235 84.2442 29.1518C80.6053 27.532 78.5883 23.0667 79.8602 19.1257C80.92 15.8494 83.7432 13.6084 86.8715 12.6966C80.7723 12.6599 74.2235 17.2154 75.2352 24.2156C76.2501 31.2392 84.7999 34.4855 90.7288 33.0427C92.0071 35.5575 95.0712 36.142 97.4318 34.8328C97.6117 34.9764 97.7915 35.12 97.9746 35.2603C101.742 38.1325 106.126 39.9995 110.86 39.1512C112.659 38.8272 114.342 38.1526 115.89 37.184C117.361 38.3329 119.298 38.6969 121.08 37.8086C122.407 37.1506 123.296 35.9349 123.614 34.5589C123.637 34.5589 123.659 34.5589 123.682 34.5589C125.561 34.5356 127.491 34.058 129.11 33.1028C128.541 33.2798 127.95 33.3867 127.375 33.4568Z" fill="#3F4553"/>
<path d="M80.5153 35.6143C79.3912 35.808 77.5637 35.8715 76.5262 34.7159C76.3207 34.4855 76.0413 34.746 76.2982 34.9764C76.34 35.0131 76.3817 35.0465 76.4235 35.0799C76.3014 35.1167 76.1729 35.1334 76.0381 35.1234C76.0348 35.1234 76.0348 35.1267 76.0381 35.13C76.2019 35.1868 76.3689 35.2035 76.5327 35.1701C76.5359 35.1734 76.5391 35.1768 76.5423 35.1768C76.401 35.2736 76.2308 35.3137 76.0637 35.3705C76.0605 35.3705 76.0605 35.3738 76.0637 35.3772C76.2693 35.3972 76.4845 35.3705 76.6547 35.2569C76.674 35.2703 76.6933 35.277 76.7125 35.2903C76.5841 35.3939 76.4395 35.4707 76.2757 35.5108C76.2597 35.5141 76.2629 35.5408 76.2789 35.5408C76.4877 35.5508 76.6868 35.4974 76.8538 35.3772C76.8892 35.3972 76.9277 35.4139 76.963 35.434C76.8442 35.5241 76.7222 35.6043 76.5841 35.6711C76.5712 35.6778 76.5776 35.7011 76.5905 35.7011C76.7736 35.7078 76.9341 35.611 77.0787 35.4974C77.1236 35.5208 77.1686 35.5375 77.2168 35.5575C77.1558 35.621 77.0851 35.6811 77.0176 35.7412C77.008 35.7512 77.0176 35.7646 77.0305 35.7646C77.1461 35.7345 77.2521 35.6844 77.342 35.6143C78.373 36.0552 79.5807 36.0685 80.6148 35.6811C80.724 35.6343 80.6405 35.5943 80.5153 35.6143Z" fill="#3F4553"/>
<path d="M85.1307 35.6143C86.2548 35.808 88.0823 35.8715 89.1197 34.7159C89.3253 34.4855 89.6047 34.746 89.3477 34.9764C89.306 35.0131 89.2642 35.0465 89.2225 35.0799C89.3477 35.1167 89.473 35.1334 89.6079 35.1234C89.6111 35.1234 89.6111 35.1267 89.6079 35.13C89.4441 35.1868 89.2771 35.2035 89.1133 35.1701C89.1101 35.1734 89.1069 35.1768 89.1036 35.1768C89.245 35.2736 89.4152 35.3137 89.5822 35.3705C89.5854 35.3705 89.5854 35.3738 89.5822 35.3772C89.3766 35.3972 89.1615 35.3705 88.9912 35.2569C88.972 35.2703 88.9527 35.277 88.9334 35.2903C89.0619 35.3939 89.2064 35.4707 89.3702 35.5108C89.3863 35.5141 89.3831 35.5408 89.367 35.5408C89.1582 35.5508 88.9591 35.4974 88.7921 35.3772C88.7568 35.3972 88.7182 35.4139 88.6829 35.434C88.8017 35.5241 88.9238 35.6043 89.0619 35.6711C89.0747 35.6778 89.0683 35.7011 89.0555 35.7011C88.8724 35.7078 88.7118 35.611 88.5673 35.4974C88.5223 35.5208 88.4773 35.5375 88.4324 35.5575C88.4934 35.621 88.5641 35.6811 88.6315 35.7412C88.6411 35.7512 88.6315 35.7646 88.6187 35.7646C88.503 35.7345 88.397 35.6844 88.3071 35.6143C87.2761 36.0552 86.0685 36.0685 85.0311 35.6811C84.9251 35.6343 85.0054 35.5943 85.1307 35.6143Z" fill="#3F4553"/>
<path d="M83.531 38.0491C83.0042 38.333 82.4807 38.4466 81.9379 38.1059C81.8994 38.0825 81.8544 38.1393 81.8898 38.1727C82.3555 38.6036 83.1841 38.7138 83.6498 38.2095C83.7269 38.1226 83.6305 37.9957 83.531 38.0491Z" fill="#3F4553"/>
<path d="M84.7353 40.0193C84.0768 40.223 83.4281 40.2998 82.7857 40.2698C82.1433 40.2998 81.4946 40.223 80.8361 40.0193C80.8201 40.0126 80.8072 40.0427 80.8233 40.0493C81.456 40.3299 82.1209 40.4802 82.7857 40.4969C83.4505 40.4802 84.1154 40.3299 84.7481 40.0493C84.7642 40.0427 84.7513 40.0159 84.7353 40.0193Z" fill="#3F4553"/>
<path d="M79.7669 37.2508C79.7123 37.2241 79.6545 37.2008 79.5966 37.1841C78.8611 36.987 77.9907 36.6129 77.2231 36.7499C76.6803 36.8467 76.5551 37.5314 76.8634 37.9355C77.1942 38.3697 77.843 38.4933 78.344 38.5333C78.8483 38.5734 79.6384 38.6302 80.0142 38.2194C80.3546 37.8487 80.1234 37.4312 79.7669 37.2508Z" fill="#FBAD8B"/>
<path d="M85.7791 37.2508C85.8337 37.2241 85.8915 37.2008 85.9493 37.1841C86.6848 36.987 87.5552 36.6129 88.3228 36.7499C88.8656 36.8467 88.9909 37.5314 88.6825 37.9355C88.3517 38.3697 87.7029 38.4933 87.2019 38.5333C86.6977 38.5734 85.9076 38.6302 85.5318 38.2194C85.1913 37.8487 85.4258 37.4312 85.7791 37.2508Z" fill="#FBAD8B"/>
<path d="M73.0706 32.251C72.3094 32.1341 71.4936 32.4614 71.6317 33.3999C71.7409 34.148 72.515 34.8928 73.6969 34.669C73.3757 33.8942 73.1541 33.0792 73.0706 32.251Z" fill="#F9CDB9"/>
<path d="M72.3351 32.9859C72.5438 32.8056 72.8682 32.7254 73.1477 32.7722C73.1316 32.682 73.122 32.5885 73.1091 32.4983C72.7269 32.4616 72.2773 32.6253 72.0589 32.9125C71.7184 33.3633 71.9754 33.8643 72.3511 34.1716C72.4057 34.2183 72.4828 34.1449 72.4314 34.0881C72.1584 33.7875 71.9689 33.3032 72.3351 32.9859Z" fill="#F8C4AB"/>
<path d="M73.2986 33.4867C73.0995 33.2997 72.8393 33.1961 72.5406 33.2095C72.4732 33.2128 72.4475 33.3297 72.5246 33.3397C72.7976 33.3798 73.032 33.5268 73.1766 33.7539C73.0096 33.8474 72.8875 34.0511 73.0577 34.2181C73.1926 34.3517 73.3918 34.3818 73.5813 34.3617C73.4753 34.0745 73.3757 33.7839 73.2986 33.4867Z" fill="#F8C4AB"/>
<path d="M73.0034 34.452C73.0002 34.4487 72.9938 34.452 72.997 34.4553C73.119 34.7693 73.2925 35.504 72.875 35.6543C72.5955 35.7545 72.5698 35.3805 72.6116 35.1834C72.6501 35.0031 72.7465 34.816 72.8268 34.6557C72.8268 34.6557 72.6341 34.6123 72.4574 34.5188C72.2165 34.7325 72.1298 35.0498 72.1716 35.3838C72.2101 35.6877 72.3964 36.0217 72.7272 36.0317C73.0227 36.0417 73.2347 35.7779 73.2796 35.4973C73.331 35.1333 73.1897 34.7492 73.0034 34.452Z" fill="#FDCA27"/>
<path d="M134.464 91.9699C132.659 89.7356 128.753 89.5553 126.19 89.2781C118.485 88.4431 110.584 88.6502 102.876 89.2981C99.0377 89.6221 95.2189 90.1063 91.4161 90.7442C88.6636 91.2085 85.59 91.5324 82.8407 92.4475C80.0914 91.5324 77.0177 91.2051 74.2652 90.7442C70.4657 90.103 66.6436 89.6187 62.8056 89.2981C55.0973 88.6502 47.1931 88.4431 39.4912 89.2781C36.9314 89.5553 33.0227 89.7356 31.2177 91.9699C29.4737 94.1275 31.6255 96.7425 33.2828 98.1152C35.5728 100.012 38.4795 100.947 41.2545 101.766C44.7393 102.788 48.3043 103.482 51.8887 104.01C67.9316 106.361 76.6419 104.628 85.0279 104.521C85.3491 104.945 85.651 105.386 85.9272 105.843C94.4288 105.9 105.349 105.196 113.789 104.01C117.377 103.506 120.939 102.791 124.424 101.766C127.202 100.951 130.105 100.016 132.395 98.1152C134.053 96.7425 136.204 94.1275 134.464 91.9699Z" fill="#93BFA8"/>
<path d="M123.081 93.5163C123.348 93.1623 124.963 92.7247 125.599 92.4308C122.603 92.6813 119.593 93.0554 116.603 93.376C110.915 93.9838 105.22 95.5502 99.8311 97.5107C97.252 98.4492 94.6794 99.4344 92.1164 100.423C90.0865 101.204 88.0791 102.059 86.1746 103.125C86.4668 103.031 86.7591 102.938 87.0514 102.848C90.0897 101.919 102.471 94.9557 125.397 94.0974C124.867 93.9772 122.978 93.6532 123.081 93.5163Z" fill="#66A986"/>
<path d="M42.9375 93.0254C42.6709 92.6713 41.0554 92.2338 40.4194 91.9399C43.416 92.1904 46.4255 92.5645 49.4156 92.8851C55.1037 93.4929 60.7982 95.0593 66.1876 97.0198C68.7666 97.9582 71.3393 98.9435 73.9023 99.9321C75.9321 100.714 77.9395 101.569 79.8441 102.634C79.5518 102.54 79.2595 102.447 78.9673 102.357C75.9289 101.428 63.5475 94.4648 40.6218 93.6065C41.1485 93.4863 43.037 93.1623 42.9375 93.0254Z" fill="#66A986"/>
<path d="M90.5909 100.41C89.2998 99.8719 87.9348 99.8586 86.679 100.416C84.5335 101.375 81.903 99.9053 79.6741 100.169C77.6217 100.413 76.3724 102.841 77.9429 104.391C78.3219 104.765 82.1311 106.201 88.166 103.275C88.8277 102.955 89.4732 102.771 90.2216 102.781C90.395 102.784 90.5588 102.955 90.7419 102.935C91.1337 102.884 91.4549 102.811 91.6733 102.417C92.1872 101.488 91.3296 100.717 90.5909 100.41Z" fill="#FDB597"/>
<path d="M75.5274 105.336C76.6162 104.438 77.9234 104.017 79.2755 104.18C81.5944 104.461 83.711 102.27 85.9207 101.859C87.9538 101.482 89.8198 103.436 88.7407 105.393C88.4805 105.864 85.2238 108.372 78.6364 107.363C77.9137 107.253 77.2457 107.27 76.5327 107.5C76.3689 107.554 76.2564 107.767 76.0734 107.801C75.6848 107.871 75.3571 107.894 75.0392 107.584C74.294 106.846 74.9043 105.85 75.5274 105.336Z" fill="#FDBCA0"/>
<path d="M119.297 50.4696C118.555 50.867 117.775 51.3145 117.046 51.732C117.431 51.4047 119.57 49.1403 120.402 48.5826C120.492 48.5225 120.28 47.604 118.093 49.4209C117.441 49.9619 116.67 50.5097 116.057 51.1008C116.837 49.5612 117.489 48.0015 118.51 46.5921C118.552 46.5353 118.539 46.4718 118.504 46.4284C118.295 46.2581 117.772 46.4518 117.537 46.7123C117.12 47.1732 115.533 48.9566 114.762 50.837C114.775 50.1924 114.721 49.147 114.28 48.9333C114.004 48.7963 113.545 48.9767 113.25 49.0001C112.668 49.0435 111.907 49.1303 111.364 48.8899C111.284 48.8565 111.082 48.8297 111.155 49.1069C111.403 50.0154 112.623 50.1289 113.381 50.3293C113.638 50.9772 112.915 52.0393 112.459 52.3599C111.717 52.8842 110.635 52.3699 110.821 51.3413C110.985 50.4362 111.506 50.0254 111.046 49.137C110.895 48.8431 110.246 48.5759 110.391 49.0502C110.764 50.2625 109.694 51.2811 109.556 52.4534C109.447 53.3819 109.919 54.2068 110.394 54.9516C110.365 55.0284 110.343 55.1052 110.317 55.1787C109.672 56.3409 109.171 57.5666 108.808 58.8491C109.636 59.133 112.071 58.9527 112.061 58.9326C112.071 58.9527 112.353 57.1558 113.002 56.3977C113.712 55.5661 114.605 54.9249 115.459 54.2703C117.255 52.8909 119.079 51.5517 120.929 50.2491C121.035 50.179 120.948 49.5845 119.297 50.4696Z" fill="#FDBCA0"/>
<path d="M46.5796 50.4696C47.3215 50.867 48.1019 51.3145 48.831 51.732C48.4456 51.4047 46.3066 49.1403 45.4747 48.5826C45.3848 48.5225 45.5967 47.604 47.784 49.4209C48.436 49.9619 49.2068 50.5097 49.8202 51.1008C49.0398 49.5612 48.3878 48.0015 47.3664 46.5921C47.3247 46.5353 47.3375 46.4718 47.3729 46.4284C47.5816 46.2581 48.1052 46.4518 48.3396 46.7123C48.7571 47.1732 50.3438 48.9566 51.1146 50.837C51.1017 50.1924 51.1563 49.147 51.5964 48.9333C51.8726 48.7963 52.3319 48.9767 52.6273 49.0001C53.2087 49.0435 53.9699 49.1303 54.5127 48.8899C54.593 48.8565 54.7953 48.8297 54.7214 49.1069C54.4741 50.0154 53.2536 50.1289 52.4957 50.3293C52.2387 50.9772 52.9614 52.0393 53.4174 52.3599C54.1594 52.8842 55.2417 52.3699 55.0555 51.3413C54.8917 50.4362 54.3713 50.0254 54.8306 49.137C54.9816 48.8431 55.6304 48.5759 55.4858 49.0502C55.1133 50.2625 56.1828 51.2811 56.3209 52.4534C56.4301 53.3819 55.958 54.2068 55.4826 54.9516C55.5115 55.0284 55.534 55.1052 55.5597 55.1787C56.2053 56.3409 56.7063 57.5666 57.0692 58.8491C56.2406 59.133 53.8061 58.9527 53.8157 58.9326C53.8061 58.9527 53.5234 57.1558 52.8747 56.3977C52.1649 55.5661 51.272 54.9249 50.4176 54.2703C48.6223 52.8909 46.798 51.5517 44.948 50.2491C44.842 50.179 44.9287 49.5845 46.5796 50.4696Z" fill="#FDBCA0"/>
<path d="M107.941 57.6669C106.736 60.8965 102.651 72.8196 100.946 77.876C99.9307 75.1708 97.1878 63.4247 94.8785 49.7883C94.1591 45.5501 89.563 46.1546 87.1028 46.5788C86.9261 49.4243 84.27 57.3129 82.844 57.3296C81.4179 57.3129 78.5916 49.982 78.5851 46.5788C76.1281 46.1546 71.5288 45.5501 70.8094 49.7883C68.4969 63.4247 65.7573 75.1741 64.7423 77.876C63.0337 72.8196 58.9515 60.8965 57.7471 57.6669C56.2022 58.425 54.4935 58.8425 52.7881 58.9461C54.1081 62.5965 58.4665 88.4465 64.8901 88.4465C67.6747 88.4465 69.438 85.3705 72.2772 73.9751C72.4185 75.8788 72.4667 79.5359 72.396 83.38C72.3446 86.1487 70.5043 89.3482 68.0409 88.7304C67.543 88.6068 66.8942 88.9976 67.5109 89.6922C67.6779 89.8826 67.8931 90.0229 68.1147 90.1297C72.0492 92.0668 72.2033 94.9624 74.5254 96.649C75.929 97.6677 77.6569 97.9883 79.3046 98.3356C81.0903 98.7097 82.9307 98.9902 84.7486 98.7063C87.7708 98.2354 90.1187 96.1347 92.6206 94.4915C94.0178 93.5731 95.4374 92.8383 97.0786 92.5878C101.302 91.9433 101.023 88.8439 100.139 88.9074C97.1814 89.1178 93.2855 85.1969 93.263 80.8818C93.2469 78.0096 93.3015 75.4614 93.4107 73.9751C96.25 85.3705 98.0132 88.4465 100.798 88.4465C107.221 88.4465 111.58 62.5965 112.9 58.9461C111.194 58.8425 109.486 58.4217 107.941 57.6669Z" fill="#F2EDE4"/>
<path d="M90.9476 68.9553C90.9154 68.9787 90.8898 69.0021 90.8641 69.0255C90.3405 69.5565 89.9326 70.1944 89.4188 70.7354C88.9049 71.2732 88.24 71.724 87.5109 71.7207C85.7605 71.7107 84.8837 69.5264 83.8302 68.4143C82.2115 66.711 80.6409 70.5918 79.4365 71.3533C78.2 72.1348 77.3617 71.6639 76.4496 70.7388C75.8907 70.171 75.4154 69.5331 74.8983 68.9253C74.7634 68.765 74.455 68.9353 74.5385 69.1424C75.1424 70.6519 76.5074 73.1568 78.3092 73.1969C79.414 73.2203 80.3198 72.5623 81.0456 71.7541C81.4021 71.3566 82.3849 69.2225 83.0241 69.5031C83.1429 69.5565 83.2264 69.6667 83.3067 69.7736C83.6247 70.2078 83.9202 70.6653 84.2606 71.0794C84.4373 71.2932 84.9479 71.6472 84.9479 71.9411C85.6706 72.7059 86.663 73.3071 87.6876 73.1768C88.7346 73.0432 89.5633 72.1916 90.1703 71.2932C90.6007 70.6553 90.9636 69.9673 91.2495 69.2459C91.2912 69.1424 91.3266 69.0121 91.2527 68.9286C91.1724 68.8418 91.0503 68.8819 90.9476 68.9553Z" fill="#D9C9AC"/>
<g clip-path="url(#clip2_1_2043)">
<path d="M149.892 86.3016L160.884 82.477L155.374 65.6868L144.382 69.5114C143.952 69.6606 143.718 70.1413 143.867 70.5846L148.85 85.7671C148.995 86.2105 149.462 86.4508 149.892 86.3016Z" fill="#3F4553"/>
<path d="M149.9 85.9702L161.166 82.0502L155.857 65.8774L144.592 69.7974C144.314 69.8927 144.165 70.2034 144.257 70.4935L149.224 85.6262C149.321 85.9122 149.622 86.0655 149.9 85.9702Z" fill="#DDDDE3"/>
<path d="M150.138 85.8874L161.403 81.9675L156.094 65.7947L144.829 69.7146C144.551 69.8099 144.402 70.1207 144.495 70.4107L149.462 85.5435C149.558 85.8294 149.86 85.9869 150.138 85.8874Z" fill="#E2E5FF"/>
<path d="M150.745 86.0033L161.737 82.1786L156.227 65.3926L145.235 69.2172C144.805 69.3664 144.571 69.847 144.72 70.2904L149.703 85.4729C149.848 85.9162 150.315 86.1524 150.745 86.0033Z" fill="#4E5567"/>
<path d="M155.611 65.6071L155.375 65.6893L160.885 82.4796L161.121 82.3974L155.611 65.6071Z" fill="#3F4553"/>
<path d="M157.181 78.7228L157.427 78.1841L157.942 78.4576L153.917 66.1964C153.844 65.981 153.663 65.9975 153.454 66.0721C153.245 66.1467 153.088 66.2462 153.16 66.4616L157.181 78.7228Z" fill="#93BFA8"/>
<path d="M132.484 70.0588L139.882 61.0285L138.387 59.7302L130.989 68.7605L132.484 70.0588Z" fill="#3F4553"/>
<path d="M130.988 68.7575L132.481 70.0544L130.323 71.2768C130.251 71.3183 130.154 71.2312 130.179 71.1525L130.988 68.7575Z" fill="#F2EDE4"/>
<path d="M130.328 71.2808L130.911 70.9493L130.404 70.506L130.187 71.1524C130.159 71.2311 130.255 71.3181 130.328 71.2808Z" fill="#3F4553"/>
<path d="M131.989 69.6287L139.387 60.5984L138.879 60.1576L131.481 69.1879L131.989 69.6287Z" fill="#4E5567"/>
</g>
<g clip-path="url(#clip3_1_2043)">
<path d="M52.344 0C42.8082 0 35.0828 8.02003 35.0828 17.9195C35.0828 27.8133 42.8082 35.839 52.344 35.839C61.8743 35.839 69.6052 27.8189 69.6052 17.9195C69.5998 8.02003 61.8743 0 52.344 0ZM52.344 32.8082C44.4228 32.8082 38.0022 26.1427 38.0022 17.9195C38.0022 9.69628 44.4228 3.03079 52.344 3.03079C60.2651 3.03079 66.6857 9.69628 66.6857 17.9195C66.6857 26.1427 60.2651 32.8082 52.344 32.8082Z" fill="#808AFF"/>
<path d="M65.5769 23.6599C68.6327 16.0736 65.1859 7.35191 57.8783 4.17955C50.5706 1.00719 42.1693 4.58545 39.1135 12.1718C36.0577 19.7582 39.5045 28.4798 46.8122 31.6522C54.1198 34.8245 62.5211 31.2463 65.5769 23.6599Z" fill="#AEB4FC"/>
<path d="M52.372 4.36295C51.3662 4.36295 51.3608 5.9884 52.372 5.9884C53.3832 5.9884 53.3832 4.36295 52.372 4.36295Z" fill="#808AFF"/>
<path d="M65.3968 17.947C65.3968 16.9028 63.8311 16.8972 63.8311 17.947C63.8311 18.9967 65.3968 18.9967 65.3968 17.947Z" fill="#808AFF"/>
<path d="M52.3107 31.4702C53.3165 31.4702 53.3219 29.8447 52.3107 29.8447C51.3049 29.8447 51.2995 31.4702 52.3107 31.4702Z" fill="#808AFF"/>
<path d="M39.2858 17.8857C39.2858 18.9299 40.8515 18.9355 40.8515 17.8857C40.8515 16.8416 39.2858 16.836 39.2858 17.8857Z" fill="#808AFF"/>
<path d="M58.5094 22.2709C58.4169 22.2709 58.3245 22.2483 58.243 22.1919L52.0724 18.3823C51.9148 18.2863 51.8169 18.1057 51.8169 17.9138V7.67571C51.8169 7.37659 52.0507 7.1339 52.3388 7.1339C52.6269 7.1339 52.8607 7.37659 52.8607 7.67571V17.609L58.7758 21.2607C59.0258 21.413 59.1074 21.746 58.9552 22.0057C58.8627 22.175 58.6888 22.2709 58.5094 22.2709Z" fill="#808AFF"/>
</g>
<path d="M16.3913 37.6208L16.0469 35.5926L14.0497 35.946C13.7329 34.999 13.2163 34.1651 12.5483 33.4867L13.7191 31.7836L12.08 30.6034L10.916 32.2995C10.0758 31.8754 9.13918 31.6422 8.16121 31.6493L7.80997 29.5928L5.83337 29.9462L6.17772 31.9956C5.25485 32.3207 4.44218 32.8507 3.78101 33.5362L2.12123 32.3348L0.97108 34.0167L2.62398 35.211C2.21076 36.0732 1.98348 37.0342 1.99037 38.0377L0 38.3911L0.344355 40.4193L2.34161 40.0659C2.65842 41.0129 3.17495 41.8468 3.843 42.5252L2.67219 44.2283L4.31132 45.4085L5.47524 43.7124C6.31547 44.1364 7.25211 44.3696 8.23008 44.3626L8.58132 46.419L10.5579 46.0657L10.2136 44.0163C11.1364 43.6912 11.9491 43.1612 12.6103 42.4757L14.2701 43.6771L15.4202 41.9952L13.7673 40.8009C14.1805 39.9387 14.4078 38.9776 14.4009 37.9741L16.3913 37.6208ZM8.51245 39.8893C7.50005 40.073 6.53585 39.3734 6.35679 38.3346C6.17772 37.2957 6.85955 36.3064 7.87195 36.1226C8.88435 35.9389 9.84855 36.6385 10.0276 37.6773C10.2067 38.7162 9.53174 39.7055 8.51245 39.8893Z" fill="#9BA3FF"/>
<path d="M35.2347 33.529V30.9778H32.7209C32.5349 29.7482 32.0735 28.6175 31.3986 27.6423L33.1823 25.8119L31.4261 24.0099L29.6493 25.8331C28.7057 25.1335 27.6107 24.6459 26.4123 24.441V21.8474H23.9261V24.4268C22.7277 24.6177 21.6189 25.0911 20.6754 25.7837L18.8916 23.9534L17.1354 25.7554L18.9123 27.5787C18.2305 28.5468 17.7552 29.6705 17.5555 30.9001H15.028V33.4512H17.5417C17.7277 34.6809 18.1891 35.8115 18.8641 36.7868L17.0803 38.6171L18.8365 40.4191L20.6134 38.5959C21.5569 39.2955 22.652 39.7831 23.8503 39.9881V42.5816H26.3366V40.0022C27.5349 39.8114 28.6369 39.3379 29.5873 38.6454L31.371 40.4757L33.1272 38.6736L31.3504 36.8504C32.0322 35.8822 32.5074 34.7586 32.7071 33.529H35.2347V33.529ZM25.1313 34.589C23.8572 34.589 22.8173 33.529 22.8173 32.2145C22.8173 30.9072 23.8503 29.8401 25.1313 29.8401C26.4054 29.8401 27.4454 30.9001 27.4454 32.2145C27.4385 33.5219 26.4054 34.589 25.1313 34.589Z" fill="#AEB4FC"/>
<g opacity="0.3">
<path d="M154.815 31.5375L136.345 27.2279C136.164 27.1869 136.049 26.9991 136.092 26.8112L138.417 16.061C138.457 15.8732 138.638 15.7536 138.819 15.798L157.289 20.1111C157.47 20.1521 157.585 20.3399 157.542 20.5277L155.214 31.278C155.174 31.4624 154.996 31.5819 154.815 31.5375Z" fill="#ECECEC"/>
<path d="M136.398 26.9751C136.348 26.9648 136.319 26.9136 136.332 26.8658L138.661 16.1156C138.671 16.0643 138.72 16.0336 138.766 16.0473L157.236 20.3603C157.286 20.3706 157.315 20.4218 157.302 20.4696L154.973 31.2198C154.963 31.2711 154.914 31.3018 154.868 31.2881L136.398 26.9751Z" fill="#F5F4F5"/>
<path d="M154.689 19.501L141.422 16.4037L141.368 16.6536L154.635 19.7509L154.689 19.501Z" fill="#706F6E"/>
<path d="M140.131 17.9494L139.519 17.806C139.444 17.7889 139.394 17.7104 139.411 17.6284L139.506 17.181C139.523 17.1025 139.598 17.0513 139.677 17.0683L140.289 17.2118C140.365 17.2289 140.414 17.3074 140.398 17.3894L140.302 17.8367C140.283 17.9153 140.207 17.9665 140.131 17.9494Z" fill="#585857"/>
<path d="M139.545 17.6796C139.535 17.6762 139.529 17.6659 139.532 17.6557L139.628 17.2083C139.631 17.1981 139.641 17.1913 139.651 17.1947L140.262 17.3381C140.272 17.3415 140.279 17.3518 140.276 17.362L140.18 17.8094C140.177 17.8196 140.167 17.8264 140.157 17.823L139.545 17.6796Z" fill="#5E5E5D"/>
<path d="M141.253 18.2091L140.641 18.0657C140.565 18.0486 140.516 17.9701 140.532 17.8881L140.628 17.4407C140.644 17.3622 140.72 17.311 140.799 17.3281L141.411 17.4715C141.486 17.4886 141.536 17.5671 141.519 17.6491L141.424 18.0964C141.404 18.1784 141.328 18.2262 141.253 18.2091Z" fill="#585857"/>
<path d="M140.667 17.9426C140.657 17.9391 140.651 17.9289 140.654 17.9186L140.749 17.4713C140.753 17.461 140.762 17.4542 140.772 17.4576L141.384 17.6011C141.394 17.6045 141.401 17.6147 141.397 17.625L141.302 18.0723C141.299 18.0826 141.289 18.0894 141.279 18.086L140.667 17.9426Z" fill="#5E5E5D"/>
<path d="M142.374 18.4718L141.763 18.3284C141.687 18.3113 141.638 18.2328 141.654 18.1508L141.749 17.7034C141.766 17.6249 141.842 17.5737 141.92 17.5907L142.532 17.7342C142.608 17.7513 142.657 17.8298 142.641 17.9118L142.545 18.3591C142.526 18.4377 142.45 18.4889 142.374 18.4718Z" fill="#585857"/>
<path d="M141.789 18.202C141.779 18.1986 141.773 18.1883 141.776 18.1781L141.871 17.7307C141.875 17.7205 141.885 17.7137 141.894 17.7171L142.506 17.8605C142.516 17.8639 142.523 17.8742 142.519 17.8844L142.424 18.3318C142.421 18.342 142.411 18.3488 142.401 18.3454L141.789 18.202Z" fill="#5E5E5D"/>
<path d="M143.497 18.7313L142.885 18.5878C142.809 18.5708 142.76 18.4922 142.776 18.4103L142.872 17.9629C142.888 17.8844 142.964 17.8331 143.043 17.8502L143.654 17.9936C143.73 18.0107 143.779 18.0893 143.763 18.1712L143.668 18.6186C143.648 18.7005 143.572 18.7518 143.497 18.7313Z" fill="#585857"/>
<path d="M142.911 18.465C142.901 18.4615 142.894 18.4513 142.898 18.441L142.993 17.9937C142.996 17.9834 143.006 17.9766 143.016 17.98L143.628 18.1235C143.638 18.1269 143.644 18.1371 143.641 18.1474L143.546 18.5947C143.542 18.605 143.532 18.6118 143.523 18.6084L142.911 18.465Z" fill="#5E5E5D"/>
<path d="M144.615 18.9942L144.003 18.8508C143.927 18.8337 143.878 18.7552 143.894 18.6732L143.99 18.2258C144.006 18.1473 144.082 18.0961 144.161 18.1131L144.773 18.2566C144.848 18.2737 144.898 18.3522 144.881 18.4342L144.786 18.8815C144.769 18.9635 144.694 19.0113 144.615 18.9942Z" fill="#585857"/>
<path d="M144.033 18.7279C144.023 18.7245 144.016 18.7142 144.02 18.704L144.115 18.2566C144.118 18.2464 144.128 18.2396 144.138 18.243L144.75 18.3864C144.76 18.3898 144.766 18.4001 144.763 18.4103L144.668 18.8577C144.664 18.8679 144.655 18.8747 144.645 18.8713L144.033 18.7279Z" fill="#5E5E5D"/>
<path d="M145.737 19.2572L145.125 19.1137C145.049 19.0967 145 19.0181 145.016 18.9362L145.112 18.4888C145.128 18.4103 145.204 18.359 145.283 18.3761L145.894 18.5195C145.97 18.5366 146.019 18.6152 146.003 18.6971L145.908 19.1445C145.891 19.223 145.815 19.2742 145.737 19.2572Z" fill="#585857"/>
<path d="M145.154 18.9874C145.144 18.9839 145.138 18.9737 145.141 18.9634L145.236 18.5161C145.24 18.5058 145.25 18.499 145.259 18.5024L145.871 18.6459C145.881 18.6493 145.888 18.6595 145.884 18.6698L145.789 19.1171C145.786 19.1274 145.776 19.1342 145.766 19.1308L145.154 18.9874Z" fill="#5E5E5D"/>
<path d="M146.858 19.5169L146.246 19.3734C146.171 19.3564 146.121 19.2778 146.138 19.1959L146.233 18.7485C146.25 18.67 146.325 18.6187 146.404 18.6358L147.016 18.7792C147.092 18.7963 147.141 18.8749 147.125 18.9568L147.029 19.4042C147.013 19.4861 146.934 19.5374 146.858 19.5169Z" fill="#585857"/>
<path d="M146.276 19.2505C146.266 19.2471 146.26 19.2369 146.263 19.2266L146.358 18.7793C146.362 18.769 146.371 18.7622 146.381 18.7656L146.993 18.9091C147.003 18.9125 147.01 18.9227 147.006 18.933L146.911 19.3803C146.908 19.3906 146.898 19.3974 146.888 19.394L146.276 19.2505Z" fill="#5E5E5D"/>
<path d="M147.98 19.7798L147.368 19.6364C147.293 19.6193 147.243 19.5408 147.26 19.4588L147.355 19.0115C147.372 18.9329 147.447 18.8817 147.526 18.8988L148.138 19.0422C148.214 19.0593 148.263 19.1378 148.247 19.2198L148.151 19.6671C148.131 19.7491 148.056 19.7969 147.98 19.7798Z" fill="#585857"/>
<path d="M147.398 19.5133C147.388 19.5098 147.381 19.4996 147.385 19.4894L147.48 19.042C147.483 19.0318 147.493 19.0249 147.503 19.0283L148.115 19.1718C148.125 19.1752 148.131 19.1854 148.128 19.1957L148.033 19.643C148.029 19.6533 148.02 19.6601 148.01 19.6567L147.398 19.5133Z" fill="#5E5E5D"/>
<path d="M149.102 20.0428L148.49 19.8993C148.414 19.8823 148.365 19.8037 148.382 19.7218L148.477 19.2744C148.493 19.1959 148.569 19.1446 148.648 19.1617L149.26 19.3051C149.336 19.3222 149.385 19.4007 149.368 19.4827L149.273 19.9301C149.253 20.0086 149.178 20.0598 149.102 20.0428Z" fill="#585857"/>
<path d="M148.516 19.773C148.506 19.7695 148.5 19.7593 148.503 19.7491L148.598 19.3017C148.601 19.2915 148.611 19.2846 148.621 19.288L149.233 19.4315C149.243 19.4349 149.25 19.4451 149.246 19.4554L149.151 19.9027C149.148 19.913 149.138 19.9198 149.128 19.9164L148.516 19.773Z" fill="#5E5E5D"/>
<path d="M150.223 20.3022L149.611 20.1588C149.536 20.1417 149.486 20.0632 149.503 19.9812L149.598 19.5339C149.615 19.4553 149.69 19.4041 149.769 19.4212L150.381 19.5646C150.457 19.5817 150.506 19.6602 150.49 19.7422L150.394 20.1895C150.375 20.2715 150.299 20.3227 150.223 20.3022Z" fill="#585857"/>
<path d="M149.638 20.0359C149.628 20.0325 149.621 20.0222 149.625 20.012L149.72 19.5646C149.723 19.5544 149.733 19.5476 149.743 19.551L150.355 19.6944C150.365 19.6978 150.371 19.7081 150.368 19.7183L150.273 20.1657C150.269 20.1759 150.26 20.1827 150.25 20.1793L149.638 20.0359Z" fill="#5E5E5D"/>
<path d="M151.345 20.5652L150.733 20.4217C150.658 20.4047 150.608 20.3261 150.625 20.2442L150.72 19.7968C150.737 19.7183 150.812 19.667 150.891 19.6841L151.503 19.8275C151.579 19.8446 151.628 19.9232 151.612 20.0051L151.516 20.4525C151.496 20.5344 151.421 20.5822 151.345 20.5652Z" fill="#585857"/>
<path d="M150.759 20.2989C150.75 20.2954 150.743 20.2852 150.746 20.275L150.842 19.8276C150.845 19.8174 150.855 19.8105 150.865 19.8139L151.476 19.9574C151.486 19.9608 151.493 19.971 151.49 19.9813L151.394 20.4286C151.391 20.4389 151.381 20.4457 151.371 20.4423L150.759 20.2989Z" fill="#5E5E5D"/>
<path d="M152.466 20.8281L151.855 20.6847C151.779 20.6676 151.73 20.5891 151.746 20.5071L151.841 20.0598C151.858 19.9812 151.934 19.93 152.013 19.9471L152.624 20.0905C152.7 20.1076 152.749 20.1861 152.733 20.2681L152.638 20.7154C152.618 20.794 152.542 20.8452 152.466 20.8281Z" fill="#585857"/>
<path d="M151.881 20.5583C151.871 20.5549 151.865 20.5447 151.868 20.5344L151.963 20.0871C151.966 20.0768 151.976 20.07 151.986 20.0734L152.598 20.2168C152.608 20.2202 152.615 20.2305 152.611 20.2407L152.516 20.6881C152.513 20.6983 152.503 20.7052 152.493 20.7017L151.881 20.5583Z" fill="#5E5E5D"/>
<path d="M153.588 21.0876L152.976 20.9441C152.901 20.9271 152.851 20.8485 152.868 20.7666L152.963 20.3192C152.98 20.2407 153.055 20.1894 153.134 20.2065L153.746 20.3499C153.822 20.367 153.871 20.4456 153.855 20.5275L153.759 20.9749C153.74 21.0568 153.664 21.1081 153.588 21.0876Z" fill="#585857"/>
<path d="M153.003 20.8213C152.993 20.8178 152.986 20.8076 152.99 20.7974L153.085 20.35C153.088 20.3398 153.098 20.3329 153.108 20.3363L153.72 20.4798C153.73 20.4832 153.736 20.4934 153.733 20.5037L153.638 20.951C153.634 20.9613 153.624 20.9681 153.615 20.9647L153.003 20.8213Z" fill="#5E5E5D"/>
<path d="M154.71 21.3505L154.098 21.2071C154.023 21.19 153.973 21.1115 153.99 21.0295L154.085 20.5822C154.102 20.5036 154.177 20.4524 154.256 20.4695L154.868 20.6129C154.944 20.63 154.993 20.7085 154.977 20.7905L154.881 21.2378C154.861 21.3198 154.786 21.3676 154.71 21.3505Z" fill="#585857"/>
<path d="M154.125 21.0845C154.115 21.0811 154.108 21.0708 154.111 21.0606L154.207 20.6132C154.21 20.603 154.22 20.5961 154.23 20.5996L154.842 20.743C154.852 20.7464 154.858 20.7566 154.855 20.7669L154.759 21.2142C154.756 21.2245 154.746 21.2313 154.736 21.2279L154.125 21.0845Z" fill="#5E5E5D"/>
<path d="M155.829 21.6135L155.217 21.47C155.141 21.453 155.092 21.3744 155.108 21.2925L155.204 20.8451C155.22 20.7666 155.296 20.7153 155.375 20.7324L155.986 20.8758C156.062 20.8929 156.111 20.9715 156.095 21.0534L156 21.5008C155.983 21.5793 155.907 21.6305 155.829 21.6135Z" fill="#585857"/>
<path d="M155.246 21.3439C155.237 21.3405 155.23 21.3303 155.233 21.32L155.329 20.8727C155.332 20.8624 155.342 20.8556 155.352 20.859L155.964 21.0024C155.973 21.0058 155.98 21.0161 155.977 21.0263L155.881 21.4737C155.878 21.4839 155.868 21.4908 155.858 21.4873L155.246 21.3439Z" fill="#5E5E5D"/>
<path d="M139.506 17.9598L140.263 18.1373C140.348 18.1578 140.404 18.2466 140.384 18.3388L140.217 19.1106C140.197 19.1994 140.111 19.2574 140.023 19.237L139.266 19.0594C139.181 19.0389 139.125 18.9501 139.144 18.8579L139.312 18.0861C139.332 17.9973 139.417 17.9393 139.506 17.9598Z" fill="#585857"/>
<path d="M139.296 18.9327C139.276 18.9293 139.263 18.9054 139.266 18.8849L139.434 18.1131C139.437 18.0926 139.46 18.079 139.48 18.0824L140.237 18.26C140.256 18.2634 140.269 18.2873 140.266 18.3078L140.098 19.0796C140.095 19.1001 140.072 19.1137 140.052 19.1103L139.296 18.9327Z" fill="#5E5E5D"/>
<path d="M140.799 18.2634L141.555 18.441C141.641 18.4615 141.697 18.5502 141.677 18.6424L141.509 19.4142C141.489 19.503 141.404 19.5611 141.315 19.5406L140.559 19.363C140.473 19.3425 140.417 19.2537 140.437 19.1615L140.605 18.3897C140.624 18.2975 140.71 18.2429 140.799 18.2634Z" fill="#585857"/>
<path d="M140.588 19.2367C140.568 19.2332 140.555 19.2093 140.559 19.1889L140.726 18.4171C140.73 18.3966 140.753 18.3829 140.772 18.3863L141.529 18.5639C141.549 18.5673 141.562 18.5912 141.559 18.6117L141.391 19.3835C141.388 19.404 141.365 19.4177 141.345 19.4142L140.588 19.2367Z" fill="#5E5E5D"/>
<path d="M142.092 18.5641L142.848 18.7417C142.934 18.7622 142.99 18.851 142.97 18.9432L142.802 19.715C142.783 19.8038 142.697 19.8618 142.608 19.8413L141.852 19.6638C141.766 19.6433 141.71 19.5545 141.73 19.4623L141.898 18.6905C141.918 18.6017 142.006 18.5437 142.092 18.5641Z" fill="#585857"/>
<path d="M141.881 19.5371C141.861 19.5337 141.848 19.5098 141.852 19.4893L142.019 18.7175C142.023 18.697 142.046 18.6834 142.065 18.6868L142.822 18.8644C142.842 18.8678 142.855 18.8917 142.852 18.9122L142.684 19.684C142.681 19.7044 142.658 19.7181 142.638 19.7147L141.881 19.5371Z" fill="#5E5E5D"/>
<path d="M143.384 18.8646L144.141 19.0422C144.226 19.0627 144.282 19.1515 144.263 19.2437L144.095 20.0154C144.075 20.1042 143.99 20.1623 143.901 20.1418L143.144 19.9642C143.059 19.9437 143.003 19.8549 143.023 19.7627L143.19 18.9909C143.21 18.9022 143.299 18.8441 143.384 18.8646Z" fill="#585857"/>
<path d="M143.174 19.841C143.154 19.8376 143.141 19.8137 143.145 19.7932L143.312 19.0215C143.316 19.001 143.339 18.9873 143.358 18.9907L144.115 19.1683C144.135 19.1717 144.148 19.1956 144.145 19.2161L143.977 19.9879C143.973 20.0084 143.95 20.022 143.931 20.0186L143.174 19.841Z" fill="#5E5E5D"/>
<path d="M144.677 19.1687L145.434 19.3463C145.519 19.3668 145.575 19.4556 145.555 19.5478L145.388 20.3196C145.368 20.4083 145.282 20.4664 145.194 20.4459L144.437 20.2683C144.351 20.2478 144.296 20.1591 144.315 20.0669L144.483 19.2951C144.506 19.2029 144.592 19.1482 144.677 19.1687Z" fill="#585857"/>
<path d="M144.467 20.1417C144.447 20.1383 144.434 20.1144 144.437 20.0939L144.605 19.3222C144.608 19.3017 144.631 19.288 144.651 19.2914L145.407 19.469C145.427 19.4724 145.44 19.4963 145.437 19.5168L145.269 20.2886C145.266 20.3091 145.243 20.3227 145.223 20.3193L144.467 20.1417Z" fill="#5E5E5D"/>
<path d="M145.97 19.4692L146.727 19.6468C146.812 19.6673 146.868 19.7561 146.848 19.8483L146.681 20.6201C146.661 20.7089 146.575 20.7669 146.487 20.7464L145.73 20.5689C145.644 20.5484 145.588 20.4596 145.608 20.3674L145.776 19.5956C145.799 19.5068 145.885 19.4488 145.97 19.4692Z" fill="#585857"/>
<path d="M145.759 20.4424C145.74 20.439 145.726 20.4151 145.73 20.3946L145.898 19.6229C145.901 19.6024 145.924 19.5887 145.944 19.5921L146.7 19.7697C146.72 19.7731 146.733 19.797 146.73 19.8175L146.562 20.5893C146.559 20.6098 146.536 20.6234 146.516 20.62L145.759 20.4424Z" fill="#5E5E5D"/>
<path d="M147.263 19.7728L148.02 19.9504C148.105 19.9709 148.161 20.0597 148.141 20.1519L147.974 20.9237C147.954 21.0125 147.868 21.0705 147.779 21.05L147.023 20.8725C146.937 20.852 146.881 20.7632 146.901 20.671L147.069 19.8992C147.092 19.807 147.178 19.7524 147.263 19.7728Z" fill="#585857"/>
<path d="M147.052 20.7461C147.032 20.7427 147.019 20.7188 147.022 20.6983L147.19 19.9266C147.194 19.9061 147.217 19.8924 147.236 19.8958L147.993 20.0734C148.013 20.0768 148.026 20.1007 148.022 20.1212L147.855 20.893C147.851 20.9135 147.828 20.9271 147.809 20.9237L147.052 20.7461Z" fill="#5E5E5D"/>
<path d="M148.559 20.0736L149.316 20.2512C149.401 20.2717 149.457 20.3605 149.437 20.4527L149.269 21.2245C149.25 21.3132 149.164 21.3713 149.075 21.3508L148.319 21.1732C148.233 21.1527 148.177 21.064 148.197 20.9718L148.365 20.2C148.385 20.1112 148.47 20.0531 148.559 20.0736Z" fill="#585857"/>
<path d="M148.345 21.0468C148.325 21.0434 148.312 21.0195 148.315 20.999L148.483 20.2272C148.486 20.2068 148.51 20.1931 148.529 20.1965L149.286 20.3741C149.306 20.3775 149.319 20.4014 149.315 20.4219L149.148 21.1937C149.144 21.2142 149.121 21.2278 149.102 21.2244L148.345 21.0468Z" fill="#5E5E5D"/>
<path d="M149.851 20.3738L150.608 20.5514C150.694 20.5719 150.749 20.6607 150.73 20.7529L150.562 21.5246C150.542 21.6134 150.457 21.6715 150.368 21.651L149.611 21.4734C149.526 21.4529 149.47 21.3641 149.49 21.2719L149.657 20.5002C149.677 20.4114 149.763 20.3533 149.851 20.3738Z" fill="#585857"/>
<path d="M149.641 21.3505C149.621 21.3471 149.608 21.3232 149.612 21.3027L149.779 20.5309C149.783 20.5104 149.806 20.4968 149.825 20.5002L150.582 20.6778C150.602 20.6812 150.615 20.7051 150.612 20.7256L150.444 21.4974C150.441 21.5179 150.418 21.5315 150.398 21.5281L149.641 21.3505Z" fill="#5E5E5D"/>
<path d="M151.144 20.6779L151.901 20.8555C151.986 20.876 152.042 20.9648 152.023 21.057L151.855 21.8288C151.835 21.9176 151.75 21.9756 151.661 21.9551L150.904 21.7775C150.819 21.7571 150.763 21.6683 150.783 21.5761L150.95 20.8043C150.97 20.7121 151.056 20.6574 151.144 20.6779Z" fill="#585857"/>
<path d="M150.934 21.6512C150.914 21.6478 150.901 21.6239 150.904 21.6034L151.072 20.8316C151.075 20.8111 151.098 20.7975 151.118 20.8009L151.874 20.9785C151.894 20.9819 151.907 21.0058 151.904 21.0263L151.736 21.7981C151.733 21.8185 151.71 21.8322 151.69 21.8288L150.934 21.6512Z" fill="#5E5E5D"/>
<path d="M152.437 20.9785L153.194 21.156C153.279 21.1765 153.335 21.2653 153.316 21.3575L153.148 22.1293C153.128 22.2181 153.042 22.2761 152.954 22.2556L152.2 22.0781C152.115 22.0576 152.059 21.9688 152.079 21.8766L152.246 21.1048C152.263 21.016 152.348 20.958 152.437 20.9785Z" fill="#585857"/>
<path d="M152.227 21.9519C152.207 21.9485 152.194 21.9246 152.197 21.9041L152.365 21.1323C152.368 21.1118 152.391 21.0982 152.411 21.1016L153.167 21.2792C153.187 21.2826 153.2 21.3065 153.197 21.327L153.026 22.0987C153.023 22.1192 153 22.1329 152.98 22.1295L152.227 21.9519Z" fill="#5E5E5D"/>
<path d="M153.73 21.2826L154.486 21.4601C154.572 21.4806 154.628 21.5694 154.608 21.6616L154.44 22.4334C154.421 22.5222 154.335 22.5802 154.246 22.5598L153.49 22.3822C153.404 22.3617 153.348 22.2729 153.368 22.1807L153.536 21.4089C153.555 21.3167 153.644 21.2621 153.73 21.2826Z" fill="#585857"/>
<path d="M153.52 22.2558C153.5 22.2524 153.487 22.2285 153.49 22.208L153.658 21.4363C153.661 21.4158 153.684 21.4021 153.704 21.4055L154.46 21.5831C154.48 21.5865 154.493 21.6104 154.49 21.6309L154.322 22.4027C154.319 22.4232 154.296 22.4368 154.276 22.4334L153.52 22.2558Z" fill="#5E5E5D"/>
<path d="M155.022 21.5828L155.779 21.7604C155.864 21.7809 155.92 21.8697 155.901 21.9619L155.733 22.7337C155.713 22.8225 155.628 22.8805 155.539 22.86L154.782 22.6825C154.697 22.662 154.641 22.5732 154.66 22.481L154.832 21.7092C154.848 21.6204 154.937 21.5624 155.022 21.5828Z" fill="#585857"/>
<path d="M154.812 22.5563C154.792 22.5529 154.779 22.529 154.782 22.5085L154.95 21.7367C154.954 21.7162 154.977 21.7026 154.996 21.706L155.753 21.8835C155.773 21.887 155.786 21.9109 155.782 21.9314L155.615 22.7031C155.611 22.7236 155.588 22.7373 155.569 22.7339L154.812 22.5563Z" fill="#5E5E5D"/>
<path d="M139.233 19.2095L139.989 19.3871C140.075 19.4076 140.131 19.4964 140.111 19.5886L139.943 20.3604C139.924 20.4492 139.838 20.5072 139.749 20.4867L138.993 20.3091C138.907 20.2887 138.851 20.1999 138.871 20.1077L139.042 19.3359C139.062 19.2471 139.147 19.189 139.233 19.2095Z" fill="#585857"/>
<path d="M139.023 20.1827C139.003 20.1793 138.99 20.1554 138.993 20.1349L139.161 19.3632C139.164 19.3427 139.187 19.329 139.207 19.3324L139.963 19.51C139.983 19.5134 139.996 19.5373 139.993 19.5578L139.825 20.3296C139.822 20.3501 139.799 20.3637 139.779 20.3603L139.023 20.1827Z" fill="#5E5E5D"/>
<path d="M140.529 19.5134L141.286 19.691C141.371 19.7115 141.427 19.8003 141.408 19.8925L141.24 20.6642C141.22 20.753 141.135 20.8111 141.046 20.7906L140.289 20.613C140.204 20.5925 140.148 20.5037 140.168 20.4115L140.335 19.6398C140.355 19.5476 140.441 19.4929 140.529 19.5134Z" fill="#585857"/>
<path d="M140.316 20.4867C140.296 20.4833 140.283 20.4594 140.286 20.4389L140.454 19.6671C140.457 19.6466 140.48 19.6329 140.5 19.6364L141.256 19.8139C141.276 19.8173 141.289 19.8413 141.286 19.8617L141.118 20.6335C141.115 20.654 141.092 20.6677 141.072 20.6643L140.316 20.4867Z" fill="#5E5E5D"/>
<path d="M141.822 19.8139L142.578 19.9915C142.664 20.012 142.72 20.1008 142.7 20.193L142.532 20.9648C142.513 21.0535 142.427 21.1116 142.338 21.0911L141.582 20.9135C141.496 20.893 141.44 20.8043 141.46 20.712L141.628 19.9403C141.648 19.8515 141.733 19.7934 141.822 19.8139Z" fill="#585857"/>
<path d="M141.612 20.7871C141.592 20.7837 141.579 20.7598 141.582 20.7393L141.75 19.9675C141.753 19.947 141.776 19.9334 141.796 19.9368L142.552 20.1144C142.572 20.1178 142.585 20.1417 142.582 20.1622L142.414 20.934C142.411 20.9545 142.388 20.9681 142.368 20.9647L141.612 20.7871Z" fill="#5E5E5D"/>
<path d="M143.114 20.1144L143.871 20.2919C143.956 20.3124 144.012 20.4012 143.993 20.4934L143.825 21.2652C143.805 21.354 143.72 21.412 143.631 21.3916L142.874 21.214C142.789 21.1935 142.733 21.1047 142.753 21.0125L142.92 20.2407C142.94 20.1519 143.026 20.0939 143.114 20.1144Z" fill="#585857"/>
<path d="M142.904 21.0878C142.884 21.0844 142.871 21.0605 142.875 21.04L143.042 20.2682C143.046 20.2477 143.069 20.2341 143.088 20.2375L143.845 20.4151C143.865 20.4185 143.878 20.4424 143.875 20.4629L143.707 21.2347C143.703 21.2551 143.68 21.2688 143.661 21.2654L142.904 21.0878Z" fill="#5E5E5D"/>
<path d="M144.408 20.4185L145.164 20.5961C145.25 20.6165 145.306 20.7053 145.286 20.7975L145.118 21.5693C145.099 21.6581 145.013 21.7162 144.924 21.6957L144.168 21.5181C144.082 21.4976 144.026 21.4088 144.046 21.3166L144.214 20.5448C144.233 20.4526 144.322 20.398 144.408 20.4185Z" fill="#585857"/>
<path d="M144.197 21.3918C144.177 21.3884 144.164 21.3644 144.167 21.344L144.335 20.5722C144.339 20.5517 144.362 20.538 144.381 20.5414L145.138 20.719C145.158 20.7224 145.171 20.7463 145.168 20.7668L145 21.5386C144.996 21.5591 144.973 21.5728 144.954 21.5693L144.197 21.3918Z" fill="#5E5E5D"/>
<path d="M145.7 20.7188L146.457 20.8963C146.542 20.9168 146.598 21.0056 146.579 21.0978L146.411 21.8696C146.391 21.9584 146.306 22.0164 146.217 21.9959L145.46 21.8184C145.375 21.7979 145.319 21.7091 145.338 21.6169L145.506 20.8451C145.526 20.7563 145.615 20.6983 145.7 20.7188Z" fill="#585857"/>
<path d="M145.49 21.6922C145.47 21.6888 145.457 21.6649 145.46 21.6444L145.628 20.8726C145.631 20.8521 145.654 20.8385 145.674 20.8419L146.431 21.0195C146.45 21.0229 146.464 21.0468 146.46 21.0673L146.292 21.839C146.289 21.8595 146.266 21.8732 146.246 21.8698L145.49 21.6922Z" fill="#5E5E5D"/>
<path d="M146.993 21.0229L147.749 21.2005C147.835 21.2209 147.891 21.3097 147.871 21.4019L147.703 22.1737C147.684 22.2625 147.598 22.3206 147.509 22.3001L146.753 22.1225C146.667 22.102 146.611 22.0132 146.631 21.921L146.799 21.1492C146.822 21.057 146.907 21.0024 146.993 21.0229Z" fill="#585857"/>
<path d="M146.783 21.9962C146.763 21.9927 146.75 21.9688 146.753 21.9483L146.921 21.1766C146.924 21.1561 146.947 21.1424 146.967 21.1458L147.723 21.3234C147.743 21.3268 147.756 21.3507 147.753 21.3712L147.585 22.143C147.582 22.1635 147.559 22.1771 147.539 22.1737L146.783 21.9962Z" fill="#5E5E5D"/>
<path d="M148.286 21.3231L149.042 21.5007C149.128 21.5212 149.184 21.61 149.164 21.7022L148.996 22.474C148.977 22.5628 148.891 22.6208 148.802 22.6003L148.046 22.4227C147.96 22.4023 147.904 22.3135 147.924 22.2213L148.092 21.4495C148.115 21.3607 148.2 21.3026 148.286 21.3231Z" fill="#585857"/>
<path d="M148.075 22.2966C148.055 22.2932 148.042 22.2693 148.045 22.2488L148.213 21.477C148.216 21.4565 148.24 21.4428 148.259 21.4463L149.016 21.6238C149.036 21.6273 149.049 21.6512 149.045 21.6716L148.878 22.4434C148.874 22.4639 148.851 22.4776 148.832 22.4742L148.075 22.2966Z" fill="#5E5E5D"/>
<path d="M149.579 21.6238L150.335 21.8014C150.421 21.8219 150.477 21.9107 150.457 22.0029L150.289 22.7747C150.269 22.8635 150.184 22.9215 150.095 22.901L149.339 22.7235C149.253 22.703 149.197 22.6142 149.217 22.522L149.385 21.7502C149.408 21.6614 149.493 21.6034 149.579 21.6238Z" fill="#585857"/>
<path d="M149.368 22.597C149.348 22.5936 149.335 22.5697 149.338 22.5492L149.506 21.7774C149.509 21.757 149.532 21.7433 149.552 21.7467L150.309 21.9243C150.329 21.9277 150.342 21.9516 150.338 21.9721L150.171 22.7439C150.167 22.7644 150.144 22.778 150.125 22.7746L149.368 22.597Z" fill="#5E5E5D"/>
<path d="M150.871 21.9277L151.628 22.1053C151.713 22.1258 151.769 22.2145 151.749 22.3068L151.582 23.0785C151.562 23.1673 151.476 23.2254 151.388 23.2049L150.631 23.0273C150.546 23.0068 150.49 22.918 150.509 22.8258L150.677 22.054C150.7 21.9618 150.786 21.9072 150.871 21.9277Z" fill="#585857"/>
<path d="M150.661 22.901C150.641 22.8976 150.628 22.8737 150.631 22.8532L150.799 22.0814C150.802 22.0609 150.825 22.0472 150.845 22.0507L151.602 22.2282C151.622 22.2317 151.635 22.2556 151.631 22.276L151.464 23.0478C151.46 23.0683 151.437 23.082 151.418 23.0786L150.661 22.901Z" fill="#5E5E5D"/>
<path d="M152.167 22.2285L152.924 22.406C153.009 22.4265 153.065 22.5153 153.046 22.6075L152.878 23.3793C152.858 23.4681 152.773 23.5261 152.684 23.5057L151.927 23.3281C151.842 23.3076 151.786 23.2188 151.805 23.1266L151.973 22.3548C151.993 22.266 152.079 22.208 152.167 22.2285Z" fill="#585857"/>
<path d="M151.953 23.2017C151.934 23.1983 151.921 23.1744 151.924 23.1539L152.092 22.3821C152.095 22.3616 152.118 22.3479 152.138 22.3514L152.894 22.5289C152.914 22.5323 152.927 22.5562 152.924 22.5767L152.756 23.3485C152.753 23.369 152.73 23.3827 152.71 23.3793L151.953 23.2017Z" fill="#5E5E5D"/>
<path d="M153.46 22.5323L154.217 22.7099C154.302 22.7304 154.358 22.8192 154.339 22.9114L154.171 23.6832C154.151 23.772 154.066 23.83 153.977 23.8095L153.22 23.6319C153.135 23.6115 153.079 23.5227 153.098 23.4305L153.266 22.6587C153.286 22.5665 153.371 22.5118 153.46 22.5323Z" fill="#585857"/>
<path d="M153.25 23.5056C153.23 23.5022 153.217 23.4783 153.22 23.4578L153.388 22.686C153.391 22.6655 153.414 22.6519 153.434 22.6553L154.191 22.8329C154.21 22.8363 154.224 22.8602 154.22 22.8807L154.052 23.6525C154.049 23.6729 154.026 23.6866 154.006 23.6832L153.25 23.5056Z" fill="#5E5E5D"/>
<path d="M154.753 22.8329L155.51 23.0104C155.595 23.0309 155.651 23.1197 155.632 23.2119L155.464 23.9837C155.444 24.0725 155.359 24.1305 155.27 24.11L154.513 23.9325C154.428 23.912 154.372 23.8232 154.391 23.731L154.559 22.9592C154.579 22.8704 154.664 22.8124 154.753 22.8329Z" fill="#585857"/>
<path d="M154.543 23.8061C154.523 23.8026 154.51 23.7787 154.513 23.7583L154.681 22.9865C154.684 22.966 154.707 22.9523 154.727 22.9557L155.483 23.1333C155.503 23.1367 155.516 23.1606 155.513 23.1811L155.345 23.9529C155.342 23.9734 155.319 23.9871 155.299 23.9836L154.543 23.8061Z" fill="#5E5E5D"/>
<path d="M138.964 20.4593L139.72 20.6369C139.806 20.6574 139.862 20.7462 139.842 20.8384L139.674 21.6101C139.655 21.6989 139.569 21.757 139.48 21.7365L138.724 21.5589C138.638 21.5384 138.582 21.4496 138.602 21.3574L138.77 20.5857C138.793 20.4969 138.878 20.4388 138.964 20.4593Z" fill="#585857"/>
<path d="M138.753 21.4325C138.733 21.4291 138.72 21.4052 138.723 21.3847L138.891 20.6129C138.894 20.5924 138.917 20.5788 138.937 20.5822L139.694 20.7598C139.714 20.7632 139.727 20.7871 139.723 20.8076L139.556 21.5794C139.552 21.5998 139.529 21.6135 139.51 21.6101L138.753 21.4325Z" fill="#5E5E5D"/>
<path d="M140.256 20.7597L141.013 20.9373C141.098 20.9578 141.154 21.0466 141.134 21.1388L140.967 21.9106C140.947 21.9994 140.861 22.0574 140.773 22.0369L140.016 21.8593C139.931 21.8389 139.875 21.7501 139.894 21.6579L140.062 20.8861C140.085 20.7973 140.171 20.7427 140.256 20.7597Z" fill="#585857"/>
<path d="M140.046 21.7367C140.026 21.7333 140.013 21.7094 140.016 21.6889L140.184 20.9171C140.187 20.8966 140.21 20.883 140.23 20.8864L140.987 21.0639C141.007 21.0674 141.02 21.0913 141.016 21.1118L140.849 21.8835C140.845 21.904 140.822 21.9177 140.803 21.9143L140.046 21.7367Z" fill="#5E5E5D"/>
<path d="M141.549 21.0637L142.305 21.2413C142.391 21.2618 142.447 21.3505 142.427 21.4428L142.259 22.2145C142.239 22.3033 142.154 22.3614 142.065 22.3409L141.309 22.1633C141.223 22.1428 141.167 22.054 141.187 21.9618L141.355 21.19C141.378 21.1013 141.463 21.0432 141.549 21.0637Z" fill="#585857"/>
<path d="M141.338 22.0369C141.318 22.0335 141.305 22.0096 141.309 21.9891L141.476 21.2173C141.48 21.1968 141.503 21.1832 141.522 21.1866L142.279 21.3641C142.299 21.3676 142.312 21.3915 142.309 21.412L142.141 22.1837C142.138 22.2042 142.115 22.2179 142.095 22.2145L141.338 22.0369Z" fill="#5E5E5D"/>
<path d="M142.845 21.3644L143.602 21.542C143.687 21.5624 143.743 21.6512 143.723 21.7434L143.556 22.5152C143.536 22.604 143.45 22.6621 143.362 22.6416L142.605 22.464C142.519 22.4435 142.463 22.3547 142.483 22.2625L142.651 21.4907C142.671 21.4019 142.756 21.3439 142.845 21.3644Z" fill="#585857"/>
<path d="M142.631 22.3376C142.611 22.3342 142.598 22.3103 142.602 22.2898L142.769 21.518C142.773 21.4975 142.796 21.4838 142.815 21.4873L143.572 21.6648C143.592 21.6683 143.605 21.6922 143.602 21.7126L143.434 22.4844C143.431 22.5049 143.408 22.5186 143.388 22.5152L142.631 22.3376Z" fill="#5E5E5D"/>
<path d="M144.138 21.6685L144.894 21.8461C144.98 21.8666 145.036 21.9554 145.016 22.0476L144.848 22.8193C144.829 22.9081 144.743 22.9662 144.654 22.9457L143.898 22.7681C143.812 22.7476 143.756 22.6588 143.776 22.5666L143.944 21.7949C143.963 21.7027 144.049 21.648 144.138 21.6685Z" fill="#585857"/>
<path d="M143.927 22.6415C143.908 22.6381 143.894 22.6142 143.898 22.5937L144.065 21.8219C144.069 21.8014 144.092 21.7878 144.112 21.7912L144.868 21.9688C144.888 21.9722 144.901 21.9961 144.898 22.0166L144.73 22.7884C144.727 22.8089 144.704 22.8225 144.684 22.8191L143.927 22.6415Z" fill="#5E5E5D"/>
<path d="M145.431 21.9688L146.187 22.1463C146.273 22.1668 146.329 22.2556 146.309 22.3478L146.141 23.1196C146.122 23.2084 146.036 23.2664 145.947 23.246L145.191 23.0684C145.105 23.0479 145.049 22.9591 145.069 22.8669L145.237 22.0951C145.256 22.0063 145.342 21.9483 145.431 21.9688Z" fill="#585857"/>
<path d="M145.22 22.942C145.2 22.9386 145.187 22.9147 145.19 22.8942L145.358 22.1224C145.361 22.1019 145.384 22.0882 145.404 22.0916L146.161 22.2692C146.18 22.2726 146.193 22.2965 146.19 22.317L146.022 23.0888C146.019 23.1093 145.996 23.123 145.976 23.1195L145.22 22.942Z" fill="#5E5E5D"/>
<path d="M146.724 22.2692L147.48 22.4468C147.566 22.4673 147.622 22.5561 147.602 22.6483L147.434 23.42C147.415 23.5088 147.329 23.5669 147.24 23.5464L146.484 23.3688C146.398 23.3483 146.342 23.2595 146.362 23.1673L146.53 22.3956C146.549 22.3068 146.635 22.2521 146.724 22.2692Z" fill="#585857"/>
<path d="M146.513 23.2459C146.493 23.2425 146.48 23.2186 146.483 23.1981L146.651 22.4263C146.654 22.4058 146.677 22.3922 146.697 22.3956L147.454 22.5732C147.473 22.5766 147.486 22.6005 147.483 22.621L147.315 23.3928C147.312 23.4132 147.289 23.4269 147.269 23.4235L146.513 23.2459Z" fill="#5E5E5D"/>
<path d="M148.016 22.5731L148.773 22.7507C148.858 22.7711 148.914 22.8599 148.894 22.9521L148.726 23.7239C148.707 23.8127 148.621 23.8708 148.532 23.8503L147.776 23.6727C147.69 23.6522 147.634 23.5634 147.654 23.4712L147.822 22.6994C147.842 22.6072 147.93 22.5526 148.016 22.5731Z" fill="#585857"/>
<path d="M147.806 23.5464C147.786 23.5429 147.773 23.519 147.776 23.4985L147.944 22.7268C147.947 22.7063 147.97 22.6926 147.99 22.696L148.747 22.8736C148.766 22.877 148.779 22.9009 148.776 22.9214L148.608 23.6932C148.605 23.7137 148.582 23.7273 148.562 23.7239L147.806 23.5464Z" fill="#5E5E5D"/>
<path d="M149.309 22.8736L150.065 23.0512C150.151 23.0717 150.207 23.1605 150.187 23.2527L150.019 24.0244C149.999 24.1132 149.914 24.1713 149.825 24.1508L149.069 23.9732C148.983 23.9527 148.927 23.8639 148.947 23.7717L149.115 23C149.134 22.9112 149.223 22.8531 149.309 22.8736Z" fill="#585857"/>
<path d="M149.098 23.8468C149.078 23.8434 149.065 23.8195 149.069 23.799L149.236 23.0272C149.24 23.0067 149.263 22.9931 149.282 22.9965L150.039 23.1741C150.059 23.1775 150.072 23.2014 150.069 23.2219L149.898 23.9936C149.894 24.0141 149.871 24.0278 149.852 24.0244L149.098 23.8468Z" fill="#5E5E5D"/>
<path d="M150.602 23.1775L151.358 23.355C151.444 23.3755 151.5 23.4643 151.48 23.5565L151.312 24.3283C151.292 24.4171 151.207 24.4751 151.118 24.4547L150.362 24.2771C150.276 24.2566 150.22 24.1678 150.24 24.0756L150.408 23.3038C150.431 23.2116 150.516 23.157 150.602 23.1775Z" fill="#585857"/>
<path d="M150.391 24.1507C150.371 24.1473 150.358 24.1268 150.361 24.1029L150.529 23.3312C150.532 23.3107 150.555 23.297 150.575 23.3004L151.332 23.478C151.351 23.4814 151.365 23.5053 151.361 23.5258L151.194 24.2976C151.19 24.3181 151.167 24.3317 151.148 24.3283L150.391 24.1507Z" fill="#5E5E5D"/>
<path d="M151.895 23.4782L152.651 23.6558C152.737 23.6763 152.793 23.7651 152.773 23.8573L152.605 24.6291C152.585 24.7179 152.5 24.7759 152.411 24.7554L151.654 24.5779C151.569 24.5574 151.513 24.4686 151.533 24.3764L151.701 23.6046C151.724 23.5158 151.809 23.4578 151.895 23.4782Z" fill="#585857"/>
<path d="M151.684 24.4514C151.664 24.448 151.651 24.4241 151.654 24.4036L151.822 23.6319C151.825 23.6114 151.848 23.5977 151.868 23.6011L152.624 23.7787C152.644 23.7821 152.657 23.806 152.654 23.8265L152.486 24.5983C152.483 24.6188 152.46 24.6324 152.44 24.629L151.684 24.4514Z" fill="#5E5E5D"/>
<path d="M153.187 23.7787L153.944 23.9563C154.029 23.9768 154.085 24.0655 154.065 24.1577L153.898 24.9295C153.878 25.0183 153.792 25.0764 153.704 25.0559L152.947 24.8783C152.861 24.8578 152.806 24.769 152.825 24.6768L152.993 23.905C153.016 23.8163 153.102 23.7582 153.187 23.7787Z" fill="#585857"/>
<path d="M152.977 24.7554C152.957 24.752 152.944 24.7281 152.947 24.7076L153.115 23.9358C153.118 23.9153 153.141 23.9016 153.161 23.9051L153.917 24.0826C153.937 24.0861 153.95 24.11 153.947 24.1305L153.779 24.8988C153.776 24.9193 153.753 24.933 153.733 24.9295L152.977 24.7554Z" fill="#5E5E5D"/>
<path d="M154.483 24.0826L155.24 24.2601C155.325 24.2806 155.381 24.3694 155.361 24.4616L155.194 25.2334C155.174 25.3222 155.088 25.3802 154.999 25.3597L154.243 25.1822C154.157 25.1617 154.101 25.0729 154.121 24.9807L154.289 24.2089C154.309 24.1167 154.394 24.0621 154.483 24.0826Z" fill="#585857"/>
<path d="M154.269 25.0558C154.249 25.0524 154.236 25.0285 154.24 25.008L154.407 24.2362C154.411 24.2158 154.434 24.2021 154.453 24.2055L155.21 24.3831C155.23 24.3865 155.243 24.4104 155.24 24.4309L155.072 25.2027C155.068 25.2232 155.045 25.2368 155.026 25.2334L154.269 25.0558Z" fill="#5E5E5D"/>
<path d="M138.693 21.7093L139.45 21.8869C139.536 21.9074 139.591 21.9962 139.572 22.0884L139.404 22.8602C139.384 22.9489 139.299 23.007 139.21 22.9865L138.453 22.8089C138.368 22.7884 138.312 22.6997 138.332 22.6075L138.499 21.8357C138.519 21.7469 138.608 21.6888 138.693 21.7093Z" fill="#585857"/>
<path d="M138.483 22.6825C138.463 22.6791 138.45 22.6552 138.454 22.6347L138.621 21.8629C138.625 21.8424 138.648 21.8288 138.667 21.8322L139.424 22.0098C139.444 22.0132 139.457 22.0371 139.454 22.0576L139.286 22.8294C139.283 22.8499 139.26 22.8635 139.24 22.8601L138.483 22.6825Z" fill="#5E5E5D"/>
<path d="M139.986 22.0098L140.743 22.1873C140.829 22.2078 140.884 22.2966 140.865 22.3888L140.697 23.1606C140.677 23.2494 140.592 23.3074 140.503 23.287L139.746 23.1094C139.661 23.0889 139.605 23.0001 139.625 22.9079L139.792 22.1361C139.812 22.0473 139.901 21.9893 139.986 22.0098Z" fill="#585857"/>
<path d="M139.776 22.983C139.756 22.9796 139.743 22.9557 139.747 22.9352L139.914 22.1634C139.918 22.1429 139.941 22.1292 139.96 22.1326L140.717 22.3102C140.737 22.3136 140.75 22.3375 140.747 22.358L140.579 23.1298C140.576 23.1503 140.553 23.164 140.533 23.1605L139.776 22.983Z" fill="#5E5E5D"/>
<path d="M141.279 22.3136L142.036 22.4912C142.121 22.5117 142.177 22.6005 142.158 22.6927L141.99 23.4645C141.97 23.5533 141.885 23.6113 141.796 23.5908L141.039 23.4132C140.954 23.3928 140.898 23.304 140.918 23.2118L141.089 22.44C141.108 22.3478 141.194 22.2931 141.279 22.3136Z" fill="#585857"/>
<path d="M141.069 23.2867C141.049 23.2832 141.036 23.2593 141.039 23.2389L141.207 22.4671C141.21 22.4466 141.233 22.4329 141.253 22.4363L142.009 22.6139C142.029 22.6173 142.042 22.6412 142.039 22.6617L141.871 23.4335C141.868 23.454 141.845 23.4677 141.825 23.4642L141.069 23.2867Z" fill="#5E5E5D"/>
<path d="M142.572 22.6144L143.328 22.792C143.414 22.8125 143.47 22.9013 143.45 22.9935L143.282 23.7652C143.263 23.854 143.177 23.9121 143.088 23.8916L142.332 23.714C142.246 23.6935 142.19 23.6047 142.21 23.5125L142.378 22.7408C142.401 22.652 142.486 22.5939 142.572 22.6144Z" fill="#585857"/>
<path d="M142.362 23.5876C142.342 23.5842 142.329 23.5603 142.332 23.5398L142.5 22.768C142.503 22.7475 142.526 22.7339 142.546 22.7373L143.302 22.9149C143.322 22.9183 143.335 22.9422 143.332 22.9627L143.164 23.7344C143.161 23.7549 143.138 23.7686 143.118 23.7652L142.362 23.5876Z" fill="#5E5E5D"/>
<path d="M148.499 23.9973L143.858 22.9148C143.772 22.8943 143.69 22.9489 143.67 23.0377L143.49 23.8675C143.476 23.929 143.513 23.9905 143.572 24.0041L148.256 25.0969C148.342 25.1174 148.43 25.0594 148.45 24.9706L148.618 24.1988C148.641 24.11 148.588 24.0178 148.499 23.9973Z" fill="#585857"/>
<path d="M143.618 23.8811L143.796 23.0649C143.799 23.0478 143.819 23.0342 143.835 23.041L148.477 24.1235C148.496 24.1269 148.509 24.1509 148.506 24.1713L148.338 24.9431C148.335 24.9636 148.312 24.9773 148.292 24.9739L143.618 23.8811Z" fill="#5E5E5D"/>
<path d="M149.039 24.1236L149.796 24.3012C149.882 24.3217 149.937 24.4105 149.918 24.5027L149.75 25.2745C149.73 25.3633 149.645 25.4213 149.556 25.4008L148.799 25.2232C148.714 25.2028 148.658 25.114 148.678 25.0218L148.845 24.25C148.865 24.1612 148.951 24.1031 149.039 24.1236Z" fill="#585857"/>
<path d="M148.829 25.0968C148.809 25.0934 148.796 25.0695 148.799 25.049L148.967 24.2772C148.97 24.2567 148.993 24.2431 149.013 24.2465L149.769 24.4241C149.789 24.4275 149.802 24.4514 149.799 24.4719L149.631 25.2437C149.628 25.2641 149.605 25.2778 149.585 25.2744L148.829 25.0968Z" fill="#5E5E5D"/>
<path d="M150.332 24.4275L151.088 24.6051C151.174 24.6255 151.23 24.7143 151.21 24.8065L151.042 25.5783C151.023 25.6671 150.937 25.7252 150.848 25.7047L150.092 25.5271C150.006 25.5066 149.95 25.4178 149.97 25.3256L150.138 24.5538C150.158 24.4616 150.246 24.407 150.332 24.4275Z" fill="#585857"/>
<path d="M150.122 25.4008C150.102 25.3974 150.089 25.3735 150.092 25.353L150.26 24.5812C150.263 24.5607 150.286 24.547 150.306 24.5504L151.062 24.728C151.082 24.7314 151.095 24.7553 151.092 24.7758L150.924 25.5476C150.921 25.5681 150.898 25.5818 150.878 25.5783L150.122 25.4008Z" fill="#5E5E5D"/>
<path d="M151.624 24.7283L152.381 24.9058C152.466 24.9263 152.522 25.0151 152.503 25.1073L152.335 25.8791C152.315 25.9679 152.23 26.0259 152.141 26.0054L151.384 25.8279C151.299 25.8074 151.243 25.7186 151.263 25.6264L151.43 24.8546C151.45 24.7658 151.539 24.7078 151.624 24.7283Z" fill="#585857"/>
<path d="M151.414 25.7015C151.394 25.698 151.381 25.6741 151.385 25.6537L151.552 24.8819C151.556 24.8614 151.579 24.8477 151.598 24.8511L152.355 25.0287C152.375 25.0321 152.388 25.056 152.385 25.0765L152.217 25.8483C152.213 25.8688 152.194 25.8825 152.171 25.879L151.414 25.7015Z" fill="#5E5E5D"/>
<path d="M152.917 25.0285L153.674 25.206C153.759 25.2265 153.815 25.3153 153.796 25.4075L153.628 26.1793C153.608 26.2681 153.523 26.3261 153.434 26.3056L152.677 26.1281C152.592 26.1076 152.536 26.0188 152.555 25.9266L152.723 25.1548C152.746 25.066 152.832 25.008 152.917 25.0285Z" fill="#585857"/>
<path d="M152.707 26.0019C152.687 25.9985 152.674 25.9746 152.677 25.9541L152.845 25.1823C152.848 25.1618 152.871 25.1482 152.891 25.1516L153.647 25.3292C153.667 25.3326 153.68 25.3565 153.677 25.377L153.509 26.1487C153.506 26.1692 153.483 26.1829 153.463 26.1795L152.707 26.0019Z" fill="#5E5E5D"/>
<path d="M154.21 25.3326L154.967 25.5101C155.052 25.5306 155.108 25.6194 155.089 25.7116L154.921 26.4834C154.901 26.5722 154.816 26.6302 154.727 26.6098L153.97 26.4322C153.885 26.4117 153.829 26.3229 153.848 26.2307L154.016 25.4589C154.039 25.3667 154.125 25.3121 154.21 25.3326Z" fill="#585857"/>
<path d="M154 26.3058C153.98 26.3024 153.967 26.2785 153.97 26.258L154.138 25.4863C154.142 25.4658 154.165 25.4521 154.184 25.4555L154.941 25.6331C154.961 25.6365 154.974 25.6604 154.97 25.6809L154.803 26.4527C154.799 26.4732 154.776 26.4868 154.757 26.4834L154 26.3058Z" fill="#5E5E5D"/>
<path d="M148.266 26.1759L144.47 25.2915C144.299 25.2505 144.128 25.3632 144.092 25.5407L143.634 27.6478C143.595 27.8253 143.703 28.0029 143.874 28.0405L147.671 28.925C147.842 28.9659 148.013 28.8532 148.049 28.6757L148.506 26.5686C148.546 26.3911 148.437 26.2169 148.266 26.1759Z" fill="#EDEDED"/>
<path d="M148.296 26.0495L144.5 25.1651C144.263 25.1104 144.026 25.2641 143.973 25.51L143.516 27.617C143.463 27.8629 143.611 28.1088 143.848 28.1634L147.644 29.0479C147.881 29.1025 148.118 28.9488 148.171 28.703L148.628 26.5959C148.68 26.3501 148.532 26.1076 148.296 26.0495ZM148.052 28.6756C148.013 28.8532 147.845 28.9659 147.674 28.9249L143.878 28.0405C143.707 27.9995 143.598 27.8253 143.638 27.6477L144.095 25.5407C144.134 25.3631 144.302 25.2505 144.473 25.2914L148.269 26.1759C148.44 26.2169 148.549 26.391 148.509 26.5686L148.052 28.6756Z" fill="#9D9B9B"/>
<path d="M143.861 26.6095L143.638 27.6477C143.598 27.8253 143.707 28.0028 143.878 28.0404L147.674 28.9249C147.845 28.9659 148.016 28.8532 148.052 28.6756L148.276 27.6374L143.861 26.6095Z" fill="#DFDFDE"/>
<path d="M146.052 27.1185L143.861 26.6063L143.638 27.6444C143.598 27.822 143.707 27.9996 143.878 28.0372L145.759 28.4777L146.052 27.1185Z" fill="#D9D9DA"/>
<path d="M157.375 20.1281L138.736 15.7775C138.628 15.7502 138.552 15.6443 138.562 15.5282L140.513 4.45695C140.539 4.15302 140.815 3.94471 141.102 4.01301L160.085 8.44561C160.371 8.5139 160.536 8.82466 160.434 9.11152L157.635 19.9813C157.595 20.0906 157.487 20.1554 157.375 20.1281Z" fill="#E3E1E1"/>
<path d="M139.375 14.7154L141.174 5.36872C141.2 5.08186 141.46 4.8838 141.73 4.94868L159.128 9.00905C159.398 9.07052 159.553 9.36762 159.457 9.6374L157.233 18.8816C157.154 19.107 156.928 19.2334 156.701 19.1822L139.733 15.2208C139.506 15.1696 139.355 14.951 139.375 14.7154Z" fill="#C7C7C6"/>
<path d="M139.5 14.729L141.299 5.37546C141.319 5.16715 141.506 5.02372 141.704 5.07153L159.108 9.13531C159.302 9.1797 159.418 9.39485 159.348 9.5895L157.118 18.8406C157.062 19.0045 156.898 19.0967 156.733 19.0591L139.756 15.0944C139.595 15.0568 139.483 14.8997 139.5 14.729Z" fill="#C6E6F2"/>
<path opacity="0.24" d="M139.769 13.8344C140.092 13.2334 140.532 12.6665 141.019 12.1952C142.282 10.9761 144.042 10.3033 145.7 9.93452C147.654 9.49741 149.842 8.60269 151.828 8.78369C154.585 9.02956 156.45 9.46668 159.062 10.399L159.348 9.58961C159.417 9.39496 159.305 9.17982 159.108 9.13543L141.703 5.07164C141.509 5.02725 141.319 5.17068 141.299 5.37557L139.529 14.391C139.588 14.1895 139.684 13.9949 139.769 13.8344Z" fill="#B6E0ED"/>
<path d="M154.674 19.4998L141.411 16.4024L141.417 16.1702L154.789 19.2915L154.674 19.4998Z" fill="#585857"/>
<path d="M150.355 6.60836C150.375 6.52299 150.457 6.46835 150.539 6.48884C150.622 6.50933 150.674 6.5947 150.655 6.68008C150.635 6.76545 150.553 6.82009 150.47 6.7996C150.388 6.78252 150.335 6.69715 150.355 6.60836Z" fill="#3C3C3B"/>
<path d="M150.398 6.61845C150.411 6.55698 150.47 6.51941 150.529 6.53307C150.589 6.54673 150.625 6.6082 150.612 6.66967C150.598 6.73114 150.539 6.7687 150.48 6.75504C150.421 6.74139 150.385 6.67992 150.398 6.61845Z" fill="#585857"/>
<path d="M150.46 6.636C150.467 6.61188 150.49 6.59464 150.513 6.60154C150.536 6.60843 150.552 6.63256 150.546 6.65669C150.539 6.68081 150.516 6.69805 150.493 6.69115C150.47 6.68426 150.454 6.66013 150.46 6.636Z" fill="#B6E0ED"/>
</g>
<path d="M29.3963 66.5238C28.5118 62.642 24.7726 60.2479 21.0536 61.1699C17.3296 62.0919 15.0328 65.9894 15.9174 69.866C16.5405 72.5901 18.5709 74.5808 21.0134 75.2042C21.1541 75.5918 21.4155 77.944 21.8829 78.6983C22.0939 79.0389 22.3603 79.0965 22.7674 79.0074C23.0941 80.2175 24.461 81.3281 25.5868 81.2181C26.3758 81.1395 26.9488 80.5738 27.2051 79.8142C27.4061 79.2222 27.5669 78.5412 27.6674 77.8811C28.2102 77.8654 28.4716 77.8078 28.4464 77.2787C28.4012 76.3619 27.4463 73.8369 27.4111 73.4492C29.145 71.7362 29.9893 69.1274 29.3963 66.5238Z" fill="#FDFFFC"/>
<path d="M25.7928 66.262C25.6872 65.8691 25.3153 65.6072 24.9233 65.7067C24.5565 65.7958 24.2801 66.2201 24.3906 66.613C24.456 66.854 24.6268 67.0478 24.8329 67.1369C24.6821 68.1532 24.4911 69.1537 24.4107 70.1805C24.3353 71.134 24.26 72.0664 24.0589 72.9937C22.9683 71.2911 21.8828 69.5938 20.6817 67.9751C21.0134 67.645 20.7621 66.9064 20.2042 67.0426C19.5458 67.205 19.7871 68.2737 20.4505 68.1113C20.4555 68.1113 20.4605 68.106 20.4656 68.1008C21.7119 69.9395 22.9332 71.8045 23.9484 73.7952C24.0589 74.01 24.3605 73.9628 24.4308 73.7428C24.7625 72.716 24.858 71.6683 24.9284 70.5944C25.0088 69.4366 25.2249 68.2999 25.3153 67.1474C25.6521 67.0321 25.8933 66.634 25.7928 66.262Z" fill="#AEB4FC"/>
<path d="M17.4246 59.9337C16.0224 59.2108 14.6152 58.4826 13.2131 57.7545C12.9216 57.6078 12.6552 58.0426 12.9467 58.205C14.3137 58.9908 15.6857 59.7713 17.0527 60.5571C17.4548 60.7876 17.8267 60.1433 17.4246 59.9337Z" fill="#808AFF"/>
<path d="M20.0633 54.3808C19.9477 54.1136 19.616 54.3075 19.6411 54.5485C19.812 56.0572 20.3497 57.5973 20.7719 59.0537C20.8774 59.4099 21.4051 59.2894 21.3197 58.9175C20.9729 57.4192 20.6714 55.79 20.0633 54.3808Z" fill="#808AFF"/>
<path d="M26.597 53.9408C26.2351 54.2708 26.014 54.7947 25.7878 55.2347C25.5516 55.6957 25.3405 56.1672 25.1395 56.6439C24.9787 57.0315 25.5968 57.2359 25.7526 56.8377C25.9386 56.3505 26.1396 55.879 26.3708 55.4128C26.5668 55.0094 26.8533 54.6165 26.9689 54.1817C27.0342 53.946 26.7628 53.7836 26.597 53.9408Z" fill="#808AFF"/>
<defs>
<clipPath id="clip0_1_2043">
<rect width="13.8068" height="17.4048" fill="white" transform="translate(145.083 39)"/>
</clipPath>
<clipPath id="clip1_1_2043">
<rect width="68.0478" height="12.2857" fill="white" transform="translate(50.2961 120.133)"/>
</clipPath>
<clipPath id="clip2_1_2043">
<rect width="31.5584" height="26.619" fill="white" transform="translate(130.178 59.7284)"/>
</clipPath>
<clipPath id="clip3_1_2043">
<rect width="34.517" height="35.8333" fill="white" transform="translate(35.0828)"/>
</clipPath>
</defs>
</svg>
