<svg width="91" height="47" viewBox="0 0 91 47" fill="none" xmlns="http://www.w3.org/2000/svg">
<g filter="url(#filter0_i_18_915)">
<rect y="1" width="91" height="43" rx="21.5" fill="url(#paint0_linear_18_915)"/>
</g>
<path d="M51.7071 13.3678C51.9286 13.0344 52.4203 13.1254 52.5199 13.5182L52.8721 14.9068C52.9126 15.0665 53.0289 15.1929 53.1795 15.241L54.4888 15.6589C54.8592 15.7771 54.9288 16.2962 54.6037 16.5171L53.4549 17.298C53.3228 17.3878 53.2442 17.5429 53.2472 17.7082L53.2733 19.1449C53.2807 19.5514 52.832 19.7812 52.5315 19.5249L51.4693 18.6189C51.3471 18.5147 51.1823 18.4842 51.0336 18.5382L49.7404 19.0083C49.3745 19.1413 49.0277 18.7642 49.167 18.3849L49.6593 17.0441C49.716 16.8899 49.6927 16.7159 49.5977 16.5841L48.7724 15.4378C48.5389 15.1135 48.7732 14.6507 49.1598 14.6726L50.5263 14.7499C50.6835 14.7588 50.8339 14.6818 50.924 14.5462L51.7071 13.3678Z" fill="url(#paint1_linear_18_915)"/>
<path d="M41.3822 6.91938C41.4362 6.83813 41.5561 6.8603 41.5804 6.95605L41.6662 7.29449C41.6761 7.33342 41.7044 7.36422 41.7411 7.37594L42.0602 7.47779C42.1505 7.50661 42.1675 7.63312 42.0882 7.68696L41.8082 7.87728C41.776 7.89917 41.7569 7.93698 41.7576 7.97725L41.764 8.32743C41.7658 8.4265 41.6564 8.48251 41.5832 8.42004L41.3243 8.19922C41.2945 8.17382 41.2544 8.16639 41.2181 8.17956L40.9029 8.29413C40.8137 8.32654 40.7292 8.23464 40.7632 8.14219L40.8832 7.8154C40.897 7.77782 40.8913 7.73541 40.8681 7.70328L40.667 7.42391C40.6101 7.34487 40.6672 7.23206 40.7614 7.2374L41.0945 7.25625C41.1328 7.25842 41.1694 7.23965 41.1914 7.20661L41.3822 6.91938Z" fill="url(#paint2_linear_18_915)"/>
<path d="M64.8142 16.8384C64.8701 16.5991 65.167 16.5377 65.305 16.7369L65.7932 17.4411C65.8493 17.5221 65.9413 17.5669 66.0365 17.5595L66.8637 17.4952C67.0977 17.4771 67.245 17.7546 67.1072 17.954L66.6203 18.6591C66.5643 18.7402 66.5522 18.8459 66.5883 18.9387L66.9021 19.7449C66.9908 19.973 66.785 20.2059 66.5618 20.1299L65.7727 19.8615C65.682 19.8307 65.5825 19.8512 65.5096 19.9159L64.8764 20.4784C64.6972 20.6376 64.4227 20.504 64.4225 20.2576L64.4218 19.3867C64.4217 19.2865 64.3723 19.1935 64.2912 19.1407L63.586 18.6821C63.3865 18.5524 63.4227 18.237 63.6458 18.1606L64.4344 17.8908C64.5251 17.8597 64.5941 17.7816 64.6168 17.6844L64.8142 16.8384Z" fill="url(#paint3_linear_18_915)"/>
<path d="M74.1695 11.2261C74.2007 11.0921 74.367 11.0577 74.4443 11.1693L74.7177 11.5637C74.7492 11.609 74.8007 11.6341 74.854 11.63L75.3173 11.594C75.4483 11.5838 75.5309 11.7392 75.4537 11.8509L75.181 12.2458C75.1496 12.2912 75.1428 12.3505 75.163 12.4024L75.3388 12.854C75.3885 12.9817 75.2732 13.1121 75.1482 13.0696L74.7063 12.9193C74.6555 12.902 74.5997 12.9135 74.5589 12.9497L74.2043 13.2648C74.1039 13.3539 73.9502 13.2791 73.9501 13.1411L73.9496 12.6533C73.9496 12.5972 73.9219 12.5451 73.8765 12.5156L73.4816 12.2587C73.3698 12.1861 73.3901 12.0094 73.515 11.9666L73.9567 11.8155C74.0075 11.7981 74.0462 11.7544 74.0589 11.6999L74.1695 11.2261Z" fill="url(#paint4_linear_18_915)"/>
<path d="M60.2503 5.71189C60.4015 5.6439 60.5593 5.79257 60.5112 5.95769L60.3414 6.54136C60.3219 6.60849 60.3368 6.68146 60.3808 6.73428L60.7636 7.19355C60.8719 7.32348 60.786 7.52701 60.6216 7.53006L60.0404 7.54083C59.9736 7.54207 59.9121 7.57949 59.8779 7.63978L59.5802 8.16396C59.496 8.31225 59.2851 8.28937 59.2315 8.12613L59.0422 7.54911C59.0204 7.48275 58.9675 7.43291 58.9024 7.41735L58.3356 7.28204C58.1753 7.24376 58.1308 7.02608 58.2621 6.92215L58.7262 6.55476C58.7796 6.51251 58.8084 6.44428 58.8024 6.37438L58.7498 5.76658C58.7349 5.59463 58.9183 5.48298 59.053 5.58198L59.5292 5.93194C59.584 5.97219 59.6546 5.97986 59.7161 5.95222L60.2503 5.71189Z" fill="url(#paint5_linear_18_915)"/>
<g filter="url(#filter1_d_18_915)">
<ellipse cx="20.4749" cy="22.5" rx="15.925" ry="16.7222" fill="url(#paint6_linear_18_915)"/>
<ellipse cx="20.4749" cy="22.5" rx="13.195" ry="13.8556" fill="url(#paint7_linear_18_915)"/>
</g>
<defs>
<filter id="filter0_i_18_915" x="0" y="1" width="91" height="49" filterUnits="userSpaceOnUse" color-interpolation-filters="sRGB">
<feFlood flood-opacity="0" result="BackgroundImageFix"/>
<feBlend mode="normal" in="SourceGraphic" in2="BackgroundImageFix" result="shape"/>
<feColorMatrix in="SourceAlpha" type="matrix" values="0 0 0 0 0 0 0 0 0 0 0 0 0 0 0 0 0 0 127 0" result="hardAlpha"/>
<feMorphology radius="3" operator="erode" in="SourceAlpha" result="effect1_innerShadow_18_915"/>
<feOffset dy="6"/>
<feGaussianBlur stdDeviation="4"/>
<feComposite in2="hardAlpha" operator="arithmetic" k2="-1" k3="1"/>
<feColorMatrix type="matrix" values="0 0 0 0 0 0 0 0 0 0 0 0 0 0 0 0 0 0 0.25 0"/>
<feBlend mode="normal" in2="shape" result="effect1_innerShadow_18_915"/>
</filter>
<filter id="filter1_d_18_915" x="0.549927" y="0.777771" width="43.85" height="45.4444" filterUnits="userSpaceOnUse" color-interpolation-filters="sRGB">
<feFlood flood-opacity="0" result="BackgroundImageFix"/>
<feColorMatrix in="SourceAlpha" type="matrix" values="0 0 0 0 0 0 0 0 0 0 0 0 0 0 0 0 0 0 127 0" result="hardAlpha"/>
<feOffset dx="2" dy="1"/>
<feGaussianBlur stdDeviation="3"/>
<feColorMatrix type="matrix" values="0 0 0 0 0 0 0 0 0 0 0 0 0 0 0 0 0 0 0.25 0"/>
<feBlend mode="normal" in2="BackgroundImageFix" result="effect1_dropShadow_18_915"/>
<feBlend mode="normal" in="SourceGraphic" in2="effect1_dropShadow_18_915" result="shape"/>
</filter>
<linearGradient id="paint0_linear_18_915" x1="46.6375" y1="2.67222" x2="45.3834" y2="43.9965" gradientUnits="userSpaceOnUse">
<stop stop-color="#2B4485"/>
<stop offset="1" stop-color="#AFCAFF"/>
</linearGradient>
<linearGradient id="paint1_linear_18_915" x1="52.2677" y1="12.5241" x2="50.7918" y2="20.4983" gradientUnits="userSpaceOnUse">
<stop stop-color="#ADDDFF"/>
<stop offset="1" stop-color="#EDF6FF" stop-opacity="0"/>
</linearGradient>
<linearGradient id="paint2_linear_18_915" x1="41.5189" y1="6.71375" x2="41.1592" y2="8.6573" gradientUnits="userSpaceOnUse">
<stop stop-color="#ADDDFF"/>
<stop offset="1" stop-color="#EDF6FF" stop-opacity="0"/>
</linearGradient>
<linearGradient id="paint3_linear_18_915" x1="64.9556" y1="16.2328" x2="65.9505" y2="21.0444" gradientUnits="userSpaceOnUse">
<stop stop-color="#ADDDFF"/>
<stop offset="1" stop-color="#EDF6FF" stop-opacity="0"/>
</linearGradient>
<linearGradient id="paint4_linear_18_915" x1="74.2486" y1="10.8869" x2="74.8059" y2="13.5818" gradientUnits="userSpaceOnUse">
<stop stop-color="#ADDDFF"/>
<stop offset="1" stop-color="#EDF6FF" stop-opacity="0"/>
</linearGradient>
<linearGradient id="paint5_linear_18_915" x1="60.6328" y1="5.53983" x2="58.3197" y2="7.995" gradientUnits="userSpaceOnUse">
<stop stop-color="#ADDDFF"/>
<stop offset="1" stop-color="#EDF6FF" stop-opacity="0"/>
</linearGradient>
<linearGradient id="paint6_linear_18_915" x1="20.4749" y1="5.77777" x2="20.4749" y2="39.2222" gradientUnits="userSpaceOnUse">
<stop stop-color="#D6E9FF"/>
<stop offset="1" stop-color="#CDE4FF"/>
</linearGradient>
<linearGradient id="paint7_linear_18_915" x1="20.4749" y1="8.64444" x2="20.4749" y2="36.3555" gradientUnits="userSpaceOnUse">
<stop stop-color="#CEE5FF"/>
<stop offset="0.9999" stop-color="#EDF6FF"/>
<stop offset="1" stop-color="#F1F9FF"/>
</linearGradient>
</defs>
</svg>
