<svg xmlns="http://www.w3.org/2000/svg" viewBox="0 0 1920 1080"><g transform="
          rotate(0 960 540) 
          translate(-0 -0)
          scale(1)
        "><rect width="1920" height="1080" fill="rgb(184, 171, 255)"></rect><g transform="translate(0, 0)"><path fill="rgb(131, 114, 218)" fill-opacity="1" d="M0,255.189L64,224.783C128,194.377,256,133.565,384,114.171C512,94.778,640,116.802,768,150.534C896,184.265,1024,229.703,1152,226.185C1280,222.668,1408,170.195,1536,139.347C1664,108.5,1792,99.278,1856,94.667L1920,90.056L1920,1080L1856,1080C1792,1080,1664,1080,1536,1080C1408,1080,1280,1080,1152,1080C1024,1080,896,1080,768,1080C640,1080,512,1080,384,1080C256,1080,128,1080,64,1080L0,1080Z"></path></g><g transform="translate(0, 360)"><path fill="rgb(79, 57, 180)" fill-opacity="1" d="M0,261.973L64,262.076C128,262.179,256,262.385,384,231.429C512,200.473,640,138.356,768,154.175C896,169.994,1024,263.751,1152,283.455C1280,303.159,1408,248.81,1536,214.474C1664,180.138,1792,165.814,1856,158.653L1920,151.491L1920,720L1856,720C1792,720,1664,720,1536,720C1408,720,1280,720,1152,720C1024,720,896,720,768,720C640,720,512,720,384,720C256,720,128,720,64,720L0,720Z"></path></g><g transform="translate(0, 720)"><path fill="rgb(26, 0, 143)" fill-opacity="1" d="M0,329.32L64,316.208C128,303.096,256,276.871,384,277.904C512,278.937,640,307.228,768,310.654C896,314.079,1024,292.64,1152,292.038C1280,291.437,1408,311.673,1536,291.043C1664,270.412,1792,208.915,1856,178.167L1920,147.418L1920,360L1856,360C1792,360,1664,360,1536,360C1408,360,1280,360,1152,360C1024,360,896,360,768,360C640,360,512,360,384,360C256,360,128,360,64,360L0,360Z"></path></g></g></svg>