<svg id="visual" viewBox="0 0 900 600" width="900" height="600" xmlns="http://www.w3.org/2000/svg" xmlns:xlink="http://www.w3.org/1999/xlink" version="1.1"><rect x="0" y="0" width="900" height="600" fill="#002233"></rect><path d="M0 473L21.5 461.2C43 449.3 86 425.7 128.8 421C171.7 416.3 214.3 430.7 257.2 442.3C300 454 343 463 385.8 469.2C428.7 475.3 471.3 478.7 514.2 470.3C557 462 600 442 642.8 444.8C685.7 447.7 728.3 473.3 771.2 477.3C814 481.3 857 463.7 878.5 454.8L900 446L900 601L878.5 601C857 601 814 601 771.2 601C728.3 601 685.7 601 642.8 601C600 601 557 601 514.2 601C471.3 601 428.7 601 385.8 601C343 601 300 601 257.2 601C214.3 601 171.7 601 128.8 601C86 601 43 601 21.5 601L0 601Z" fill="#0066FF" stroke-linecap="round" stroke-linejoin="miter"></path></svg>