<svg width="167" height="138" viewBox="0 0 167 138" fill="none" xmlns="http://www.w3.org/2000/svg">
<path d="M40.426 126.185C40.426 126.843 37.0697 127.372 32.9318 127.372C28.7938 127.372 25.4375 126.843 25.4375 126.185C25.4375 125.528 28.7938 124.998 32.9318 124.998C37.0697 124.998 40.426 125.528 40.426 126.185Z" fill="#FDF9E7"/>
<path d="M57.2079 138.005C71.876 138.005 83.7668 136.118 83.7668 133.791C83.7668 131.464 71.876 129.578 57.2079 129.578C42.5398 129.578 30.6489 131.464 30.6489 133.791C30.6489 136.118 42.5398 138.005 57.2079 138.005Z" fill="#F05D48"/>
<path d="M125.933 136.563C143.391 136.563 157.544 134.319 157.544 131.55C157.544 128.781 143.391 126.537 125.933 126.537C108.475 126.537 94.3218 128.781 94.3218 131.55C94.3218 134.319 108.475 136.563 125.933 136.563Z" fill="#F05D48"/>
<path d="M85.3832 128.116C104.851 128.116 120.633 125.614 120.633 122.527C120.633 119.441 104.851 116.938 85.3832 116.938C65.9152 116.938 50.1332 119.441 50.1332 122.527C50.1332 125.614 65.9152 128.116 85.3832 128.116Z" fill="#F05D48"/>
<path d="M165.678 121.295C165.678 122.721 158.378 123.883 149.369 123.883C140.364 123.883 133.06 122.726 133.06 121.295C133.06 119.868 140.36 118.707 149.369 118.707C158.374 118.707 165.678 119.863 165.678 121.295Z" fill="#F05D48"/>
<path d="M24.877 113.469C16.4818 111.258 8.60775 103.703 4.45653 94.8792C0.309729 86.0554 -1.29776 75.4129 1.16205 65.7842C3.61746 56.1555 10.4714 47.8718 18.9814 45.7881C29.3373 43.251 39.7816 49.8332 47.691 57.9488C50.9237 61.2654 53.9709 64.9131 57.7114 67.4196C61.4563 69.921 66.1419 71.1539 70.1341 69.2281C74.9257 66.9152 77.3855 60.9342 79.7172 55.5849C85.4583 42.4104 92.9923 30.0714 102.92 20.7841C112.848 11.4916 125.314 5.4087 138.095 5.45964C146.057 5.49021 154.369 8.14447 159.915 14.7317C166.946 23.0817 168.174 36.1136 166.076 47.4999C163.978 58.8862 159.072 69.274 155.172 80.0082C151.273 90.7424 148.314 102.557 150.403 113.943L24.877 113.469Z" fill="#F05D48"/>
<path d="M78.127 43.241C80.5559 38.6407 82.6624 33.7346 83.5943 28.4617C84.8131 21.5637 83.7709 14.2836 79.6285 8.90375C73.7903 1.32815 61.7739 -2.26351 53.5421 1.51664C50.1505 3.07558 47.2049 6.34628 46.4276 10.4576C45.1072 17.4167 49.7088 23.4385 52.5617 28.9916C54.0941 31.977 55.2379 35.4515 55.3483 38.9514C55.4499 42.2934 53.6348 45.3807 54.0765 48.7533C54.3238 50.6485 55.313 52.345 56.5937 53.5728C59.3935 56.2576 63.3505 57.2358 66.8613 56.2016C72.2888 54.607 75.4067 48.3967 78.127 43.241Z" fill="#F05D48"/>
<path d="M65.6913 22.4198H5.43244C5.31762 22.4198 5.22046 22.5268 5.22046 22.6644V77.2321C5.22046 77.3646 5.3132 77.4767 5.43244 77.4767H65.6913C65.8062 77.4767 65.9033 77.3697 65.9033 77.2321V22.6644C65.9033 22.5319 65.8062 22.4198 65.6913 22.4198ZM47.4216 49.7062H41.8086V43.4145H47.4216V49.7062ZM47.8455 43.4145H53.4585V49.7062H47.8455V43.4145ZM35.3521 50.1953V56.4871H29.7391V50.1953H35.3521ZM29.7391 49.7062V43.4145H35.3521V49.7062H29.7391ZM35.7761 50.1953H41.389V56.4871H35.7761V50.1953ZM35.7761 49.7062V43.4145H41.389V49.7062H35.7761ZM41.8086 42.9305V36.6387H47.4216V42.9305H41.8086ZM41.389 42.9305H35.7761V36.6387H41.389V42.9305ZM35.3521 42.9305H29.7391V36.6387H35.3521V42.9305ZM29.3152 42.9305H23.7022V36.6387H29.3152V42.9305ZM29.3152 43.4145V49.7062H23.7022V43.4145H29.3152ZM23.2827 49.7062H17.6697V43.4145H23.2827V49.7062ZM17.2457 49.7062H11.6328V43.4145H17.2457V49.7062ZM17.2457 50.1953V56.4871H11.6328V50.1953H17.2457ZM17.6697 50.1953H23.2827V56.4871H17.6697V50.1953ZM23.7022 50.1953H29.3152V56.4871H23.7022V50.1953ZM29.3152 56.9711V63.2629H23.7022V56.9711H29.3152ZM29.7391 56.9711H35.3521V63.2629H29.7391V56.9711ZM35.7761 56.9711H41.389V63.2629H35.7761V56.9711ZM41.8086 56.9711H47.4216V63.2629H41.8086V56.9711ZM41.8086 56.482V50.1953H47.4216V56.4871H41.8086V56.482ZM47.8455 50.1953H53.4585V56.4871H47.8455V50.1953ZM53.878 50.1953H59.491V56.4871H53.878V50.1953ZM53.878 49.7062V43.4145H59.491V49.7062H53.878ZM53.878 42.9305V36.6387H59.491V42.9305H53.878ZM53.4585 42.9305H47.8455V36.6387H53.4585V42.9305ZM47.8455 36.1496V29.863H53.4585V36.1547H47.8455V36.1496ZM47.4216 36.1496H41.8086V29.863H47.4216V36.1496ZM41.389 36.1496H35.7761V29.863H41.389V36.1496ZM35.3521 36.1496H29.7391V29.863H35.3521V36.1496ZM29.3152 36.1496H23.7022V29.863H29.3152V36.1496ZM23.2827 36.1496H17.6697V29.863H23.2827V36.1496ZM23.2827 36.6387V42.9305H17.6697V36.6387H23.2827ZM17.2457 42.9305H11.6328V36.6387H17.2457V42.9305ZM11.2088 42.9305H5.64441V36.6387H11.2088V42.9305ZM11.2088 43.4145V49.7062H5.64441V43.4145H11.2088ZM11.2088 50.1953V56.4871H5.64441V50.1953H11.2088ZM11.2088 56.9711V63.2629H5.64441V56.9711H11.2088ZM11.6328 56.9711H17.2457V63.2629H11.6328V56.9711ZM17.6697 56.9711H23.2827V63.2629H17.6697V56.9711ZM23.2827 63.7468V70.0386H17.6697V63.7468H23.2827ZM23.7022 63.7468H29.3152V70.0386H23.7022V63.7468ZM29.7391 63.7468H35.3521V70.0386H29.7391V63.7468ZM35.7761 63.7468H41.389V70.0386H35.7761V63.7468ZM41.8086 63.7468H47.4216V70.0386H41.8086V63.7468ZM47.8455 63.7468H53.4585V70.0386H47.8455V63.7468ZM47.8455 63.2629V56.9711H53.4585V63.2629H47.8455ZM53.878 56.9711H59.491V63.2629H53.878V56.9711ZM59.915 56.9711H65.4794V63.2629H59.915V56.9711ZM59.915 56.482V50.1953H65.4794V56.4871H59.915V56.482ZM59.915 49.7062V43.4145H65.4794V49.7062H59.915ZM59.915 42.9305V36.6387H65.4794V42.9305H59.915ZM59.915 36.1496V29.863H65.4794V36.1547H59.915V36.1496ZM59.491 36.1496H53.878V29.863H59.491V36.1496ZM53.878 29.3739V22.9089H59.491V29.3739H53.878ZM53.4585 29.3739H47.8455V22.9089H53.4585V29.3739ZM47.4216 29.3739H41.8086V22.9089H47.4216V29.3739ZM41.389 29.3739H35.7761V22.9089H41.389V29.3739ZM35.3521 29.3739H29.7391V22.9089H35.3521V29.3739ZM29.3152 29.3739H23.7022V22.9089H29.3152V29.3739ZM23.2827 29.3739H17.6697V22.9089H23.2827V29.3739ZM17.2457 29.3739H11.6328V22.9089H17.2457V29.3739ZM17.2457 29.863V36.1547H11.6328V29.863H17.2457ZM11.2088 36.1496H5.64441V29.863H11.2088V36.1496ZM5.64441 63.7468H11.2088V70.0386H5.64441V63.7468ZM11.6328 63.7468H17.2457V70.0386H11.6328V63.7468ZM17.2457 70.5277V76.9927H11.6328V70.5277H17.2457ZM17.6697 70.5277H23.2827V76.9927H17.6697V70.5277ZM23.7022 70.5277H29.3152V76.9927H23.7022V70.5277ZM29.7391 70.5277H35.3521V76.9927H29.7391V70.5277ZM35.7761 70.5277H41.389V76.9927H35.7761V70.5277ZM41.8086 70.5277H47.4216V76.9927H41.8086V70.5277ZM47.8455 70.5277H53.4585V76.9927H47.8455V70.5277ZM53.878 70.5277H59.491V76.9927H53.878V70.5277ZM53.878 70.0386V63.7468H59.491V70.0386H53.878ZM59.915 63.7468H65.4794V70.0386H59.915V63.7468ZM65.4794 29.3739H59.915V22.9089H65.4794V29.3739ZM11.2088 22.9089V29.3739H5.64441V22.9089H11.2088ZM5.64441 70.5277H11.2088V76.9927H5.64441V70.5277ZM59.915 76.9927V70.5277H65.4794V76.9927H59.915Z" fill="#E7DFC2"/>
<path d="M30.0746 38.0247C30.0746 38.0247 31.4215 51.8972 38.1032 54.312L50.3979 50.3331C50.3979 50.3331 43.0582 46.4358 42.3074 38.0247H30.0746Z" fill="#FEDEA6"/>
<path d="M23.7025 50.8478C23.7025 50.8478 22.6779 66.641 17.5905 69.3869L8.22815 64.8579C8.22815 64.8579 13.819 60.4256 14.3887 50.8478H23.7025Z" fill="#F7F4E3"/>
<path d="M55.3186 26.9829L47.1304 29.7296L49.9638 40.9709L58.1521 38.2242L55.3186 26.9829Z" fill="#F7F4E3"/>
<path d="M54.8929 28.0969L48.0107 30.4055L49.8405 37.6649L56.7227 35.3564L54.8929 28.0969Z" fill="#FDFDFD"/>
<path d="M32.0506 61.0836L25.7516 59.0922L23.6985 67.7345L29.9975 69.7259L32.0506 61.0836Z" fill="#D2CDB8"/>
<path d="M31.3883 61.6132L26.0944 59.9395L24.7673 65.5258L30.0612 67.1995L31.3883 61.6132Z" fill="#E7DFC2"/>
<path d="M130.923 56.721C130.026 56.721 129.126 56.7159 128.229 56.7159C127.787 56.7159 127.364 57.1643 127.386 57.689C127.408 58.2188 127.757 58.6621 128.229 58.6621C129.126 58.6621 130.026 58.6672 130.923 58.6672C131.365 58.6672 131.789 58.2188 131.766 57.6941C131.744 57.1694 131.395 56.7261 130.923 56.721Z" fill="#CCC6AD"/>
<path d="M157.292 82.5762C149.024 74.0988 140.757 65.6266 132.49 57.1493C131.276 55.9062 129.478 57.9644 130.702 59.2125L155.503 84.6395C156.713 85.8876 158.51 83.8294 157.292 82.5762Z" fill="#CCC6AD"/>
<path d="M161.01 118.549H158.626C156.44 117.825 152.951 117.362 149.016 117.362C145.081 117.362 141.597 117.83 139.406 118.549H137.022C136.911 119.287 137.022 120.322 137.022 120.322C137.022 121.957 142.392 123.282 149.012 123.282C155.636 123.282 161.002 121.957 161.002 120.322C161.227 119.226 161.01 118.549 161.01 118.549Z" fill="#CCC6AD"/>
<path d="M161.011 118.549C161.011 120.184 155.645 121.514 149.025 121.514C142.401 121.514 137.035 120.184 137.035 118.549C137.035 116.919 142.405 115.589 149.025 115.589C149.506 115.589 149.979 115.594 150.443 115.61C150.871 115.625 151.291 115.64 151.706 115.666C157.036 115.961 161.011 117.148 161.011 118.549Z" fill="#E7DFC2"/>
<path d="M151.705 115.66L150.464 118.126L150.442 118.167V115.609C150.866 115.624 151.29 115.635 151.705 115.66Z" fill="#E7DFC2"/>
<path d="M155.49 83.2281L148.001 117.387C147.599 119.211 150.041 119.99 150.443 118.161C152.938 106.775 155.437 95.3888 157.933 84.0025C158.334 82.1786 155.892 81.4043 155.49 83.2281Z" fill="#E7DFC2"/>
<path d="M157.848 81.9342C149.581 73.4569 141.314 64.9846 133.047 56.5073C131.832 55.2642 130.035 57.3224 131.258 58.5757L156.06 84.0026C157.27 85.2457 159.067 83.1875 157.848 81.9342Z" fill="#E7DFC2"/>
<path d="M107.438 56.7163C107.438 56.7163 114.672 43.1291 124.035 49.6043C133.397 56.0795 126.419 69.8399 126.419 69.8399L107.438 56.7163Z" fill="#E7DFC2"/>
<path d="M126.418 69.8451C125.897 70.8487 122.58 69.7024 118.504 67.2468C117.626 66.717 116.711 66.126 115.784 65.4841C114.857 64.8422 113.973 64.1901 113.156 63.5482C109.358 60.5577 106.921 57.7251 107.442 56.7215C107.928 55.7892 110.838 56.7164 114.534 58.8357C115.656 59.4776 116.857 60.2316 118.08 61.0824C119.304 61.9281 120.443 62.7891 121.468 63.6348C124.815 66.3859 126.9 68.9077 126.418 69.8451Z" fill="#C1B894"/>
<path d="M121.459 63.6245C121.119 65.3618 119.979 66.7526 118.504 67.2417C118.129 67.369 117.727 67.4352 117.312 67.4352C115.263 67.4352 113.554 65.7642 113.152 63.5379C113.094 63.2119 113.063 62.8705 113.063 62.5241C113.063 61.0416 113.629 59.7221 114.53 58.8255C115.651 59.4674 116.853 60.2214 118.076 61.0722C119.295 61.9229 120.434 62.7839 121.459 63.6245Z" fill="#FAC978"/>
<path d="M131.647 55.1776C128.931 55.1776 128.927 60.048 131.647 60.048C134.363 60.048 134.367 55.1776 131.647 55.1776Z" fill="#E7DFC2"/>
<path d="M131.647 56.6089C130.53 56.6089 130.525 58.6162 131.647 58.6162C132.769 58.6162 132.769 56.6089 131.647 56.6089Z" fill="#E7DFC2"/>
<path d="M156.48 80.3242C152.987 80.3242 152.982 86.5854 156.48 86.5854C159.973 86.5854 159.977 80.3242 156.48 80.3242Z" fill="#E7DFC2"/>
<path d="M156.479 82.1886C155.066 82.1886 155.061 84.7257 156.479 84.7257C157.892 84.7257 157.897 82.1886 156.479 82.1886Z" fill="#E7DFC2"/>
<path d="M40.4175 111.916H25.4467C25.4467 111.916 25.0404 122.238 29.5316 125.896C29.9026 126.196 30.3663 126.354 30.8388 126.354H32.9321H35.0254C35.4979 126.354 35.9616 126.196 36.3326 125.896C40.8238 122.243 40.4175 111.916 40.4175 111.916Z" fill="#536969"/>
<path d="M40.426 111.921C40.426 112.226 37.9795 112.491 34.685 112.558C34.1241 112.573 33.5324 112.578 32.9274 112.578C32.4107 112.578 31.9116 112.573 31.4214 112.563C28.0077 112.507 25.4375 112.237 25.4375 111.921C25.4375 111.63 27.6147 111.381 30.6221 111.294C31.3464 111.274 32.1236 111.264 32.9318 111.264C33.5677 111.264 34.186 111.269 34.7733 111.284C38.0192 111.355 40.426 111.615 40.426 111.921Z" fill="#405050"/>
<path d="M42.5639 114.942C41.769 113.836 40.4794 113.638 39.3091 113.684C38.2272 113.724 38.2228 115.67 39.3091 115.63C40.1615 115.599 41.0756 115.625 41.5128 116.603C41.9191 117.499 41.8484 118.666 41.451 119.553C40.5015 121.692 38.3332 122.283 36.4077 121.983C35.9573 121.911 35.5642 122.482 35.5642 122.956C35.5642 123.542 35.9528 123.857 36.4077 123.929C38.4833 124.25 40.7665 123.592 42.1885 121.723C43.5928 119.873 43.9947 116.934 42.5639 114.942Z" fill="#536969"/>
<path opacity="0.5" d="M37.1539 106.098C36.019 107.412 34.7957 108.915 34.7604 110.774C34.7559 110.983 34.7692 111.192 34.778 111.406C34.8001 111.849 34.8222 112.293 34.6941 112.68C34.1333 112.695 33.5415 112.7 32.9365 112.7C32.4198 112.7 31.9207 112.695 31.4305 112.685C31.1082 112.344 30.8344 111.895 30.6268 111.416C30.4104 110.958 30.2514 110.474 30.1543 110.041C29.9688 109.221 29.9555 108.344 30.141 107.524C30.6224 105.379 32.3005 103.627 32.2652 101.416C32.2431 99.9842 31.4924 98.7106 30.6577 97.656C29.8186 96.6065 28.8515 95.6641 28.2244 94.4312C27.1513 92.3322 27.2749 89.4844 28.5777 87.5688C29.876 85.6533 32.3005 84.8432 34.2613 85.7297C36.2265 86.6212 37.5337 89.1787 37.1893 91.5782C36.964 93.1423 36.1294 94.7419 36.6593 96.2092C36.9508 97.009 37.5867 97.5541 38.1211 98.1706C38.863 99.0366 39.4371 100.173 39.4592 101.39C39.4945 103.245 38.2889 104.783 37.1539 106.098Z" fill="#54C1BB"/>
<path d="M47.8941 114.173C47.8941 114.173 38.3684 70.6244 42.6388 65.3617C46.9093 60.0991 82.4154 57.6639 86.3061 61.7395C90.1968 65.8152 89.8832 114.117 89.8832 114.117L47.8941 114.173Z" fill="#54C1BB"/>
<path d="M86.3102 61.7393C86.191 61.6171 86.0408 61.4948 85.8642 61.3827C74.0818 60.5421 53.0254 62.9009 49.7972 66.8797C46.0081 71.5565 53.0917 106.413 54.7257 114.162L89.8829 114.116C89.8829 114.116 90.2009 65.815 86.3102 61.7393Z" fill="#8DD1CD"/>
<path d="M97.0638 77.9247C97.0638 77.9247 104.39 103.316 106.36 103.948C108.33 104.579 128.511 108.966 128.511 108.966L127.527 114.646C127.527 114.646 102.937 115.533 97.0638 110.734C91.1859 105.935 97.0638 77.9247 97.0638 77.9247Z" fill="#DDBB8F"/>
<path d="M97.0638 77.9247C97.0638 77.9247 91.1859 105.935 97.0638 110.734C99.3161 112.573 104.311 113.576 109.619 114.116L111.041 105.935L110.838 105.792L110.688 105.002C108.502 104.498 106.859 104.101 106.364 103.943C104.39 103.316 97.0638 77.9247 97.0638 77.9247Z" fill="#405050"/>
<path d="M113.13 105.563C112.181 106.719 111.54 108.156 111.182 109.659C110.825 111.162 110.736 112.726 110.803 114.274C110.812 114.443 110.661 114.626 110.511 114.667C110.361 114.708 110.202 114.672 110.048 114.646C109.893 114.621 109.725 114.611 109.593 114.702C109.46 114.794 109.385 114.972 109.244 115.039C109.063 115.12 108.868 115.003 108.687 114.927C108.294 114.758 107.857 114.794 107.438 114.758C107.018 114.728 106.559 114.601 106.316 114.224C106.139 113.954 106.113 113.602 106.091 113.271C105.989 111.732 105.901 110.102 106.532 108.721C106.934 107.845 107.597 107.127 107.941 106.225C108.109 105.787 108.193 105.313 108.422 104.911C108.648 104.508 109.076 104.182 109.5 104.289C109.853 104.381 110.101 104.743 110.445 104.855C110.759 104.951 111.085 104.829 111.408 104.788C112.088 104.702 112.697 104.972 113.13 105.563Z" fill="#536969"/>
<path d="M60.5371 114.172H97.7921C96.7499 105.827 95.7827 96.5911 95.8931 91.8022C95.9859 87.8794 97.059 77.9857 97.059 77.9857C96.6483 77.4253 87.4494 69.2078 79.9595 69.4626C67.2541 69.9007 60.7977 80.2528 60.7977 80.2528C60.7977 80.2528 61.226 87.9303 61.5396 91.9193C61.915 96.6675 61.2216 105.858 60.5371 114.172Z" fill="#F7F4E3"/>
<path d="M95.8889 92.7038C95.8889 92.3676 95.8889 92.0466 95.8977 91.7409C95.986 87.971 96.9797 78.704 97.0592 77.9755C96.6705 77.466 90.0507 71.5411 83.5015 69.8853L83.5589 77.1349C83.5589 77.1349 85.9966 94.385 87.0742 114.111H97.7878C96.8118 106.281 95.9021 97.6761 95.8889 92.7038Z" fill="#405050"/>
<path d="M84.3582 68.8463L90.2406 76.9211L85.8774 75.408L83.5545 77.1351L80.9092 69.5136L84.3582 68.8463Z" fill="#536969"/>
<path d="M60.5371 114.117H77.6013C75.8525 96.469 75.2828 79.7334 75.2828 79.7334L73.3661 70.604C65.0284 73.4264 60.7977 80.197 60.7977 80.197C60.7977 80.197 61.226 87.8745 61.5396 91.8636C61.915 96.6117 61.2216 105.797 60.5371 114.117Z" fill="#405050"/>
<path d="M95.5934 50.6075C98.4948 48.2742 100.628 44.4736 101.405 40.2401C101.652 38.9002 101.767 37.4992 101.538 36.1491C101.312 34.7991 100.707 33.5051 99.7711 32.7867C98.8348 32.0684 97.5453 32.0327 96.693 32.8784C96.1101 31.7016 94.8647 31.1718 93.7871 31.3959C92.7096 31.6201 91.7557 32.3792 90.8592 33.1586C87.3307 31.3704 83.0779 32.4046 80.3266 35.6499C77.9904 36.1135 75.8883 38.192 74.9477 40.9176C74.007 43.6432 73.9938 46.7815 74.5237 49.6956C74.9035 51.7741 75.5924 53.8578 76.8731 55.2588C78.4144 56.94 80.5739 57.3832 82.6009 57.3476C87.3263 57.261 91.6276 53.7967 95.5934 50.6075Z" fill="#405050"/>
<path d="M77.0985 47.2607C76.2373 56.8028 74.0911 73.6912 74.0911 73.6912C75.9635 77.5121 83.025 77.0282 82.8616 75.7494C82.7689 75.026 82.919 73.7676 83.2856 72.6367C83.5682 71.7604 83.9833 70.9554 84.5133 70.5275C84.7341 70.3492 85.1271 70.2932 85.635 70.2881C85.7189 70.2932 85.7631 70.2881 85.7631 70.2881C88.0992 70.3084 92.6258 71.3375 94.5999 68.077C97.0553 64.0218 97.3246 52.7322 97.0597 47.2913C96.9051 44.1785 94.5866 39.8125 89.9187 38.8649C84.213 37.7033 77.9641 37.6575 77.0985 47.2607Z" fill="#FDBCA0"/>
<path d="M77.9106 67.6285C77.9106 67.6285 79.6771 70.5681 83.2851 72.6314C83.5678 71.7551 83.9829 70.9502 84.5128 70.5222C84.7336 70.3439 85.1267 70.2879 85.6346 70.2828C84.9368 70.2624 81.4657 70.0179 77.9106 67.6285Z" fill="#F0A38B"/>
<path d="M91.2921 57.939C91.61 57.9339 91.9412 57.9441 92.2062 58.1734C92.4138 58.3517 92.5109 58.6472 92.4933 58.9427C92.4447 59.6151 91.9192 59.9921 91.3981 60.1348C91.2302 60.1806 91.1507 59.8852 91.3186 59.8393C91.716 59.7323 92.1621 59.4827 92.2239 58.963C92.2504 58.7542 92.1886 58.5402 92.0384 58.4128C91.8308 58.2396 91.5526 58.2498 91.3053 58.2498C91.1287 58.2549 91.1198 57.9441 91.2921 57.939Z" fill="#3F4553"/>
<path d="M87.9712 54.2303C87.9535 54.8009 88.2671 55.2747 88.6733 55.2899C89.0796 55.3052 89.4197 54.8569 89.4374 54.2863C89.455 53.7157 89.1415 53.2419 88.7352 53.2267C88.3289 53.2114 87.9888 53.6597 87.9712 54.2303Z" fill="#3F4553"/>
<path d="M92.8642 54.775C92.8466 55.3456 93.1601 55.8193 93.5664 55.8346C93.9727 55.8499 94.3127 55.4016 94.3304 54.831C94.3481 54.2604 94.0345 53.7866 93.6282 53.7713C93.2264 53.756 92.8819 54.2044 92.8642 54.775Z" fill="#3F4553"/>
<path d="M86.721 49.4003C87.5954 48.7736 88.7039 48.6514 89.6578 49.1354C89.7902 49.2016 89.8697 49.3748 89.8167 49.5378C89.7682 49.6907 89.6048 49.7875 89.4679 49.7212C88.7039 49.334 87.7765 49.3748 87.061 49.8893C86.9374 49.976 86.7828 49.9861 86.6812 49.8435C86.5973 49.7212 86.5973 49.492 86.721 49.4003Z" fill="#3F4553"/>
<path d="M96.0351 50.4042C95.3374 49.5279 94.2996 49.0694 93.2706 49.2375C93.1248 49.263 93.0144 49.4005 93.0277 49.5738C93.0409 49.7368 93.1734 49.8794 93.3192 49.854C94.145 49.7164 95.0282 50.0475 95.5979 50.7608C95.6951 50.883 95.8452 50.9391 95.9733 50.8321C96.0793 50.7506 96.1323 50.5315 96.0351 50.4042Z" fill="#3F4553"/>
<path d="M85.6746 56.4819C85.6437 56.92 86.2001 57.3327 86.9155 57.404C87.6353 57.4753 88.2448 57.1798 88.2757 56.7417C88.3066 56.3036 87.7502 55.8909 87.0348 55.8196C86.3149 55.7483 85.7055 56.0438 85.6746 56.4819Z" fill="#FBAD8B"/>
<path d="M93.6016 57.2917C93.5707 57.7299 94.1271 58.1425 94.8425 58.2138C95.5624 58.2852 96.1718 57.9897 96.2027 57.5516C96.2336 57.1134 95.6772 56.7008 94.9618 56.6294C94.2419 56.5581 93.6325 56.8536 93.6016 57.2917Z" fill="#FBAD8B"/>
<path d="M92.6387 63.1962C92.5548 63.7362 92.2943 64.2253 91.9366 64.587C91.8703 64.6583 91.8085 64.7143 91.7378 64.7704C91.283 65.1474 90.7177 65.3308 90.1568 65.3511C89.3354 65.3868 88.4963 65.0608 87.9046 64.4036C87.6749 64.1488 87.485 63.8483 87.3526 63.5171C87.1317 62.9924 87.0434 62.3963 87.1317 61.8257C87.1803 61.5048 87.3172 61.1634 87.5822 61.0819C87.7544 61.031 87.9222 61.0972 88.0812 61.2042C88.1651 61.2602 88.2446 61.3265 88.3197 61.3876C88.9336 61.9123 89.596 62.3912 90.3379 62.595C90.859 62.7376 91.4287 62.7275 91.9321 62.5084C92.1 62.432 92.3517 62.1773 92.5372 62.3097C92.5416 62.3148 92.5416 62.3148 92.546 62.3148C92.7403 62.488 92.6785 62.9669 92.6387 63.1962Z" fill="#4E5567"/>
<path d="M92.5321 62.3198C92.4968 62.4676 92.4306 62.6153 92.3467 62.7376C92.1612 63.0025 91.883 63.1757 91.6003 63.2827C90.6464 63.6444 89.5645 63.3591 88.7386 62.7019C88.4737 62.4879 88.2219 62.2281 88.1027 61.8766C88.032 61.6677 88.0188 61.4283 88.0762 61.2143C88.1601 61.2703 88.2396 61.3366 88.3147 61.3977C88.9285 61.9224 89.591 62.4013 90.3329 62.6051C90.854 62.7478 91.4237 62.7376 91.9271 62.5185C92.0949 62.4421 92.3467 62.1874 92.5321 62.3198Z" fill="white"/>
<path d="M91.937 64.5922C91.8708 64.6635 91.809 64.7196 91.7383 64.7756C91.2834 65.1526 90.7182 65.336 90.1573 65.3564C89.3359 65.392 88.4968 65.066 87.9051 64.4088C87.6754 64.1541 87.4855 63.8535 87.353 63.5223C87.989 63.4459 88.6381 63.4357 89.2785 63.4918C90.0425 63.558 90.8197 63.7261 91.4733 64.1795C91.6323 64.3018 91.7913 64.4343 91.937 64.5922Z" fill="#3F4553"/>
<path d="M92.4532 45.182C90.4482 45.6558 88.2357 44.6419 87.061 42.706C86.9153 43.2919 86.4913 43.7759 85.979 43.944C85.4712 44.1121 84.8882 43.9542 84.4952 43.5415C84.4157 45.4265 83.9873 47.3268 83.0467 48.8653C82.106 50.409 80.6134 51.5553 78.9838 51.703C78.0741 51.7845 77.1069 51.5349 76.4268 50.8267C75.7953 50.1644 75.4818 49.1914 75.2919 48.2336C74.837 45.9258 74.9739 43.4396 75.7997 41.2693C76.6211 39.0991 78.1447 37.265 80.0393 36.348C81.8499 35.4667 83.8814 35.4463 85.8466 35.5227C87.8692 35.6042 89.9094 35.7876 91.8305 36.5263C93.3894 37.1224 94.8688 38.1107 95.9596 39.5423C96.1716 39.8225 96.5426 40.2148 96.5381 40.6071C96.5337 40.9891 96.2997 41.4884 96.1539 41.8247C95.8139 42.6143 95.3281 43.3123 94.7452 43.8778C94.0916 44.5248 93.2967 44.9833 92.4532 45.182Z" fill="#405050"/>
<path d="M77.9461 51.825C77.2616 50.8977 76.268 50.1947 75.1816 50.2966C74.1085 50.3985 73.265 51.2391 72.9912 52.4363C72.8101 53.2412 72.8675 54.092 73 54.9123C73.1369 55.7732 73.3489 56.624 73.7066 57.3933C74.3823 58.8452 75.791 60.1698 77.3058 59.5941C79.324 58.8249 79.4609 55.9566 78.9574 53.9545C78.7631 53.2107 78.4098 52.4567 77.9461 51.825Z" fill="#FDBCA0"/>
<path d="M75.2787 52.3703C75.0933 52.2582 74.9343 52.5791 75.1153 52.6912C76.4049 53.4605 77.1247 55.1162 76.8642 56.772C76.8288 57.0063 77.138 57.1031 77.1733 56.8688C77.4603 55.0602 76.7052 53.2211 75.2787 52.3703Z" fill="#F0A38B"/>
<path d="M76.7536 54.2907C76.206 54.0309 75.601 53.9749 75.0269 54.1124C74.9429 54.1328 74.8944 54.25 74.9165 54.3417C74.9429 54.4436 75.0269 54.4894 75.1152 54.469C75.6363 54.3468 76.1795 54.413 76.6741 54.6473C76.7536 54.683 76.8508 54.6066 76.8728 54.52C76.8905 54.413 76.8331 54.3315 76.7536 54.2907Z" fill="#F0A38B"/>
<path d="M74.7753 68.8463L71.1805 70.5988L67.9788 81.0732L73.4372 77.6853L75.2875 79.7333L74.7753 68.8463Z" fill="#536969"/>
<path d="M60.8024 80.1987C60.8024 80.1987 46.6353 108.968 49.7001 113.894C52.765 118.82 80.1321 123.62 80.1321 123.62L81.2582 117.231C81.2582 117.231 61.3324 110.954 60.9217 109.156L61.4251 101.947C61.4207 101.947 63.0635 82.7714 60.8024 80.1987Z" fill="#FDBCA0"/>
<path d="M60.9172 109.154L61.4207 101.945C61.4207 101.945 63.0635 82.7694 60.8024 80.1916C60.8024 80.1916 46.6353 108.961 49.7001 113.887C50.6894 115.476 54.2223 117.056 58.5458 118.467L59.8839 117.932L62.5159 110.346C61.5753 109.862 60.9835 109.45 60.9172 109.154Z" fill="#405050"/>
<path d="M65.7176 111.187C63.5228 113.433 62.0654 116.622 61.6945 119.98C61.1159 119.99 60.5816 119.715 60.1046 119.338C59.5438 119.776 58.8019 119.679 58.135 119.562C57.8701 119.516 57.5742 119.45 57.4196 119.2C57.318 119.037 57.3004 118.828 57.2827 118.63C57.2165 117.845 57.1502 117.045 57.3136 116.281C57.4726 115.537 57.8391 114.875 58.2013 114.228C58.8284 113.112 59.4555 111.991 60.0826 110.876C60.299 110.494 60.5154 110.101 60.8289 109.826C61.1424 109.546 61.5664 109.393 61.9374 109.546C62.167 109.643 62.3525 109.842 62.5689 109.974C62.931 110.193 63.355 110.208 63.7612 110.193C64.1675 110.178 64.5827 110.132 64.9757 110.254C65.3687 110.376 65.6337 110.723 65.7176 111.187Z" fill="#536969"/>
<path d="M61.4693 84.9554C61.4119 91.186 61.2044 97.4167 60.8422 103.637C60.7407 105.405 60.6214 107.173 60.4933 108.941C60.458 109.414 61.1028 109.399 61.1381 108.925C61.5886 102.715 61.8844 96.4895 62.0302 90.2588C62.0699 88.4859 62.0964 86.713 62.1141 84.9452C62.1185 84.4612 61.4737 84.4765 61.4693 84.9554Z" fill="#A1B8B8"/>
<path d="M80.1277 123.613C80.1277 123.613 91.018 128.728 91.5126 127.683C92.0072 126.644 86.8447 124.667 86.8447 124.667C86.8447 124.667 94.0828 126.359 94.2727 125.503C94.4626 124.652 87.4983 122.522 87.4983 122.522C87.4983 122.522 95.814 124.275 95.9156 123.276C96.0171 122.278 88.5803 120.403 88.5803 120.403C88.5803 120.403 95.5667 120.862 95.6153 120.133C95.6992 118.824 81.2538 117.224 81.2538 117.224L80.1277 123.613Z" fill="#FDBCA0"/>
<path d="M82.2913 117.351C82.2913 117.351 87.8468 115.028 88.4077 115.533C88.9685 116.037 85.9567 118.579 85.9567 118.579L82.2913 117.351Z" fill="#FDBCA0"/>
<path d="M65.9032 110.519H37.1449C36.8402 110.519 36.6592 110.805 36.7431 111.156L41.7466 132.131C41.8305 132.482 42.1441 132.767 42.4488 132.767H71.207C71.5117 132.767 71.6928 132.482 71.6089 132.131L66.6053 111.156C66.5258 110.805 66.2079 110.519 65.9032 110.519Z" fill="#E7DFC2"/>
<path d="M69.449 132.513L65.2007 114.712C65.13 114.412 64.8606 114.172 64.6045 114.172H40.2006C39.9401 114.172 39.7899 114.412 39.8606 114.712L44.109 132.513C44.1045 132.502 44.1354 132.63 44.1708 132.762H69.5153L69.449 132.513Z" fill="#F7F4E3"/>
<path d="M39.2336 112.094C39.2336 112.527 38.9288 112.873 38.5579 112.873C38.1825 112.873 37.8822 112.521 37.8822 112.094C37.8822 111.666 38.1869 111.314 38.5579 111.314C38.9288 111.314 39.2336 111.666 39.2336 112.094Z" fill="#405050"/>
<path d="M38.8717 112.094C38.8717 112.292 38.7304 112.455 38.5582 112.455C38.3859 112.455 38.2446 112.292 38.2446 112.094C38.2446 111.895 38.3859 111.732 38.5582 111.732C38.7304 111.732 38.8717 111.895 38.8717 112.094Z" fill="#576E6E"/>
<path d="M64.0663 114.417H39.6624C39.4019 114.417 39.2517 114.656 39.3224 114.957L43.5707 132.757C43.5663 132.737 43.7032 133.297 43.7032 133.297H69.0433L68.9153 132.757L64.6669 114.957C64.5918 114.656 64.3268 114.417 64.0663 114.417Z" fill="#EBB254"/>
<path d="M68.9107 132.757L66.177 121.294H40.8325L43.5661 132.757C43.5617 132.737 43.6986 133.297 43.6986 133.297H69.0387L68.9107 132.757Z" fill="#FEDEA6"/>
<path d="M64.1143 136.053H38.7875L43.7115 133.297H69.0384L64.1143 136.053Z" fill="#EBB254"/>
<path d="M96.41 80.5228L148.04 70.6241C148.883 70.461 149.652 71.2252 149.647 72.2238L149.426 110.015C149.422 110.779 148.963 111.431 148.322 111.584L97.9557 123.607C96.7191 123.944 95.2485 123.037 95.2485 120.943V82.1123C95.253 81.3277 95.7432 80.6552 96.41 80.5228Z" fill="#FEDEA6"/>
<path d="M98.7462 80.4157L148.04 70.9857C148.883 70.8227 149.652 71.5818 149.647 72.5701L149.435 110.076C149.431 110.83 148.971 111.477 148.331 111.63L99.2496 123.261C98.3929 123.465 97.5891 122.711 97.5891 121.697V81.9951C97.5935 81.2054 98.0793 80.5431 98.7462 80.4157Z" fill="#FAC978"/>
<path d="M121.026 100.081L118.168 118.768L133.696 115.089L121.026 100.081Z" fill="#EBB254"/>
<path d="M120.381 134.28L113.566 131.611C112.476 131.183 112.542 129.379 113.659 129.058L125.212 125.721C125.415 125.665 125.623 125.67 125.821 125.737L132.53 128.05C133.638 128.432 133.625 130.245 132.512 130.607L121.065 134.301C120.84 134.372 120.601 134.367 120.381 134.28Z" fill="#EBB254"/>
<path d="M130.574 98.2974C130.441 97.5944 129.854 97.141 129.24 97.2683L121.971 98.7865C121.428 98.8986 121.03 99.4437 121.022 100.081L120.717 134.413L136.35 129.364L130.574 98.2974ZM128.715 124.993C126.524 125.253 124.488 122.517 124.166 118.879C123.843 115.247 125.358 112.088 127.549 111.834C129.739 111.574 131.775 114.31 132.097 117.947C132.42 121.58 130.905 124.733 128.715 124.993Z" fill="#FEDEA6"/>
<path d="M126.485 36.6536C119.088 36.6536 113.068 29.7098 113.068 21.1764C113.068 12.643 119.088 5.69914 126.485 5.69914C133.882 5.69914 139.901 12.643 139.901 21.1764C139.901 29.7098 133.882 36.6536 126.485 36.6536ZM126.485 10.0855C121.181 10.0855 116.866 15.0629 116.866 21.1815C116.866 27.3 121.181 32.2774 126.485 32.2774C131.789 32.2774 136.103 27.3 136.103 21.1815C136.103 15.0629 131.789 10.0855 126.485 10.0855Z" fill="#F5E2D5"/>
<path d="M121.459 25.0835L120.863 23.7946L125.946 20.6818L128.092 11.4148L129.315 11.7918L127.028 21.6752L121.459 25.0835Z" fill="#F5E2D5"/>
</svg>
